<svg width="154" height="158" viewBox="0 0 154 158" fill="none" xmlns="http://www.w3.org/2000/svg">
<g clip-path="url(#clip0_476_3027)">
<path fill-rule="evenodd" clip-rule="evenodd" d="M57.9475 1.54061C71.9393 -0.279968 86.1944 -2.13481 100.346 6.38907C102.943 7.95297 106.571 10.3765 109.865 13.3235C110.247 11.4531 112.063 10.2422 113.93 10.617C116.998 11.2331 119.494 13.106 121.394 14.8045C122.364 15.6728 123.283 16.5934 124.096 17.4087L124.108 17.4202C124.954 18.2686 125.672 18.9876 126.355 19.5906C131.411 24.0555 135.706 28.9084 139.967 33.722C140.147 33.9259 140.327 34.1297 140.508 34.3334C145.442 39.9056 149.231 48.0844 151.073 54.9882C159.092 85.0424 145.205 114.091 124.852 134.523C119.712 139.682 113.521 145.491 106.575 149.909C99.6269 154.328 91.6618 157.524 83.0224 157.079C72.8495 156.555 62.8432 153.229 53.8825 149.816C53.6669 149.734 53.4498 149.651 53.2313 149.568C46.0343 146.83 37.3464 143.524 30.9478 137.605C20.1418 127.608 12.3522 112.193 7.11738 99.4644C3.92833 91.7099 1.00508 82.7698 0.240194 74.0036C-0.0803665 70.3297 -0.00972399 66.4857 0.0563449 62.8905C0.0825866 61.4626 0.108107 60.0739 0.108107 58.7507C0.108107 53.3575 0.141062 47.6305 1.89052 41.813C3.1623 37.584 5.35386 33.7301 7.3127 30.2854C7.70485 29.5958 8.08766 28.9227 8.45191 28.2661C12.2357 21.4463 18.3666 15.4598 24.8036 11.4328C33.9488 5.71157 45.5018 3.13155 55.4463 1.86387C56.2791 1.75771 57.1129 1.64922 57.9475 1.54061ZM114.484 18.2211C116.646 21.0432 118.314 24.3674 118.314 27.9853C118.314 29.902 116.766 31.4557 114.857 31.4557C112.948 31.4557 111.4 29.902 111.4 27.9853C111.4 25.6926 109.692 22.7736 106.445 19.6065C103.354 16.5912 99.5309 13.9923 96.7889 12.3407C84.7533 5.09144 72.7722 6.63297 58.2736 8.49844C57.6266 8.58169 56.9746 8.66558 56.3173 8.74936C46.693 9.97623 36.3302 12.4 28.4604 17.3234C22.8578 20.8284 17.6214 26.0034 14.4923 31.6434C14.0554 32.4309 13.6238 33.1926 13.2026 33.9361C11.2592 37.3665 9.53438 40.411 8.50953 43.8189C7.09471 48.5237 7.02215 53.272 7.02215 58.7507C7.02215 60.3568 6.99331 61.9078 6.96515 63.4227C6.90128 66.8581 6.84085 70.1086 7.12787 73.398C7.80368 81.1434 10.4301 89.3311 13.5082 96.8157C18.6699 109.367 25.9937 123.583 35.6333 132.501C41.0356 137.498 48.639 140.395 56.253 143.295L56.3354 143.326C65.2038 146.704 74.3527 149.683 83.3765 150.147C90.0641 150.492 96.6015 148.036 102.875 144.046C109.15 140.055 114.9 134.697 119.963 129.615C139.324 110.179 151.539 83.563 144.394 56.784C142.75 50.6235 139.378 43.5051 135.34 38.9446C135.19 38.7756 135.041 38.607 134.892 38.4387C130.559 33.5439 126.518 28.9783 121.789 24.8019C120.931 24.0449 120.072 23.1839 119.281 22.3909L119.222 22.3318C118.385 21.4924 117.599 20.7068 116.794 19.9872C115.952 19.234 115.189 18.6477 114.484 18.2211Z" fill="black"/>
<path fill-rule="evenodd" clip-rule="evenodd" d="M60.1748 44.8916C62.0643 44.8916 63.5959 46.4518 63.5959 48.3764C63.5959 51.0853 62.9311 54.4251 61.0675 57.0535C60.9817 57.1745 60.8986 57.3176 60.6992 57.6631L60.69 57.6791C60.5272 57.9613 60.2519 58.4385 59.8969 58.8967C59.0213 60.0269 57.6073 61.098 55.4899 61.098C55.2418 61.098 54.9895 61.0991 54.7333 61.1002C51.9326 61.1121 48.6644 61.126 45.2668 59.7599C43.0423 58.8654 41.6314 57.6225 40.5225 56.1933C40.0289 55.5572 39.6015 54.8909 39.2435 54.333L39.2261 54.3058C38.844 53.7102 38.5029 53.1785 38.0936 52.6226C36.9599 51.0829 37.2663 48.8986 38.7778 47.7438C40.2893 46.589 42.4337 46.9011 43.5673 48.4408C44.1108 49.179 44.5558 49.8726 44.9172 50.4362C44.9295 50.4553 44.9416 50.4742 44.9537 50.493C45.3422 51.0987 45.6113 51.5118 45.8904 51.8716C46.343 52.4549 46.8071 52.8862 47.779 53.277C49.8717 54.1185 51.8411 54.1311 54.8021 54.1288C54.8146 54.1071 54.828 54.0837 54.8422 54.0589C54.9915 53.7993 55.2336 53.3779 55.5207 52.9729C56.2923 51.8846 56.7538 50.1249 56.7538 48.3764C56.7538 46.4518 58.2854 44.8916 60.1748 44.8916Z" fill="black"/>
<path fill-rule="evenodd" clip-rule="evenodd" d="M89.4123 47.8725C89.0547 46.0051 87.3628 44.7005 85.4951 44.9146C83.5248 45.1404 82.1051 46.9708 82.324 49.003C82.4607 50.2722 83.0447 51.3527 83.4495 52.0111C83.9119 52.7631 84.4744 53.4864 85.0135 54.1142C86.0746 55.3499 87.3203 56.5323 88.1909 57.1994C88.2414 57.238 88.296 57.2802 88.3545 57.3253C88.8266 57.6895 89.5461 58.2445 90.3101 58.6951C91.1636 59.1986 92.4656 59.8195 94.0313 59.8195C94.1251 59.8195 94.2222 59.8234 94.3924 59.8302C94.4679 59.8332 94.5577 59.8368 94.6681 59.8409C94.9688 59.852 95.3778 59.864 95.8127 59.8469C96.4957 59.8202 98.0839 59.7171 99.4264 58.652C99.9172 58.2626 100.368 57.8165 100.655 57.5331C100.694 57.4945 100.73 57.459 100.762 57.427C101.102 57.0932 101.254 56.9633 101.361 56.8899C101.961 56.4767 102.479 55.9949 102.871 55.6097C103.087 55.3967 103.375 55.1015 103.614 54.8559C103.745 54.7203 103.863 54.5999 103.945 54.5166C104.267 54.1924 104.497 53.9795 104.682 53.8347C104.766 53.7696 104.817 53.7364 104.84 53.7229C106.686 53.0552 107.677 50.9801 107.056 49.0589C106.429 47.1191 104.396 46.0708 102.516 46.7174C100.855 47.2884 99.5918 48.5515 98.9268 49.2221C98.6626 49.4885 98.4494 49.7071 98.2725 49.8885C97.8191 50.3535 97.604 50.5741 97.3786 50.7291C96.7046 51.1925 96.1597 51.7235 95.8138 52.0629C95.7721 52.1039 95.7328 52.1424 95.6958 52.1788C95.5858 52.2869 95.4954 52.3757 95.4178 52.4508C95.2832 52.4522 95.1245 52.4486 94.9256 52.4413L94.729 52.4336C94.6622 52.4309 94.5892 52.428 94.5169 52.4253C94.4112 52.4215 94.2891 52.4177 94.1614 52.416C94.113 52.3961 94.0193 52.3533 93.8741 52.2676C93.5151 52.0559 93.1588 51.7825 92.6315 51.3779C92.58 51.3384 92.5268 51.2976 92.4719 51.2555C92.0704 50.9479 91.1844 50.1327 90.3877 49.2049C89.9978 48.7509 89.6999 48.351 89.512 48.0455C89.4664 47.9712 89.4342 47.9138 89.4123 47.8725ZM89.3766 47.8001C89.3739 47.7941 89.3728 47.7911 89.3729 47.7911C89.373 47.7912 89.3743 47.7942 89.3766 47.8001Z" fill="black"/>
<path fill-rule="evenodd" clip-rule="evenodd" d="M85.4029 91.1018C87.2502 91.2642 89.0371 91.6771 90.1958 91.987C93.9804 92.9993 98.2592 94.3097 101.92 97.3194C102.013 97.3958 102.118 97.481 102.233 97.574C102.945 98.1507 104.031 99.0304 104.927 100.024C105.965 101.176 107.241 102.999 107.241 105.383C107.241 107.29 105.658 108.836 103.704 108.836C101.757 108.836 100.177 107.3 100.168 105.401C100.162 105.376 100.1 105.122 99.6164 104.585C99.1179 104.032 98.5194 103.544 97.7908 102.95C97.6532 102.838 97.5111 102.722 97.3641 102.601C94.9788 100.64 92.0314 99.6376 88.3268 98.6468C87.3594 98.3881 86.0249 98.0896 84.7685 97.9792C84.1432 97.9242 83.6217 97.9239 83.2232 97.9676C82.8879 98.0045 82.7528 98.0603 82.7451 98.0623C81.5334 98.7625 80.3167 99.5917 79.0227 100.474C78.5027 100.828 77.9701 101.191 77.4204 101.557C75.9328 102.549 74.8285 104.024 73.6061 106.097C73.3438 106.542 73.0656 107.037 72.7698 107.562C71.817 109.257 70.682 111.274 69.3122 112.994C68.3985 114.141 67.8761 115.364 67.3633 116.941C67.2521 117.283 67.1357 117.665 67.0106 118.075C66.6019 119.415 66.0994 121.063 65.3778 122.648C64.5845 124.39 62.4945 125.175 60.7096 124.4C58.9247 123.626 58.1208 121.586 58.9141 119.843C59.4347 118.7 59.7507 117.666 60.1245 116.442C60.275 115.95 60.4349 115.426 60.6212 114.853C61.232 112.974 62.0605 110.848 63.7288 108.754C64.7236 107.506 65.4622 106.194 66.3361 104.643C66.6859 104.022 67.0574 103.362 67.4756 102.653C68.8237 100.366 70.5781 97.7573 73.4313 95.8551C73.8438 95.5801 74.2906 95.2755 74.7601 94.9556C76.132 94.0204 77.6972 92.9535 79.1643 92.1072C81.2179 90.9226 83.747 90.9563 85.4029 91.1018Z" fill="black"/>
</g>
<defs>
<clipPath id="clip0_476_3027">
<rect width="154" height="158" fill="white"/>
</clipPath>
</defs>
</svg>
