<svg width="265" height="375" viewBox="0 0 265 375" fill="none" xmlns="http://www.w3.org/2000/svg">
<g clip-path="url(#clip0_588_6875)">
<path fill-rule="evenodd" clip-rule="evenodd" d="M133.593 53.3399C140.88 44.2948 148.722 36.7222 155.617 30.0634C157.264 28.473 158.857 26.9347 160.375 25.441C168.708 17.2439 179.995 7.25074 197.148 3.35722C196.049 3.60653 204.548 1.28561 209.856 0.530365C212.959 0.0888543 217.975 -0.403115 223.4 0.534585C228.755 1.45975 238.767 4.64011 244.636 15.2994C247.735 20.9266 249.329 26.6633 250.276 30.537C250.735 32.4152 251.135 34.2745 251.45 35.7331L251.518 36.0525C251.874 37.7022 252.122 38.823 252.366 39.7791C253.642 44.7913 254.759 49.3784 255.838 53.8154C257.351 60.0402 258.793 65.9695 260.51 72.3624C270.586 109.901 262.582 143.997 247.65 174.92C229.778 211.93 203.246 245.001 179.383 273.803C175.201 278.853 171.255 283.414 167.535 287.716C158.437 298.232 150.695 307.182 144.165 317.858C143.75 318.537 143.289 319.311 142.782 320.161C139.754 325.245 135.096 333.063 128.846 339.698C128.815 339.737 128.653 339.931 128.317 340.374C128.071 340.697 127.803 341.059 127.439 341.552C127.105 342.005 126.663 342.606 126.212 343.206L126.199 343.224C124.687 345.233 121.217 349.848 116.142 353.505C115.413 354.031 114.395 354.959 111.937 357.508C111.754 357.697 111.557 357.902 111.346 358.122C109.298 360.257 105.962 363.737 102.155 366.755C99.3593 368.971 94.8659 371.85 88.8117 372.946C82.0137 374.176 75.1354 372.79 69.3918 369.123C60.2413 363.278 57.3665 353.851 56.6355 351.454L56.6166 351.391C55.4503 347.57 54.8819 343.781 54.587 341.707C54.2296 339.192 54.181 338.785 54.2199 338.916C52.0093 329.551 48.9497 320.226 45.4734 309.755L45.144 308.764C41.8278 298.778 38.1401 287.675 35.3608 276.155C29.8887 253.474 27.636 231.079 26.0815 209.57C25.747 204.944 25.4582 200.292 25.1974 195.653C23.625 189.677 22.1489 183.672 20.7638 177.616C20.3917 175.99 19.92 174.474 19.1584 172.026C18.9074 171.22 18.6251 170.311 18.3045 169.266C17.2181 165.723 15.6875 160.53 14.9796 154.817C13.9732 146.693 14.4314 139.142 16.2136 132.087C16.568 121.336 18.3829 110.698 21.1727 101.852C23.3202 95.0429 25.9145 87.5651 29.5893 79.9595C32.7542 73.4095 37.3031 68.7113 39.3986 66.5467C39.469 66.4741 39.5364 66.4044 39.601 66.3375C41.6115 64.2572 42.114 63.681 42.1667 63.6377C42.1977 63.5858 42.2296 63.5326 42.2624 63.4781C44.9249 59.0452 52.9972 45.6053 62.8598 35.6014C67.4808 30.9142 75.7554 23.5106 86.8436 21.0338C93.1325 19.629 100.53 19.7834 107.874 23.0909C115.007 26.3037 120.037 31.5651 123.476 36.83C126.976 42.188 130.368 47.6798 133.593 53.3399ZM100.136 68.6273C100.136 68.6282 100.115 68.6421 100.074 68.6665C100.115 68.6386 100.136 68.6265 100.136 68.6273Z" fill="#FB0153"/>
<path fill-rule="evenodd" clip-rule="evenodd" d="M189.364 21.6342C188.657 21.9481 188.005 22.2373 187.422 22.4872C183.881 24.0038 180.161 25.1269 176.694 26.1742C175.327 26.5865 174.002 26.987 172.74 27.3952C172.34 27.5245 171.945 27.6554 171.551 27.7884C168.922 29.7607 166.59 32.0285 164.398 34.9338C161.104 39.2977 157.048 44.0075 153.06 47.8828C152.193 48.7259 151.102 49.6493 150.132 50.4709C149.605 50.9174 149.114 51.3336 148.713 51.6906C147.383 52.8746 146.394 53.9295 145.747 55.0666C139.119 66.7283 134.536 81.7338 137.319 94.6745C137.525 95.6313 137.702 96.6224 137.867 97.5982C139.278 99.5408 140.759 101.612 142.183 103.733C142.642 103.032 143.053 102.327 143.408 101.613L144.915 98.5844L150.94 101.613L149.434 104.642C148.488 106.542 147.301 108.301 146.026 109.936C146.221 110.285 146.41 110.633 146.594 110.98C147.18 112.085 147.626 112.691 147.867 112.988C147.987 113.136 148.074 113.229 148.156 113.317C148.159 113.321 148.305 113.474 148.426 113.626L148.431 113.631C148.481 113.694 148.706 113.973 148.888 114.374C148.983 114.584 149.798 116.433 148.323 118.072C147.722 118.74 147.029 118.986 146.668 119.081C146.293 119.18 145.983 119.191 145.83 119.192C145.529 119.195 145.287 119.155 145.231 119.146C145.141 119.132 145.062 119.116 145.031 119.109L144.936 119.09C144.858 119.075 144.774 119.059 144.65 119.047C144.403 119.023 143.851 119.002 142.925 119.171C142.123 119.318 140.907 119.926 139.293 121.259C137.738 122.545 136.099 124.264 134.449 126.183C132.806 128.094 131.231 130.112 129.772 131.98L129.695 132.079C128.308 133.856 126.959 135.584 125.849 136.785C120.962 142.071 116.545 147.766 112.05 153.607C111.863 153.849 111.677 154.092 111.49 154.335C107.202 159.908 102.821 165.601 97.9923 170.968C96.9381 172.14 95.3502 173.457 93.9759 174.598L93.779 174.761C92.9846 175.422 92.2433 176.041 91.5895 176.618C97.1588 176.677 103.435 177.402 109.404 179.121C115.615 180.907 121.711 183.831 126.263 188.408C127.029 189.178 127.795 189.918 128.562 190.634C131.724 190.215 134.719 189.577 137.479 188.573C138.178 188.318 139.824 187.93 141.072 187.891C141.387 187.881 141.95 187.88 142.55 188.037C142.911 188.13 144.891 188.711 145.26 190.941C145.422 191.914 145.148 192.703 144.925 193.156C144.702 193.611 144.424 193.949 144.226 194.164C143.831 194.594 143.358 194.956 142.932 195.25C142.68 195.425 142.234 195.85 141.62 196.652C141.034 197.416 140.419 198.357 139.791 199.395C139.772 199.426 139.754 199.456 139.735 199.487C140.296 199.873 140.865 200.26 141.443 200.646C142.378 201.273 142.794 202.204 142.91 202.959C143.009 203.607 142.897 204.124 142.836 204.356C142.713 204.828 142.514 205.17 142.456 205.269C142.301 205.534 142.128 205.757 142.039 205.868C141.828 206.135 141.556 206.442 141.289 206.735C140.736 207.341 139.989 208.12 139.241 208.891C138.666 209.483 138.107 210.055 137.614 210.559C136.736 211.456 136.064 212.143 135.868 212.37C131.441 217.482 127.708 222.958 124.266 228.708C123.31 230.717 122.346 232.736 121.355 234.755C118.696 240.179 116.105 245.751 113.495 251.363C108.883 261.283 104.212 271.329 98.9993 280.907C98.076 282.603 97.065 284.274 95.9844 285.894C98.3092 286.291 100.572 286.828 102.797 287.46C102.971 287.444 103.145 287.428 103.317 287.413C104.112 287.342 104.87 287.282 105.604 287.226C107.151 287.106 108.592 286.993 110.051 286.796C110.093 286.783 110.176 286.757 110.31 286.71C110.599 286.607 110.982 286.458 111.458 286.267C111.773 286.141 112.134 285.994 112.521 285.837C113.233 285.546 114.031 285.221 114.788 284.927C115.961 284.468 117.258 283.993 118.368 283.7C118.905 283.558 119.565 283.414 120.221 283.382C120.55 283.366 121.019 283.369 121.536 283.487C122.042 283.603 122.856 283.893 123.536 284.652C124.331 285.541 124.561 286.571 124.645 287.153C124.741 287.806 124.73 288.459 124.69 289.017C124.609 290.138 124.366 291.375 124.106 292.474C123.714 294.131 123.209 295.767 122.883 296.769C122.918 296.8 122.952 296.83 122.986 296.861C123.33 297.173 123.66 297.491 123.943 297.813C124.191 298.094 124.589 298.581 124.853 299.229C125.162 299.987 125.367 301.209 124.69 302.442C124.138 303.448 123.283 303.895 122.996 304.038C122.655 304.207 122.302 304.325 122.182 304.367C121.991 304.434 121.91 304.461 121.828 304.495C121.816 304.5 121.805 304.503 121.797 304.508C119.453 306.999 117.447 310.228 115.587 313.822C114.32 316.27 113.198 318.727 112.081 321.17C111.519 322.4 110.959 323.627 110.382 324.849C108.674 328.463 107.107 332.155 105.511 335.918L105.261 336.504C104.558 338.161 103.848 339.831 103.119 341.502C103.254 341.761 103.386 342.021 103.515 342.284C103.774 341.83 104.035 341.371 104.286 340.946C104.605 340.403 104.94 339.852 105.263 339.381C105.509 339.024 106.003 338.319 106.667 337.818C107.705 337.038 108.445 336.357 109.268 335.601C109.765 335.145 110.292 334.662 110.932 334.11C112.51 332.754 114.346 331.426 116.983 330.462C118.21 330.015 119.311 329.297 120.363 328.343C121.464 327.039 122.58 325.742 123.693 324.456C123.97 324.073 124.249 323.673 124.532 323.261C124.915 322.704 125.317 322.102 125.731 321.483C126.556 320.248 127.431 318.939 128.298 317.761C129.643 315.931 131.201 314.074 133.108 312.583C133.534 312.25 133.972 311.893 134.419 311.517C135.016 310.715 135.598 309.91 136.163 309.097C138.747 305.376 141.099 301.552 143.506 297.635C144.348 296.266 145.197 294.886 146.065 293.496C149.375 288.191 152.906 282.832 157.165 277.872C158.723 276.058 160.283 274.259 161.841 272.471C162.604 271.02 163.365 269.562 164.128 268.099C164.353 267.668 164.578 267.236 164.803 266.804C170.096 256.639 175.504 246.259 182.069 236.576C192.138 221.73 202.185 206.774 209.859 190.881C219.107 171.731 223.266 153.117 223.917 131.563C224.657 106.986 222.232 82.3548 219.046 57.7938C218.657 54.8053 218.368 51.6035 218.077 48.3811L218.024 47.8012C217.713 44.356 217.39 40.8755 216.931 37.4392C216.841 36.7613 216.746 36.0881 216.645 35.4205C215.292 33.4272 213.831 31.7418 212.296 30.5148C206.828 26.1504 202.067 22.5501 197.096 20.7577C195.943 20.3411 194.77 20.0206 193.567 19.8194C192.04 20.4473 190.615 21.0793 189.364 21.6342ZM204.289 16.6244C207.527 18.3931 210.617 20.6209 213.614 22.9456C213.087 21.5507 212.495 20.2207 211.823 18.9674C211.125 17.6625 210.053 16.9454 208.412 16.6349C207.251 16.4154 205.86 16.4198 204.289 16.6244ZM226.135 60.1021C229.133 83.7368 231.375 107.721 230.65 131.768C229.975 154.18 225.623 173.746 215.92 193.839C207.998 210.246 197.671 225.596 187.636 240.391C185.601 243.391 183.68 246.465 181.832 249.595C183.234 247.956 184.633 246.307 186.024 244.644C207.672 218.78 230.16 189.706 237.186 157.175C240.935 139.816 238.158 121.617 235.378 103.405C234.814 99.7146 234.252 96.0236 233.743 92.3389C233.561 91.0217 233.152 89.7224 232.611 88.1959C232.524 87.9501 232.432 87.6945 232.336 87.4306C231.873 86.1488 231.34 84.6696 230.963 83.1481C230.404 80.9031 230.076 78.6333 229.782 76.5334C229.765 76.402 229.745 76.2712 229.728 76.1411C229.448 74.1394 229.191 72.2972 228.793 70.5037C228.019 67.0102 227.105 63.5649 226.135 60.1021ZM167.425 276.343C169.635 273.811 171.865 271.278 174.1 268.739C179.842 262.212 185.617 255.65 191.179 249.005C212.739 223.245 236.345 192.992 243.769 158.612C247.809 139.907 244.784 120.214 241.988 102.004C241.437 98.4077 240.893 94.869 240.416 91.4072C240.133 89.3621 239.521 87.5148 238.956 85.922C238.845 85.6075 238.736 85.3055 238.632 85.0133C238.176 83.7451 237.785 82.6582 237.498 81.5054C237.037 79.6513 236.751 77.7116 236.454 75.5912C236.433 75.4424 236.412 75.2925 236.391 75.1417C236.121 73.1992 235.829 71.0992 235.368 69.0283C234.136 63.4791 232.562 58.0151 231.021 52.6663C230.651 51.3837 230.283 50.1077 229.922 48.8387C228.851 45.0685 227.213 40.579 225.025 36.3643C224.426 35.2078 223.774 34.0532 223.072 32.928C222.081 26.9405 220.533 20.9434 217.754 15.7565C215.917 12.324 212.904 10.5931 209.657 9.979C206.547 9.3912 203.171 9.80019 200.091 10.5251C197.565 11.1192 195.011 11.9872 192.679 12.8886C188.169 12.5096 183.382 13.386 178.199 15.9912C174.669 17.7654 171.423 19.558 168.407 21.7136C164.249 23.1808 160.029 25.0797 156.098 28.1542C155.917 28.2955 155.735 28.4379 155.551 28.5814C147.437 34.9231 136.416 43.5363 130.882 53.5508L129.247 56.511L135.136 59.8L136.771 56.8398C137.416 55.6726 138.154 54.5208 138.969 53.3853C133.898 62.7931 129.87 74.4753 129.755 86.033C123.446 75.2264 116.552 64.6264 108.517 55.0251C104.757 50.5312 101.003 46.0467 95.2219 42.7118C91.8463 40.7647 88.2429 40.1526 84.8949 39.9801C83.5813 39.9124 82.1771 39.9139 80.7951 39.9384C78.5237 38.6676 76.1467 37.5325 73.6382 36.6318C70.9227 35.6568 68.0854 35.4205 65.5082 35.3901C64.2103 35.3749 62.9205 35.4124 61.7135 35.4509C61.6061 35.4544 61.4994 35.4578 61.3936 35.4612C60.2857 35.497 59.257 35.5301 58.2619 35.5301C44.5292 35.5301 29.8881 40.7421 18.9244 48.9069C18.5166 49.2105 18.1074 49.5129 17.6977 49.8156C13.1492 53.1766 8.53422 56.5867 5.0969 62.3461C1.4899 68.3899 1.25849 74.9044 1.04826 80.823C1.02417 81.5012 1.00035 82.1718 0.971758 82.8329C0.628874 90.7613 0.656959 98.8802 0.971271 106.78C0.983076 107.077 0.99692 107.373 1.01265 107.669C0.0189014 115.855 0.0189587 124.076 0.0190193 132.72L0.0190203 132.922C0.0190203 134.512 0.0143833 136.126 0.00968849 137.76C-0.0522097 159.305 -0.124186 184.358 10.2873 204.711C12.361 208.765 14.4263 212.853 16.4983 216.952C16.9476 217.843 17.3973 218.732 17.8473 219.622C20.0369 225.512 22.4145 231.322 24.88 237.105C28.3955 245.352 32.7277 253.398 36.9733 261.284C39.4567 265.898 41.9106 270.456 44.1543 274.967C50.7332 288.196 57.5199 301.445 65.2287 314.2C70.9069 323.596 75.0689 333.208 78.8894 343.657C79.3673 344.963 79.849 346.241 80.3226 347.499C83.0319 354.692 85.4794 361.19 85.4794 368.313L85.4792 368.35C85.4781 368.609 85.4721 369.881 85.6008 370.946C85.6366 371.242 85.6922 371.607 85.7858 371.974C85.8524 372.236 86.0413 372.949 86.5559 373.61C86.8413 373.977 87.3954 374.546 88.2948 374.833C89.2825 375.149 90.2169 374.977 90.909 374.639C91.9857 374.114 92.515 373.183 92.6699 372.91L92.6718 372.907C93.9798 370.607 95.8966 368.58 98.024 366.331C98.7417 365.573 99.4836 364.789 100.234 363.96C105.771 357.849 110.846 351.304 115.835 344.869C118.114 341.93 120.376 339.014 122.655 336.173C123.502 335.117 124.365 334.072 125.243 333.029C126.677 331.67 127.9 330.152 128.982 328.663C129.231 328.375 129.48 328.088 129.73 327.8C130.561 326.842 131.398 325.875 132.239 324.895C134.656 322.083 137.078 319.194 139.347 316.194C143.692 312.438 148.551 307.227 151.864 302.549C157.771 294.205 162.72 285.27 167.425 276.343ZM101.331 352.333C99.3642 354.726 97.3515 357.084 95.2532 359.4C94.7418 359.964 94.1629 360.575 93.5468 361.224C93.003 361.797 92.4302 362.4 91.8496 363.029C90.9763 356.568 88.6843 350.522 86.5493 344.888C86.0913 343.679 85.6404 342.49 85.2123 341.319C81.3071 330.64 76.9711 320.586 70.9859 310.684C65.7277 301.983 60.8919 293.022 56.2246 283.928C56.7532 284.66 57.2814 285.391 57.8092 286.122C62.8243 293.061 67.7941 299.937 72.5013 307.034C74.2063 309.606 75.9106 312.17 77.613 314.73C81.99 321.314 86.354 327.876 90.6801 334.498C91.2944 335.439 91.9195 336.357 92.5483 337.28C92.9932 337.933 93.44 338.589 93.8863 339.259C92.8327 341.636 91.821 343.988 90.847 346.283C90.4524 347.214 90.1463 348.032 89.9326 348.742C89.7349 349.397 89.5506 350.169 89.543 350.934C89.5385 351.383 89.5851 353.635 91.7822 354.577C92.7566 354.996 93.65 354.882 94.1733 354.747C94.7023 354.609 95.1215 354.383 95.3966 354.213C96.3864 353.601 97.2839 352.569 97.9342 351.713C98.3453 351.17 98.7581 350.562 99.145 349.919C99.2669 350.282 99.4611 350.715 99.7799 351.134C100.149 351.621 100.675 352.064 101.331 352.333ZM97.1716 332.072C101.192 323.585 105.782 315.081 111.115 307.733C112.967 305.18 113.905 302.593 114.913 299.473C114.81 299.413 114.705 299.353 114.599 299.294C112.938 298.353 111.263 297.548 110.136 297.116C107.42 296.074 104.79 295.127 102.177 294.335C100.567 294.522 99.0827 294.777 97.701 295.19C97.2259 295.33 96.6453 295.385 96.3776 295.409H96.3723C95.9674 295.448 95.4745 295.481 94.9384 295.503C93.8713 295.55 92.5349 295.565 91.2599 295.498C90.1067 295.437 88.582 295.295 87.3915 294.84C86.9332 294.666 85.5658 294.108 84.8858 292.624C84.7372 292.3 84.6408 291.984 84.5859 291.68C84.2376 291.609 83.7882 291.493 83.3359 291.286C82.9244 291.099 81.7356 290.492 81.2278 289.038C80.6315 287.329 81.4377 285.958 81.9139 285.367C82.3941 284.769 82.9938 284.342 83.4641 284.046C84.4735 283.413 85.5902 282.103 86.8882 280.157C87.4172 279.364 87.923 278.551 88.4453 277.71C88.5384 277.56 88.6321 277.409 88.7265 277.257C89.3296 276.289 89.9722 275.269 90.6247 274.371C96.7126 265.983 101.472 256.865 106.378 247.468C107.199 245.893 108.024 244.312 108.861 242.727L109.076 242.318C112.042 236.69 115.023 231.034 118.315 225.516C118.493 225.139 118.672 224.764 118.851 224.386C122.453 216.797 126.183 208.938 130.671 201.719C130.732 201.621 130.796 201.516 130.862 201.406C129.319 200.222 127.809 198.997 126.314 197.698C125.43 197.78 124.549 197.848 123.673 197.908C120.976 198.087 118.276 198.176 115.676 198.257L115.152 198.273C112.721 198.347 110.387 198.419 108.14 198.554C106.866 198.63 99.1087 198.807 91.6209 198.444C87.8891 198.265 84.07 197.945 81.1106 197.374C79.6588 197.095 78.1999 196.717 77.0175 196.157C76.1369 195.74 73.9417 194.541 73.7906 191.956C73.6228 189.087 74.7191 186.449 75.8305 184.414C76.6806 182.859 77.7423 181.319 78.5783 180.107C78.8283 179.743 79.0583 179.41 79.2564 179.114C87.0697 167.441 96.2705 156.183 105.652 145.861C114.708 135.899 123.497 125.758 132.149 115.418C133.037 114.356 134.05 113.239 135.068 112.135C133.687 109.817 132.9 107.284 132.358 104.922C132.302 104.676 132.248 104.431 132.196 104.185C129.983 100.116 127.74 96.0552 125.435 92.0377C115.002 77.9297 104.365 64.6807 90.2317 54.4792C89.58 54.0089 88.9361 53.5409 88.298 53.0772C85.159 50.7961 82.1606 48.6171 79.0754 46.757C77.9375 46.7908 76.7509 46.8247 75.4539 46.8247C61.7116 46.8247 47.6717 52.5873 34.9739 59.2065C24.8327 64.4929 18.8437 75.1901 13.7474 86.3975C10.4337 93.685 8.69047 100.688 7.77343 107.894C7.98708 111.334 8.46954 114.758 8.9742 118.339C9.02606 118.707 9.07815 119.077 9.13021 119.449C9.74744 123.854 10.3541 128.487 10.3541 133.274C10.3541 152.21 12.0715 172.513 16.1695 190.865C18.1591 199.775 20.873 208.379 24.0257 216.895C28.6542 226.049 33.296 235.17 38.1778 244.144C43.8137 254.504 50.4358 264.238 57.3503 273.929C59.2728 276.624 61.223 279.323 63.1805 282.031C68.2256 289.012 73.3188 296.058 78.1066 303.278C79.8015 305.833 81.4999 308.389 83.1991 310.944C87.5815 317.536 91.969 324.134 96.3111 330.781C96.5735 331.183 96.8631 331.616 97.1716 332.072ZM7.68918 83.431C12.7684 72.2806 19.5406 59.6225 31.8729 53.1939C40.0805 48.9153 49.2466 44.7564 58.8101 42.3C58.6268 42.3017 58.4441 42.3027 58.2619 42.3027C46.0774 42.3027 32.8245 46.9838 22.9342 54.3491C22.5663 54.6231 22.2049 54.8911 21.8501 55.1544C17.1463 58.6433 13.5879 61.2827 10.8736 65.8307C8.20813 70.2968 8.02272 75.0226 7.78077 81.1901C7.75605 81.8203 7.73074 82.4655 7.70212 83.1271C7.69774 83.2283 7.69343 83.3297 7.68918 83.431ZM85.2142 182.347C85.0909 182.53 84.968 182.712 84.8454 182.895C84.549 183.338 84.2528 183.768 83.9603 184.193C83.166 185.345 82.4001 186.457 81.735 187.675C81.1791 188.693 80.8245 189.566 80.6469 190.309C81.0834 190.442 81.6565 190.584 82.3792 190.723C84.8586 191.201 88.2938 191.504 91.9436 191.68C99.2189 192.031 106.733 191.854 107.738 191.793C110.088 191.652 112.516 191.578 114.924 191.504L115.469 191.488C116.789 191.447 118.103 191.404 119.413 191.35C116.17 188.814 112.067 186.931 107.55 185.631C102.023 184.041 96.0896 183.386 90.8468 183.386C89.2833 183.386 87.879 183.268 86.7085 182.943C86.2617 182.821 85.7362 182.635 85.2142 182.347ZM79.6651 189.905C79.6696 189.905 79.7075 189.925 79.7653 189.968C79.6892 189.928 79.6604 189.907 79.6651 189.905ZM115.297 292.013C115.864 292.293 116.445 292.592 117.021 292.904C117.184 292.345 117.349 291.74 117.497 291.136C117.407 291.17 117.317 291.205 117.225 291.241C116.56 291.499 115.92 291.76 115.297 292.013Z" fill="black"/>
<path fill-rule="evenodd" clip-rule="evenodd" d="M160.296 70.6206C171.641 70.6206 180.838 79.8455 180.838 91.225C180.838 91.3195 180.843 91.5515 180.848 91.884C180.874 93.2983 180.931 96.5293 180.841 98.7133C180.712 101.82 180.278 107.096 177.908 112.487C177.894 112.527 177.873 112.588 177.845 112.672C177.785 112.851 177.718 113.058 177.612 113.391L177.588 113.466C177.495 113.757 177.367 114.158 177.232 114.565C176.715 116.128 175.559 119.565 173.226 123.085C172.635 125.26 171.869 126.915 171.442 127.793C170.645 129.434 169.767 130.868 169.038 131.966C167.67 134.028 165.908 136.288 164.116 138.092C160.435 141.797 156.482 143.891 154.388 144.958C153.844 145.235 153.318 145.494 152.923 145.689L152.907 145.696C152.47 145.911 152.174 146.057 151.894 146.199C151.41 146.445 151.249 146.543 151.244 146.546C140.499 153.425 128.028 156.278 116.684 156.32C116.621 156.323 116.524 156.329 116.387 156.338C116.361 156.339 116.333 156.341 116.301 156.343C115.873 156.371 114.93 156.431 113.922 156.445C112.835 156.46 111.102 156.438 109.093 156.128C108.259 156 107.247 155.803 106.12 155.486C101.107 154.887 97.5655 152.656 95.78 151.321C95.1788 150.871 94.6382 150.417 94.1704 149.996C93.8858 149.842 93.6196 149.701 93.3728 149.575C93.2088 149.491 93.0733 149.424 92.9651 149.371C89.6264 148.42 86.7966 146.809 84.5085 144.914C82.6213 143.351 81.3023 141.747 80.6005 140.828C73.6878 134.026 72.3503 123.045 77.9311 114.677C84.2393 105.219 96.9975 102.68 106.428 109.007C107.805 109.931 108.948 110.904 109.881 111.811C110.802 112.234 111.546 112.612 112.042 112.866C113.649 113.688 115.226 114.58 116.163 115.113C116.251 115.112 116.34 115.111 116.429 115.111C121.458 115.111 126.041 113.793 129.139 111.809C130.756 110.774 132.259 109.981 133.35 109.427C133.763 109.218 134.168 109.017 134.508 108.85C135.735 105.375 137.387 102.669 138.358 101.214C138.394 101.102 138.435 100.975 138.484 100.822L138.49 100.802C138.592 100.483 138.735 100.038 138.891 99.5712C139.106 98.9293 139.401 98.078 139.786 97.1162C139.787 97.0811 139.789 97.0441 139.791 97.005C139.813 96.4568 139.816 95.7696 139.801 94.7608C139.796 94.436 139.791 94.1597 139.785 93.8529C139.781 93.6426 139.777 93.4179 139.772 93.1535C139.763 92.5796 139.753 91.9129 139.753 91.225C139.753 79.8455 148.95 70.6206 160.296 70.6206ZM136.32 107.928C136.329 107.923 136.333 107.92 136.334 107.92C136.334 107.92 136.329 107.923 136.32 107.928ZM109.146 114.44C109.147 114.44 109.163 114.44 109.19 114.44C109.159 114.44 109.146 114.44 109.146 114.44ZM91.9024 147.668C91.8891 147.653 91.8865 147.65 91.8966 147.662L91.9024 147.668ZM109.351 155.649C109.349 155.649 109.327 155.649 109.29 155.649C109.333 155.649 109.352 155.649 109.351 155.649Z" fill="#FB0153"/>
<path fill-rule="evenodd" clip-rule="evenodd" d="M146.858 89.9792C149.057 88.22 154.507 84.3101 162.336 84.3101C173.682 84.3101 182.879 93.535 182.879 104.914C182.879 112.872 178.382 119.775 171.798 123.208C171.756 123.26 171.712 123.314 171.667 123.369L171.611 123.439C171.223 123.92 170.69 124.579 170.144 125.226C169.573 125.903 168.793 126.8 167.881 127.724C167.063 128.553 165.785 129.769 164.117 130.957C164.079 130.99 164.028 131.036 163.964 131.096C163.661 131.378 163.239 131.8 162.721 132.358C161.668 133.492 160.618 134.757 159.907 135.676C157.037 139.39 153.832 141.875 152.203 143.123C151.706 143.505 151.394 143.74 151.151 143.923C150.851 144.149 150.659 144.295 150.356 144.535C150.229 144.635 150.15 144.7 150.11 144.734C145.202 149.615 139.319 151.203 136.635 151.804C133.243 152.564 129.883 152.792 127.059 152.791C124.17 152.789 121.171 152.545 118.336 152.046C116.057 151.645 112.22 150.806 108.462 148.784C108.259 148.714 107.919 148.606 107.315 148.427C107.184 148.388 107.003 148.336 106.79 148.274C106.137 148.084 105.177 147.805 104.384 147.558C103.193 147.187 101.623 146.666 99.9332 145.95C93.6119 143.271 87.9517 138.685 84.0165 132.744C77.738 123.266 80.3089 110.477 89.7587 104.18C98.6599 98.2483 110.489 100.192 117.08 108.359C117.293 108.422 117.509 108.485 117.768 108.56C118.069 108.647 118.428 108.751 118.91 108.894L118.947 108.904C120.358 109.321 122.988 110.097 125.862 111.441C126.255 111.14 126.636 110.852 126.911 110.643C127.065 110.526 127.186 110.435 127.256 110.381C127.514 110.184 127.696 110.038 127.817 109.939C129.905 107.279 134.282 102.023 139.001 98.3423C139.194 98.1082 139.427 97.8214 139.751 97.4202L139.785 97.3782C140.186 96.882 140.733 96.2045 141.311 95.5184C142.373 94.259 144.325 92.0057 146.858 89.9792ZM138.46 98.9682C138.461 98.9641 138.511 98.9071 138.607 98.8097C138.506 98.9237 138.459 98.9724 138.46 98.9682ZM125.368 111.444C125.368 111.444 125.372 111.445 125.381 111.447C125.372 111.445 125.368 111.445 125.368 111.444ZM108.643 148.85C108.643 148.85 108.638 148.848 108.628 148.844C108.638 148.848 108.643 148.85 108.643 148.85Z" fill="#FB0153"/>
<path fill-rule="evenodd" clip-rule="evenodd" d="M150.959 92.129C154.713 88.0459 160.091 85.4883 166.065 85.4883C166.542 85.4883 167.293 85.4951 168.131 85.5513C168.142 85.552 168.157 85.5529 168.176 85.554C168.599 85.5792 171.091 85.7276 173.903 86.7146L173.906 86.7156C175.01 87.103 179.885 88.8142 183.658 93.8916C185.877 96.8783 187.522 100.802 187.718 105.335C187.905 109.668 186.712 113.172 185.546 115.501C183.494 119.598 180.62 121.884 179.894 122.461L179.894 122.461C178.776 123.349 177.8 123.936 177.347 124.2C176.528 124.677 175.785 125.034 175.533 125.154C175.173 125.415 174.611 125.852 173.566 126.689C173.5 126.741 173.432 126.796 173.361 126.853C172.072 127.887 169.799 129.708 167.17 131.326C167.078 131.382 166.986 131.438 166.897 131.493C165.821 132.757 164.393 134.147 162.535 135.412C162.502 135.435 162.468 135.457 162.435 135.48C162.28 135.663 162.116 135.852 161.943 136.043C161.604 136.421 161.186 136.864 160.689 137.344C157.607 144.821 150.264 150.081 141.697 150.081C130.352 150.081 121.154 140.856 121.154 129.477C121.154 126.619 121.659 124.216 122.198 122.414C122.334 121.958 122.479 121.524 122.619 121.13C122.928 119.297 123.515 117.14 124.624 114.897C126.817 110.461 130.174 107.389 133.672 105.485C133.886 105.253 134.114 105.015 134.356 104.774C135.237 103.894 136.458 102.813 138.023 101.775C139.999 99.8644 142.035 98.5079 142.949 97.9086C143.868 97.3054 144.957 96.6434 145.464 96.3347C145.566 96.2732 145.644 96.2258 145.693 96.1956L146.973 98.2901L145.693 96.1956C145.944 96.0409 146.368 95.7369 147.939 94.4789C148.009 94.4231 148.082 94.3644 148.159 94.303C148.849 93.7497 149.814 92.9763 150.959 92.129ZM141.396 102.974C141.496 102.956 141.554 102.948 141.558 102.948C141.562 102.948 141.512 102.956 141.396 102.974ZM147.656 143.702C147.584 143.713 147.521 143.722 147.475 143.729C147.316 143.753 147.484 143.728 147.364 143.746C147.088 143.786 147.233 143.78 147.656 143.702ZM166.065 126.697C166.101 126.697 166.096 126.698 166.058 126.697C166.06 126.697 166.063 126.697 166.065 126.697ZM164.252 126.554L156.431 113.761L164.252 126.554L174.993 125.407C174.94 125.434 174.931 125.437 174.979 125.414" fill="#FB0153"/>
<path fill-rule="evenodd" clip-rule="evenodd" d="M100.161 127.836C90.0862 129.029 82.244 137.535 82.0555 147.915C76.9055 152.15 69.8768 159.158 66.9697 169.398C66.0186 172.748 65.7033 176.254 65.6129 178.894C65.552 178.978 65.4902 179.064 65.4293 179.149C65.0883 179.624 64.6488 180.242 64.2 180.91C63.7537 181.573 63.1996 182.431 62.6424 183.412C61.9865 184.567 60.9231 186.642 60.2674 189.388C59.6277 192.068 58.9659 197.175 61.4382 202.836C67.0874 215.773 80.1891 215.464 81.3808 215.435L81.3972 215.435C84.5217 215.362 87.0751 214.631 88.1018 214.324C89.456 213.919 90.6849 213.453 91.6177 213.076C93.4902 212.32 95.3012 211.46 96.451 210.904C96.783 210.744 97.2051 210.538 97.5093 210.389C98.3173 210.104 99.1193 209.842 99.9164 209.602C96.6849 213.897 93.602 219.112 91.4856 222.692C90.7832 223.88 90.1873 224.888 89.7277 225.623C87.6907 228.879 86.7472 232.051 86.2651 234.306C85.8347 236.318 85.6588 238.152 85.5771 239.539C84.9614 240.722 84.5015 241.755 84.1729 242.515C83.5718 243.905 83.3828 244.389 83.2665 244.686C83.1702 244.933 83.1237 245.052 82.934 245.453C81.2756 248.958 79.5386 252.724 77.9052 256.742C77.9457 256.643 77.9335 256.661 77.3888 257.913C77.0071 258.79 76.4901 259.993 75.9854 261.241C75.528 262.372 74.8803 264.028 74.3738 265.67C74.1573 266.372 73.696 267.92 73.4283 269.778C73.3066 270.622 73.0577 272.599 73.3009 275.064C73.398 276.049 73.7441 279.251 75.6332 282.834C75.7288 283.206 75.8303 283.621 75.9429 284.088C75.9612 284.164 75.9813 284.247 76.0024 284.335C76.0652 284.596 76.1373 284.896 76.1993 285.149C76.2729 285.449 76.4107 286.008 76.5722 286.577C78.8679 294.664 84.3884 299.131 88.3292 301.359C88.747 301.595 89.1572 301.812 89.5476 302.009C88.7315 304.229 88.2858 306.63 88.2858 309.135C88.2858 309.885 88.3188 311.076 88.5303 312.497C88.7028 313.656 89.1946 316.456 90.8998 319.567C92.734 322.913 97.2075 328.583 105.495 330.017C112.982 331.312 118.476 328.177 120.536 326.791C124.287 324.268 126.29 321.068 126.654 320.486C126.669 320.462 126.681 320.443 126.69 320.428C127.406 319.301 127.92 318.278 128.239 317.603C128.895 316.216 129.446 314.768 129.864 313.432C129.87 313.413 129.877 313.391 129.884 313.367C130.056 312.821 130.611 311.058 130.897 308.744C130.973 308.533 131.062 308.282 131.152 308.021C131.438 307.195 131.89 305.825 132.254 304.179C132.295 303.993 132.354 303.749 132.5 303.162L132.511 303.115C132.633 302.621 132.82 301.865 132.998 301.064C133.165 300.307 133.391 299.224 133.576 297.921C134.022 296.869 134.532 295.486 134.925 293.884C135.686 290.781 135.927 287.25 135.244 283.471C133.871 275.87 129.051 271.278 125.592 269.028C122.964 267.32 120.418 266.446 118.712 265.983C119.141 265.053 119.587 264.102 120.052 263.121C120.546 262.077 120.954 261.103 121.229 260.44C121.34 260.174 121.427 259.962 121.501 259.783C121.549 259.667 121.591 259.564 121.63 259.469C122.166 258.812 122.761 258.006 123.339 257.065C124.731 254.8 126.248 251.389 126.502 247.032C126.548 246.248 126.564 245.533 126.571 244.977C126.574 244.706 126.575 244.437 126.576 244.188C127.282 243.013 127.886 241.984 128.431 241.055C130.057 238.284 131.163 236.399 132.924 234.147C134.261 232.438 135.517 230.74 136.705 229.047C141.46 229.661 146.775 229.52 150.132 228.334C153.35 226.226 157.409 221.888 158.521 220.099C159.984 217.453 160.505 215.058 160.59 214.667C160.594 214.651 160.596 214.638 160.598 214.629C160.881 213.369 160.981 212.338 160.999 212.146L161.001 212.127C161.059 211.541 161.078 211.069 161.083 210.966L161.083 210.956C161.091 210.778 161.095 210.633 161.097 210.549C161.1 210.416 161.102 210.296 161.103 210.204C161.133 209.85 161.181 209.231 161.21 208.579C161.242 207.85 161.293 206.276 161.082 204.403C161.085 204.195 161.089 203.991 161.093 203.792C161.112 202.818 161.137 202.279 161.147 202.103C161.153 202.107 161.21 201.706 161.432 199.894C161.629 198.294 161.881 196.117 162.072 193.891C162.246 191.862 162.442 189.005 162.348 186.335C162.309 185.231 162.19 182.675 161.4 179.852C161.032 178.539 160.079 175.491 157.679 172.372C154.923 168.79 149.361 164.195 141.131 164.195C135.916 164.195 131.884 166.005 129.354 167.544C128.674 167.316 127.959 167.116 127.21 166.953C129.773 165.242 132.164 163.684 134.697 162.176C134.693 162.179 134.691 162.18 134.691 162.181C134.693 162.184 134.991 162.035 136.351 161.401L136.415 161.371C137.625 160.807 139.911 159.741 142.201 158.321C146.625 155.577 156.397 148.074 155.998 134.023C155.542 117.955 141.569 112.937 137.192 111.986C132.055 110.868 125.853 111.151 120.296 113.637C117.72 114.789 115.764 116.165 114.472 117.175C113.839 117.67 113.227 118.192 112.768 118.594C110.098 119.919 108.084 121.418 107.075 122.182C106.331 122.745 105.631 123.308 105.185 123.666C105.157 123.689 105.13 123.71 105.105 123.731C104.56 124.168 104.383 124.307 104.287 124.378C102.73 125.539 101.325 126.762 100.161 127.836ZM161.062 210.709C161.061 210.712 161.064 210.675 161.071 210.587C161.066 210.662 161.062 210.705 161.062 210.709ZM96.0158 281.246C96.011 281.256 96.0039 281.27 95.9861 281.304C96.0156 281.244 96.0273 281.223 96.0158 281.246ZM98.2042 210.054C98.1997 210.057 98.1403 210.086 98.0395 210.132C98.1583 210.075 98.2087 210.052 98.2042 210.054Z" fill="#FB0153"/>
<path fill-rule="evenodd" clip-rule="evenodd" d="M69.4983 278.222C74.5859 268.051 86.9309 263.942 97.0716 269.045C100.417 270.729 102.826 272.982 104.483 275.015C105.536 276.306 106.326 277.558 106.907 278.608C110.963 282.372 113.503 287.756 113.503 293.736C113.503 305.115 104.305 314.34 92.9599 314.34C89.9863 314.34 86.7691 313.788 83.5865 312.394C80.4054 311 77.9072 309.049 76.0228 307.042C73.3574 304.203 71.8771 301.166 71.1664 299.477C66.8656 293.455 65.9564 285.303 69.4983 278.222ZM70.2223 296.999C70.2222 296.999 70.2274 297.012 70.2384 297.042C70.2279 297.015 70.2224 297 70.2223 296.999Z" fill="#FB0153"/>
<path fill-rule="evenodd" clip-rule="evenodd" d="M85.6111 313.415C87.023 302.124 97.2934 294.119 108.551 295.535C113.187 296.118 118.539 298.384 122.489 303.353C125.95 307.704 126.749 312.185 126.989 314.241C127.226 316.275 127.12 317.97 127.095 318.373C127.094 318.389 127.093 318.403 127.093 318.415C127.091 318.44 127.09 318.463 127.088 318.486C126.672 329.497 117.64 338.295 106.561 338.295C97.1587 338.295 89.232 331.959 86.7922 323.313C85.6301 320.259 85.1773 316.884 85.6111 313.415Z" fill="#FB0153"/>
<path fill-rule="evenodd" clip-rule="evenodd" d="M100.072 329.429C99.835 328.554 99.0371 327.91 98.0894 327.91C96.9549 327.91 96.0352 328.833 96.0352 329.971C96.0352 330.396 96.1408 330.747 96.2472 330.999C96.3483 331.239 96.4676 331.429 96.5287 331.524C96.5467 331.552 96.5687 331.586 96.5851 331.61C96.6711 331.833 96.7742 332.012 96.8572 332.14C96.9632 332.303 97.0715 332.437 97.1372 332.516C97.1656 332.55 97.195 332.585 97.2158 332.61C97.2194 332.614 97.2228 332.618 97.2259 332.622C97.2421 332.641 97.2532 332.654 97.2617 332.664C97.3692 332.836 97.4793 332.97 97.5612 333.062C97.6365 333.146 97.7124 333.222 97.7516 333.261C97.9025 333.494 98.0593 333.675 98.1634 333.792C98.2626 333.903 98.3048 333.948 98.335 333.98C98.3634 334.01 98.3811 334.029 98.4256 334.081C98.4511 334.111 98.4812 334.153 98.5941 334.315L98.6003 334.324C98.6912 334.456 98.8515 334.687 99.0558 334.914C99.0844 334.946 99.1124 334.977 99.1352 335.001L99.2007 335.071C99.2293 335.102 99.2518 335.126 99.2704 335.146C99.4143 335.404 99.5751 335.597 99.6491 335.684C99.7553 335.81 99.8688 335.93 99.9247 335.989C99.9314 335.996 99.9373 336.002 99.9422 336.007C100.146 336.223 100.29 336.42 100.337 336.511C100.36 336.554 100.382 336.595 100.403 336.635C100.559 336.932 100.67 337.143 100.758 337.351C100.759 337.353 100.762 337.361 100.767 337.372C100.795 337.44 100.88 337.647 100.946 337.791C100.994 337.895 101.09 338.099 101.237 338.322C101.238 338.334 101.239 338.346 101.241 338.358C101.257 338.511 101.288 338.745 101.364 339.012C101.419 339.207 101.547 339.555 101.857 339.884C102.21 340.259 102.7 340.5 103.24 340.533C104.072 340.584 104.621 340.125 104.707 340.053C104.709 340.051 104.711 340.049 104.713 340.047C104.988 339.82 105.166 339.555 105.215 339.482C105.217 339.48 105.218 339.478 105.219 339.476C105.3 339.356 105.369 339.238 105.419 339.147C105.42 339.146 105.421 339.145 105.422 339.143C105.444 339.104 105.55 338.913 105.62 338.709C105.723 338.41 105.786 338.116 105.824 337.942C105.825 337.934 105.827 337.926 105.829 337.919C105.874 337.708 105.893 337.631 105.912 337.572C105.938 337.494 105.968 337.405 106.002 337.309C106.242 336.611 106.636 335.468 106.636 334.327C106.636 333.189 105.716 332.266 104.582 332.266C103.885 332.266 103.27 332.614 102.899 333.145L102.876 333.121L102.835 333.077C102.829 333.071 102.824 333.065 102.819 333.06C102.739 332.916 102.659 332.803 102.607 332.732C102.522 332.617 102.438 332.518 102.373 332.445C102.307 332.37 102.243 332.301 102.198 332.252C102.186 332.24 102.176 332.229 102.168 332.22C102.135 332.185 102.12 332.169 102.107 332.155C102.095 332.141 102.067 332.107 101.968 331.964C101.962 331.955 101.954 331.944 101.947 331.933C101.865 331.815 101.72 331.605 101.55 331.404C101.475 331.317 101.404 331.239 101.351 331.182C101.336 331.165 101.322 331.15 101.31 331.137C101.275 331.099 101.25 331.073 101.225 331.044C101.208 331.025 101.197 331.012 101.19 331.004C101.079 330.82 100.963 330.676 100.875 330.576C100.792 330.481 100.71 330.4 100.67 330.36C100.589 330.239 100.512 330.142 100.461 330.079C100.423 330.031 100.386 329.988 100.36 329.957C100.357 329.953 100.354 329.949 100.35 329.946C100.278 329.776 100.202 329.642 100.149 329.553C100.121 329.507 100.095 329.464 100.072 329.429ZM97.2812 332.689C97.2812 332.689 97.28 332.687 97.2779 332.684C97.2802 332.687 97.2813 332.689 97.2812 332.689ZM99.9763 329.282C99.974 329.279 99.9729 329.277 99.973 329.277C99.9731 329.277 99.9742 329.279 99.9763 329.282Z" fill="#FB0153"/>
<path fill-rule="evenodd" clip-rule="evenodd" d="M102.476 330.885L102.453 330.881C102.382 330.868 102.347 330.862 102.307 330.854C102.265 330.846 102.217 330.837 102.116 330.819C102 330.798 101.822 330.767 101.657 330.749C101.594 330.743 101.419 330.724 101.215 330.737C101.139 330.741 100.865 330.758 100.547 330.886C100.273 330.996 99.248 331.521 99.248 332.809C99.248 333.657 99.7188 334.218 99.8704 334.389C100.08 334.627 100.307 334.803 100.459 334.912C100.774 335.138 101.095 335.307 101.234 335.377C101.829 335.676 102.501 335.658 103.056 335.386C104.102 335.746 105.09 335.859 106.09 335.859C107.224 335.859 108.144 334.937 108.144 333.799C108.144 332.661 107.224 331.738 106.09 331.738C105.376 331.738 104.825 331.655 104.259 331.441C104.244 331.436 104.205 331.419 104.1 331.371C104.087 331.366 104.074 331.36 104.06 331.353C103.974 331.314 103.852 331.258 103.731 331.207C103.586 331.146 103.393 331.07 103.177 331.008C103 330.957 102.758 330.901 102.476 330.885ZM102.838 331.551C102.838 331.551 102.84 331.553 102.845 331.557C102.84 331.553 102.838 331.551 102.838 331.551Z" fill="#FB0153"/>
<path fill-rule="evenodd" clip-rule="evenodd" d="M103.82 338.371C103.989 338.444 104.097 338.544 104.145 338.592C104.145 338.592 104.146 338.593 104.146 338.593C104.408 338.759 104.586 339.038 104.62 339.353C104.627 339.37 104.634 339.386 104.641 339.403C104.658 339.439 104.681 339.494 104.7 339.563C104.726 339.652 104.764 339.832 104.72 340.054C104.696 340.178 104.649 340.295 104.585 340.398C104.578 340.426 104.57 340.45 104.563 340.47C104.535 340.55 104.503 340.614 104.482 340.654C104.467 340.681 104.449 340.711 104.435 340.735C104.421 340.766 104.387 340.839 104.345 340.908C104.318 340.952 104.256 341.049 104.153 341.147C104.059 341.237 103.812 341.436 103.433 341.437C103.022 341.438 102.754 341.211 102.633 341.07C102.518 340.937 102.46 340.804 102.435 340.74C102.317 340.444 102.346 340.127 102.486 339.867C102.484 339.863 102.482 339.859 102.48 339.855C102.468 339.826 102.459 339.802 102.454 339.789C102.439 339.747 102.428 339.706 102.423 339.691L102.423 339.69C102.413 339.654 102.399 339.601 102.388 339.539C102.388 339.538 102.388 339.537 102.388 339.536C102.382 339.506 102.349 339.323 102.4 339.108C102.411 339.061 102.434 338.979 102.481 338.884C102.491 338.863 102.502 338.84 102.515 338.817C102.579 338.702 102.727 338.489 103.016 338.367C103.163 338.306 103.317 338.281 103.466 338.288C103.61 338.296 103.73 338.332 103.82 338.371ZM102.8 340.317C102.812 340.34 102.817 340.347 102.806 340.327C102.806 340.327 102.806 340.327 102.806 340.327C102.805 340.326 102.803 340.322 102.8 340.317C102.8 340.317 102.8 340.317 102.8 340.317ZM103.079 340.513C103.079 340.512 103.075 340.51 103.068 340.507C103.076 340.511 103.079 340.513 103.079 340.513Z" fill="#FB0153"/>
<path fill-rule="evenodd" clip-rule="evenodd" d="M101.903 336.217C102.411 335.963 103.028 336.171 103.281 336.68C103.388 336.896 103.408 337.095 103.412 337.208C103.414 337.263 103.413 337.311 103.413 337.334L103.412 337.361C103.412 337.364 103.412 337.366 103.412 337.366V337.936C103.412 338.005 103.433 338.111 103.501 338.356C103.521 338.428 103.538 338.498 103.549 338.547L103.55 338.55C103.563 338.604 103.57 338.636 103.578 338.666C103.583 338.685 103.587 338.697 103.589 338.704C103.589 338.704 103.589 338.704 103.589 338.704L103.615 338.742C103.618 338.746 103.621 338.75 103.624 338.755C103.644 338.785 103.674 338.83 103.703 338.875C103.737 338.928 103.782 339 103.823 339.085C103.864 339.166 103.915 339.285 103.948 339.43C103.948 339.43 103.948 339.429 103.948 339.43C103.948 339.43 103.949 339.434 103.951 339.44C103.953 339.449 103.957 339.461 103.961 339.474C103.971 339.502 103.979 339.524 103.983 339.531C103.999 339.569 104.012 339.603 104.022 339.63C104.028 339.648 104.033 339.664 104.038 339.679C104.083 339.752 104.135 339.843 104.181 339.944C104.249 340.09 104.346 340.339 104.346 340.64C104.346 341.209 103.886 341.671 103.319 341.671C102.798 341.671 102.368 341.283 102.301 340.78C102.3 340.778 102.299 340.777 102.299 340.776C102.288 340.758 102.275 340.737 102.258 340.712C102.195 340.617 102.157 340.53 102.134 340.47C102.111 340.41 102.095 340.358 102.088 340.332L102.084 340.317C102.042 340.218 101.999 340.096 101.967 339.976C101.956 339.96 101.945 339.943 101.928 339.918C101.924 339.913 101.92 339.907 101.916 339.9C101.893 339.866 101.854 339.809 101.818 339.749C101.695 339.541 101.632 339.341 101.595 339.201C101.578 339.139 101.563 339.077 101.553 339.032C101.552 339.028 101.551 339.024 101.55 339.02C101.538 338.969 101.53 338.937 101.522 338.91C101.52 338.902 101.518 338.894 101.516 338.886C101.458 338.679 101.358 338.319 101.358 337.937V337.365C101.358 337.363 101.358 337.361 101.358 337.359C101.259 336.909 101.473 336.432 101.903 336.217Z" fill="#FB0153"/>
<path fill-rule="evenodd" clip-rule="evenodd" d="M91.7122 337.908C92.114 337.507 92.7644 337.508 93.1648 337.911C93.3138 338.061 93.426 338.22 93.5077 338.409C93.52 338.438 93.5309 338.466 93.5402 338.491C93.5681 338.515 93.5992 338.543 93.6294 338.574C93.7193 338.664 93.8304 338.799 93.9134 338.985C93.9146 338.987 93.9327 339.017 94.002 339.094C94.0318 339.127 94.0589 339.155 94.0935 339.191C94.1104 339.209 94.1292 339.229 94.151 339.252C94.2088 339.314 94.2826 339.393 94.3552 339.482C94.5184 339.683 94.6561 339.907 94.7514 340.062C94.7657 340.086 94.7791 340.107 94.7914 340.127C94.9043 340.309 94.9696 340.4 95.0295 340.46C95.3244 340.757 95.5044 341.153 95.6082 341.453C95.717 341.767 95.7978 342.138 95.7978 342.477C95.7978 342.477 95.7978 342.477 95.7979 342.477C95.7984 342.482 95.8073 342.56 95.8997 342.754C95.9434 342.846 95.9949 342.942 96.0565 343.056C96.0637 343.069 96.0711 343.083 96.0788 343.097C96.1315 343.193 96.194 343.308 96.2484 343.417C96.2675 343.456 96.2869 343.496 96.3065 343.537C96.437 343.695 96.5667 343.849 96.7062 344.007C96.8798 344.203 96.9648 344.423 97.0054 344.54C97.053 344.678 97.0857 344.816 97.1087 344.923C97.126 345.003 97.1425 345.09 97.1552 345.157C97.1592 345.177 97.1627 345.196 97.1658 345.212C97.1786 345.278 97.1854 345.307 97.1875 345.316C97.1882 345.32 97.1884 345.32 97.188 345.319C97.293 345.659 97.4631 346.059 97.6411 346.382C97.644 346.385 97.6468 346.389 97.6496 346.392C97.6867 346.439 97.7338 346.504 97.7783 346.584C97.8181 346.656 97.8601 346.738 97.8964 346.808C97.8998 346.814 97.9032 346.821 97.9065 346.827C97.948 346.907 97.986 346.981 98.0242 347.05C98.0626 347.119 98.095 347.173 98.1221 347.214C98.1394 347.24 98.1494 347.252 98.1519 347.255C98.3443 347.451 98.4655 347.668 98.544 347.832C98.6151 347.981 98.6742 348.139 98.7156 348.249C98.7196 348.259 98.7235 348.27 98.7273 348.28C98.7765 348.41 98.8053 348.481 98.8317 348.532C98.8338 348.536 98.8357 348.54 98.8373 348.543C99.0226 348.715 99.1255 348.908 99.1834 349.041C99.2454 349.184 99.2833 349.323 99.3054 349.408C99.3182 349.457 99.3264 349.489 99.3328 349.515C99.3411 349.549 99.3465 349.57 99.3549 349.599C99.4674 349.786 99.6173 350.042 99.7416 350.319C99.8694 350.603 100.016 351.005 100.016 351.444C100.016 351.508 100.011 351.65 99.9465 351.817C99.875 352.001 99.7104 352.257 99.3886 352.394C99.0906 352.52 98.8265 352.471 98.6965 352.433C98.5637 352.393 98.4693 352.336 98.4246 352.306C98.3336 352.246 98.2733 352.185 98.2549 352.167C98.2283 352.14 98.2083 352.116 98.197 352.103C98.1605 352.059 98.1322 352.018 98.1242 352.006L98.1235 352.005C98.0998 351.971 98.0736 351.93 98.0522 351.896C98.0233 351.85 97.9863 351.791 97.9477 351.729C97.9267 351.695 97.9054 351.661 97.8846 351.628C97.8221 351.528 97.759 351.428 97.7037 351.344C97.6517 351.265 97.624 351.226 97.6169 351.216C97.6153 351.214 97.6148 351.213 97.6152 351.214C97.1835 350.692 96.7588 349.83 96.5849 349.217C96.5588 349.125 96.5174 349.021 96.4508 348.868C96.4414 348.847 96.4311 348.823 96.4201 348.799C96.3632 348.669 96.289 348.501 96.2282 348.333C96.1993 348.253 96.1506 348.105 96.1118 347.987C96.0894 347.919 96.0703 347.861 96.0602 347.833C96.0236 347.727 95.9949 347.656 95.9732 347.61C95.9318 347.568 95.8515 347.486 95.7769 347.381C95.711 347.289 95.601 347.114 95.5567 346.871C95.5291 346.825 95.487 346.767 95.4011 346.653C95.3973 346.648 95.3935 346.643 95.3895 346.637C95.3161 346.54 95.2071 346.395 95.1128 346.238C95.0111 346.069 94.894 345.834 94.842 345.546C94.799 345.308 94.6791 344.951 94.5451 344.633C94.4794 344.553 94.4141 344.472 94.3483 344.391C94.2988 344.33 94.2492 344.268 94.199 344.207C93.8943 343.832 93.6728 343.416 93.5027 343.092C93.4501 342.992 93.3742 342.889 93.2303 342.702C93.2258 342.696 93.2212 342.69 93.2166 342.684C93.0913 342.522 92.9087 342.285 92.7633 342.005C92.6613 341.809 92.5745 341.633 92.4955 341.473C92.2745 341.025 92.1146 340.7 91.8556 340.414C91.5844 340.114 91.5226 339.697 91.6611 339.344C91.6541 339.325 91.6479 339.307 91.6424 339.291C91.3109 338.885 91.3344 338.286 91.7122 337.908ZM95.5687 346.894C95.5687 346.894 95.5683 346.893 95.5676 346.891Z" fill="#FB0153"/>
<path fill-rule="evenodd" clip-rule="evenodd" d="M92.439 337.969C93.0063 337.969 93.4661 338.43 93.4661 338.999C93.4661 341.476 93.1122 343.972 92.4902 346.351C92.413 346.646 92.2728 346.935 92.1869 347.112C92.1742 347.138 92.1627 347.161 92.1528 347.182C92.0491 347.4 92.0279 347.477 92.024 347.513C91.9982 347.746 91.9209 347.95 91.8863 348.042C91.8848 348.046 91.8833 348.05 91.8819 348.053C91.8574 348.118 91.8461 348.15 91.8412 348.164C91.8415 348.179 91.8423 348.217 91.8462 348.297C91.8465 348.302 91.8467 348.307 91.847 348.312C91.8529 348.43 91.8653 348.678 91.8051 348.943C91.7483 349.193 91.7448 349.468 91.7703 349.832C91.7763 349.918 91.7849 350.018 91.7944 350.127C91.8198 350.418 91.8507 350.774 91.8507 351.103C91.8507 351.195 91.8566 351.27 91.8647 351.374C91.8713 351.457 91.8793 351.56 91.8869 351.705C91.8944 351.848 91.9012 352.04 91.8837 352.249C91.921 352.396 91.9403 352.537 91.9497 352.666C92.0558 352.748 92.1631 352.857 92.2498 353.002C92.4114 353.272 92.4474 353.578 92.3837 353.853C92.275 354.324 91.9249 354.575 91.7349 354.678C91.5275 354.79 91.1684 354.913 90.7623 354.801C90.5356 354.739 90.3024 354.602 90.1289 354.369C89.9604 354.143 89.8999 353.896 89.888 353.692C89.8788 353.535 89.8835 353.386 89.8887 353.27C89.891 353.218 89.8931 353.176 89.8951 353.137C89.8983 353.075 89.901 353.024 89.9025 352.963C89.9033 352.933 89.9034 352.906 89.9031 352.883C89.8852 352.849 89.874 352.822 89.8684 352.809C89.8309 352.72 89.8142 352.644 89.8101 352.625L89.8098 352.624C89.803 352.593 89.7987 352.567 89.7961 352.551C89.7952 352.545 89.7943 352.539 89.7935 352.533C89.6971 352.317 89.5704 352.021 89.4928 351.732C89.4694 351.645 89.4374 351.563 89.3854 351.43C89.3647 351.377 89.3409 351.316 89.3133 351.243C89.2351 351.038 89.1191 350.721 89.0877 350.373C89.0767 350.252 89.0742 350.139 89.0726 350.058L89.0722 350.037C89.0707 349.959 89.0698 349.914 89.0668 349.87C89.0652 349.846 89.0632 349.83 89.0618 349.821C89.0486 349.796 89.0286 349.757 89.0098 349.712L89.0093 349.711C89.0003 349.69 88.9645 349.604 88.944 349.49C88.9353 349.441 88.9097 349.288 88.9491 349.097C88.9954 348.872 89.1673 348.488 89.6196 348.331C89.6781 348.311 89.7348 348.297 89.7891 348.288C89.7846 348.167 89.7842 347.985 89.8179 347.798C89.8388 347.682 89.8691 347.581 89.8944 347.506C89.9152 347.444 89.9388 347.382 89.954 347.342C89.9563 347.335 89.9585 347.33 89.9603 347.325C89.9744 347.288 89.9817 347.267 89.9859 347.254C90.0368 346.85 90.1994 346.504 90.2989 346.295C90.316 346.259 90.3316 346.226 90.3461 346.196C90.4403 345.998 90.4809 345.913 90.5031 345.828C91.0851 343.603 91.4119 341.282 91.4119 338.999C91.4119 338.43 91.8717 337.969 92.439 337.969Z" fill="#FB0153"/>
<path fill-rule="evenodd" clip-rule="evenodd" d="M88.9046 351.177C88.9752 350.612 89.4887 350.212 90.0516 350.283C90.7214 350.367 90.9232 350.949 90.9585 351.066C90.9966 351.193 91.0094 351.313 91.0139 351.396C91.172 351.53 91.2942 351.665 91.3721 351.751C91.3797 351.76 91.3869 351.768 91.3937 351.775C91.5501 351.948 91.5866 351.976 91.5862 351.976C91.5861 351.976 91.5856 351.976 91.5848 351.976C91.825 352.11 91.987 352.289 92.0911 352.427C92.193 352.562 92.2707 352.7 92.3176 352.785C92.3292 352.806 92.3394 352.824 92.3484 352.841C92.3784 352.895 92.3953 352.926 92.4111 352.951C92.5707 353.076 92.772 353.233 92.968 353.416C93.4272 353.518 93.7704 353.93 93.7704 354.421C93.7704 354.568 93.742 354.869 93.5066 355.141C93.2464 355.442 92.908 355.511 92.6922 355.51C92.4973 355.509 92.345 355.457 92.2705 355.427C92.1847 355.393 92.1136 355.355 92.0635 355.325C91.8845 355.219 91.7231 355.076 91.641 354.994C91.5001 354.852 91.3368 354.724 91.1177 354.553C91.1101 354.547 91.1024 354.541 91.0947 354.535C90.9029 354.384 90.7765 354.21 90.6994 354.091C90.6356 353.993 90.5757 353.884 90.5388 353.816C90.5326 353.805 90.527 353.795 90.5222 353.786C90.5046 353.755 90.4913 353.731 90.4799 353.712C90.2132 353.538 90.0095 353.312 89.9009 353.191C89.8916 353.181 89.8831 353.172 89.8752 353.163C89.8001 353.08 89.7545 353.031 89.7126 352.992C89.686 352.967 89.6721 352.957 89.6691 352.954C89.659 352.949 89.6489 352.943 89.6355 352.937C89.6344 352.936 89.6329 352.935 89.6309 352.934C89.6183 352.928 89.5886 352.912 89.5639 352.899C89.5625 352.898 89.5611 352.897 89.5595 352.896C89.5063 352.867 89.3001 352.755 89.1448 352.52C88.9819 352.274 88.9622 352.03 88.9564 351.946C88.9514 351.875 88.9517 351.789 88.9518 351.741C88.9519 351.734 88.9519 351.728 88.9519 351.723C88.9519 351.699 88.9528 351.672 88.9541 351.646C88.9031 351.5 88.8841 351.341 88.9046 351.177ZM92.4296 352.98C92.4296 352.98 92.4288 352.979 92.4272 352.976C92.4288 352.978 92.4297 352.98 92.4296 352.98Z" fill="#FB0153"/>
<path fill-rule="evenodd" clip-rule="evenodd" d="M92.848 343.836C92.7798 343.77 92.6963 343.675 92.6246 343.549C92.5876 343.484 92.5632 343.442 92.5502 343.42C92.5501 343.42 92.5499 343.42 92.5496 343.419C92.5467 343.414 92.5339 343.392 92.5264 343.379L92.5131 343.355C92.5101 343.349 92.5043 343.338 92.4974 343.324L92.4972 343.324C92.4929 343.315 92.4753 343.279 92.4575 343.231L92.4574 343.231C92.4506 343.213 92.4253 343.144 92.4089 343.053C92.4008 343.001 92.3927 342.86 92.3973 342.772C92.4237 342.619 92.602 342.247 92.7833 342.062C93.0314 341.917 93.5004 341.844 93.6881 341.876C93.7897 341.91 93.9426 341.984 93.9959 342.018C94.0824 342.077 94.1401 342.136 94.1543 342.151L94.1551 342.151C94.1931 342.19 94.2198 342.224 94.2258 342.232L94.2263 342.233C94.2364 342.246 94.2441 342.256 94.248 342.261C94.2605 342.278 94.2705 342.293 94.2712 342.294L94.2712 342.294L94.278 342.304C94.279 342.306 94.2802 342.308 94.2816 342.31C94.2906 342.323 94.3073 342.349 94.3313 342.383C94.3552 342.4 94.3846 342.422 94.4163 342.448C94.4503 342.475 94.4909 342.51 94.5334 342.553C94.6615 342.682 94.7558 342.826 94.8257 342.969C94.9055 343.05 94.9911 343.135 95.0831 343.224C95.1193 343.259 95.1568 343.295 95.1953 343.332C95.4301 343.558 95.7051 343.822 95.9516 344.107C96.258 344.462 96.5784 344.858 96.8602 345.25C96.8633 345.255 96.8689 345.262 96.8765 345.272C96.9422 345.358 97.1591 345.642 97.2647 345.949C97.2919 346.028 97.3275 346.118 97.3759 346.238C97.3794 346.247 97.383 346.256 97.3866 346.265C97.4298 346.372 97.4816 346.5 97.5293 346.632C97.6286 346.905 97.7509 347.293 97.7509 347.716C97.7509 348.269 97.3989 348.61 97.143 348.762C97.0722 348.804 97.0003 348.838 96.9287 348.865C96.9312 348.87 96.9337 348.876 96.9362 348.881C96.9966 349.005 97.0623 349.14 97.1278 349.282C97.1723 349.29 97.2111 349.299 97.2412 349.309C97.3341 349.356 97.4754 349.452 97.5262 349.495C97.6148 349.577 97.6678 349.656 97.6823 349.677C97.72 349.733 97.7438 349.781 97.7495 349.792L97.7499 349.793C97.7592 349.812 97.766 349.827 97.7696 349.835C97.7768 349.851 97.7822 349.865 97.7844 349.87L97.7949 349.897L97.8061 349.928C97.8505 350.05 97.888 350.176 97.9203 350.298C97.924 350.312 97.9281 350.328 97.9323 350.345C97.9401 350.375 97.9475 350.405 97.9547 350.435C97.9631 350.454 97.9733 350.478 97.9833 350.504C98.0206 350.601 98.0665 350.747 98.0745 350.932C98.0913 350.953 98.1132 350.979 98.1398 351.01C98.1512 351.023 98.1646 351.037 98.1802 351.053C98.1893 351.063 98.1998 351.074 98.2112 351.086C98.2584 351.135 98.3227 351.202 98.3852 351.272C98.3981 351.287 98.4129 351.303 98.427 351.32C98.4336 351.328 98.4454 351.342 98.4588 351.359C98.4652 351.367 98.4771 351.383 98.491 351.403L98.4917 351.404C98.4997 351.415 98.5373 351.468 98.5733 351.541L98.5743 351.543C98.5874 351.57 98.6466 351.689 98.6698 351.855C98.6818 351.94 98.6995 352.136 98.6125 352.365C98.5067 352.644 98.2829 352.869 97.9921 352.971C97.9222 352.995 97.8554 353.01 97.7936 353.019C97.7484 353.094 97.7028 353.153 97.668 353.195C97.5501 353.336 97.4185 353.44 97.3237 353.508C97.1312 353.645 96.9282 353.745 96.8139 353.795C96.419 353.967 96.0343 354.248 95.5917 354.625C95.1365 355.013 94.7713 355.162 94.3055 355.306C93.9366 355.42 93.5659 355.427 93.3012 355.421C93.1793 355.419 93.0575 355.412 92.9552 355.407C92.9422 355.406 92.9295 355.406 92.9172 355.405C92.7997 355.399 92.7104 355.395 92.6326 355.395C92.0653 355.395 91.6055 354.934 91.6055 354.365C91.6055 353.796 92.0653 353.335 92.6326 353.335C92.7689 353.335 92.9063 353.342 93.0213 353.347C93.0344 353.348 93.0472 353.349 93.0598 353.349C93.166 353.355 93.2562 353.359 93.3456 353.361C93.5557 353.366 93.6559 353.351 93.6994 353.337C94.0072 353.242 94.0904 353.201 94.2622 353.054C94.7251 352.66 95.2662 352.24 95.9049 351.946C95.9036 351.818 95.9075 351.662 95.9304 351.498C95.9303 351.498 95.9315 351.487 95.9337 351.454C95.9342 351.447 95.9348 351.437 95.9355 351.426C95.9355 351.425 95.9356 351.425 95.9356 351.424C95.9176 351.398 95.8987 351.371 95.879 351.341C95.7299 351.122 95.5435 350.833 95.4074 350.483C95.319 350.255 95.2109 350.033 95.0806 349.765C95.0744 349.752 95.0681 349.739 95.0618 349.726M94.6527 348.794C94.6524 348.794 94.642 348.773 94.5733 348.663C94.5706 348.658 94.5676 348.654 94.5646 348.649C94.5028 348.55 94.379 348.353 94.2993 348.112C94.2687 348.02 94.2477 347.966 94.2212 347.898C94.1956 347.833 94.165 347.755 94.1158 347.617C94.0447 347.417 93.9537 347.133 93.9303 346.819C93.9179 346.653 93.8379 346.459 93.6281 346.066C93.6146 346.04 93.6002 346.014 93.5851 345.986C93.4087 345.658 93.1382 345.155 93.0517 344.589C93.0331 344.468 93.0234 344.335 93.0167 344.243C93.0164 344.238 93.016 344.233 93.0156 344.228C93.0096 344.146 93.0046 344.079 92.9982 344.019C92.9474 343.96 92.8972 343.899 92.848 343.836" fill="#FB0153"/>
<path fill-rule="evenodd" clip-rule="evenodd" d="M93.1064 342.74C93.1063 342.74 93.1037 342.738 93.1002 342.736C93.2038 342.811 93.3213 342.874 93.5056 342.973C93.5579 343.002 93.6154 343.033 93.6796 343.067C93.9204 343.199 94.2743 343.398 94.5654 343.691C94.5733 343.699 94.5918 343.716 94.6176 343.741C94.7202 343.837 94.9383 344.043 95.0674 344.196C95.2762 344.444 95.5407 344.85 95.5407 345.407C95.5407 345.716 95.4053 345.993 95.1908 346.182C95.2323 346.226 95.2757 346.273 95.321 346.323C95.5892 346.617 95.8455 346.866 96.1226 347.073C96.3346 347.231 96.6079 347.452 96.8149 347.768C97.0426 348.116 97.144 348.503 97.144 348.925C97.144 349.246 97.1569 349.573 97.1708 349.926L97.1711 349.933C97.1802 350.163 97.1898 350.404 97.1951 350.65C97.2064 350.653 97.2177 350.656 97.2289 350.659C97.2309 350.66 97.2334 350.66 97.2363 350.661C97.2892 350.676 97.4847 350.729 97.652 350.833C97.6999 350.863 97.8377 350.951 97.9568 351.116C98.0989 351.312 98.2641 351.71 98.0643 352.156C97.9153 352.488 97.6487 352.629 97.5657 352.669C97.5517 352.682 97.5355 352.696 97.5179 352.711C97.4858 352.738 97.4435 352.771 97.3924 352.806M97.1992 352.913C97.1987 352.914 97.1907 352.918 97.1737 352.928C97.1531 352.941 97.1262 352.96 97.0882 352.987C97.061 353.007 97.0377 353.025 97.0092 353.046C96.9931 353.058 96.9754 353.072 96.9544 353.087C96.9037 353.125 96.8401 353.172 96.7709 353.219C96.675 353.283 96.5823 353.334 96.5082 353.374C96.4634 353.397 96.4062 353.426 96.363 353.448C96.3446 353.458 96.3287 353.466 96.3174 353.471C96.2326 353.515 96.2051 353.534 96.2028 353.535C96.1135 353.614 96.0251 353.669 95.9547 353.705C95.8953 353.736 95.8404 353.758 95.7959 353.775C95.7334 353.873 95.6708 353.943 95.6362 353.98C95.5479 354.074 95.4169 354.189 95.2506 354.272C95.1357 354.33 95.0233 354.365 94.9206 354.385C94.7108 354.561 94.4715 354.671 94.2244 354.737C93.9984 354.797 93.6542 354.882 93.2793 354.86C92.8576 354.835 92.446 354.68 92.0828 354.353C91.4019 353.74 91.13 352.948 91.033 352.234C90.9504 351.625 90.9864 351.009 91.0345 350.502C91.0205 350.444 91.0072 350.387 90.9947 350.329C90.7607 349.256 90.8962 348.147 91.2187 347.191C91.2381 347.134 91.2445 347.078 91.2646 346.903C91.2691 346.864 91.2743 346.819 91.2805 346.766C91.307 346.541 91.3575 346.147 91.5755 345.763C91.6531 345.626 91.7526 345.513 91.8658 345.425C91.8273 345.197 91.7824 344.96 91.7345 344.706C91.7342 344.705 91.7339 344.705 91.7336 344.704C91.7216 344.68 91.6999 344.642 91.6588 344.578C91.6389 344.547 91.6181 344.516 91.5927 344.477L91.5915 344.475C91.567 344.439 91.5379 344.395 91.509 344.35C91.4528 344.262 91.3804 344.144 91.3175 344.01C91.2825 343.935 91.2458 343.851 91.2166 343.764C91.2162 343.763 91.2158 343.762 91.2154 343.761C91.1974 343.707 91.1319 343.513 91.1514 343.277C91.1625 343.143 91.2113 342.868 91.4443 342.628C91.7009 342.363 92.016 342.306 92.2235 342.311C92.4085 342.317 92.5486 342.37 92.6117 342.397C92.6852 342.428 92.743 342.461 92.7791 342.483C92.8911 342.553 92.9965 342.645 93.0344 342.678C93.0369 342.68 93.0391 342.682 93.0409 342.683C93.0923 342.728 93.1066 342.74 93.1064 342.74M95.6379 353.886L95.6383 353.886Z" fill="#FB0153"/>
</g>
<defs>
<clipPath id="clip0_588_6875">
<rect width="265" height="375" fill="white"/>
</clipPath>
</defs>
</svg>
