<svg width="330" height="345" viewBox="0 0 330 345" fill="none" xmlns="http://www.w3.org/2000/svg">
<g clip-path="url(#clip0_588_6893)">
<path fill-rule="evenodd" clip-rule="evenodd" d="M115.28 6.98414C99.4142 6.84316 84.2137 6.70808 70.3838 13.2446C69.3588 13.7291 68.3704 14.1924 67.4166 14.6395C60.737 17.7705 55.744 20.111 51.632 23.4059C47.1496 26.9974 43.6323 31.8309 40.7991 40.5348C40.104 42.6707 39.3903 44.7817 38.683 46.8739C33.9825 60.7777 29.5603 73.8584 32.677 87.9445C33.9277 93.5975 34.7759 99.0949 35.5976 104.422C35.8296 105.925 36.0595 107.415 36.2958 108.891C37.3783 115.655 38.6114 122.259 40.8045 129.112C41.9137 132.578 42.9393 135.963 43.9509 139.302C46.2872 147.013 48.5485 154.476 51.5906 162.115C61.5965 187.239 75.7436 213.51 90.4138 236.479C94.9234 243.538 99.1372 250.74 103.305 257.861C104.358 259.662 105.409 261.459 106.461 263.245C111.694 272.135 116.979 280.858 122.919 289.211C127.289 295.357 132.409 300.958 137.639 306.678C140.314 309.604 143.019 312.563 145.665 315.642C148.318 318.727 148.664 322.723 148.895 325.393C148.905 325.508 148.915 325.62 148.925 325.73C149.212 328.984 149.487 330.381 150.324 331.222C150.472 331.371 150.603 331.46 151.033 331.431C151.609 331.391 152.542 331.112 153.867 330.357C156.51 328.848 159.684 326.048 162.971 322.64C166.21 319.283 169.361 315.546 171.97 312.356C172.781 311.363 173.562 310.396 174.283 309.502C175.78 307.644 177.017 306.111 177.73 305.348C186.523 295.94 194.443 285.685 202.414 275.23C202.952 274.525 203.49 273.821 204.028 273.114C211.441 263.384 218.952 253.524 227.182 244.287C241.022 228.75 254.392 212.482 267.389 196.164C268.196 195.151 269.003 194.139 269.81 193.127C286.953 171.624 303.834 150.45 316.026 126.186C324.565 109.192 323.968 92.0659 321.481 72.6444C320.702 66.5644 316.571 54.1917 310.616 43.2977C307.654 37.8805 304.351 33.0342 300.953 29.5907C297.484 26.0729 294.39 24.4892 291.817 24.4892C285.914 24.4892 280.022 25.0186 273.933 25.5668L273.902 25.5696C267.874 26.1124 261.657 26.6722 255.351 26.6722C246.515 26.6722 240.771 27.5005 235.838 29.666C230.896 31.8349 226.426 35.4945 220.42 41.8447C211.499 51.2765 203.156 62.2637 198.95 74.0956C198.112 76.453 198.142 79.0981 198.53 82.3707C198.624 83.1744 198.748 84.0447 198.876 84.9589C199.092 86.4978 199.327 88.1613 199.477 89.8417C199.639 90.362 199.675 90.9065 199.589 91.4308C199.617 91.9775 199.634 92.5225 199.634 93.0619C199.634 94.9753 198.089 96.5265 196.183 96.5265C194.279 96.5265 192.735 94.9753 192.735 93.0619C192.735 92.6675 192.725 92.2764 192.707 91.8866C191.384 89.8889 190.05 87.8683 188.707 85.8319C176.246 66.9477 162.89 46.7032 147.571 30.7023C146.345 29.4219 144.736 27.5527 142.964 25.4953C142.615 25.0901 142.26 24.6775 141.9 24.2608C139.667 21.6755 137.172 18.8234 134.616 16.164C132.046 13.4894 129.505 11.1043 127.194 9.41006C124.742 7.61237 123.121 7.02554 122.286 7.02554C119.938 7.02554 117.602 7.00478 115.28 6.98414ZM191.397 77.3656C179.799 59.8276 167.041 41.0424 152.545 25.8995C151.457 24.7635 150.001 23.0727 148.223 21.0097C147.866 20.5945 147.495 20.1644 147.112 19.7207C144.87 17.1239 142.272 14.1532 139.581 11.3519C136.903 8.56579 134.043 5.85239 131.262 3.81325C128.622 1.87756 125.46 0.0961965 122.286 0.0961965C120.048 0.0961965 117.776 0.07269 115.478 0.0489169C99.7503 -0.113797 82.8147 -0.289007 67.4461 6.97482C66.4568 7.44246 65.4823 7.89811 64.5236 8.34636C57.9571 11.4169 52.1328 14.1403 47.3293 17.9891C41.6076 22.5738 37.4121 28.6408 34.2415 38.3817C33.5927 40.3745 32.9035 42.3982 32.2039 44.4519C27.5169 58.2119 22.3724 73.3148 25.9418 89.4476C27.1392 94.8592 27.9428 100.064 28.7594 105.354C28.9965 106.89 29.2346 108.433 29.4839 109.991C30.5823 116.853 31.8804 123.871 34.2362 131.232C35.2746 134.477 36.2634 137.74 37.2561 141.015C39.6312 148.852 42.029 156.764 45.1848 164.688C55.3881 190.307 69.7579 216.973 84.6068 240.22C89.0362 247.154 93.1633 254.207 97.3235 261.316C98.3856 263.132 99.4498 264.95 100.522 266.771C105.772 275.691 111.182 284.63 117.305 293.24C121.911 299.715 127.545 305.886 132.947 311.802C135.546 314.648 138.092 317.435 140.444 320.17C141.504 321.404 141.773 323.182 142.052 326.342C142.063 326.466 142.074 326.596 142.086 326.73C142.307 329.322 142.649 333.313 145.445 336.121C147.173 337.856 149.341 338.495 151.512 338.344C153.539 338.203 155.51 337.388 157.274 336.382C160.805 334.368 164.538 330.974 167.926 327.461C171.364 323.899 174.656 319.989 177.302 316.753C178.304 315.526 179.188 314.429 179.949 313.487C181.274 311.842 182.219 310.668 182.761 310.09C191.819 300.399 199.932 289.883 207.892 279.443C208.418 278.752 208.946 278.06 209.473 277.37C216.919 267.596 224.278 257.937 232.323 248.906C246.282 233.237 259.74 216.859 272.776 200.493C273.626 199.425 274.479 198.357 275.332 197.287C292.364 175.928 309.659 154.237 322.186 129.308C331.711 110.353 330.842 91.4336 328.324 71.7608C327.401 64.5518 322.88 51.3355 316.663 39.9628C313.538 34.2464 309.875 28.7899 305.856 24.7139C301.909 20.7123 297.135 17.5598 291.817 17.5598C285.594 17.5598 279.429 18.1148 273.431 18.6549L273.318 18.6652C267.232 19.213 261.311 19.7428 255.351 19.7428C246.165 19.7428 239.3 20.5844 233.074 23.3165C226.859 26.0452 221.623 30.5111 215.417 37.0721C206.23 46.7856 197.132 58.6031 192.453 71.765C191.786 73.6394 191.484 75.5256 191.397 77.3656Z" fill="black"/>
<path fill-rule="evenodd" clip-rule="evenodd" d="M168.156 73.4117C171.92 62.9357 178.04 52.7716 187.624 43.6961C195.214 36.5111 205.276 27.7332 216.894 20.6713C228.365 13.699 243.19 7.26709 259.954 7.26709C260.632 7.26709 261.214 7.23478 262.249 7.17748C263.112 7.12972 264.287 7.06464 266.092 6.98642C269.146 6.85394 273.494 6.73508 278.056 7.15492C284.479 7.746 305.99 10.8092 312.257 32.9077C317.207 50.3634 314.975 69.8312 311.716 83.2026C300.331 129.902 271.842 173.072 248.891 207.851C248.504 208.435 248.12 209.019 247.737 209.599C238.562 223.507 229.058 237.108 219.78 250.387L219.321 251.042C209.83 264.625 200.577 277.881 191.718 291.351C190.538 293.144 189.291 295.086 187.974 297.136C180.236 309.185 170.057 325.032 156.637 337.201C151.387 341.963 143.064 346.135 132.949 344.72C123.144 343.35 116.525 337.402 112.863 332.131C109.293 326.992 106.121 321.686 103.42 317.151L103.06 316.546C100.373 312.033 98.1291 308.263 95.7578 304.736C67.9504 263.378 45.8417 217.884 41.768 163.707C39.9372 139.357 39.491 115.309 39.6204 91.4415C39.727 71.802 43.8139 55.3737 51.9708 38.1799C55.9191 29.8575 63.2395 18.5333 73.8843 10.7136C79.4207 6.64662 87.081 2.64404 96.4984 1.81341C106.491 0.931994 116.131 3.8432 124.379 9.86775C146.715 26.1835 160.572 54.4623 168.156 73.4117Z" fill="#FB0153"/>
<path fill-rule="evenodd" clip-rule="evenodd" d="M195.812 89.5944C197.728 89.8313 199.086 91.5594 198.846 93.4543C198.629 95.1723 197.467 96.3856 196.878 96.9527C196.145 97.6577 195.268 98.3 194.509 98.8219C194.022 99.1567 193.474 99.5168 192.999 99.8278C192.756 99.9864 192.534 100.132 192.349 100.256C192.042 100.461 191.799 100.627 191.614 100.765C191.449 100.887 191.388 100.943 191.388 100.942C191.388 100.942 191.392 100.939 191.398 100.932C185.241 107.182 179.401 113.33 173.961 120.037C172.075 122.363 170.331 124.792 168.534 127.304C168.465 127.401 168.396 127.499 168.325 127.598C166.614 129.991 164.849 132.462 162.949 134.839C161.994 136.034 161.201 137.352 160.267 138.904C160.199 139.018 160.13 139.133 160.059 139.249C159.251 140.592 158.328 142.102 157.182 143.546C169.696 146.389 180.688 150.098 191.525 158.677C192.497 159.445 193.547 160.228 194.636 161.038C197.198 162.947 199.97 165.012 202.396 167.411C202.442 167.458 202.564 167.562 202.897 167.823C202.927 167.846 202.957 167.871 202.99 167.896C203.259 168.106 203.63 168.398 203.978 168.703C204.364 169.043 204.874 169.529 205.305 170.143C205.73 170.752 206.25 171.73 206.25 172.989C206.25 173.996 206.082 175.02 205.595 175.988C205.098 176.973 204.405 177.632 203.795 178.086C203.351 178.415 202.83 178.713 202.519 178.891C202.465 178.922 202.417 178.951 202.377 178.974C202.026 179.178 201.788 179.33 201.574 179.51C195.909 184.21 190.686 189.463 185.458 194.913C184.3 196.119 183.14 197.338 181.974 198.564C177.915 202.829 173.79 207.164 169.491 211.273C166.228 214.394 163.159 217.684 160.005 221.064C158.449 222.732 156.871 224.424 155.239 226.128C150.389 231.192 145.201 236.207 139.209 240.313C139.126 240.371 139.038 240.43 138.945 240.493C138.635 240.707 138.275 240.954 137.878 241.221C140.468 242.474 143.076 243.746 145.772 245.27C151.857 248.71 155.576 252.981 159.474 257.456C160.018 258.08 160.566 258.71 161.124 259.341C162.553 260.958 164.067 262.5 165.51 263.928C166.412 264.822 167.096 266.003 167.51 266.72C167.566 266.818 167.617 266.906 167.663 266.984C168.178 267.856 168.482 268.266 168.779 268.51C170.102 269.601 171.075 270.883 171.801 271.84L171.826 271.873C172.427 272.666 172.867 273.248 173.314 273.724C173.646 273.768 174.285 273.9 174.926 274.368C175.821 275.02 176.288 275.995 176.345 276.951C176.392 277.718 176.166 278.294 176.07 278.515C175.956 278.778 175.834 278.972 175.771 279.067C175.646 279.256 175.525 279.394 175.497 279.427C175.451 279.48 175.412 279.523 175.395 279.541L175.312 279.631C175.251 279.697 175.065 279.901 174.728 280.359C173.258 282.349 171.798 284.224 170.367 286.063C167.942 289.181 165.599 292.192 163.431 295.473C162.766 296.479 162.085 297.427 161.459 298.299L161.381 298.407C160.72 299.327 160.122 300.163 159.573 301.011C158.493 302.676 157.67 304.282 157.19 306.181C155.209 314.02 153.27 322.197 153.27 329.931C153.27 331.842 151.706 333.39 149.776 333.39C147.846 333.39 146.282 331.842 146.282 329.931C146.282 321.225 148.45 312.262 150.41 304.502C151.137 301.626 152.369 299.314 153.692 297.276C154.343 296.271 155.034 295.307 155.685 294.401L155.736 294.33C156.382 293.431 156.992 292.582 157.582 291.689C159.871 288.224 162.535 284.794 165.091 281.505C166.015 280.314 166.926 279.142 167.8 277.992C167.241 277.354 166.762 276.722 166.365 276.193C166.312 276.123 166.259 276.055 166.209 275.988C165.455 274.992 164.92 274.33 164.305 273.822C162.974 272.726 162.147 271.351 161.627 270.468L161.541 270.324C160.961 269.339 160.773 269.02 160.569 268.818C159.082 267.347 157.443 265.68 155.865 263.895C155.269 263.222 154.702 262.572 154.154 261.945C150.216 257.441 147.289 254.093 142.305 251.275C139.693 249.797 137.261 248.621 134.622 247.345C133.681 246.889 132.713 246.421 131.701 245.922C131.565 245.902 131.367 245.881 131.103 245.861C130.496 245.818 129.755 245.801 129.056 245.799C128.388 245.798 127.812 245.811 127.499 245.818H127.471C127.403 245.819 127.324 245.821 127.268 245.821H127.2C127.187 245.821 127.104 245.821 127.007 245.816C126.976 245.814 126.919 245.811 126.848 245.804L126.846 245.803C126.801 245.799 126.624 245.781 126.404 245.731C126.27 245.696 125.906 245.577 125.681 245.479C125.237 245.225 124.125 244.013 123.75 242.937C123.785 241.613 124.743 239.901 125.253 239.49C125.508 239.336 125.924 239.143 126.075 239.088C126.314 239.009 126.51 238.972 126.555 238.964H126.559C126.634 238.949 126.694 238.941 126.725 238.937C126.79 238.928 126.841 238.923 126.862 238.921C126.975 238.909 127.191 238.898 127.374 238.888L127.452 238.884C127.937 238.858 129.136 238.43 130.921 237.412C132.424 236.552 133.881 235.554 134.982 234.797C135.067 234.739 135.151 234.683 135.232 234.627C140.619 230.936 145.411 226.337 150.167 221.371C151.661 219.812 153.169 218.196 154.692 216.562C157.926 213.099 161.23 209.558 164.635 206.302C168.803 202.316 172.776 198.14 176.817 193.895C178 192.653 179.188 191.404 180.39 190.151C185.651 184.666 191.1 179.176 197.083 174.212C197.601 173.782 198.099 173.455 198.508 173.205C198.229 172.986 197.812 172.656 197.454 172.301C195.38 170.249 193.261 168.675 190.905 166.924C189.724 166.046 188.484 165.124 187.161 164.076C176.725 155.815 166.109 152.512 152.689 149.641C151.588 149.405 150.205 148.808 149.359 147.399C148.529 146.017 148.672 144.605 148.901 143.732C149.325 142.12 150.458 140.698 151.17 139.892C152.208 138.718 153.067 137.351 154.057 135.708C154.137 135.575 154.218 135.44 154.301 135.302C155.187 133.826 156.21 132.123 157.467 130.55C159.248 128.321 160.917 125.986 162.658 123.551L162.83 123.31C164.614 120.815 166.473 118.222 168.511 115.71C174.164 108.737 180.192 102.399 186.394 96.1048C186.996 95.4936 187.852 94.9149 188.443 94.5211C188.73 94.3299 188.999 94.1541 189.26 93.9827C189.681 93.7081 190.083 93.4445 190.517 93.146C191.197 92.6774 191.695 92.2941 192.007 91.994C192.025 91.9756 192.044 91.9582 192.06 91.9419C192.572 90.4027 194.126 89.3859 195.812 89.5944ZM192.207 91.7754C192.208 91.7752 192.199 91.7915 192.171 91.8245C192.192 91.792 192.205 91.7756 192.207 91.7754Z" fill="black"/>
<path fill-rule="evenodd" clip-rule="evenodd" d="M198.337 78.7202L197.962 82.1571C197.733 84.2448 196.68 86.2365 195.872 87.633C195.533 88.2195 195.17 88.8083 194.85 89.3301C194.764 89.4699 194.68 89.6049 194.601 89.7338C194.203 90.3847 193.906 90.8887 193.698 91.3027C191.413 95.8469 188.694 100.213 186.074 104.423C185.052 106.062 184.046 107.678 183.086 109.272C182.813 109.723 182.543 110.174 182.271 110.625C176.238 120.633 170.262 130.549 165.287 140.916C165.071 141.367 164.801 141.96 164.493 142.638C163.825 144.106 162.976 145.972 162.103 147.641C161.258 149.257 160.185 151.119 158.883 152.673C178.746 158.178 196.994 165.94 214.023 178.476C214.49 178.821 215.148 179.372 215.606 180.171C216.148 181.118 216.544 182.782 215.478 184.336C214.688 185.489 213.533 185.85 213.074 185.97C212.479 186.126 211.89 186.167 211.401 186.167C207.506 186.167 204.254 187.861 200.109 190.433C190.328 196.502 181.061 203.261 171.996 210.485C169.406 212.55 166.7 214.495 164.074 216.383C163.498 216.797 162.926 217.209 162.36 217.617C159.173 219.922 156.127 222.19 153.32 224.684C148.836 228.667 143.897 232.376 139.094 235.981C138.297 236.58 137.505 237.174 136.719 237.768C132.523 240.933 128.488 244.057 124.839 247.345C124.856 247.352 124.872 247.358 124.888 247.365C126.142 247.847 127.451 248.33 128.558 248.738L128.813 248.833C129.796 249.194 130.758 249.549 131.183 249.742C140.139 253.787 148.685 260.019 156.626 265.807C159.118 267.624 161.551 269.398 163.918 271.047C166.041 272.525 167.925 274.247 169.625 275.819C169.724 275.909 169.821 276 169.917 276.089C171.554 277.602 173.024 278.962 174.603 280.135C175.456 280.768 176.38 281.548 176.994 282.525C177.334 283.066 177.631 283.749 177.723 284.562C177.819 285.396 177.672 286.149 177.425 286.778C177.014 287.818 176.265 288.607 175.911 288.98L175.885 289.007C175.74 289.16 175.61 289.296 175.484 289.423C175.184 289.733 174.925 290.001 174.623 290.357C174.266 290.777 173.912 291.193 173.56 291.608C167.704 298.489 162.45 304.668 158.103 312.401C154.131 319.468 149.011 327.191 142.577 332.797L139.995 335.048L135.568 329.797L138.15 327.547C143.696 322.714 148.353 315.807 152.197 308.969C156.883 300.632 162.546 293.978 168.318 287.197C168.703 286.745 169.089 286.29 169.475 285.836C169.651 285.628 169.823 285.436 169.985 285.258C168.333 283.975 166.808 282.563 165.404 281.264C165.285 281.153 165.167 281.044 165.05 280.936C163.329 279.345 161.762 277.929 160.073 276.751C157.431 274.91 154.82 273.009 152.218 271.113C144.407 265.423 136.679 259.793 128.42 256.061C128.414 256.058 128.363 256.036 128.243 255.988C128.123 255.942 127.968 255.882 127.778 255.811C127.396 255.666 126.91 255.487 126.345 255.278L126.227 255.235C125.129 254.83 123.778 254.333 122.477 253.832C121.148 253.319 119.787 252.77 118.772 252.293C118.298 252.07 117.731 251.785 117.265 251.465C117.088 251.342 116.593 250.997 116.186 250.428C115.976 250.136 115.578 249.495 115.51 248.572C115.429 247.471 115.854 246.481 116.522 245.802C121.398 240.846 127.07 236.434 132.665 232.215C133.475 231.603 134.283 230.997 135.087 230.393C139.902 226.776 144.588 223.256 148.844 219.476C151.924 216.739 155.208 214.303 158.418 211.981C159.014 211.551 159.607 211.125 160.195 210.702C162.814 208.818 165.353 206.992 167.8 205.041C177.012 197.701 186.5 190.777 196.565 184.53C199.058 182.983 201.734 181.402 204.757 180.378C189.21 170.007 172.498 163.385 154.101 158.536C153.432 158.36 152.612 158.116 151.898 157.734C151.29 157.409 149.771 156.458 149.533 154.449C149.315 152.616 150.368 151.318 150.806 150.824C151.365 150.193 152.095 149.6 152.837 149.052C153.698 148.415 154.835 146.806 156.096 144.394C156.893 142.87 157.555 141.412 158.172 140.052C158.515 139.297 158.843 138.573 159.173 137.884C164.295 127.209 170.429 117.035 176.416 107.1C176.707 106.62 176.996 106.139 177.284 105.66C178.362 103.874 179.436 102.147 180.495 100.448C183.049 96.3447 185.506 92.3991 187.64 88.1553C187.993 87.4537 188.43 86.7277 188.826 86.0801C188.923 85.9221 189.017 85.7676 189.111 85.6157C189.425 85.1058 189.72 84.6245 190.007 84.1281C190.806 82.7487 191.148 81.8788 191.2 81.3933L191.577 77.9565L198.337 78.7202ZM210.103 184.134C210.101 184.134 210.091 184.125 210.075 184.11C210.095 184.125 210.103 184.134 210.103 184.134Z" fill="black"/>
<path fill-rule="evenodd" clip-rule="evenodd" d="M266.461 13.6544C261.624 13.5646 256.925 13.4774 252.195 13.7761C248.855 13.9871 245.336 15.559 241.626 17.9055C239.176 19.4552 236.935 21.1367 234.7 22.8141C233.47 23.7365 232.243 24.6577 230.984 25.555C223.457 30.9165 217.48 37.6259 212.281 45.5067C206.542 54.205 203.102 61.7074 199.466 71.7772C196.948 78.7479 195.016 84.6595 195.016 91.4107V94.8791H188.15V91.4107C188.15 83.3102 190.499 76.3676 193.017 69.3991C196.786 58.9633 200.451 50.9329 206.57 41.6587C212.128 33.2351 218.663 25.844 227.029 19.8854C228.014 19.1835 229.106 18.3651 230.269 17.4938C232.65 15.7107 235.327 13.7061 237.983 12.0257C242.026 9.46871 246.718 7.17164 251.767 6.85279C256.77 6.53679 261.953 6.63151 266.946 6.72276C269.247 6.76484 271.508 6.80615 273.692 6.80615C283.546 6.80615 292.628 7.88395 300.234 16.9695C306.452 24.3928 311.573 35.0069 313.603 44.4853C314.205 47.3061 314.928 50.0892 315.672 52.9572C315.842 53.6087 316.012 54.2643 316.182 54.926C317.091 58.4583 317.987 62.1134 318.607 65.8695C319.343 70.3387 319.523 74.865 319.597 79.2271C319.617 80.3729 319.628 81.5006 319.642 82.6144C319.676 85.8181 319.709 88.907 319.909 91.9816C320.901 107.254 318.074 119.212 310.552 132.686C297.535 156.004 281.67 178.359 263.172 197.695C260.474 200.515 259.191 202.135 257.777 205.204C256.206 208.614 254.757 212.062 253.282 215.577C253.117 215.969 252.952 216.362 252.785 216.756C251.145 220.656 249.457 224.625 247.566 228.553C239.557 245.199 229.265 260.45 219.176 275.401L218.894 275.821C216.883 278.803 214.71 281.663 212.6 284.443L212.436 284.658C210.255 287.533 208.138 290.329 206.191 293.242C203.48 297.296 200.698 301.407 195.11 303.59C193.399 304.257 191.907 305.201 190.32 306.37C189.792 306.758 189.175 307.236 188.515 307.745C187.421 308.591 186.208 309.53 185.079 310.313C184.744 310.545 184.406 310.779 184.066 311.013C182.848 311.852 181.604 312.708 180.401 313.632C178.859 314.818 177.615 315.946 176.811 316.995C175.616 318.556 174.316 319.901 173.09 321.114C172.724 321.477 172.369 321.821 172.026 322.156C171.178 322.985 170.389 323.753 169.606 324.594C169.234 324.992 168.947 325.405 168.523 326.014C168.375 326.229 168.208 326.468 168.015 326.74C167.38 327.634 166.447 328.875 165.065 329.807L162.208 331.731L158.4 325.959L161.256 324.035C161.539 323.844 161.87 323.494 162.437 322.696C162.523 322.575 162.62 322.434 162.728 322.278C163.197 321.598 163.862 320.636 164.61 319.835C165.514 318.866 166.479 317.926 167.368 317.059C167.687 316.747 167.995 316.446 168.289 316.156C169.452 315.007 170.48 313.929 171.379 312.754C172.734 310.983 174.542 309.419 176.247 308.11C177.606 307.065 179.047 306.075 180.281 305.224C180.599 305.005 180.905 304.796 181.19 304.597C182.261 303.854 183.122 303.182 184.043 302.466C184.721 301.938 185.431 301.386 186.277 300.764C188.087 299.43 190.132 298.097 192.635 297.12C195.999 295.806 197.738 293.492 200.502 289.357C202.582 286.246 204.823 283.29 206.99 280.435L207.105 280.284C209.25 277.458 211.321 274.731 213.222 271.913L213.372 271.691C223.551 256.606 233.604 241.708 241.394 225.519C243.2 221.767 244.827 217.942 246.467 214.043C246.634 213.65 246.799 213.255 246.966 212.86C248.434 209.362 249.931 205.801 251.553 202.276C253.411 198.246 255.254 195.992 258.237 192.873C276.271 174.023 291.798 152.162 304.574 129.277C311.466 116.931 313.959 106.309 313.06 92.4354C312.847 89.155 312.811 85.7932 312.774 82.5376C312.763 81.4598 312.751 80.3936 312.733 79.3458C312.661 75.0534 312.486 70.9504 311.836 67.0098C311.27 63.579 310.44 60.1765 309.537 56.6714C309.375 56.0429 309.212 55.4096 309.045 54.7722C308.3 51.8963 307.531 48.9344 306.892 45.9512C305.099 37.5657 300.472 27.9911 294.994 21.4504C289.424 14.7967 283.035 13.743 273.692 13.743C271.236 13.743 268.832 13.6984 266.461 13.6544Z" fill="black"/>
<path fill-rule="evenodd" clip-rule="evenodd" d="M31.5945 111.13V114.589C31.5945 119.568 32.8782 124.577 34.736 129.735C35.6624 132.308 36.7127 134.868 37.7934 137.461C37.9427 137.819 38.0929 138.179 38.2435 138.539C39.1717 140.761 40.1133 143.016 40.967 145.244C43.5547 151.996 46.3724 158.695 49.2348 165.437C49.5571 166.196 49.88 166.955 50.2031 167.717C52.7436 173.694 55.3021 179.714 57.7173 185.778C58.719 188.292 59.684 190.783 60.6408 193.255C63.3852 200.342 66.0625 207.257 69.3452 214.031C78.3758 232.666 91.6578 248.865 105.054 265.201C107.925 268.702 110.801 272.21 113.641 275.75C122.997 287.407 131.612 299.525 139.674 312.087C140.875 313.958 142.189 315.904 143.531 317.889C145.614 320.971 147.762 324.151 149.648 327.292C149.785 327.521 149.967 327.81 150.173 328.138C150.691 328.963 151.363 330.031 151.878 331.014C152.634 332.459 153.45 334.4 153.45 336.566V340.024H146.605V336.566C146.605 336.09 146.406 335.353 145.828 334.25C145.438 333.504 145.042 332.879 144.602 332.182C144.35 331.782 144.084 331.361 143.796 330.88C141.956 327.815 140.049 324.998 138.084 322.097C136.726 320.094 135.341 318.049 133.932 315.853C125.988 303.474 117.514 291.555 108.326 280.107C105.589 276.698 102.783 273.278 99.9555 269.832C86.539 253.481 72.6221 236.519 63.1983 217.073C59.7805 210.02 56.9554 202.724 54.1824 195.562C53.2453 193.14 52.3142 190.735 51.3681 188.362C48.9844 182.376 46.4584 176.433 43.9144 170.447C43.5915 169.687 43.2683 168.926 42.9449 168.164C40.0821 161.421 37.2209 154.622 34.5847 147.742C33.7709 145.619 32.8739 143.471 31.9433 141.243C31.7917 140.88 31.6391 140.514 31.4858 140.147C30.4022 137.547 29.2939 134.849 28.3043 132.101C26.3294 126.618 24.75 120.734 24.75 114.589V111.13H31.5945Z" fill="black"/>
<path fill-rule="evenodd" clip-rule="evenodd" d="M25.7402 29.1064C30.7641 26.4194 36.1317 24.0573 41.5293 21.6819C43.6065 20.7677 45.6882 19.8516 47.7564 18.9143C68.4402 9.54051 94.4688 13.303 115.956 21.2416C117.63 21.8602 119.324 22.4467 121.037 23.0399C123.854 24.0152 126.723 25.0087 129.647 26.1938C134.255 28.0613 138.372 30.1786 141.382 32.8365C148.31 38.9545 155.066 46.0076 161.344 52.9801C164.847 56.8711 168.171 60.9036 171.552 65.0032C172.171 65.7552 172.793 66.5095 173.418 67.2657C177.428 72.1136 181.551 77.0082 186.041 81.6335C187.419 83.053 188.574 84.676 189.862 86.5416C189.953 86.6723 190.044 86.8047 190.136 86.9382C191.309 88.6403 192.626 90.5509 194.208 92.3077C194.914 93.0921 195.51 93.7204 196.002 94.1943C196.385 94.5614 197.022 95.1578 197.751 95.5126C197.969 95.6189 198.353 95.7831 198.85 95.8591C199.351 95.9359 200.208 95.9546 201.1 95.4643C203.044 94.3973 202.958 92.3602 202.947 92.1122C202.922 91.5692 202.787 91.1147 202.717 90.8944C202.63 90.6226 202.526 90.3603 202.429 90.1323C201.967 89.0488 200.98 87.2548 200.132 85.7153C199.772 85.0613 199.437 84.4532 199.178 83.9649L199.14 83.8931C196.05 78.0518 193.25 72.7627 189.478 67.0771C181.835 55.5574 170.681 44.7976 160.169 36.4454C157.718 34.4987 155.166 32.3879 152.55 30.2235C148.418 26.8063 144.125 23.255 139.812 20.0024C132.65 14.6013 124.94 9.61887 116.522 6.47869C111.69 4.67644 106.885 3.79658 102.254 3.13594C100.794 2.92751 99.3721 2.74297 97.9725 2.5613C94.829 2.15322 91.7964 1.75955 88.6811 1.14222C72.861 -1.99254 55.0661 1.64344 40.7817 8.16821C34.9519 10.8311 28.8776 15.7467 24.5287 19.8438C23.4275 20.8813 22.2385 22.2359 21.0868 23.7541C19.3387 24.7209 17.6294 25.7305 15.9792 26.7919C15.6147 27.0263 15.2323 27.2674 14.8363 27.5169C11.2235 29.7942 6.48793 32.7793 4.05318 37.8609C1.01019 44.2121 0.717498 51.1245 0.462066 57.1572L0.459974 57.2066C0.437255 57.7432 0.413969 58.2839 0.390511 58.8288C-0.026016 68.5021 -0.495754 79.4112 1.22233 89.3388C6.26404 118.471 20.2059 144.802 36.0004 168.72C40.0361 174.83 43.9435 181.12 47.8762 187.449C57.3715 202.734 67.0156 218.257 78.9779 232.095C82.7463 236.456 86.507 240.679 90.2466 244.879C95.3692 250.633 100.452 256.342 105.462 262.295C112.757 270.966 117.721 279.555 122.683 290.026C123.674 292.116 124.66 294.224 125.65 296.338C128.376 302.16 131.13 308.044 134.082 313.812C135.633 316.843 138.018 321.366 142.355 323.545L145.442 325.096L148.529 318.893L145.442 317.342C143.407 316.319 141.905 313.933 140.22 310.641C137.328 304.99 134.651 299.271 131.943 293.486C130.942 291.348 129.937 289.2 128.915 287.043C123.796 276.241 118.534 267.09 110.732 257.816C105.715 251.853 100.467 245.957 95.2542 240.1C91.5149 235.899 87.7937 231.719 84.1889 227.547C72.5997 214.141 63.4177 199.357 54.0505 184.276C50.0518 177.839 46.0193 171.347 41.7513 164.884C26.1637 141.281 12.8239 115.894 8.0225 88.1503C6.43681 78.9878 6.87397 68.7713 7.29671 58.8913C7.31656 58.4273 7.33639 57.964 7.35598 57.5016C7.62109 51.2406 7.93381 45.7503 10.2721 40.8699C11.2713 38.7845 12.8994 37.2451 15.0025 35.7286C14.8775 36.3275 14.7917 36.9198 14.7533 37.4994C13.7084 53.2496 13.9559 70.6212 17.9916 86.2644C18.3813 87.7748 18.6947 89.2348 19.0233 90.767C19.1182 91.2089 19.2142 91.6567 19.3139 92.1137C19.7503 94.1153 20.2407 96.2218 20.9443 98.4212C22.6524 103.762 23.9936 109.808 23.9936 115.109V118.577H30.8959V115.109C30.8959 108.788 29.3281 101.966 27.5154 96.2986C26.9153 94.4224 26.4807 92.5763 26.0563 90.6292C25.9674 90.2218 25.8783 89.8063 25.7878 89.3844C25.4545 87.8304 25.1021 86.187 24.6731 84.5237C20.9057 69.9209 20.6161 53.3984 21.6402 37.9608C21.7406 36.4491 22.6933 34.0072 24.3309 31.2769C24.7807 30.527 25.2565 29.7976 25.7402 29.1064ZM114.12 12.9813C111.45 11.9852 108.74 11.2998 105.952 10.7674C110.162 11.9082 114.248 13.2266 118.148 14.6615C116.818 14.0492 115.476 13.4871 114.12 12.9813Z" fill="black"/>
</g>
<defs>
<clipPath id="clip0_588_6893">
<rect width="330" height="345" fill="white"/>
</clipPath>
</defs>
</svg>
