<svg width="265" height="375" viewBox="0 0 265 375" fill="none" xmlns="http://www.w3.org/2000/svg">
<g clip-path="url(#clip0_588_6901)">
<path fill-rule="evenodd" clip-rule="evenodd" d="M133.593 53.3399C140.88 44.2948 148.722 36.7222 155.617 30.0634C157.264 28.473 158.857 26.9347 160.375 25.441C168.708 17.2439 179.995 7.25074 197.148 3.35722C196.049 3.60653 204.548 1.28561 209.856 0.530365C212.959 0.0888542 217.975 -0.403115 223.4 0.534585C228.755 1.45975 238.767 4.64011 244.636 15.2994C247.735 20.9266 249.329 26.6633 250.276 30.537C250.735 32.4152 251.135 34.2745 251.45 35.7331L251.518 36.0525C251.874 37.7022 252.122 38.823 252.366 39.7791C253.642 44.7913 254.759 49.3785 255.838 53.8154C257.351 60.0403 258.793 65.9695 260.51 72.3624C270.586 109.901 262.582 143.997 247.65 174.92C229.778 211.93 203.246 245.001 179.383 273.803C175.201 278.853 171.255 283.414 167.535 287.716C158.437 298.232 150.695 307.182 144.165 317.858C143.75 318.537 143.289 319.311 142.782 320.161C139.754 325.245 135.096 333.063 128.846 339.698C128.815 339.737 128.653 339.931 128.317 340.374C128.071 340.697 127.803 341.059 127.439 341.552C127.105 342.005 126.663 342.606 126.212 343.206L126.199 343.224C124.687 345.233 121.217 349.848 116.142 353.505C115.413 354.031 114.395 354.959 111.937 357.508C111.754 357.697 111.557 357.902 111.346 358.122C109.298 360.257 105.962 363.737 102.155 366.755C99.3593 368.971 94.8659 371.85 88.8117 372.946C82.0137 374.176 75.1354 372.79 69.3918 369.123C60.2413 363.278 57.3664 353.851 56.6355 351.454L56.6166 351.391C55.4503 347.57 54.8819 343.781 54.587 341.707C54.2296 339.192 54.181 338.785 54.2199 338.916C52.0093 329.551 48.9497 320.226 45.4734 309.755L45.144 308.764C41.8278 298.778 38.1401 287.675 35.3608 276.155C29.8887 253.474 27.636 231.079 26.0815 209.57C25.747 204.944 25.4582 200.292 25.1974 195.653C23.625 189.677 22.1489 183.672 20.7638 177.616C20.3917 175.99 19.92 174.474 19.1584 172.026C18.9074 171.22 18.6251 170.311 18.3045 169.266C17.2181 165.723 15.6875 160.53 14.9796 154.817C13.9732 146.693 14.4314 139.142 16.2136 132.087C16.568 121.336 18.3829 110.698 21.1727 101.852C23.3202 95.0429 25.9145 87.5651 29.5893 79.9595C32.7542 73.4095 37.3031 68.7113 39.3986 66.5467C39.469 66.4741 39.5364 66.4044 39.601 66.3375C41.6115 64.2572 42.114 63.681 42.1667 63.6377C42.1977 63.5858 42.2296 63.5326 42.2624 63.4781C44.9249 59.0452 52.9972 45.6053 62.8598 35.6014C67.4808 30.9142 75.7554 23.5106 86.8436 21.0338C93.1325 19.629 100.53 19.7834 107.874 23.0909C115.007 26.3037 120.037 31.5651 123.476 36.83C126.976 42.188 130.368 47.6798 133.593 53.3399ZM100.136 68.6273C100.136 68.6282 100.115 68.6421 100.074 68.6665C100.115 68.6386 100.136 68.6265 100.136 68.6273Z" fill="#FB0153"/>
<path fill-rule="evenodd" clip-rule="evenodd" d="M189.364 21.6342C188.658 21.9481 188.005 22.2373 187.422 22.4872C183.881 24.0039 180.161 25.1269 176.694 26.1742C175.327 26.5865 174.002 26.987 172.74 27.3952C172.34 27.5245 171.945 27.6554 171.551 27.7884C168.922 29.7607 166.59 32.0285 164.398 34.9338C161.104 39.2977 157.048 44.0075 153.06 47.8828C152.193 48.7259 151.102 49.6493 150.132 50.4709C149.605 50.9174 149.114 51.3336 148.713 51.6907C147.383 52.8747 146.394 53.9295 145.747 55.0666C139.119 66.7283 134.536 81.7338 137.319 94.6745C137.525 95.6313 137.702 96.6224 137.867 97.5982C139.278 99.5408 140.759 101.612 142.183 103.733C142.642 103.032 143.053 102.327 143.408 101.613L144.915 98.5844L150.94 101.613L149.434 104.642C148.488 106.542 147.301 108.301 146.026 109.936C146.221 110.285 146.41 110.633 146.594 110.98C147.18 112.085 147.626 112.691 147.867 112.988C147.987 113.136 148.074 113.229 148.156 113.317C148.159 113.321 148.305 113.474 148.426 113.626L148.431 113.631C148.481 113.694 148.706 113.973 148.888 114.374C148.983 114.584 149.798 116.433 148.323 118.072C147.722 118.74 147.029 118.987 146.668 119.081C146.293 119.18 145.983 119.191 145.83 119.192C145.529 119.195 145.287 119.155 145.231 119.146C145.141 119.132 145.062 119.116 145.031 119.11L144.936 119.09C144.858 119.075 144.774 119.059 144.65 119.047C144.403 119.023 143.851 119.002 142.925 119.171C142.123 119.318 140.907 119.926 139.293 121.259C137.738 122.545 136.099 124.264 134.449 126.183C132.806 128.094 131.231 130.112 129.772 131.98L129.695 132.08C128.308 133.856 126.959 135.584 125.849 136.785C120.962 142.071 116.545 147.766 112.05 153.607C111.863 153.849 111.677 154.092 111.49 154.335C107.202 159.908 102.821 165.601 97.9923 170.968C96.9381 172.14 95.3502 173.457 93.9759 174.598L93.779 174.761C92.9846 175.422 92.2433 176.041 91.5895 176.619C97.1588 176.677 103.435 177.402 109.404 179.121C115.615 180.907 121.711 183.831 126.263 188.408C127.029 189.178 127.795 189.918 128.562 190.634C131.724 190.215 134.719 189.577 137.479 188.573C138.178 188.318 139.824 187.93 141.072 187.891C141.387 187.881 141.95 187.88 142.55 188.037C142.911 188.13 144.891 188.711 145.26 190.941C145.422 191.914 145.148 192.703 144.925 193.156C144.702 193.612 144.424 193.949 144.226 194.164C143.831 194.594 143.358 194.956 142.932 195.251C142.68 195.425 142.234 195.85 141.62 196.652C141.034 197.416 140.419 198.357 139.791 199.395C139.772 199.426 139.754 199.456 139.735 199.487C140.296 199.873 140.865 200.26 141.443 200.646C142.378 201.273 142.794 202.204 142.91 202.959C143.009 203.607 142.897 204.124 142.836 204.356C142.713 204.828 142.514 205.17 142.456 205.269C142.301 205.534 142.128 205.757 142.039 205.869C141.828 206.135 141.556 206.442 141.289 206.735C140.736 207.341 139.989 208.12 139.241 208.891C138.666 209.483 138.107 210.055 137.614 210.559C136.736 211.456 136.064 212.143 135.868 212.37C131.441 217.482 127.708 222.958 124.266 228.708C123.31 230.717 122.346 232.736 121.355 234.755C118.696 240.179 116.105 245.751 113.495 251.363C108.883 261.283 104.212 271.329 98.9993 280.907C98.076 282.603 97.065 284.274 95.9844 285.894C98.3092 286.291 100.572 286.828 102.797 287.46C102.971 287.444 103.145 287.428 103.317 287.413C104.112 287.342 104.87 287.282 105.604 287.226C107.151 287.106 108.593 286.993 110.051 286.796C110.093 286.783 110.176 286.757 110.31 286.71C110.599 286.607 110.982 286.458 111.458 286.267C111.773 286.141 112.134 285.994 112.521 285.837C113.233 285.546 114.031 285.221 114.788 284.927C115.961 284.468 117.258 283.993 118.368 283.7C118.905 283.558 119.565 283.414 120.222 283.382C120.55 283.366 121.019 283.369 121.536 283.487C122.042 283.603 122.856 283.893 123.536 284.652C124.331 285.541 124.561 286.571 124.645 287.153C124.741 287.806 124.73 288.459 124.69 289.017C124.609 290.138 124.366 291.375 124.106 292.474C123.714 294.131 123.209 295.767 122.883 296.769C122.918 296.8 122.952 296.83 122.986 296.861C123.33 297.173 123.66 297.491 123.943 297.813C124.191 298.094 124.589 298.581 124.853 299.229C125.162 299.987 125.367 301.209 124.69 302.442C124.138 303.448 123.283 303.895 122.996 304.038C122.655 304.207 122.302 304.325 122.182 304.367C121.991 304.434 121.91 304.461 121.828 304.495C121.816 304.5 121.805 304.503 121.797 304.508C119.453 306.999 117.447 310.228 115.587 313.822C114.32 316.27 113.198 318.727 112.081 321.17C111.519 322.4 110.959 323.627 110.382 324.849C108.674 328.463 107.107 332.155 105.511 335.918L105.261 336.504C104.558 338.161 103.848 339.831 103.119 341.502C103.254 341.761 103.386 342.021 103.515 342.284C103.774 341.83 104.035 341.371 104.286 340.946C104.605 340.403 104.94 339.852 105.263 339.381C105.509 339.024 106.003 338.319 106.667 337.818C107.705 337.038 108.445 336.357 109.268 335.601C109.765 335.145 110.292 334.662 110.932 334.11C112.51 332.754 114.346 331.426 116.983 330.462C118.21 330.015 119.311 329.297 120.363 328.343C121.464 327.039 122.58 325.742 123.693 324.456C123.97 324.073 124.249 323.673 124.532 323.261C124.915 322.704 125.317 322.102 125.731 321.483C126.556 320.248 127.431 318.939 128.298 317.761C129.643 315.931 131.201 314.074 133.108 312.583C133.534 312.251 133.972 311.893 134.419 311.517C135.016 310.715 135.598 309.91 136.163 309.097C138.747 305.376 141.099 301.552 143.507 297.635C144.348 296.266 145.197 294.886 146.065 293.496C149.375 288.191 152.906 282.832 157.165 277.872C158.723 276.058 160.283 274.259 161.841 272.471C162.604 271.02 163.365 269.562 164.128 268.099C164.353 267.668 164.578 267.236 164.803 266.804C170.096 256.639 175.504 246.259 182.069 236.576C192.138 221.73 202.185 206.774 209.859 190.881C219.107 171.731 223.267 153.117 223.917 131.563C224.657 106.986 222.232 82.3548 219.046 57.7938C218.657 54.8053 218.368 51.6035 218.077 48.3811L218.024 47.8012C217.713 44.356 217.39 40.8755 216.931 37.4392C216.841 36.7613 216.746 36.0881 216.645 35.4205C215.292 33.4272 213.831 31.7418 212.296 30.5148C206.828 26.1504 202.067 22.5501 197.096 20.7577C195.943 20.3411 194.77 20.0206 193.567 19.8194C192.04 20.4473 190.615 21.0793 189.364 21.6342ZM204.289 16.6244C207.527 18.3931 210.617 20.6209 213.614 22.9456C213.087 21.5507 212.495 20.2207 211.823 18.9674C211.125 17.6625 210.053 16.9454 208.412 16.6349C207.251 16.4154 205.86 16.4198 204.289 16.6244ZM226.135 60.1021C229.133 83.7368 231.376 107.721 230.65 131.769C229.975 154.18 225.623 173.746 215.92 193.839C207.998 210.246 197.671 225.596 187.636 240.391C185.601 243.391 183.68 246.465 181.832 249.595C183.234 247.956 184.633 246.307 186.024 244.644C207.672 218.78 230.16 189.706 237.186 157.175C240.935 139.816 238.158 121.617 235.378 103.405C234.814 99.7146 234.252 96.0236 233.743 92.3389C233.561 91.0217 233.152 89.7224 232.611 88.1959C232.524 87.9501 232.432 87.6945 232.336 87.4306C231.873 86.1488 231.34 84.6696 230.963 83.1481C230.404 80.9032 230.076 78.6333 229.782 76.5334C229.765 76.402 229.745 76.2713 229.728 76.1411C229.448 74.1394 229.191 72.2972 228.793 70.5037C228.019 67.0102 227.105 63.5649 226.135 60.1021ZM167.425 276.343C169.635 273.811 171.865 271.279 174.1 268.739C179.842 262.212 185.617 255.65 191.179 249.005C212.739 223.245 236.345 192.992 243.769 158.612C247.809 139.907 244.785 120.214 241.988 102.004C241.437 98.4077 240.893 94.869 240.416 91.4072C240.133 89.3621 239.521 87.5148 238.956 85.922C238.845 85.6075 238.736 85.3055 238.632 85.0133C238.176 83.7451 237.785 82.6582 237.498 81.5054C237.037 79.6513 236.751 77.7116 236.454 75.5912C236.433 75.4424 236.412 75.2925 236.391 75.1417C236.121 73.1992 235.829 71.0992 235.368 69.0283C234.136 63.4791 232.562 58.0151 231.021 52.6663C230.651 51.3837 230.283 50.1077 229.922 48.8387C228.851 45.0685 227.213 40.579 225.025 36.3643C224.426 35.2078 223.774 34.0532 223.072 32.928C222.081 26.9405 220.533 20.9434 217.755 15.7565C215.917 12.324 212.904 10.5931 209.657 9.979C206.547 9.3912 203.171 9.80019 200.091 10.5251C197.565 11.1192 195.011 11.9872 192.679 12.8886C188.169 12.5096 183.382 13.386 178.199 15.9912C174.669 17.7654 171.423 19.558 168.407 21.7136C164.249 23.1808 160.029 25.0797 156.098 28.1542C155.917 28.2955 155.735 28.4379 155.551 28.5814C147.437 34.9231 136.416 43.5363 130.882 53.5508L129.247 56.511L135.136 59.8L136.771 56.8398C137.416 55.6726 138.154 54.5208 138.969 53.3853C133.898 62.7931 129.87 74.4753 129.755 86.0331C123.446 75.2264 116.552 64.6264 108.517 55.0251C104.757 50.5312 101.003 46.0467 95.2219 42.7118C91.8463 40.7647 88.2429 40.1526 84.8949 39.9801C83.5813 39.9124 82.1771 39.9139 80.7951 39.9384C78.5237 38.6676 76.1467 37.5325 73.6382 36.6318C70.9227 35.6568 68.0854 35.4205 65.5082 35.3901C64.2103 35.3749 62.9205 35.4124 61.7135 35.4509C61.6061 35.4544 61.4994 35.4578 61.3936 35.4612C60.2857 35.497 59.257 35.5301 58.2619 35.5301C44.5292 35.5301 29.8881 40.7421 18.9244 48.9069C18.5166 49.2105 18.1074 49.5129 17.6977 49.8157C13.1492 53.1766 8.53422 56.5867 5.0969 62.3461C1.4899 68.39 1.25849 74.9044 1.04826 80.823C1.02417 81.5012 1.00035 82.1718 0.971758 82.8329C0.628874 90.7613 0.656959 98.8802 0.971272 106.78C0.983076 107.077 0.99692 107.373 1.01265 107.669C0.0189014 115.855 0.0189587 124.076 0.0190193 132.72L0.0190203 132.922C0.0190203 134.512 0.0143833 136.126 0.00968849 137.76C-0.0522097 159.305 -0.124186 184.358 10.2873 204.711C12.361 208.765 14.4263 212.853 16.4983 216.952C16.9476 217.843 17.3973 218.732 17.8473 219.622C20.0369 225.512 22.4145 231.322 24.88 237.105C28.3955 245.352 32.7277 253.398 36.9733 261.284C39.4567 265.898 41.9106 270.456 44.1543 274.967C50.7332 288.196 57.5199 301.445 65.2287 314.2C70.9069 323.596 75.0689 333.208 78.8894 343.657C79.3673 344.963 79.849 346.241 80.3226 347.499C83.0319 354.692 85.4794 361.19 85.4794 368.313L85.4792 368.35C85.4781 368.609 85.4721 369.881 85.6008 370.946C85.6366 371.242 85.6922 371.607 85.7858 371.974C85.8525 372.236 86.0413 372.949 86.5559 373.61C86.8413 373.977 87.3954 374.546 88.2948 374.834C89.2825 375.149 90.2169 374.977 90.909 374.64C91.9857 374.114 92.515 373.183 92.6699 372.91L92.6718 372.907C93.9798 370.607 95.8966 368.58 98.024 366.331C98.7417 365.573 99.4836 364.789 100.234 363.96C105.771 357.849 110.846 351.304 115.835 344.869C118.114 341.93 120.376 339.015 122.655 336.173C123.502 335.117 124.365 334.072 125.243 333.029C126.677 331.67 127.9 330.152 128.982 328.663C129.231 328.376 129.48 328.088 129.73 327.8C130.561 326.842 131.398 325.875 132.239 324.895C134.656 322.083 137.078 319.194 139.347 316.194C143.692 312.438 148.551 307.227 151.864 302.549C157.771 294.205 162.72 285.27 167.425 276.343ZM101.331 352.334C99.3642 354.726 97.3515 357.084 95.2532 359.4C94.7418 359.964 94.1629 360.575 93.5468 361.224C93.003 361.797 92.4302 362.4 91.8496 363.029C90.9763 356.568 88.6843 350.522 86.5493 344.888C86.0913 343.679 85.6405 342.49 85.2123 341.319C81.3071 330.64 76.9711 320.586 70.986 310.684C65.7277 301.983 60.8919 293.022 56.2247 283.928C56.7532 284.661 57.2814 285.391 57.8092 286.122C62.8243 293.061 67.7941 299.937 72.5013 307.034C74.2063 309.606 75.9106 312.17 77.613 314.73C81.99 321.314 86.354 327.876 90.6801 334.498C91.2944 335.439 91.9195 336.357 92.5483 337.28C92.9932 337.933 93.44 338.589 93.8863 339.259C92.8327 341.636 91.8211 343.988 90.847 346.283C90.4524 347.214 90.1463 348.032 89.9326 348.742C89.7349 349.397 89.5506 350.169 89.543 350.934C89.5385 351.383 89.5851 353.635 91.7822 354.577C92.7566 354.996 93.65 354.883 94.1733 354.747C94.7023 354.609 95.1215 354.383 95.3966 354.213C96.3864 353.601 97.2839 352.569 97.9342 351.713C98.3454 351.17 98.7581 350.562 99.145 349.919C99.2669 350.282 99.4611 350.715 99.7799 351.134C100.149 351.621 100.675 352.064 101.331 352.334ZM97.1716 332.072C101.192 323.585 105.782 315.081 111.115 307.733C112.967 305.18 113.905 302.593 114.913 299.473C114.81 299.413 114.705 299.353 114.599 299.294C112.938 298.353 111.263 297.548 110.136 297.116C107.42 296.074 104.79 295.127 102.177 294.335C100.567 294.522 99.0827 294.777 97.701 295.19C97.2259 295.33 96.6453 295.385 96.3776 295.409H96.3723C95.9674 295.448 95.4745 295.481 94.9384 295.503C93.8714 295.55 92.535 295.565 91.2599 295.498C90.1067 295.437 88.582 295.295 87.3915 294.841C86.9332 294.666 85.5658 294.108 84.8858 292.624C84.7372 292.3 84.6408 291.984 84.5859 291.68C84.2376 291.609 83.7882 291.493 83.3359 291.286C82.9244 291.099 81.7356 290.492 81.2278 289.038C80.6315 287.329 81.4377 285.958 81.9139 285.367C82.3941 284.769 82.9938 284.342 83.4641 284.046C84.4735 283.413 85.5902 282.103 86.8882 280.157C87.4172 279.364 87.923 278.551 88.4453 277.71C88.5384 277.56 88.6321 277.409 88.7265 277.258C89.3296 276.289 89.9722 275.269 90.6247 274.371C96.7126 265.983 101.472 256.865 106.378 247.468C107.199 245.893 108.024 244.312 108.861 242.727L109.076 242.318C112.042 236.69 115.023 231.034 118.315 225.516C118.493 225.139 118.672 224.764 118.851 224.386C122.453 216.797 126.183 208.938 130.671 201.719C130.732 201.621 130.796 201.516 130.862 201.406C129.319 200.222 127.81 198.997 126.314 197.698C125.43 197.78 124.549 197.848 123.673 197.908C120.976 198.087 118.276 198.176 115.676 198.257L115.152 198.273C112.721 198.347 110.387 198.419 108.14 198.554C106.866 198.63 99.1087 198.807 91.6209 198.444C87.8891 198.265 84.07 197.945 81.1106 197.374C79.6588 197.095 78.1999 196.717 77.0175 196.157C76.1369 195.74 73.9417 194.541 73.7906 191.956C73.6228 189.087 74.7191 186.449 75.8305 184.414C76.6806 182.859 77.7423 181.319 78.5783 180.107C78.8283 179.743 79.0583 179.41 79.2564 179.114C87.0697 167.441 96.2705 156.183 105.652 145.861C114.708 135.899 123.497 125.758 132.149 115.418C133.037 114.356 134.05 113.239 135.068 112.135C133.687 109.817 132.9 107.284 132.358 104.922C132.302 104.676 132.248 104.431 132.196 104.185C129.983 100.116 127.74 96.0553 125.435 92.0377C115.002 77.9297 104.365 64.6807 90.2317 54.4792C89.58 54.0089 88.9361 53.5409 88.298 53.0772C85.159 50.7962 82.1606 48.6171 79.0754 46.757C77.9375 46.7908 76.7509 46.8247 75.4539 46.8247C61.7116 46.8247 47.6717 52.5873 34.9739 59.2065C24.8327 64.4929 18.8437 75.1901 13.7474 86.3976C10.4337 93.685 8.69047 100.688 7.77343 107.894C7.98708 111.334 8.46954 114.758 8.9742 118.339C9.02606 118.707 9.07815 119.077 9.13021 119.449C9.74744 123.854 10.3541 128.487 10.3541 133.274C10.3541 152.21 12.0715 172.513 16.1695 190.865C18.1591 199.775 20.873 208.379 24.0257 216.895C28.6542 226.049 33.296 235.17 38.1778 244.144C43.8137 254.504 50.4358 264.238 57.3503 273.929C59.2728 276.624 61.223 279.323 63.1805 282.031C68.2256 289.012 73.3188 296.058 78.1066 303.278C79.8015 305.834 81.4999 308.389 83.1991 310.944C87.5815 317.536 91.969 324.134 96.3111 330.781C96.5736 331.183 96.8631 331.616 97.1716 332.072ZM7.68918 83.431C12.7684 72.2806 19.5406 59.6226 31.8729 53.1939C40.0805 48.9153 49.2466 44.7564 58.8101 42.3C58.6268 42.3018 58.4441 42.3027 58.2619 42.3027C46.0774 42.3027 32.8245 46.9838 22.9342 54.3491C22.5663 54.6231 22.2049 54.8911 21.8501 55.1544C17.1463 58.6433 13.5879 61.2827 10.8736 65.8307C8.20813 70.2968 8.02272 75.0226 7.78077 81.1901C7.75605 81.8203 7.73074 82.4655 7.70212 83.1271C7.69774 83.2283 7.69343 83.3297 7.68918 83.431ZM85.2142 182.347C85.0909 182.53 84.968 182.712 84.8455 182.895C84.549 183.338 84.2528 183.768 83.9604 184.193C83.166 185.345 82.4001 186.457 81.735 187.675C81.1791 188.693 80.8245 189.566 80.6469 190.309C81.0834 190.442 81.6565 190.584 82.3792 190.723C84.8586 191.201 88.2938 191.504 91.9436 191.68C99.2189 192.031 106.733 191.854 107.738 191.793C110.088 191.652 112.516 191.578 114.924 191.504L115.469 191.488C116.789 191.447 118.103 191.404 119.413 191.35C116.17 188.814 112.067 186.931 107.55 185.631C102.023 184.041 96.0896 183.386 90.8468 183.386C89.2833 183.386 87.879 183.268 86.7085 182.943C86.2617 182.821 85.7362 182.635 85.2142 182.347ZM79.6651 189.905C79.6696 189.905 79.7075 189.925 79.7653 189.968C79.6892 189.928 79.6604 189.907 79.6651 189.905ZM115.297 292.013C115.864 292.293 116.445 292.592 117.021 292.904C117.184 292.345 117.349 291.74 117.497 291.136C117.407 291.17 117.317 291.205 117.225 291.241C116.56 291.499 115.92 291.76 115.297 292.013Z" fill="black"/>
</g>
<defs>
<clipPath id="clip0_588_6901">
<rect width="265" height="375" fill="white"/>
</clipPath>
</defs>
</svg>
