<svg width="300" height="355" viewBox="0 0 300 355" fill="none" xmlns="http://www.w3.org/2000/svg">
<g clip-path="url(#clip0_588_6859)">
<path fill-rule="evenodd" clip-rule="evenodd" d="M82.3421 0.362515C91.5986 -0.528124 105.863 -0.29367 118.595 7.16609C127.805 12.5625 134.668 19.9981 139.607 25.9658C141.983 28.836 144.228 31.7658 146.13 34.2482C146.243 34.3955 146.354 34.5412 146.465 34.6853C148.554 37.4106 150.225 39.5738 151.835 41.4783C154.741 44.9165 159.09 50.4108 162.779 57.2204C166.938 55.6663 171.289 54.4191 175.817 53.5748C197.032 49.6197 216.493 50.4624 237.363 56.7692C252.242 61.2653 268.784 68.8268 281.282 81.7459C294.691 95.6083 302.342 114.64 299.358 137.704C296.797 157.495 285.459 174.366 277.352 184.997C267.322 198.149 256.263 211.472 243.366 223.636C231.112 235.193 217.913 245.845 205.594 255.786C202.927 257.939 200.303 260.058 197.736 262.144C184.78 272.687 177.364 278.84 171.558 288.546C170.626 290.102 169.728 291.595 168.862 293.032C162.375 303.803 157.783 311.428 155.495 319.596C155.047 321.196 154.57 322.62 154.195 323.702C154.021 324.207 153.846 324.701 153.703 325.105L153.674 325.186C153.515 325.635 153.393 325.98 153.281 326.308C153.249 326.401 153.219 326.488 153.192 326.569C153.168 327.361 153.108 328.537 152.944 329.816C152.847 330.568 152.554 332.754 151.645 335.33C151.197 336.603 150.205 339.128 148.215 341.846C146.239 344.544 141.951 349.19 134.665 351.048C128.042 352.737 122.558 351.175 119.56 349.911C116.575 348.653 114.502 347.06 113.448 346.18C111.349 344.426 110.018 342.7 109.566 342.106C108.479 340.676 107.735 339.378 107.471 338.914C106.798 337.73 106.196 336.505 105.796 335.671C104.917 333.841 103.907 331.583 103.028 329.588C102.474 328.33 101.878 326.965 101.357 325.771C101.062 325.095 100.791 324.473 100.566 323.961C100.355 323.477 100.179 323.079 100.036 322.758C97.8002 319.084 95.2213 314.936 92.5619 310.657C88.7309 304.494 84.7326 298.062 81.3501 292.392C74.9796 281.714 68.9527 269.035 63.6435 257.868C60.9554 252.212 58.4513 246.945 56.1796 242.52C52.8894 236.11 49.3159 229.847 45.4258 223.028C44.8725 222.058 44.3127 221.077 43.7464 220.082C39.3264 212.321 34.5795 203.866 30.3236 194.948C28.3619 190.837 26.2088 186.648 23.8544 182.104C23.6226 181.656 23.3885 181.204 23.1525 180.75C21.0477 176.689 18.7899 172.334 16.6249 167.926C11.8159 158.137 6.8717 146.932 3.7563 134.661C-0.765832 116.848 -1.07385 94.9662 2.12815 77.4281C5.44261 59.2739 13.9808 44.9316 24.1641 33.0256C24.5807 32.5387 25.1094 31.8745 25.7472 31.0734C29.8513 25.9181 38.4696 15.0919 50.7468 9.32979C59.5715 5.18803 71.5409 1.40178 82.3421 0.362515ZM99.6126 321.831C99.6102 321.823 99.6474 321.898 99.7313 322.081C99.6569 321.929 99.6149 321.839 99.6126 321.831ZM143.88 59.9124C144.438 59.8597 144.988 59.8287 145.531 59.8178C144.976 59.8305 144.425 59.8622 143.88 59.9124ZM216.639 102.135C209.197 100.52 202.037 100.041 194.419 100.65C194.987 101.458 195.419 102.172 195.732 102.726C196.508 104.097 197.091 105.441 197.529 106.658C199.721 105.548 202.114 104.597 204.702 103.919C207.861 103.09 212.166 102.302 216.639 102.135ZM220.186 154.252C220.186 154.252 220.172 154.248 220.143 154.241C220.173 154.249 220.186 154.252 220.186 154.252Z" fill="#FB0153"/>
<path fill-rule="evenodd" clip-rule="evenodd" d="M102.802 18.8084C100.351 17.8865 97.4498 17.6242 91.8502 18.4429C91.33 18.5191 90.8073 18.6177 90.2825 18.7383C91.557 19.068 92.775 19.439 93.9196 19.8491C96.1097 20.6336 98.2008 21.2465 100.361 21.8795C101.426 22.1915 102.507 22.5084 103.626 22.8533C106.911 23.8666 110.301 25.065 113.652 26.9518C115.087 27.7597 116.469 28.586 117.809 29.4323C116.15 27.7976 114.424 26.3014 112.575 24.9907C111.949 24.5473 111.364 24.1303 110.814 23.738C107.234 21.1845 105.129 19.683 102.802 18.8084ZM151.903 71.1791C151.463 70.4279 151.073 69.6963 150.709 69.015C150.669 68.9384 150.628 68.8622 150.588 68.7869C149.467 66.6889 148.528 64.9947 147.084 63.5167C141.747 58.0532 136.185 52.6535 130.463 47.5851C123.891 41.7631 117.929 37.0151 110.494 32.8293C107.742 31.2795 104.865 30.2411 101.735 29.2759C100.794 28.9856 99.8054 28.6957 98.7868 28.3967C96.5283 27.7341 94.122 27.0283 91.7549 26.1802C88.419 24.985 84.163 24.134 79.655 23.787C76.1993 26.1983 72.7733 29.282 69.4889 32.8021C62.4111 40.388 56.4362 49.5223 52.7687 56.7522C52.2898 57.6966 51.803 58.6505 51.3119 59.613C48.1755 65.7598 44.8562 72.2651 42.176 78.9574C39.077 86.6953 36.9544 94.4018 36.9544 101.698V120.201C37.141 120.638 37.3284 121.076 37.5166 121.516L37.6174 121.752C39.4517 126.042 41.3373 130.466 42.9428 135.017C52.3991 161.822 62.7499 187.368 75.3725 212.608C83.781 229.421 90.539 247.008 96.8249 264.661C96.8772 264.509 96.9329 264.356 96.992 264.205C97.8681 261.954 99.4113 260.025 101.655 258.523C115.845 249.027 129.163 235.81 141.273 222.839L140.785 222.904L139.919 216.256L143.167 215.812C144.941 215.57 146.722 215.388 148.503 215.247C150.271 213.655 152.124 212.264 153.91 210.971C149.314 209.096 144.151 207.689 139.265 206.358C138.299 206.094 137.344 205.834 136.406 205.574C131.847 204.31 126.955 203.461 121.822 202.573C119.968 202.252 118.083 201.926 116.17 201.572C109.124 200.27 101.841 198.613 95.4496 195.43C93.5172 194.468 92.0987 192.917 91.5108 190.832C90.9648 188.895 91.2591 186.927 91.7933 185.236C92.8479 181.9 95.282 178.285 97.8444 175.037C100.47 171.707 103.51 168.419 106.089 165.714C106.951 164.81 107.741 163.991 108.445 163.26C109.937 161.713 111.045 160.565 111.633 159.853C123.782 145.157 135.646 130.991 148.638 117.114C149.251 116.46 150.033 115.872 150.783 115.373C146.996 114.931 143.052 114.88 138.913 114.863C138.579 114.862 138.242 114.861 137.905 114.86C132.973 114.843 127.767 114.826 122.679 114.082C120.65 113.785 119.492 112.338 118.929 111.147C118.396 110.016 118.202 108.769 118.127 107.774C117.973 105.748 118.232 103.582 118.493 102.377C118.721 101.329 119.285 100.473 119.693 99.9259C120.152 99.3118 120.709 98.7076 121.279 98.1435C122.423 97.012 123.856 95.8104 125.258 94.6989C126.672 93.5773 128.127 92.4906 129.334 91.5933L129.655 91.3545C130.747 90.5433 131.521 89.9677 131.917 89.6389C133.92 87.976 135.932 86.287 137.953 84.5902C139.81 83.0314 141.674 81.4662 143.546 79.9088C144.914 78.1944 146.402 76.5808 147.885 75.073C149.203 73.7339 150.567 72.4304 151.903 71.1791ZM128.072 100.972C127.214 101.683 126.446 102.361 125.833 102.967C125.388 103.407 125.083 103.753 124.899 104C124.877 104.03 124.858 104.056 124.842 104.079C124.707 104.833 124.576 106.142 124.66 107.255C124.669 107.375 124.681 107.486 124.693 107.588C128.975 108.12 133.397 108.136 138.043 108.152C138.341 108.154 138.64 108.155 138.939 108.156C139.052 108.156 139.164 108.157 139.277 108.157C138.787 107.904 138.302 107.642 137.822 107.371C137.782 107.349 137.696 107.302 137.57 107.233C136.784 106.801 134.461 105.526 132.398 104.256C131.228 103.535 129.971 102.714 129.092 101.982C128.859 101.787 128.449 101.44 128.072 100.972ZM110.52 170.67C108.041 173.278 105.287 176.277 102.943 179.251C100.454 182.407 98.6882 185.212 98.0283 187.3C97.7052 188.323 97.7637 188.818 97.8068 188.972C97.8068 188.971 97.807 188.972 97.8068 188.972C97.8089 188.99 97.8265 189.154 98.3162 189.398C103.843 192.151 110.364 193.682 117.335 194.972C119.072 195.292 120.847 195.6 122.638 195.91C127.869 196.814 133.228 197.743 138.121 199.1C139.009 199.348 139.941 199.6 140.905 199.86C146.824 201.463 153.996 203.407 160.058 206.423C160.879 205.757 161.669 205.073 162.426 204.346C162.998 203.795 163.556 203.211 164.156 202.571C164.239 202.483 164.324 202.392 164.41 202.3C164.842 201.841 165.299 201.354 165.769 200.874C162.602 200.186 159.616 198.911 156.882 197.616C155.788 197.099 154.742 196.585 153.729 196.085C150.799 194.643 148.146 193.335 145.414 192.503C139.611 190.738 134.682 187.192 130.259 183.948C130.072 183.809 129.885 183.673 129.699 183.536C125.348 180.34 121.464 177.487 117.137 175.876C114.554 174.915 112.403 173.601 111.098 171.68C110.872 171.348 110.681 171.01 110.52 170.67ZM160.556 214.389C160.417 214.489 160.281 214.588 160.144 214.686C160.386 214.678 160.626 214.67 160.868 214.661C160.728 214.539 160.625 214.449 160.556 214.389ZM151.29 221.77C153.727 221.623 156.157 221.541 158.639 221.456C161.39 221.362 164.204 221.268 167.162 221.078C167.632 221.048 168.375 220.922 169.102 220.411C169.923 219.836 170.421 218.983 170.591 218.093C170.859 216.699 170.272 215.551 170.101 215.217C169.601 214.243 168.763 213.241 168.082 212.487C167.347 211.673 166.534 210.863 165.847 210.221C166.205 209.9 166.56 209.572 166.911 209.236C167.614 208.56 168.272 207.868 168.879 207.222C168.97 207.125 169.059 207.029 169.149 206.934C169.664 206.385 170.138 205.879 170.628 205.387C171.764 204.245 172.809 203.359 173.98 202.727C174.517 202.437 175.004 202.149 175.417 201.861C175.766 201.617 176.325 201.196 176.759 200.581C176.988 200.257 177.323 199.683 177.426 198.895C177.546 198 177.329 197.102 176.822 196.369C176.035 195.231 174.863 194.937 174.594 194.871L174.58 194.867C173.793 194.67 172.86 194.663 172.308 194.663C171.979 194.663 171.638 194.67 171.326 194.675L171.302 194.676C170.974 194.681 170.674 194.686 170.393 194.686C167.028 194.686 163.567 193.39 159.631 191.528C158.767 191.118 157.867 190.675 156.942 190.219C153.894 188.715 150.565 187.074 147.281 186.074C142.681 184.674 138.588 181.806 134.078 178.496C133.818 178.306 133.558 178.113 133.295 177.921C129.149 174.87 124.582 171.51 119.376 169.573C117.347 168.816 116.667 168.128 116.479 167.852C116.476 167.847 116.472 167.843 116.469 167.838C116.409 167.751 116.336 167.647 116.472 167.184C116.66 166.548 117.167 165.637 118.121 164.429C119.048 163.255 120.212 162.026 121.489 160.718C126.064 156.035 130.295 151.1 134.432 146.275C134.884 145.748 135.335 145.222 135.785 144.698C140.384 139.342 144.918 134.15 149.886 129.383C154.217 125.227 158.798 119.193 162.123 114.538C162.671 113.77 163.238 112.936 163.59 112.155C163.838 111.605 164.729 109.435 163.091 107.575C162.436 106.831 161.654 106.521 161.19 106.381C160.703 106.233 160.224 106.172 159.855 106.14C159.164 106.079 158.305 106.079 157.466 106.08H157.341C151.686 106.08 146.115 104.385 140.98 101.494C140.907 101.453 140.777 101.381 140.601 101.285C139.848 100.871 138.252 99.9925 136.64 99.031C137.476 98.4778 138.278 97.8759 139.048 97.2491C139.062 97.2613 139.077 97.2733 139.092 97.2854C140.716 98.5817 142.497 98.0453 143.188 97.7612C143.996 97.4282 144.709 96.9005 145.247 96.4472C146.368 95.503 147.511 94.2107 148.432 93.0162C149.327 91.8555 150.23 90.5046 150.716 89.3861C151.258 88.1363 151.853 86.9085 152.489 85.6955C153.172 85.257 154.152 84.5412 155.127 83.783C155.672 83.3596 156.263 82.8859 156.865 82.382C156.946 83.783 157.031 84.8655 157.116 85.6708C157.166 86.1522 157.221 86.5722 157.281 86.9195L157.286 86.9444C157.32 87.1483 157.425 87.7739 157.713 88.3423C157.793 88.5026 158.039 88.9716 158.533 89.3989C159.123 89.91 160.35 90.5421 161.809 89.9891C162.923 89.5671 163.421 88.6971 163.548 88.4679C163.73 88.1365 163.82 87.843 163.86 87.7012C164 87.2021 164.027 86.6927 164.036 86.4797C164.066 85.8724 164.05 85.0613 163.996 84.1711C163.886 82.3751 163.593 79.9095 162.998 77.5225C162.879 77.0478 162.742 76.5502 162.583 76.0427C162.675 75.8453 162.756 75.6421 162.825 75.4338C163.169 74.4108 163.433 72.4473 161.902 70.8988C162.861 69.9663 163.78 69.0396 164.616 68.1272C165.968 66.6494 167.365 65.1879 168.796 63.7466C171.763 61.4876 175.271 59.422 179.057 57.6728C186.408 54.2753 194.28 52.3096 200.241 52.3096C212.561 52.3096 228.81 55.9597 240.203 60.8044C242.924 61.9608 245.687 63.2251 248.497 64.5113C254.429 67.2252 260.572 70.0363 266.966 72.1348C271.311 76.1192 275.327 80.5968 278.627 85.4541C277.967 86.5313 277.319 87.545 276.698 88.5153C276.015 89.5819 275.365 90.5961 274.772 91.5847C269.446 100.481 264.507 109.963 259.917 119.159C247.278 144.481 233.42 170.339 216.642 193.37C214.416 195.565 212.178 197.76 209.932 199.964C203.456 206.319 196.919 212.735 190.45 219.327C188.61 221.203 186.778 223.092 184.959 224.993C181.703 227.722 178.557 230.596 175.612 233.665C163.991 245.78 154.203 260.486 144.939 274.404C143.531 276.519 142.135 278.617 140.747 280.683C138.355 284.244 135.801 287.522 133.173 290.896C132.531 291.72 131.883 292.552 131.233 293.394C127.962 297.628 124.669 302.076 121.824 307.173C120.705 309.179 119.813 311.25 119.05 313.301C117.718 315.147 116.47 316.925 115.431 318.912C114.932 317.227 114.419 315.545 113.892 313.87C113.829 309.394 113.371 306.039 111.613 301.443C110.527 298.6 109.921 295.493 109.248 292.043C109.211 291.855 109.174 291.665 109.137 291.474C108.443 287.927 107.647 284.013 106.049 280.414C104.416 276.738 103.028 273.239 102.729 270.225C102.586 268.775 102.718 267.615 103.079 266.688C103.423 265.805 104.049 264.936 105.241 264.137C122.068 252.875 137.521 236.764 150.873 222.214C151.01 222.064 151.149 221.917 151.29 221.77ZM114.531 342.156C114.191 342.408 113.727 342.67 113.144 342.801C112.493 342.947 111.717 342.92 110.957 342.567C110.234 342.229 109.771 341.712 109.497 341.301C109.009 340.568 108.869 339.797 108.812 339.422C108.743 338.954 108.721 338.461 108.721 337.982C108.721 334.299 108.393 330.619 108.048 326.783L108.036 326.653C107.865 324.761 107.691 322.83 107.561 320.875C106.882 318.414 106.223 315.971 105.566 313.537C103.881 307.285 102.214 301.104 100.279 294.892C96.9793 286.292 93.3887 277.762 89.634 269.267C85.025 258.837 80.1285 248.379 75.2277 237.912C68.1362 222.766 61.0355 207.601 54.7821 192.471C53.213 188.675 51.5776 184.847 49.9289 180.989C45.2057 169.934 40.3725 158.622 36.6708 147.044C36.2027 145.58 35.6585 143.994 35.0974 142.359C34.2483 139.884 33.3604 137.295 32.6384 134.846C31.4068 130.667 30.4314 126.223 30.4022 121.601C28.97 118.229 27.5526 114.8 26.3096 111.324C23.1106 102.377 20.9607 92.8414 22.498 82.2192C25.7567 59.7034 33.0847 32.1231 56.2155 20.6229C61.5694 17.961 68.4987 16.9081 75.1598 16.9065C76.0692 16.9061 76.9807 16.9256 77.8901 16.964C82.0532 14.3336 86.4392 12.4584 90.9235 11.8027C96.9898 10.9156 101.141 11.0376 105.062 12.512C108.246 13.7093 111.143 15.7838 114.609 18.2656C115.159 18.6593 115.723 19.0633 116.305 19.4758C122.121 23.5977 126.727 29.1729 130.979 34.3913C131.121 34.566 131.263 34.7403 131.405 34.9141C135.595 40.0591 139.467 44.8141 144.115 48.3824C147.488 50.9717 150.249 54.735 152.542 58.2591C154.035 53.8888 156.799 50.2336 160.326 47.2434C165.638 42.7389 172.739 39.6697 180.145 37.6132C184.798 36.3213 189.675 35.4008 194.473 34.7866C202.765 29.6497 210.23 26.4351 219.419 22.9908C219.678 22.8938 219.945 22.7932 220.218 22.6899C223.983 21.2741 229.188 19.3168 234.43 18.1801C239.908 16.9926 246.29 16.4916 251.28 19.2925C264.109 26.4936 272.844 41.1488 279.004 52.9198C281.976 58.5979 284.519 64.574 286.652 70.738C287.186 71.0401 287.8 71.4523 288.327 72.011C288.896 72.6119 289.622 73.6668 289.622 75.1314C289.622 76.296 289.428 77.4738 289.127 78.6169C293.123 92.6958 295.105 107.48 295.27 121.739C295.325 126.477 295.308 130.647 294.492 134.711C293.657 138.874 292.019 142.784 289.042 147.202C284.104 154.531 277.202 161.083 270.026 166.957C264.846 171.2 259.381 175.198 254.317 178.904C252.386 180.317 250.51 181.688 248.734 183.014C242.679 187.528 236.998 192.439 231.213 197.438C230.878 197.727 230.544 198.016 230.209 198.305C224.109 203.574 217.875 208.912 211.128 213.756C209.839 214.682 208.548 215.604 207.258 216.522C206.704 216.919 206.149 217.314 205.595 217.71C203.19 220.418 200.727 223.067 198.205 225.65C195.012 228.919 191.833 232.086 188.693 235.214C175.411 248.445 162.874 260.934 153.271 277.134C150.31 282.13 147.056 286.851 143.699 291.427C135.978 305.738 129.116 321.407 126.521 336.455C126.429 336.993 126.302 338.093 126.131 339.577C126.07 340.107 126.003 340.687 125.93 341.309C125.667 343.55 125.338 346.186 124.947 348.348C124.754 349.418 124.528 350.476 124.258 351.352C124.125 351.782 123.949 352.275 123.71 352.74C123.534 353.082 123.052 353.97 122.068 354.534C121.484 354.868 120.71 355.09 119.841 354.964C119.007 354.846 118.385 354.45 117.983 354.1C117.272 353.477 116.906 352.688 116.726 352.259C116.318 351.281 116.002 349.937 115.72 348.35C115.352 346.277 114.955 344.213 114.531 342.156ZM119.194 332.935C119.45 334.002 119.699 335.07 119.942 336.141C119.987 335.806 120.029 335.517 120.068 335.29C121.179 328.845 123.01 322.34 125.316 315.911C125.163 316.125 125.012 316.335 124.865 316.541C124.486 317.608 124.127 318.705 123.77 319.831C123.597 320.377 123.423 320.933 123.247 321.496C122.364 324.327 121.421 327.348 120.182 330.203C120.185 330.196 120.178 330.214 120.16 330.262C120.127 330.354 120.054 330.551 119.927 330.906L119.827 331.183C119.675 331.607 119.489 332.127 119.281 332.697C119.252 332.776 119.223 332.855 119.194 332.935ZM122.773 349.667C122.773 349.668 122.765 349.654 122.752 349.622C122.766 349.649 122.773 349.665 122.773 349.667ZM228.016 191.422C233.445 186.733 238.981 181.988 244.875 177.593C246.748 176.195 248.682 174.78 250.65 173.341C255.665 169.671 260.9 165.841 265.933 161.721C272.921 155.999 279.246 149.928 283.648 143.394C286.194 139.614 287.437 136.528 288.073 133.361C288.502 131.224 288.67 128.99 288.719 126.359C286.485 129.846 283.812 132.967 281.307 135.893C280.955 136.302 280.608 136.707 280.265 137.109C274.568 143.801 268.449 150.042 262.339 156.153C261.318 157.174 260.297 158.191 259.279 159.205C254.181 164.288 249.137 169.316 244.301 174.559C239.08 180.214 233.606 185.827 228.016 191.422ZM282.411 91.8336C282.247 92.0903 282.087 92.3408 281.933 92.5836C281.299 93.577 280.747 94.4434 280.361 95.0898C275.164 103.768 270.313 113.073 265.752 122.211C258.057 137.628 249.846 153.385 240.733 168.665C245.305 163.772 250.045 159.047 254.735 154.373C255.747 153.365 256.755 152.359 257.759 151.355C263.856 145.258 269.814 139.176 275.325 132.702C275.512 132.484 275.696 132.267 275.881 132.05C282.477 124.31 287.896 117.951 287.275 108.726C286.878 102.826 285.112 97.1535 282.411 91.8336ZM282.087 78.9357C282.145 78.7928 282.203 78.6509 282.257 78.5104C281.983 77.5989 281.702 76.6912 281.412 75.7875C281.267 75.7422 281.118 75.6969 280.964 75.6514C280.334 75.4664 279.689 75.2998 279.07 75.1527C280.11 76.3789 281.118 77.6405 282.087 78.9357ZM270.268 66.1707C272.437 66.8394 274.637 67.4103 276.888 67.8531C276.965 67.8682 277.069 67.888 277.194 67.9121C277.548 67.9794 278.082 68.0811 278.724 68.2139C277.099 64.041 275.269 59.9853 273.228 56.0872C267.031 44.2464 259.067 31.314 248.129 25.174C245.339 23.6078 241.011 23.6097 235.788 24.7422C231.026 25.7746 226.235 27.5748 222.414 29.0107C222.163 29.1053 221.914 29.1983 221.671 29.2894C217.669 30.79 214.053 32.2259 210.587 33.7831C214.799 33.7987 218.569 34.0459 221.589 34.4579C224.8 34.8963 228.893 36.8632 232.375 38.7764C235.906 40.7148 239.325 42.8973 241.498 44.2823L241.667 44.3905C250.717 50.1643 259.022 56.8539 267.17 63.527C268.209 64.3762 269.242 65.2578 270.268 66.1707ZM180.653 44.4333C174.208 46.3393 168.56 48.9713 164.506 52.4089C160.477 55.8254 158.09 59.9577 157.882 65.1002C159.714 62.7784 161.979 60.6185 164.515 58.649C169.545 53.6125 174.992 48.8234 180.653 44.4333ZM187.703 47.4377C190.656 45.257 193.658 43.1943 196.675 41.273C206.057 40.189 214.983 40.3235 220.722 41.1067C222.605 41.3639 225.731 42.7391 229.278 44.6869C232.617 46.521 235.886 48.6064 238.069 49.9995L238.201 50.0832C241.637 52.2749 244.97 54.6105 248.25 57.0465C246.433 56.225 244.592 55.4071 242.718 54.6099C230.621 49.4666 213.521 45.602 200.241 45.602C196.411 45.602 192.101 46.2605 187.703 47.4377ZM144.053 93.547C144.063 93.6342 144.054 93.6474 144.053 93.5513C144.053 93.5498 144.053 93.5484 144.053 93.547ZM157.488 86.2025C157.487 86.2279 157.485 86.2393 157.485 86.2386C157.485 86.238 157.487 86.2253 157.488 86.2025ZM163.744 85.8118C163.754 85.8515 163.758 85.8748 163.758 85.8772C163.758 85.8798 163.754 85.8597 163.744 85.8118ZM68.9341 23.9774C65.1783 24.4333 61.7647 25.3209 59.0784 26.6564C39.2847 36.4975 32.2495 60.614 28.9802 83.2023C28.008 89.9205 28.7351 96.2305 30.4014 102.474V101.698C30.4014 93.1486 32.8702 84.5097 36.1127 76.4131C38.9173 69.4102 42.3921 62.6025 45.5203 56.4739C46.0075 55.5192 46.4864 54.5811 46.9529 53.6613C50.8707 45.9379 57.1936 36.2683 64.75 28.1693C66.0932 26.7297 67.4904 25.3235 68.9341 23.9774Z" fill="black"/>
<path fill-rule="evenodd" clip-rule="evenodd" d="M206.385 96.3505C212.394 102.097 214.901 109.56 215.138 116.371C215.355 122.6 214.766 128.153 214.111 132.863C213.385 138.083 211.598 142.303 210.908 143.932C210.872 144.018 210.839 144.097 210.809 144.168C210.779 144.238 210.753 144.303 210.728 144.363C210.649 144.55 210.589 144.691 210.539 144.811C207.761 157.358 195.907 165.651 183.399 163.509C170.422 161.285 161.655 148.668 163.818 135.328C164.078 133.719 164.425 132.262 164.791 130.984C160.045 126.507 157.068 120.078 157.068 112.933C157.068 99.4088 167.733 88.4447 180.891 88.4447C180.889 88.4447 180.889 88.4447 180.891 88.4447C180.905 88.4446 181.048 88.4425 181.573 88.423C181.623 88.4211 181.678 88.4192 181.737 88.4168C182.201 88.3994 182.945 88.3713 183.698 88.358C185.27 88.3302 188.345 88.3169 191.784 88.9671C195.117 89.5973 201.057 91.2539 206.385 96.3505ZM184.797 137.328C184.796 137.329 184.764 137.329 184.704 137.326C184.769 137.326 184.799 137.328 184.797 137.328Z" fill="#FB0153"/>
<path fill-rule="evenodd" clip-rule="evenodd" d="M213.468 126.234C212.699 126.387 211.595 126.59 210.293 126.743C197.182 128.285 185.375 118.288 183.918 104.415C182.473 90.6488 191.763 78.2386 204.715 76.5418C204.787 76.5271 204.888 76.5059 205.056 76.4705C205.078 76.4657 205.103 76.4604 205.13 76.4548C205.32 76.4146 205.607 76.3536 205.896 76.2948C207.296 76.009 209.971 75.4976 213.291 75.4976C226.48 75.4976 237.173 86.8132 237.173 100.772C237.173 114.286 227.151 125.322 214.543 126.012C214.533 126.014 214.524 126.016 214.515 126.018L214.423 126.037C214.193 126.086 213.847 126.159 213.468 126.234ZM215.041 125.909C215.041 125.909 215.028 125.912 215.005 125.916C215.03 125.911 215.042 125.909 215.041 125.909Z" fill="#FB0153"/>
<path fill-rule="evenodd" clip-rule="evenodd" d="M167.534 68.16C170.278 68.4738 172.255 71.011 171.949 73.8268C171.802 75.1866 171.258 76.2347 170.868 76.862C170.63 77.2457 170.374 77.5896 170.134 77.8848C170.277 78.0516 170.41 78.2297 170.534 78.419C171.68 80.1783 171.515 81.9884 171.409 82.7042C171.283 83.5596 171.018 84.2949 170.835 84.7526C170.565 85.4267 169.951 86.6474 169.973 86.5911C169.947 86.6521 169.898 86.7815 169.822 87.044C169.78 87.1923 169.737 87.353 169.681 87.5633C169.676 87.5841 169.67 87.6056 169.664 87.6278C169.616 87.8116 169.556 88.0395 169.493 88.266C168.945 90.2262 167.601 91.6773 167.26 92.0452C167.229 92.0782 167.207 92.1025 167.194 92.1176C165.417 94.1694 163.119 96.3253 160.619 97.9106C157.819 99.686 154.72 100.284 152.59 100.695C152.221 100.767 151.882 100.832 151.578 100.897C150.984 101.024 150.509 101.12 150.123 101.199C149.058 101.414 148.661 101.495 148.265 101.717C148.227 101.744 148.166 101.788 148.075 101.853C147.876 101.995 147.588 102.201 147.303 102.392C147.296 102.396 147.289 102.401 147.281 102.407C147.105 102.525 146.555 102.895 145.983 103.144L145.98 103.145C145.841 103.206 145.332 103.428 144.654 103.525C144.327 103.573 143.556 103.655 142.624 103.395C141.532 103.09 140.161 102.271 139.404 100.625C138.749 99.2007 138.917 97.9187 139.032 97.3583C139.158 96.7443 139.367 96.2887 139.478 96.0646C139.705 95.6064 139.953 95.2737 140.053 95.1418C140.954 93.9571 141.959 92.8107 143.064 91.7441C144.715 90.1514 146.307 88.4512 147.972 86.6499C148.185 86.4191 148.4 86.1862 148.617 85.9517C150.061 84.3862 151.575 82.746 153.14 81.1622C154.771 79.5129 156.382 77.8807 157.975 76.2347C158.928 75.2503 159.829 74.196 160.852 72.9935C161.037 72.7761 161.219 72.5831 161.361 72.4375C161.504 72.2899 161.652 72.1428 161.769 72.0268C161.993 71.8048 162.148 71.6507 162.277 71.5122C163.044 69.3321 165.19 67.8919 167.534 68.16ZM141.709 93.8839C141.69 93.8959 141.681 93.9011 141.681 93.9007C141.682 93.9003 141.691 93.8943 141.709 93.8839Z" fill="#FB0153"/>
<path fill-rule="evenodd" clip-rule="evenodd" d="M166.33 68.3143C169.075 68.6281 171.051 71.1653 170.745 73.9811C170.588 75.4315 169.922 76.4479 169.624 76.8681C169.278 77.3554 168.91 77.738 168.722 77.9304C168.628 78.0272 168.533 78.1216 168.468 78.1858C168.461 78.1926 168.454 78.1992 168.448 78.2053C168.448 78.2054 168.448 78.2056 168.448 78.2057C168.259 78.5116 167.975 78.967 167.698 79.395C167.5 79.7005 167.248 80.0808 167.012 80.4014C166.921 80.5249 166.697 80.8277 166.408 81.1284C166.406 81.131 166.403 81.1342 166.399 81.1378C166.304 81.2378 165.857 81.7058 165.173 82.086C164.867 82.256 163.853 82.7938 162.449 82.7C160.535 82.5721 159.028 81.3758 158.294 79.8733C157.307 77.8559 157.739 75.4893 159.204 73.9679C159.251 73.8968 159.307 73.8121 159.371 73.7136C159.679 73.2385 160.007 72.705 160.156 72.4627C160.17 72.4399 160.182 72.4196 160.193 72.4023C160.407 72.0546 160.623 71.7802 160.778 71.5967C160.937 71.4069 161.088 71.2459 161.199 71.13C161.271 71.0553 161.342 70.9837 161.403 70.9231C162.353 69.1686 164.264 68.078 166.33 68.3143ZM159.031 74.2194C159.012 74.2446 159.015 74.2398 159.036 74.2132C159.034 74.2154 159.032 74.2175 159.031 74.2194Z" fill="#FB0153"/>
<path fill-rule="evenodd" clip-rule="evenodd" d="M141.189 73.7209C141.189 70.8876 143.428 68.5908 146.189 68.5908C147.671 68.5908 149.135 69.0824 150.327 69.9453C151.244 70.6092 152.2 71.6543 152.735 73.0832C152.752 73.1004 152.772 73.1197 152.794 73.1402C152.866 73.2095 152.953 73.2934 153.021 73.3603C153.137 73.473 153.283 73.6171 153.432 73.7739C153.576 73.9256 153.772 74.14 153.973 74.3963C154.622 75.2267 155.578 76.4903 156.316 77.8491C156.64 78.4459 156.931 79.0491 157.164 79.5306C157.176 79.5554 157.188 79.5798 157.199 79.6039C157.38 79.9771 157.529 80.2844 157.671 80.5593C159.423 82.0491 160.009 84.6313 158.945 86.8072C158.521 87.6756 157.731 88.6626 156.451 89.2366C155.229 89.7846 154.103 89.7118 153.398 89.5626C152.204 89.3097 151.414 88.6744 151.224 88.5216L151.216 88.5149C150.678 88.0828 150.289 87.6015 150.142 87.4173C149.781 86.9664 149.391 86.3934 149.142 85.9411C148.795 85.309 148.489 84.6757 148.246 84.1743L148.24 84.1619C147.977 83.6177 147.783 83.2155 147.581 82.8442C147.289 82.3072 146.812 81.639 146.244 80.9077C146.221 80.8851 146.186 80.8497 146.134 80.7995C146.11 80.7754 146.073 80.74 146.028 80.6967C145.878 80.5517 145.635 80.3179 145.442 80.1215C145.175 79.8503 144.762 79.4139 144.38 78.8785C144.289 78.7504 144.168 78.5738 144.037 78.3527C142.353 77.5274 141.189 75.7635 141.189 73.7209Z" fill="#FB0153"/>
<path fill-rule="evenodd" clip-rule="evenodd" d="M153.056 70.4424C152.406 68.3842 150.522 66.896 148.299 66.896C145.537 66.896 143.299 69.1928 143.299 72.0261C143.299 75.0946 145.231 76.9743 145.818 77.5446C145.831 77.5575 145.843 77.5698 145.855 77.5814C146.059 77.7803 146.175 77.8897 146.249 77.9596C146.685 78.9331 147.212 79.7184 147.551 80.2146C147.685 80.4119 147.795 80.5713 147.886 80.7039C148.143 81.0765 148.253 81.2366 148.357 81.4299C148.672 82.0155 149.019 82.5122 149.282 82.8719C149.447 83.0968 149.666 83.3816 149.821 83.5838C149.881 83.6616 149.931 83.7271 149.966 83.7723C150.121 83.9769 150.205 84.0968 150.254 84.1716C151.2 86.7334 153.959 88.0918 156.514 87.2152C159.133 86.3166 160.546 83.4099 159.67 80.723C159.177 79.2114 158.284 78.0337 157.867 77.4836L157.858 77.4716C157.73 77.3036 157.638 77.1839 157.56 77.0831C157.455 76.9466 157.377 76.845 157.274 76.7049C157.15 76.5354 157.111 76.4684 157.111 76.4685C157.11 76.4685 157.111 76.4701 157.113 76.473C156.847 75.9791 156.569 75.5454 156.34 75.2027C156.21 75.0077 156.033 74.7511 155.897 74.5543C155.833 74.4624 155.779 74.3836 155.742 74.3301C155.416 73.8522 155.347 73.7026 155.341 73.6894C155.34 73.6882 155.34 73.6881 155.341 73.6891C154.89 72.4904 154.203 71.6441 153.749 71.1451C153.514 70.8871 153.289 70.6665 153.127 70.5104C153.101 70.4851 153.077 70.4626 153.056 70.4424ZM150.291 84.2318C150.291 84.2318 150.29 84.2296 150.287 84.2252C150.29 84.2296 150.291 84.2318 150.291 84.2318ZM146.441 78.1484C146.448 78.1559 146.445 78.1534 146.434 78.1412C146.436 78.1436 146.439 78.1459 146.441 78.1484Z" fill="#FB0153"/>
<path fill-rule="evenodd" clip-rule="evenodd" d="M171.05 76.4437C172.084 75.3646 172.644 73.8293 172.448 72.2116C172.106 69.4001 169.608 67.4049 166.868 67.7552C165.515 67.9282 164.545 68.5894 163.967 69.1277C163.429 69.6291 163.105 70.1372 162.967 70.3637C162.935 70.415 162.907 70.4636 162.881 70.5076C162.858 70.5386 162.836 70.5678 162.815 70.5946C162.805 70.6077 162.796 70.6202 162.787 70.632C162.695 70.7533 162.636 70.8294 162.585 70.8937C162.555 70.9309 162.534 70.9554 162.522 70.9698C162.359 71.1161 162.22 71.2531 162.108 71.3677C160.976 72.0153 160.13 72.824 159.595 73.3799C158.776 74.2298 157.952 75.1218 157.16 76.0262C157.154 76.0323 157.136 76.051 157.1 76.0863C157.067 76.1193 157.03 76.1551 156.974 76.2089L156.966 76.2168C156.917 76.2645 156.851 76.3283 156.784 76.3944C156.523 76.6518 155.989 77.1836 155.512 77.9154C153.977 80.2705 154.593 83.4565 156.889 85.0316C159.12 86.5628 162.117 86.0081 163.692 83.8125C163.697 83.8078 163.702 83.8026 163.708 83.7971C163.743 83.7626 163.781 83.7261 163.838 83.6709L163.84 83.6686C163.891 83.619 163.96 83.5522 164.032 83.4819C164.175 83.3402 164.378 83.1356 164.593 82.8903C165.267 82.1194 165.983 81.3435 166.707 80.592C166.842 80.4525 166.931 80.3725 166.983 80.3302C167.918 79.8753 168.537 79.3006 168.91 78.9126C168.993 78.8267 169.064 78.749 169.106 78.7032C169.125 78.6829 169.138 78.6683 169.149 78.6571C169.155 78.6504 169.16 78.645 169.164 78.6402C169.958 77.9189 170.669 76.9562 170.856 76.7032C170.878 76.6737 170.893 76.6539 170.9 76.6451C170.953 76.5773 171.003 76.5097 171.05 76.4437ZM162.746 70.7521C162.72 70.7978 162.713 70.813 162.729 70.7846L162.744 70.756L162.746 70.7521Z" fill="#FB0153"/>
<path fill-rule="evenodd" clip-rule="evenodd" d="M104.56 255.019C104.109 252.662 102.084 250.884 99.6543 250.884C96.8929 250.884 94.6543 253.181 94.6543 256.014C94.6543 257.342 95.0504 258.384 95.2953 258.944C95.4217 259.232 95.5496 259.483 95.6219 259.624C95.6489 259.677 95.6693 259.716 95.6851 259.747C95.7245 259.824 95.7349 259.844 95.7472 259.87C96.0113 260.425 96.2476 261.006 96.5483 261.745C96.5895 261.847 96.6319 261.951 96.6758 262.059C97.2635 263.501 97.981 264.883 98.6091 266.041C98.8164 266.424 99.0559 266.817 99.2045 267.061C99.2351 267.111 99.2618 267.155 99.2836 267.192C99.453 267.473 99.51 267.582 99.5366 267.64C99.5639 267.7 99.6041 267.8 99.7092 268.095C99.7176 268.118 99.7267 268.144 99.7366 268.172C99.8257 268.424 99.9758 268.847 100.157 269.27C100.449 269.954 100.781 270.542 100.998 270.922C101.038 270.993 101.075 271.057 101.108 271.115C101.287 271.429 101.37 271.575 101.448 271.733C102.686 274.266 105.69 275.289 108.159 274.019C110.627 272.748 111.624 269.665 110.386 267.133C110.148 266.646 109.874 266.169 109.703 265.87C109.676 265.824 109.652 265.782 109.631 265.745C109.432 265.396 109.356 265.246 109.313 265.146C109.269 265.042 109.227 264.926 109.101 264.573L109.101 264.572C108.997 264.28 108.823 263.792 108.586 263.274C108.304 262.66 107.996 262.139 107.789 261.795C107.72 261.682 107.664 261.589 107.616 261.51C107.49 261.302 107.422 261.19 107.349 261.055C106.769 259.985 106.27 259.004 105.902 258.102C105.865 258.01 105.825 257.913 105.785 257.813C105.497 257.103 105.137 256.217 104.732 255.366C104.674 255.245 104.62 255.136 104.577 255.053C104.572 255.042 104.566 255.031 104.56 255.019Z" fill="#FB0153"/>
<path fill-rule="evenodd" clip-rule="evenodd" d="M104.661 259.601C104.149 256.913 101.654 255.097 98.9919 255.518C96.2628 255.95 94.3919 258.571 94.8131 261.371C95.005 262.647 95.493 263.717 95.7137 264.201C95.7184 264.211 95.7229 264.221 95.7274 264.231C95.7786 264.343 95.819 264.431 95.8528 264.504C95.9178 264.645 95.9583 264.734 96.0047 264.842C96.027 264.894 96.0397 264.927 96.0457 264.943C96.0711 265.036 96.0791 265.072 96.0919 265.128C96.1078 265.198 96.1311 265.301 96.2044 265.589C96.2975 265.955 96.4494 266.505 96.7115 267.118C97.0789 267.977 97.5255 268.934 98.0214 269.846C98.0809 269.956 98.1727 270.136 98.2877 270.361C98.6435 271.058 99.2212 272.189 99.7488 273.015C100.77 274.611 101.865 275.988 103.183 277.336C105.139 279.336 108.305 279.331 110.254 277.324C112.204 275.318 112.199 272.069 110.243 270.069C109.408 269.216 108.75 268.388 108.11 267.387C107.84 266.963 107.701 266.685 107.489 266.261C107.323 265.928 107.111 265.505 106.756 264.851C106.463 264.311 106.165 263.683 105.896 263.059C105.892 263.045 105.887 263.024 105.88 262.997C105.864 262.935 105.851 262.88 105.83 262.793C105.822 262.759 105.813 262.72 105.802 262.675C105.767 262.533 105.719 262.336 105.66 262.121C105.506 261.56 105.315 261.079 105.166 260.728C105.057 260.474 104.927 260.191 104.842 260.007C104.82 259.959 104.801 259.918 104.786 259.885C104.721 259.741 104.683 259.654 104.661 259.601Z" fill="#FB0153"/>
<path fill-rule="evenodd" clip-rule="evenodd" d="M146.464 93.9662C146.975 95.0275 147.447 96.1287 147.964 97.3346C148.029 97.4875 148.095 97.6421 148.163 97.7986C148.745 99.1563 149.4 100.661 150.142 102.073C151.492 104.641 152.577 107.32 153.727 110.241C153.823 110.483 153.918 110.726 154.015 110.972C155.056 113.622 156.183 116.49 157.558 119.302C158.796 121.835 161.801 122.858 164.269 121.588C166.738 120.317 167.735 117.235 166.497 114.702C165.314 112.283 164.336 109.796 163.266 107.076C163.178 106.851 163.089 106.625 162.999 106.397C161.851 103.482 160.585 100.324 158.944 97.2025C158.414 96.1951 157.904 95.0378 157.314 93.6632C157.25 93.5135 157.185 93.361 157.118 93.2061C156.602 91.9999 156.022 90.6458 155.387 89.3327C153.979 86.4236 151.956 82.9513 148.603 80.5932C145.489 78.4037 141.555 77.8019 138.165 78.1057C134.777 78.4094 130.984 79.7035 128.282 82.4673C125.603 85.2072 123.116 89.6846 121.432 93.9509C119.803 98.0766 118.388 103.34 119.084 107.607C119.295 108.902 120.227 111.77 123.415 112.514C125.74 113.057 127.588 111.917 128.125 111.576C129.599 110.641 131.002 109.101 131.97 107.962C133.057 106.682 134.105 105.288 134.894 104.189C135.583 103.229 136.326 102.144 136.614 101.604C136.885 101.095 137.427 100.465 138.518 99.6326C139.332 99.0111 140.156 98.4834 141.155 97.8442C141.59 97.5656 142.059 97.2659 142.574 96.928C143.693 96.1933 145.115 95.2384 146.464 93.9662Z" fill="#FB0153"/>
<path fill-rule="evenodd" clip-rule="evenodd" d="M146.433 89.4082C150.299 89.4082 153.433 92.6237 153.433 96.5903C153.433 100.148 154.284 103.866 155.415 108.601C155.442 108.715 155.47 108.829 155.497 108.945C156.535 113.288 157.799 118.577 157.799 124.019C157.799 124.954 157.76 126.286 157.418 127.64C157.03 129.178 156.15 131.132 154.21 132.588C152.479 133.886 150.674 134.184 149.749 134.289C148.856 134.391 147.902 134.391 147.28 134.39C147.251 134.39 147.223 134.39 147.195 134.39C145.592 134.39 142.804 134.334 139.985 133.044C139.904 133.05 139.816 133.056 139.71 133.064C139.676 133.067 139.641 133.069 139.603 133.072C139.369 133.089 139.054 133.112 138.72 133.126C138.084 133.155 137.082 133.173 135.965 132.982C135.74 132.944 135.503 132.904 135.256 132.863C133.242 132.529 130.542 132.081 127.869 131.104C124.409 129.84 122.563 127.224 121.583 125.441C121.105 124.57 120.731 123.707 120.488 123.144L120.45 123.058C120.187 122.447 120.061 122.156 119.931 121.903C119.855 121.754 119.729 121.542 119.57 121.272C118.596 119.626 116.355 115.841 116.355 111.261C116.355 107.295 119.489 104.079 123.355 104.079C127.221 104.079 130.355 107.295 130.355 111.261C130.355 111.412 130.356 111.529 130.561 111.967C130.698 112.259 130.882 112.6 131.203 113.17C131.238 113.232 131.275 113.297 131.313 113.365C131.593 113.862 131.965 114.519 132.324 115.221C132.686 115.928 133.006 116.67 133.216 117.159C133.241 117.217 133.264 117.271 133.286 117.321C133.385 117.551 133.466 117.734 133.534 117.885C134.657 118.202 135.889 118.411 137.583 118.697C137.737 118.723 137.895 118.75 138.058 118.778C138.075 118.777 138.094 118.777 138.115 118.776C138.236 118.77 138.381 118.761 138.609 118.744C138.636 118.742 138.664 118.74 138.695 118.738C138.89 118.723 139.151 118.704 139.411 118.689L139.447 118.687C140.128 118.648 141.612 118.563 143.325 118.995C142.967 116.881 142.434 114.602 141.817 112.019C141.791 111.908 141.764 111.797 141.737 111.684C140.698 107.338 139.433 102.042 139.433 96.5903C139.433 92.6237 142.567 89.4082 146.433 89.4082Z" fill="#FB0153"/>
<path fill-rule="evenodd" clip-rule="evenodd" d="M133.039 125.157C138.489 126.338 144.687 129.263 149.187 133.866C149.948 134.645 150.656 135.419 151.232 136.06C151.778 136.397 152.351 136.786 152.935 137.232C155.358 139.084 158.838 142.635 160.403 148.373C160.425 148.453 160.446 148.533 160.467 148.613C161.648 151.654 162.258 154.488 162.615 156.474C163.147 159.43 163.414 162.322 163.579 164.113L163.58 164.119C163.75 165.968 163.814 166.498 163.804 166.499C163.803 166.499 163.801 166.493 163.798 166.48C163.802 166.498 163.806 166.516 163.81 166.534C164.804 167.882 165.727 169.198 166.494 170.347L166.514 170.377C167.311 171.572 169.368 174.655 170.587 177.901C170.639 178.041 170.716 178.246 170.807 178.509C172.762 179.531 174.617 180.78 176.364 182.277C179.595 185.045 181.836 188.2 182.946 189.762C182.976 189.805 183.005 189.846 183.034 189.886C183.786 190.944 185.038 192.87 185.97 195.512C186.941 198.266 187.881 202.742 186.562 207.982C185.197 213.406 182.078 217.027 179.524 219.122C178.504 219.959 177.509 220.609 176.645 221.104C174.396 222.959 172.389 224.041 171.502 224.518C171.451 224.546 171.404 224.571 171.36 224.595C170.563 225.026 169.761 225.567 168.157 226.974C162.4 232.02 159.484 234.855 158.171 237.206C154.94 242.989 150.328 246.405 148.202 247.926C147.39 248.506 146.361 249.201 145.74 249.62C145.561 249.741 145.416 249.839 145.321 249.904C144.61 250.389 144.436 250.534 144.451 250.522C141.665 252.853 138.489 254.843 136.489 256.096L136.263 256.237C133.878 257.732 132.369 258.679 131.082 259.641C129.185 268.95 121.141 275.941 111.505 275.941C100.46 275.941 91.5052 266.754 91.5052 255.421C91.5052 239.773 102.049 230.59 107.384 226.579C110.099 224.537 112.971 222.741 114.953 221.501C115.127 221.393 115.294 221.288 115.453 221.188C115.643 221.069 115.824 220.955 115.996 220.847C114.034 220.537 111.935 219.945 109.766 218.936C109.617 218.867 109.36 218.753 109.018 218.601C107.415 217.888 103.952 216.348 101.169 214.801C98.3474 213.233 91.184 209.11 87.1197 201.259C83.6535 194.563 83.8939 187.948 84.7731 183.496C85.6366 179.123 87.3482 175.484 88.7484 172.966C91.5446 167.939 95.1125 163.833 97.2473 161.649C97.3998 161.493 97.6059 161.273 97.8612 161C98.9527 159.834 100.944 157.708 103.489 155.532C102.248 150.479 102.214 144.176 105.34 137.781C108.915 130.47 115.144 126.678 120.694 125.261C125.657 123.994 130.122 124.525 133.039 125.157ZM123.429 193.425C123.428 193.425 123.439 193.4 123.467 193.349C123.444 193.399 123.43 193.425 123.429 193.425Z" fill="#FB0153"/>
<path fill-rule="evenodd" clip-rule="evenodd" d="M133.811 68.4205C136.535 68.5874 143.197 69.2269 149.236 74.1675C152.766 77.056 154.607 80.4718 155.551 82.8227C156.488 85.1571 156.858 87.2195 157.028 88.5036C157.249 90.1729 157.273 91.7029 157.254 92.7511C158.949 95.6265 160.414 98.445 161.615 100.756C161.93 101.364 162.228 101.936 162.506 102.465C164.154 105.595 165.37 108.836 166.071 110.705C166.156 110.931 166.233 111.136 166.303 111.32C167.124 113.482 167.44 114.118 167.647 114.46C168.297 115.533 168.845 116.453 169.329 117.264C169.993 118.378 170.535 119.287 171.052 120.108C171.559 120.538 172.121 121.048 172.684 121.626C174.053 123.029 177.904 127.277 178.753 134.223C180.128 145.468 172.357 155.727 161.397 157.137C154.886 157.975 148.714 155.501 144.488 150.996C144.256 150.81 144.002 150.599 143.734 150.364C142.113 149.913 140.783 149.366 140.334 149.182C140.31 149.172 140.288 149.163 140.269 149.155C139.91 149.008 139.533 148.848 139.19 148.701C138.557 148.679 137.35 148.636 136.122 148.525C134.637 148.391 132.637 148.124 130.39 147.49C130.274 147.457 130.112 147.415 129.91 147.361C127.962 146.846 122.263 145.34 117.578 142.24C114.407 140.142 111.016 136.989 108.551 132.366C106.096 127.762 105.228 122.954 105.228 118.561V100.516C105.22 100.49 105.189 100.118 105.077 98.9044L105.076 98.8903C104.962 97.6619 104.726 95.1066 104.838 92.3716C104.934 90.0593 105.334 84.5072 108.753 79.0698C113.225 71.9588 120.605 68.4153 128.035 68.4153C128.234 68.4153 128.358 68.4113 128.631 68.4025C128.86 68.3952 129.193 68.3845 129.762 68.37C130.682 68.3465 132.163 68.3195 133.811 68.4205ZM131.676 139.598C131.552 139.344 131.373 138.969 131.171 138.484C131.327 138.858 131.496 139.229 131.676 139.598Z" fill="#FB0153"/>
</g>
<defs>
<clipPath id="clip0_588_6859">
<rect width="300" height="355" fill="white"/>
</clipPath>
</defs>
</svg>
