<svg width="834" height="440" viewBox="0 0 834 440" fill="none" xmlns="http://www.w3.org/2000/svg">
<path fill-rule="evenodd" clip-rule="evenodd" d="M392.449 249.844C368.714 251.135 345.418 253.265 323.308 256.582C310.47 258.508 298.31 260.625 286.373 262.704C260.249 267.254 235.196 271.616 206.455 273.374C204.641 273.485 203.074 272.008 202.956 270.074C202.838 268.14 204.213 266.482 206.027 266.371C234.419 264.635 258.932 260.364 284.877 255.844C296.883 253.752 309.195 251.607 322.34 249.635C391.653 239.237 472.325 240.417 541.427 242.592C545.707 242.726 550.21 242.721 554.797 242.716C563.19 242.706 571.861 242.696 579.949 243.542C580.699 243.621 581.905 243.987 582.566 244.194C582.973 244.322 583.362 244.451 583.655 244.554C583.791 244.602 583.949 244.659 584.088 244.715L584.093 244.718C584.134 244.734 584.314 244.807 584.509 244.916C584.568 244.949 584.693 245.021 584.84 245.127L584.847 245.132C584.924 245.187 585.376 245.508 585.745 246.098C585.951 246.427 586.369 247.216 586.294 248.312C586.208 249.573 585.536 250.43 584.953 250.879C584.451 251.265 583.972 251.4 583.771 251.45C583.53 251.509 583.332 251.527 583.22 251.533C579.516 251.76 573.243 251.271 567.329 250.772C566.596 250.71 565.867 250.648 565.146 250.587C560.215 250.166 555.675 249.779 552.769 249.739C552.351 249.739 551.933 249.739 551.515 249.739C456.993 250.192 337.1 255.991 263.552 281.37C261.826 281.966 259.963 280.954 259.391 279.111C258.818 277.268 259.753 275.291 261.479 274.695C297.205 262.367 343.517 254.62 392.449 249.844Z" fill="#45BCFF"/>
</svg>
