<svg width="743" height="220" viewBox="0 0 743 220" fill="none" xmlns="http://www.w3.org/2000/svg">
<rect width="743" height="220" fill="white"/>
<path fill-rule="evenodd" clip-rule="evenodd" d="M95.4006 74.2652C97.9064 70.2094 102.097 66.6512 107.663 67.0274C110.383 67.2112 112.966 67.9324 115.249 68.5699C115.303 68.5852 115.358 68.6005 115.412 68.6157C117.828 69.2899 119.923 69.8598 122.037 69.9817C123.991 70.0943 125.694 71.0559 126.822 71.6931C126.866 71.7177 126.908 71.7419 126.95 71.7655C128.308 72.5304 129.071 72.9255 129.797 73.0045C131.214 73.1588 132.235 74.4098 132.078 75.7986C131.92 77.1875 130.644 78.1882 129.226 78.0339C127.336 77.8281 125.684 76.8925 124.566 76.2596C124.501 76.2228 124.438 76.187 124.376 76.1525C123.028 75.3927 122.336 75.0681 121.733 75.0333C118.986 74.875 116.373 74.1454 114.059 73.4997L113.998 73.4825C111.577 72.8067 109.461 72.2213 107.308 72.0758C104.469 71.8839 101.818 73.6487 99.818 76.8861C97.8271 80.1084 96.9134 84.1737 97.299 87.1964C97.2988 87.1951 97.2987 87.1945 97.2988 87.1945C97.2992 87.1944 97.3284 87.3489 97.5711 87.6712C97.8244 88.0075 98.2286 88.4176 98.8115 88.8894C99.9822 89.837 101.608 90.823 103.436 91.7933C105.246 92.7543 107.149 93.6458 108.84 94.4293C108.991 94.4996 109.143 94.5696 109.293 94.6393C110.744 95.3107 112.113 95.9442 112.953 96.4298C113.842 96.9443 114.897 97.5183 116.046 98.1441C118.694 99.5855 121.848 101.302 124.658 103.201C128.687 105.924 132.781 109.492 134.254 114.144C136.238 120.408 134.059 125.776 130.151 129.523C126.335 133.182 120.834 135.375 115.652 135.766C106.061 136.489 97.2864 135.812 89.033 129.746C87.8922 128.908 87.6609 127.322 88.5166 126.204C89.3722 125.086 90.9906 124.859 92.1314 125.698C98.9051 130.676 106.153 131.407 115.256 130.721C119.371 130.41 123.688 128.64 126.54 125.906C129.3 123.259 130.639 119.803 129.322 115.644C128.395 112.715 125.585 109.974 121.726 107.367C119.121 105.606 116.389 104.121 113.841 102.736C112.616 102.07 111.433 101.427 110.328 100.788C109.706 100.428 108.555 99.895 106.962 99.1567C106.854 99.1066 106.744 99.0557 106.632 99.0038C104.942 98.2206 102.923 97.2767 100.976 96.2426C99.0453 95.2178 97.0769 94.0489 95.5228 92.7909C94.0967 91.6366 92.4476 89.9621 92.1748 87.824C91.6276 83.5341 92.8853 78.3361 95.4006 74.2652Z" fill="black"/>
<path fill-rule="evenodd" clip-rule="evenodd" d="M103.946 67C105.506 67 106.771 68.1402 106.771 69.5466V150.885C106.771 151.2 106.809 151.605 106.865 152.203C106.87 152.259 106.876 152.316 106.881 152.375C106.94 153.003 107.009 153.787 106.999 154.565C106.989 155.325 106.904 156.262 106.545 157.16C106.167 158.106 105.431 159.126 104.088 159.731C102.693 160.36 100.996 159.85 100.299 158.592C99.6532 157.428 100.089 156.031 101.264 155.33C101.304 155.177 101.345 154.913 101.35 154.504C101.357 153.999 101.312 153.439 101.252 152.804C101.246 152.74 101.24 152.674 101.233 152.607C101.182 152.071 101.121 151.433 101.121 150.885V69.5466C101.121 68.1402 102.386 67 103.946 67Z" fill="black"/>
<path fill-rule="evenodd" clip-rule="evenodd" d="M115.961 53C117.483 53 118.718 54.117 118.718 55.4949V93.5508C118.718 97.2774 118.668 101.01 118.618 104.74C118.403 120.751 118.189 136.716 121.934 151.963C122.264 153.308 121.327 154.641 119.84 154.94C118.354 155.239 116.881 154.391 116.551 153.046C112.654 137.176 112.883 120.489 113.103 104.442C113.154 100.773 113.203 97.1362 113.203 93.5508V55.4949C113.203 54.117 114.438 53 115.961 53Z" fill="black"/>
<path fill-rule="evenodd" clip-rule="evenodd" d="M229.71 79.6916C230.529 81.2949 230.855 83.2344 230.855 85.4671C230.855 86.852 229.702 87.9747 228.28 87.9747C226.859 87.9747 225.706 86.852 225.706 85.4671C225.706 83.6525 225.431 82.5735 225.1 81.9256C224.808 81.3537 224.417 81.002 223.812 80.7326C223.124 80.4263 222.133 80.2194 220.676 80.1138C219.308 80.0146 217.738 80.0149 215.861 80.0153C215.746 80.0153 215.63 80.0153 215.513 80.0153C212.555 80.0153 208.89 81.6462 206.222 84.3222C203.574 86.9788 202.355 90.1797 203.235 93.1797C203.258 93.2585 203.428 93.6111 204.175 94.1694C204.88 94.6965 205.852 95.2234 206.997 95.734C208.589 96.4448 210.144 96.9778 211.502 97.4436C212.186 97.6781 212.82 97.8956 213.385 98.1101C218.412 100.021 222.735 102.961 226.761 105.902C231.787 109.574 237.384 115.921 236.979 123.406C236.73 128.026 234.824 133.024 232.036 137.295C229.253 141.559 225.413 145.369 221.035 147.376C217.227 149.122 211.548 150.218 206.224 149.963C201.021 149.715 195.228 148.112 192.367 143.468C191.636 142.28 192.031 140.74 193.25 140.027C194.469 139.315 196.051 139.7 196.782 140.887C198.278 143.316 201.78 144.73 206.476 144.954C211.052 145.173 215.877 144.197 218.843 142.838C222.08 141.354 225.254 138.339 227.691 134.604C230.124 130.877 231.645 126.704 231.838 123.142C232.104 118.218 228.271 113.274 223.672 109.914C219.698 107.011 215.846 104.429 211.513 102.782C211.2 102.663 210.732 102.502 210.165 102.307C208.726 101.811 206.65 101.096 204.852 100.294C203.546 99.7108 202.182 99.0016 201.04 98.1477C199.939 97.325 198.752 96.1518 198.284 94.5575C196.73 89.2563 199.091 84.2767 202.529 80.8282C205.948 77.3992 210.878 75.0002 215.513 75.0002C215.651 75.0002 215.79 75.0002 215.928 75.0001C217.732 74.9994 219.489 74.9988 221.058 75.1125C222.74 75.2344 224.444 75.4996 225.952 76.1714C227.544 76.88 228.852 78.0122 229.71 79.6916Z" fill="black"/>
<path fill-rule="evenodd" clip-rule="evenodd" d="M205.514 49C206.902 49 208.028 50.1379 208.028 51.5416C208.028 70.1818 208.884 88.6082 210.073 107.233C210.461 113.319 211.203 119.469 211.999 125.689C212.116 126.601 212.234 127.515 212.352 128.43C213.036 133.735 213.728 139.09 214.223 144.413L214.238 144.568C214.841 151.047 215.262 155.572 218.497 159.933C219.33 161.056 219.105 162.649 217.994 163.492C216.884 164.334 215.308 164.106 214.475 162.983C210.378 157.461 209.84 151.631 209.279 145.56C209.259 145.337 209.238 145.113 209.217 144.89C208.731 139.665 208.053 134.412 207.368 129.104C207.25 128.185 207.131 127.264 207.013 126.341C206.216 120.115 205.455 113.823 205.056 107.56C203.864 88.8819 203 70.3351 203 51.5416C203 50.1379 204.126 49 205.514 49Z" fill="black"/>
<path fill-rule="evenodd" clip-rule="evenodd" d="M212.63 53C214.083 53 215.26 54.128 215.26 55.5194C215.26 72.9552 215.535 89.2506 219.877 105.888C220.619 108.732 221.347 111.565 222.073 114.391C224.141 122.436 226.191 130.414 228.498 138.368C229.209 140.82 229.596 143.243 229.95 145.458C230.057 146.133 230.162 146.789 230.272 147.42C230.756 150.202 231.367 152.757 232.722 155.353C233.371 156.598 232.845 158.111 231.546 158.733C230.246 159.356 228.667 158.851 228.017 157.607C226.313 154.343 225.599 151.207 225.084 148.249C224.95 147.482 224.832 146.741 224.715 146.015C224.371 143.866 224.049 141.852 223.429 139.717C221.1 131.684 219.023 123.601 216.95 115.535C216.228 112.724 215.506 109.915 214.774 107.111C210.257 89.8029 210 72.9386 210 55.5194C210 54.128 211.177 53 212.63 53Z" fill="black"/>
<path fill-rule="evenodd" clip-rule="evenodd" d="M341.207 68.471C343.62 69.8407 345.241 72.2418 345.241 75.5748C345.241 76.9956 344.116 78.1475 342.728 78.1475C341.341 78.1475 340.216 76.9956 340.216 75.5748C340.216 74.2248 339.685 73.4899 338.771 72.9711C337.689 72.3564 335.979 72.0402 333.886 72.1765C331.836 72.3101 329.686 72.8627 327.909 73.6839C326.058 74.5395 324.968 75.5181 324.565 76.2607C323.023 79.1035 320.934 82.9918 319.575 86.9713C318.177 91.0667 317.787 94.6059 318.857 97.0708C318.954 97.296 319.051 97.5193 319.146 97.7404C319.856 99.3877 320.516 100.918 321.357 102.27C322.287 103.767 323.292 104.792 324.521 105.331C326.043 105.999 327.589 106.621 329.176 107.26C329.436 107.364 329.697 107.469 329.959 107.575C331.804 108.319 333.695 109.093 335.549 109.96C339.26 111.696 342.941 113.855 346.094 117.084C347.983 119.018 349.28 122.32 349.772 125.391C350.249 128.376 350.132 132.232 347.897 134.775C345.57 137.423 342.422 138.872 339.878 140.044C339.703 140.124 339.531 140.204 339.362 140.282C338.355 140.749 337.225 141.306 336.019 141.9C333.712 143.037 331.129 144.31 328.602 145.347C324.692 146.952 320.336 148.262 316.138 147.955C313.913 147.792 312.144 146.974 310.711 146.248C310.473 146.127 310.248 146.011 310.031 145.9C308.865 145.3 307.967 144.838 306.903 144.566C305.557 144.222 304.739 142.825 305.076 141.446C305.412 140.068 306.776 139.23 308.122 139.575C309.774 139.998 311.228 140.751 312.384 141.35C312.577 141.451 312.763 141.547 312.939 141.636C314.253 142.302 315.292 142.735 316.496 142.823C319.534 143.045 323.025 142.093 326.733 140.571C329.131 139.587 331.383 138.475 333.574 137.392C334.828 136.773 336.062 136.164 337.291 135.594C337.365 135.56 337.439 135.525 337.513 135.491C340.321 134.191 342.565 133.151 344.163 131.333C344.816 130.59 345.224 128.785 344.814 126.223C344.418 123.748 343.415 121.617 342.542 120.723C339.982 118.101 336.9 116.249 333.461 114.641C331.74 113.836 329.959 113.104 328.119 112.362C327.864 112.26 327.607 112.156 327.349 112.053C325.766 111.416 324.14 110.762 322.541 110.06C320.039 108.962 318.347 107.01 317.118 105.033C316.057 103.326 315.234 101.411 314.542 99.8017C314.448 99.5818 314.356 99.3677 314.266 99.1605C312.371 94.7958 313.352 89.6092 314.833 85.2731C316.352 80.821 318.649 76.572 320.173 73.7619C321.341 71.6089 323.581 70.0394 325.842 68.9942C328.178 67.9147 330.921 67.214 333.567 67.0416C336.172 66.8719 338.963 67.197 341.207 68.471Z" fill="black"/>
<path fill-rule="evenodd" clip-rule="evenodd" d="M322.507 59C323.849 59 324.936 60.1238 324.936 61.5102C324.936 65.856 324.916 70.1947 324.897 74.5268C324.817 92.2084 324.737 109.782 325.993 127.304C326.092 128.687 325.088 129.891 323.751 129.993C322.413 130.095 321.248 129.058 321.149 127.675C319.878 109.937 319.959 92.1142 320.039 74.4148C320.059 70.105 320.079 65.8024 320.079 61.5102C320.079 60.1238 321.166 59 322.507 59Z" fill="black"/>
<path fill-rule="evenodd" clip-rule="evenodd" d="M323 125C324.657 125 326 126.123 326 127.509V149.491C326 150.877 324.657 152 323 152C321.343 152 320 150.877 320 149.491V127.509C320 126.123 321.343 125 323 125Z" fill="black"/>
<path fill-rule="evenodd" clip-rule="evenodd" d="M332.256 36C333.653 36 334.785 37.1337 334.785 38.5323C334.785 47.8835 334.839 57.2552 334.892 66.6372C335.006 86.5466 335.12 106.502 334.723 126.406C334.646 130.268 334.145 133.504 332.617 137.138C332.499 137.418 332.316 138.192 332.192 139.44C332.075 140.613 332.03 141.987 332.076 143.319C332.123 144.667 332.259 145.871 332.466 146.736C332.549 147.086 332.63 147.32 332.691 147.46C333.632 148.184 333.961 149.497 333.41 150.6C332.785 151.851 331.266 152.358 330.017 151.732C329.069 151.258 328.533 150.445 328.238 149.874C327.92 149.258 327.703 148.57 327.546 147.915C327.231 146.595 327.074 145.022 327.021 143.494C326.967 141.949 327.018 140.348 327.158 138.938C327.291 137.605 327.526 136.192 327.955 135.172C329.174 132.275 329.598 129.706 329.666 126.305C330.062 106.466 329.948 86.6226 329.834 66.7495C329.78 57.3514 329.727 47.9465 329.727 38.5323C329.727 37.1337 330.859 36 332.256 36ZM332.76 147.596C332.76 147.597 332.755 147.59 332.745 147.573C332.755 147.588 332.76 147.596 332.76 147.596Z" fill="black"/>
<path fill-rule="evenodd" clip-rule="evenodd" d="M448.951 84.3914C450.312 85.9286 451 87.9219 451 90.289C451 91.6554 449.863 92.7632 448.462 92.7632C447.06 92.7632 445.923 91.6554 445.923 90.289C445.923 88.8925 445.539 88.1115 445.107 87.6242C444.644 87.1008 443.9 86.663 442.77 86.3631C440.414 85.7375 437.251 85.9233 434.285 86.2445C434.069 86.2679 433.635 86.4104 433 87.0052C432.372 87.5941 431.692 88.4937 431.013 89.7016C429.655 92.114 428.497 95.3957 427.731 98.8208C426.966 102.247 426.633 105.637 426.817 108.24C426.909 109.549 427.124 110.533 427.396 111.19C427.614 111.716 427.794 111.86 427.822 111.881C430.731 113.146 433.599 115.672 436.027 118.107C437.573 119.658 439.137 121.382 440.481 122.864C441.229 123.69 441.91 124.44 442.481 125.043C448.902 131.823 447.605 141.207 443.894 147.838C441.558 152.012 437.999 153.987 434.218 154.881C430.951 155.654 427.376 155.643 424.292 155.633C423.961 155.632 423.635 155.631 423.316 155.631C422.642 155.631 421.787 155.697 420.708 155.779C420.503 155.795 420.289 155.811 420.067 155.828C418.75 155.926 417.221 156.026 415.718 155.994C414.235 155.961 412.61 155.799 411.143 155.283C409.64 154.755 408.139 153.793 407.269 152.096C406.642 150.873 407.15 149.387 408.404 148.776C409.658 148.165 411.183 148.66 411.81 149.883C411.928 150.114 412.18 150.388 412.864 150.628C413.585 150.881 414.583 151.019 415.832 151.046C417.061 151.073 418.373 150.992 419.678 150.894C419.869 150.88 420.062 150.865 420.257 150.85C421.322 150.768 422.423 150.683 423.316 150.683C423.627 150.683 423.934 150.683 424.24 150.684C427.442 150.689 430.388 150.695 433.021 150.072C435.744 149.428 437.935 148.152 439.437 145.469C442.611 139.798 443.087 132.979 438.75 128.399C438.023 127.632 437.278 126.808 436.5 125.948C435.235 124.551 433.884 123.059 432.387 121.556C429.991 119.154 427.697 117.242 425.745 116.396C424.154 115.707 423.227 114.341 422.689 113.043C422.143 111.726 421.865 110.173 421.752 108.58C421.526 105.377 421.937 101.499 422.771 97.7676C423.605 94.0352 424.902 90.2706 426.561 87.322C427.39 85.8493 428.359 84.4897 429.482 83.4376C430.599 82.3913 432.02 81.5109 433.724 81.3263C436.636 81.0109 440.701 80.685 444.104 81.5886C445.854 82.0532 447.622 82.8902 448.951 84.3914Z" fill="black"/>
<path fill-rule="evenodd" clip-rule="evenodd" d="M423 58C424.657 58 426 59.1348 426 60.5345V160.465C426 161.865 424.657 163 423 163C421.343 163 420 161.865 420 160.465V60.5345C420 59.1348 421.343 58 423 58Z" fill="black"/>
<path fill-rule="evenodd" clip-rule="evenodd" d="M437.284 67C438.784 67 440 68.143 440 69.553V129.699C440 137.041 439.086 144.347 438.197 151.453L438.196 151.458C437.301 158.615 436.431 165.566 436.431 172.447C436.431 173.857 435.215 175 433.716 175C432.216 175 431 173.857 431 172.447C431 165.266 431.901 158.065 432.784 151.012L432.803 150.857C433.698 143.702 434.569 136.692 434.569 129.699V69.553C434.569 68.143 435.785 67 437.284 67Z" fill="black"/>
<path fill-rule="evenodd" clip-rule="evenodd" d="M538.023 84.1874C542.696 81.2251 546.717 81 551.518 81C553.383 81 555.016 81.4913 556.295 82.5628C557.546 83.6105 558.192 84.9914 558.538 86.2763C558.88 87.5493 558.972 88.893 558.995 90.0744C559.008 90.7657 558.995 91.5608 558.983 92.2591C558.977 92.6689 558.971 93.0454 558.971 93.348C558.971 94.7277 557.848 95.8462 556.462 95.8462C555.077 95.8462 553.954 94.7277 553.954 93.348C553.954 92.8534 553.962 92.4129 553.97 91.9855C553.981 91.3912 553.991 90.8221 553.979 90.1679C553.959 89.1272 553.878 88.2586 553.692 87.5693C553.51 86.8918 553.274 86.5604 553.066 86.3865C552.887 86.2362 552.485 85.9964 551.518 85.9964C546.944 85.9964 544.137 86.2346 540.716 88.4027C538.692 89.6854 537.8 90.8015 537.191 92.0891C536.647 93.2409 536.315 94.5178 535.828 96.3892C535.677 96.9692 535.512 97.6062 535.32 98.3144C535.086 99.1822 534.623 101.614 534.46 104.01C534.378 105.206 534.38 106.281 534.485 107.094C534.538 107.5 534.607 107.764 534.664 107.915C534.664 107.916 534.665 107.918 534.666 107.919C535.688 108.75 536.788 109.178 538.24 109.744C538.613 109.889 539.01 110.044 539.434 110.217C541.47 111.045 543.856 112.243 545.466 115.112C545.842 115.783 546.262 116.378 546.727 116.999C546.834 117.142 546.949 117.293 547.069 117.451C547.433 117.931 547.841 118.467 548.198 118.997C549.245 120.548 550.109 122.379 550.179 125.021C550.241 127.384 550.22 129.79 550.2 132.143C550.19 133.293 550.18 134.431 550.18 135.544C550.18 139.8 549.564 144.453 547.432 148.169C545.195 152.071 541.389 154.74 535.674 154.944C530.274 155.136 525.511 154.932 520.137 152.826C519.362 152.523 518.471 152.394 517.275 152.223C516.904 152.169 516.503 152.112 516.067 152.043C514.565 151.807 512.303 151.398 510.735 149.836C509.755 148.86 509.755 147.278 510.735 146.303C511.714 145.327 513.302 145.327 514.282 146.303C514.555 146.575 515.213 146.851 516.847 147.108C517.087 147.145 517.356 147.183 517.645 147.223C518.919 147.402 520.594 147.636 521.973 148.177C526.401 149.912 530.356 150.133 535.495 149.95C539.449 149.81 541.687 148.113 543.076 145.691C544.571 143.085 545.163 139.459 545.163 135.544C545.163 134.336 545.174 133.151 545.184 131.978C545.204 129.681 545.224 127.431 545.164 125.152C545.126 123.698 544.703 122.775 544.034 121.784C543.762 121.38 543.48 121.008 543.144 120.566C543.007 120.386 542.862 120.196 542.705 119.986C542.192 119.301 541.621 118.502 541.087 117.55C540.317 116.178 539.235 115.533 537.537 114.842C537.278 114.736 536.992 114.627 536.686 114.51C535.124 113.912 533.039 113.114 531.266 111.6C530.588 111.021 530.201 110.288 529.969 109.674C529.731 109.044 529.593 108.372 529.51 107.733C529.345 106.458 529.363 105.017 529.455 103.672C529.638 100.983 530.149 98.2268 530.476 97.0154C530.619 96.4853 530.755 95.9591 530.89 95.4397C531.402 93.4584 531.888 91.5768 532.653 89.9602C533.722 87.6987 535.317 85.9024 538.023 84.1874ZM534.7 107.997C534.7 107.997 534.698 107.994 534.695 107.989C534.698 107.994 534.7 107.997 534.7 107.997Z" fill="black"/>
<path fill-rule="evenodd" clip-rule="evenodd" d="M526.665 71C528.137 71 529.33 72.1417 529.33 73.55V118.482C529.33 127.362 530.827 136.498 532.53 145.457C532.74 146.567 532.695 147.937 532.63 149.118C532.602 149.611 532.571 150.087 532.539 150.554C532.487 151.341 532.436 152.106 532.41 152.898C532.371 154.141 532.414 155.118 532.567 155.801C532.623 156.049 532.678 156.192 532.713 156.267C533.892 156.947 534.344 158.392 533.718 159.59C533.06 160.849 531.459 161.36 530.143 160.73C528.313 159.855 527.638 158.12 527.357 156.874C527.061 155.559 527.041 154.071 527.083 152.742C527.111 151.881 527.173 150.944 527.229 150.091C527.259 149.647 527.287 149.225 527.307 148.849C527.376 147.608 527.37 146.81 527.286 146.369C525.578 137.38 524 127.856 524 118.482V73.55C524 72.1417 525.193 71 526.665 71ZM532.751 156.335C532.751 156.335 532.748 156.332 532.743 156.324C532.749 156.331 532.751 156.335 532.751 156.335Z" fill="black"/>
<path fill-rule="evenodd" clip-rule="evenodd" d="M541.5 68C542.881 68 544 69.1452 544 70.5578V162.442C544 163.855 542.881 165 541.5 165C540.119 165 539 163.855 539 162.442V70.5578C539 69.1452 540.119 68 541.5 68Z" fill="black"/>
<path fill-rule="evenodd" clip-rule="evenodd" d="M650.697 82.7915C651.309 85.3577 651.683 87.7786 651.683 89.2359C651.683 90.6523 650.579 91.8005 649.218 91.8005C647.857 91.8005 646.754 90.6523 646.754 89.2359C646.754 88.4103 646.496 86.4721 645.913 84.0264C645.342 81.6315 644.512 78.9752 643.48 76.731C642.398 74.3789 641.291 72.9214 640.376 72.3644C639.998 72.1347 639.731 72.1038 639.493 72.1451C639.216 72.1931 638.701 72.3906 637.954 73.1244C636.462 74.5904 634.553 76.9283 632.974 79.45C631.349 82.0446 630.301 84.4761 630.137 86.183C630.086 86.7131 630.019 87.3432 629.944 88.0509C629.671 90.6344 629.288 94.2537 629.161 97.8295C629.08 100.1 629.109 102.249 629.317 104.01C629.54 105.895 629.92 106.866 630.192 107.211C631.795 109.25 634.031 110.819 636.679 112.344C637.531 112.835 638.466 113.341 639.431 113.864C641.272 114.86 643.221 115.915 644.906 117.034C654.144 123.17 655.454 133.222 655.938 142.526C656.285 149.22 655.214 154.818 651.818 158.791C648.409 162.779 643.139 164.574 636.35 164.827C636.103 164.836 635.74 164.858 635.323 164.884C634.577 164.93 633.659 164.987 632.924 164.997C631.663 165.016 630.097 164.947 628.709 164.427C627.236 163.875 626.33 162.875 625.791 162.279C625.766 162.251 625.741 162.224 625.718 162.198C625.148 161.571 624.963 161.422 624.686 161.326C623.395 160.878 622.697 159.426 623.127 158.082C623.558 156.739 624.953 156.012 626.245 156.46C627.771 156.99 628.695 158.008 629.247 158.617C629.264 158.636 629.282 158.655 629.298 158.673C629.886 159.319 630.079 159.489 630.379 159.601C630.893 159.794 631.716 159.885 632.854 159.869C633.569 159.858 634.141 159.82 634.734 159.781C635.18 159.751 635.637 159.721 636.174 159.701C642.338 159.472 646.008 157.871 648.135 155.382C650.275 152.878 651.333 148.917 651.016 142.803C650.533 133.518 649.228 125.99 642.254 121.358C640.728 120.344 639.156 119.496 637.467 118.585C636.455 118.04 635.402 117.471 634.291 116.831C631.496 115.221 628.588 113.272 626.377 110.459C625.16 108.911 624.665 106.664 624.425 104.637C624.171 102.487 624.15 100.032 624.235 97.6404C624.369 93.8508 624.782 89.957 625.056 87.3818C625.126 86.7156 625.188 86.1377 625.232 85.6727C625.518 82.6978 627.115 79.4107 628.844 76.6494C630.62 73.8152 632.774 71.1601 634.57 69.3954C635.798 68.1878 637.169 67.3484 638.682 67.0859C640.232 66.8168 641.656 67.2019 642.864 67.9367C645.119 69.3088 646.757 71.9745 647.926 74.5164C649.145 77.1661 650.073 80.1745 650.697 82.7915Z" fill="black"/>
<path fill-rule="evenodd" clip-rule="evenodd" d="M630.871 59C632.457 59 633.742 60.1227 633.742 61.5077C633.742 76.3278 634.056 91.1469 634.371 105.983L634.371 106.024C634.686 120.839 635 135.671 635 150.492C635 151.877 633.715 153 632.129 153C630.543 153 629.258 151.877 629.258 150.492C629.258 135.718 628.944 120.924 628.63 106.094L628.629 106.076C628.315 91.2474 628 76.3819 628 61.5077C628 60.1227 629.285 59 630.871 59Z" fill="black"/>
<path fill-rule="evenodd" clip-rule="evenodd" d="M642.485 72C643.858 72 644.97 73.1253 644.97 74.5134C644.97 96.6531 645.576 118.718 646.507 140.854C646.56 142.113 646.614 143.374 646.668 144.637C647.022 152.928 647.38 161.283 647.488 169.624C647.495 170.169 647.46 170.954 647.424 171.769C647.414 171.999 647.404 172.232 647.394 172.462C647.348 173.577 647.312 174.792 647.344 175.95C647.377 177.133 647.48 178.123 647.662 178.824C647.739 179.12 647.808 179.284 647.847 179.365C648.911 180.047 649.312 181.446 648.737 182.61C648.123 183.852 646.631 184.355 645.403 183.734C643.776 182.911 643.142 181.21 642.854 180.098C642.53 178.846 642.413 177.41 642.376 176.093C642.338 174.751 642.381 173.391 642.428 172.252C642.441 171.948 642.453 171.667 642.465 171.409C642.499 170.642 642.524 170.075 642.519 169.69C642.411 161.43 642.057 153.158 641.703 144.862C641.649 143.598 641.594 142.333 641.541 141.068C640.608 118.884 640 96.7444 640 74.5134C640 73.1253 641.113 72 642.485 72Z" fill="black"/>
</svg>
