<svg width="443" height="409" viewBox="0 0 443 409" fill="none" xmlns="http://www.w3.org/2000/svg">
<path d="M231.38 120.293C231.38 115.044 230.768 111.063 229.334 106.045C228.217 102.135 225.029 97.0824 222.81 93.6304C221.198 91.1233 220.283 88.0134 218.965 85.3777C217.118 81.683 213.298 78.6612 211.841 74.7268C211.102 72.7319 209.671 71.5152 208.808 69.5424C204.531 59.7655 197.483 50.0912 191.245 41.4338C187.086 35.6623 181.28 31.2437 175.48 27.2561C172.224 25.0177 168.293 24.6792 164.476 23.5177C160.706 22.3702 153.39 22.3027 149.488 23.3061C145.804 24.2533 140.467 26.8747 137.285 28.8784C135.124 30.2386 132.832 30.6113 130.619 31.7704C125.467 34.4689 119.507 36.6795 114.043 38.6829C110.836 39.859 105.903 42.6546 105.085 46.3361C104.685 48.1349 118.02 43.9328 119.298 43.6205C128.265 41.4286 137.708 40.3053 146.948 40.3053C167.779 40.3053 193.578 42.6903 207.574 60.3375C217.605 72.9859 224.306 88.0265 232.649 101.883C236.392 108.099 239.186 114.654 242.771 120.928C243.471 122.152 245.346 124.818 245.346 126.253C245.346 127.352 244.094 124.44 243.582 123.467C242.921 122.21 242.521 121.993 242.136 120.646C241.826 119.56 240.493 119.658 239.632 119.658C238.14 119.658 237.797 118.385 237.234 117.119C235.166 112.465 235.823 106.379 235.823 101.248C235.823 98.2395 235.512 94.8594 236.776 92.0786C237.398 90.7102 237.765 88.9077 238.222 87.4233C238.696 85.8816 238.933 82.9238 239.774 81.7099C241.144 79.7297 244.229 75.4226 244.676 72.9634C245.182 70.1778 246.974 66.1234 249.014 64.2875C255.424 58.5184 263.211 54.3304 269.116 47.8879C270.616 46.2517 272.181 43.1204 274.23 42.2097C277.286 40.8516 280.883 39.3138 284.07 37.766C286.032 36.8132 288.455 35.6002 290.136 34.2392C290.553 33.9017 293.925 30.7829 292.958 30.7829C287.189 30.7829 283.094 32.7976 278.039 35.4736C274.98 37.0934 270.739 37.2695 270.739 41.5749C270.739 43.4444 269.125 44.4587 267.882 45.7013C267.316 46.2672 264.461 48.764 264.461 49.4749C264.461 51.2372 266.986 47.0142 268.199 45.7365C270.001 43.8404 271.35 41.3881 273.313 39.6704C276.206 37.1391 279.487 34.7311 282.166 32.0526C286.454 27.7641 293.566 24.5904 298.988 21.578C300.921 20.5045 305.1 21.2606 307.241 21.2606C312.007 21.2606 316.851 21.771 320.89 24.5758C326.511 28.4792 331.689 31.7068 336.76 36.4963C340.35 39.8865 346.124 42.6864 348.505 46.9709C350.03 49.7172 352.668 51.597 354.253 54.6241C355.541 57.0825 356.985 59.0131 357.992 61.6777C359.068 64.5277 361.222 68.5823 361.519 71.5527C361.847 74.8345 363.878 77.6918 364.058 80.934C364.198 83.4621 366.98 89.1345 368.184 91.4086C370.041 94.9158 370.19 99.4915 371.817 103.153C373.241 106.357 374.011 109.354 374.85 112.71C376.838 120.663 380.563 128.461 380.563 136.657C380.563 139.537 382.279 154.439 378.976 155.173C375.809 155.877 375.237 157.118 373.263 159.969C371.179 162.98 367.312 169.558 362.647 167.764C360.255 166.844 357.442 163.064 355.805 161.204C350.761 155.471 346.265 149.464 342.474 142.829C338.784 136.372 335.801 129.498 332.81 122.691C331.884 120.583 329.634 117.656 329.777 115.214C329.912 112.923 333.282 109.497 334.08 107.103C334.711 105.211 335.816 103.588 336.09 101.53C336.742 96.6408 337.09 101.471 337.713 103.823C338.76 107.781 339.148 111.863 340.569 115.708C341.366 117.864 340.921 120.483 342.192 122.48C343.584 124.668 345.512 126.099 346.918 128.052C349.198 131.219 351.53 135.136 354.183 138.068C355.395 139.408 356.324 141.755 358.027 142.512C358.422 142.688 358.979 143.826 358.979 143.394C358.979 142.151 359.036 140.895 358.944 139.655C358.656 135.761 356.73 131.72 355.805 127.911C354.659 123.191 352.866 118.643 351.643 113.945C349.396 105.309 346.077 97.0652 343.391 88.6224C340.873 80.7089 335.378 76.0243 329.636 70.283C321.81 62.4566 313.961 55.2176 303.397 51.4147C297.736 49.3767 288.21 47.0082 283.224 51.7321C282.146 52.7526 279.689 55.3801 279.626 56.9517C279.489 60.3943 283.364 57.8805 285.269 57.3044C292.3 55.1788 299.643 54.6635 306.712 52.7196C311.257 51.4696 315.378 50.5846 319.585 53.3191C325.497 57.1623 328.239 64.4861 331.188 70.5652C338.653 85.9522 345.486 101.949 353.901 116.837C361.049 129.484 367.514 141.975 373.086 155.349C374.331 158.336 375.659 162.387 376.084 165.577C376.516 168.814 373.912 163.468 373.545 162.826C371.41 159.089 368.463 155.863 365.257 153.022C359.173 147.63 353.077 141.632 346.424 136.975C324.954 121.946 310.901 100.516 295.638 79.5938C292.053 74.6796 289.117 69.4448 285.692 64.4638C283.166 60.7897 283.716 65.8799 283.929 67.6732C284.264 70.4858 285.465 72.9826 286.292 75.679C288.611 83.2413 290.937 90.6468 293.91 98.0037C301.592 117.017 310.355 136.13 320.184 154.15C320.323 154.405 326.322 166.245 327.379 162.544C328.947 157.056 327.667 150.381 326.885 144.91C325.786 137.213 324.459 130.528 322.124 123.044C318.28 110.72 312.03 99.32 307.946 87.0706C307.233 84.9312 305.654 82.5771 305.654 80.2991C305.654 78.6957 304.384 78.668 304.384 80.3344C304.384 90.2893 304.492 101.252 302.974 111.123C302.521 114.064 300.826 114.448 298.671 115.885C292.716 119.855 286.576 124.122 282.166 129.815C279.112 133.757 275.495 137.685 271.973 141.207C270.35 142.83 267.565 144.995 267.565 141.172C267.565 116.225 267.565 91.2792 267.565 66.333C267.565 65.5229 267.34 61.5076 266.577 61.2897C265.003 60.8398 260.256 73.3106 259.629 74.6563C250.034 95.2681 242.285 115.606 238.151 137.998C237.363 142.266 237.728 146.789 237.728 151.117C237.728 152.501 237.107 156.52 238.504 157.607C238.998 157.991 238.998 154.951 238.998 154.856C238.998 150.943 239.093 147.055 239.315 143.147C239.936 132.219 241.124 121.509 243.159 110.735C244.707 102.543 245.434 94.2425 246.757 86.0126C246.904 85.0944 247.25 78.3211 247.25 81.0045C247.25 84.9412 248.938 88.1833 250.072 91.867C254.531 106.36 260.17 120.526 265.025 134.894C272.198 156.122 281.419 176.694 290.842 197.001C292.823 201.272 294.803 205.522 296.908 209.733C297.472 210.861 299.489 215.841 298.318 211.849C295.074 200.779 287.907 190.758 282.095 180.954C276.427 171.393 271.377 161.492 265.66 151.964C263.903 149.036 263.016 145.512 261.216 142.653C260.124 140.918 258.773 139.566 258.183 137.574C257.095 133.902 259.72 129.129 261.216 125.971C264.655 118.713 267.663 111.377 271.762 104.422C274.981 98.9586 278.304 93.2147 283.365 89.2572C286.23 87.0167 289.751 86.2526 293.099 85.025C301.177 82.0631 308.792 77.4386 317.222 75.7143C323.382 74.4543 326.514 74.3789 330.906 79.1706C333.362 81.8499 333.453 84.3013 334.186 87.5996C335.576 93.857 341.843 100.44 346.918 104.105C351.057 107.095 354.465 111.115 358.697 114.015C362.105 116.35 365.041 118.637 367.796 121.704C371.755 126.11 376.555 129.721 380.528 134.224C384.187 138.371 387.227 143.932 388.745 149.248C391.335 158.313 391.941 168.995 391.99 178.344C392.031 186.183 392.796 193.536 389.592 200.775C389.114 201.854 387.188 205.686 385.959 205.959C385.109 206.148 383.92 206.162 383.244 206.77C380.715 209.045 379.363 214.123 377.707 217.104C370.719 229.681 360.089 239.896 346.918 246.482C345.904 246.988 344.656 247.026 343.602 247.505C341.226 248.585 347.748 244.332 349.845 242.779C355.561 238.544 362.573 234.071 369.277 231.528C370.921 230.905 368.488 231.89 368.149 231.987C366.747 232.387 365.633 233.812 365.01 235.196C357.038 252.913 343.634 265.142 330.165 278.611C327.687 281.089 322.926 282.623 321.031 285.347C319.412 287.674 318.164 290.378 316.799 292.859C313.672 298.544 311.143 304.711 307.629 310.035C302.464 317.861 296.204 324.956 291.053 332.818C289.029 335.907 287.346 339.103 285.692 342.411C284.789 344.217 283.718 347.146 281.883 348.195C280.478 348.998 278.905 354.813 278.286 356.236C276.104 361.251 274.424 367.39 271.374 371.965C269.183 375.251 266.904 377.772 264.884 381.205C264.491 381.874 262.623 383.285 262.133 383.145C260.046 382.549 259.341 387.289 258.395 388.506C256.722 390.657 257.688 391.394 255.503 388.823C254.221 387.316 252.898 384.555 251.976 382.757C248.465 375.911 243.299 368.793 237.516 363.536C224.814 351.989 216.358 336.486 205.07 323.648C202.433 320.65 199.941 317.561 197.311 314.655C195.847 313.037 193.645 308.168 191.386 307.566C190.365 307.294 191.873 304.734 192.056 304.321C194.639 298.509 197.865 292.981 200.697 287.287C205.316 277.998 209.549 268.79 212.97 259.002C215.336 252.233 217.21 245.273 219.882 238.617C223.785 228.897 230.095 220.31 233.919 210.65C234.741 208.572 233.519 208.154 232.226 206.7C225.039 198.614 218.92 189.481 213.675 180.037C200.231 155.827 200.394 128.003 202.46 101.143C202.709 97.9094 203.387 93.9504 202.531 90.7385C201.793 87.9732 199.201 85.7389 197.734 83.3322C195.231 79.2245 192.452 75.2107 189.834 71.1647C188.824 69.6043 187.723 68.6035 186.166 67.6027C184.655 66.6315 182.806 66.3906 181.229 65.5571C178.436 64.0815 176.584 60.7593 174.598 58.433C172.065 55.4651 170.353 52.3785 166.381 51.7674C162.718 51.2039 159.389 49.7539 155.836 48.8401C149.297 47.1586 143.164 46.0528 136.474 45.3486C134.586 45.1499 132.43 43.8658 130.584 43.3383C128.073 42.6211 125.435 43.0915 122.895 43.7968C118.637 44.9797 114.517 48.949 110.128 49.1928C107.093 49.3614 105.554 48.5281 102.793 49.8276C101.462 50.454 99.9162 51.0973 98.4195 51.0973C96.6699 51.0973 97.1921 55.4705 97.8552 55.4705C98.8581 55.4705 99.4231 54.7683 100.253 54.4125C101.508 53.8746 103.59 54.2714 104.909 54.2714C109.962 54.2714 115.44 56.3941 119.58 59.2794C125.173 63.1777 129.114 68.8399 133.476 73.9509C133.98 74.5421 137.188 78.6103 136.791 77.7598C135.906 75.8639 134.789 74.1035 133.687 72.3286C129.253 65.1809 124.373 61.2534 116.195 58.5741C114.664 58.0728 106.157 55.9021 105.191 57.7276C104.701 58.6533 105.05 61.9138 105.05 60.8665C105.05 59.0526 105.328 58.4366 106.637 57.1281C112.08 51.6854 102.89 52.1252 99.6891 52.4374C90.5859 53.3256 83.5594 55.7153 76.3417 61.2544C75.4323 61.9524 74.7122 62.2591 73.6614 62.5594C73.038 62.7375 72.8735 66.818 72.6739 67.4969C72.4424 68.284 70.0306 74.5152 70.4873 74.5152C71.4122 74.5152 72.039 71.9048 72.039 73.9509C72.039 78.5948 71.899 83.3371 72.8149 87.917C74.0602 94.1432 73.2621 101.915 75.7422 107.702C80.6545 119.165 86.7089 130.224 92.7766 141.101C98.834 151.96 105.683 162.309 114.643 171.008C118.873 175.116 123.317 179.042 128.221 182.329C133.071 185.581 145.493 190.74 146.948 180.672C147.53 176.645 144.817 171.261 143.351 167.764C140.154 160.137 136.062 152.949 131.889 145.827C127.237 137.889 122.045 130.299 117.746 122.162C114.117 115.293 110.445 109.613 107.73 102.553C107.254 101.316 103.948 91.9697 101.876 91.726C100.01 91.5065 100.05 89.2412 99.1954 87.5643C98.4259 86.055 92.1957 78.2012 91.7538 81.9567C91.5787 83.4454 91.5943 87.1058 90.9427 83.6849C90.4786 81.2487 90.6989 79.3341 87.5922 79.6996C84.2824 80.089 83.8164 85.0608 83.5011 87.7407C83.0538 91.5431 81.6008 98.8489 78.3873 101.46C77.0428 102.552 75.384 102.544 73.9435 103.47C71.823 104.833 71.4042 103.498 71.4042 101.178C71.4042 97.9897 70.7694 95.0732 70.7694 91.9376C70.7694 90.3602 71.7083 84.6943 70.6283 83.6143C69.09 82.076 69.4998 88.51 69.4998 88.6224C69.4998 90.5545 69.7194 92.6357 69.4645 94.5474C69.1037 97.2533 67.4553 99.7353 67.1015 102.447C66.2409 109.046 66.635 116.476 66.9957 123.15C67.3417 129.551 70.2344 136.224 72.6739 142.018C72.9057 142.569 75.8073 146.068 75.848 145.051C76.2387 135.283 74.0998 125.331 75.7775 115.638C78.5503 99.6168 92.4974 90.1987 104.662 81.3219C110.533 77.0377 118.847 74.355 125.787 72.3286C134.737 69.7156 143.767 67.3487 152.732 64.7812C154.549 64.2611 157.512 63.1255 159.504 64.0759C161.316 64.9407 161.799 67.5542 162.854 69.0839C164.416 71.3485 166.812 72.8861 168.426 75.1853C171.754 79.924 175.773 84.3032 178.337 89.5394C181.844 96.7032 183.995 104.612 186.131 112.252C188.179 119.579 190.301 127.083 191.104 134.682C191.81 141.364 192.882 148.498 186.519 152.316C181.928 155.071 176.443 154.028 171.459 153.057C159.521 150.731 148.686 144.233 139.083 136.94C130.754 130.613 121.667 123.106 115.207 114.791C112.597 111.431 110.646 106.05 112.174 101.813C113.132 99.1558 115.597 96.5789 117.394 94.6885C122.24 89.5887 127.509 84.4508 133.158 80.2286C136.301 77.8797 141.244 75.0663 143.986 79.1353C146.453 82.7966 145.679 87.5503 145.679 91.726C145.679 103.576 145.712 115.426 145.679 127.276C145.672 129.429 147.009 145.564 142.998 146.25C140.304 146.711 135.488 139.915 134.534 138.809C131.306 135.067 128.262 131.171 125.223 127.276C121.366 122.33 117.606 117.252 114.325 111.899C111.418 107.156 120.451 108.302 123.283 108.302C128.714 108.302 134.76 108.321 139.965 110.065C152.711 114.337 159.826 124.788 163.947 137.151C168.555 150.975 168.532 166.922 168.532 181.377C168.532 191.61 157.808 178.684 155.589 175.699C151.662 170.418 148.918 163.614 146.384 157.607C144.004 151.966 141.914 145.873 144.268 139.902C147.022 132.917 151.153 127.515 156.4 122.268C159.348 119.32 164.193 113.95 168.673 113.663C172.85 113.394 174.941 126.122 175.586 129.004C177.716 138.532 177.174 149.471 177.702 159.088C178.313 170.224 178.689 181.305 178.689 192.451C178.689 194.406 179.687 201.203 176.503 196.825C172.05 190.702 168.589 183.618 164.935 177.004C158.367 165.117 152.584 152.818 146.878 140.502C141.855 129.66 136.347 118.56 132.347 107.244C130.962 103.323 128.19 93.6644 130.831 89.892C132.319 87.7661 141.983 89.1867 144.338 89.1867C145.697 89.1867 157.099 88.4331 157.105 88.5518C157.355 93.046 155.162 98.1983 154.284 102.588C151.923 114.392 150.744 126.394 148.641 138.244C148.412 139.538 147.489 150.122 144.903 146.673C137.944 137.396 133.235 129.081 123.495 122.55C116.364 117.769 111.988 116.042 103.392 116.519C95.4338 116.961 90.0526 126.484 83.1837 129.427C78.1325 131.592 75.7335 128.237 73.0971 124.031C70.7761 120.329 69.6608 115.946 67.4895 112.146C66.883 111.085 62.9059 101.805 61.9171 107.244C60.9426 112.604 61.9603 118.816 62.5167 124.102C62.8297 127.075 64.8891 130.153 65.056 132.989C65.2544 136.362 66.6521 140.311 67.3131 143.711C68.1136 147.828 68.8806 151.881 69.5703 156.019C70.1116 159.267 71.4042 161.906 71.4042 165.224C71.4042 166.855 72.3036 168.434 73.0266 169.88C73.7471 171.321 74.4327 172.681 75.4953 173.9C76.8136 175.413 76.6532 176.887 77.5408 178.485C78.7826 180.72 79.6294 183.23 81.0676 185.327C82.7491 187.779 84.1711 191.058 85.4409 193.756C86.263 195.503 87.4135 199.597 89.1793 200.775C92.4762 202.972 93.4213 205.627 95.8449 208.816C99.798 214.017 102.914 219.001 105.544 224.968C106.431 226.983 107.413 229.225 108.541 231.105C109.606 232.879 109.68 235.383 111.081 236.783C122.392 248.094 131.667 260.687 142.716 272.227C144.58 274.174 144.932 277.129 146.842 278.858C151.916 283.448 156.782 288.197 161.62 293.036C166.365 297.78 171.533 300.481 176.15 305.097C180.727 309.674 183.942 315.358 188.529 319.945C192.408 323.823 196.47 327.425 200.273 331.337C201.847 332.955 203.141 334.628 204.682 336.168C207.021 338.507 210.081 339.644 212.899 341.494C217.156 344.287 223.58 347.492 226.795 351.51C227.139 351.939 226.817 352.526 227.324 352.921C228.092 353.518 228.938 353.25 229.475 354.19C229.635 354.47 231.249 348.298 231.38 346.925C231.86 341.883 231.268 337.519 229.687 332.395C225.842 319.93 219.172 308.151 209.231 299.701C204.174 295.402 198.355 291.6 193.643 286.969C182.997 276.507 171.856 266.525 160.703 256.604C149.354 246.508 137.907 235.902 129.385 223.205C123.392 214.277 115.816 206.33 109.705 197.459C106.241 192.431 103.354 187.011 99.3717 182.365C98.8077 181.707 99.3989 185.342 99.4775 185.503C101.89 190.463 105.931 195.246 109.599 199.293C117.199 207.679 126.561 214.328 134.252 222.5C135.313 223.627 130.953 219.19 130.161 218.55C129.116 217.706 127.119 215.964 126.352 217.985C124.534 222.777 124.238 228.9 123.848 233.926C123.52 238.154 123.46 242.386 123.46 246.623C123.46 246.877 123.623 249.255 123.107 248.739C120.7 246.332 120.957 243.456 119.651 240.627C117.888 236.808 115.942 234.862 112.668 232.304C107.16 228.001 101.38 224.151 96.7972 218.832C94.5671 216.243 92.393 213.466 89.8141 211.214C88.4977 210.064 85.8402 209.307 84.8766 207.899C84.1122 206.781 81.129 205.757 81.8788 204.407C82.3539 203.552 81.725 201.669 82.3373 201.057C82.7597 200.634 89.196 209.66 89.7436 210.191C98.3365 218.52 109.731 221.533 121.167 223.875C132.237 226.142 143.401 227.603 154.707 227.19C159.771 227.005 167.057 223.795 171.283 227.578C175.381 231.247 179.423 235.077 183.345 238.934C183.868 239.449 190.956 246.269 186.872 243.026C180.599 238.045 175.152 232.253 167.968 228.566C163.327 226.184 158.815 223.543 154.213 221.089C153.758 220.846 153.382 220.454 153.296 219.96C151.658 210.455 144.985 200.547 140.283 192.451C132.924 179.783 125.61 167.145 118.452 154.362C116.946 151.672 114.634 153.071 111.892 151.752C106.839 149.322 105.226 144.54 102.37 140.255C100.799 137.899 99.9713 142.989 99.9713 143.605C99.9713 149.616 98.7075 154.675 97.2909 160.498C96.7593 162.684 96.0711 164.946 94.8927 166.882C94.3964 167.697 93.2345 168.542 93.0235 169.492C92.7919 170.534 94.3553 171.443 94.928 172.102C97.6113 175.187 99.7792 178.635 102.264 181.871C106.039 186.787 110.707 190.822 115.56 194.638C125.735 202.639 136.398 210.035 147.442 216.786C159.016 223.861 171.178 229.963 182.78 236.995C186.527 239.265 188.452 238.436 188.212 233.926C187.947 228.97 183.66 224.264 181.088 220.313C178.507 216.35 175.423 212.521 173.117 208.392C170.839 204.312 171.766 203.373 174.775 200.069C183.998 189.942 192.385 179.152 201.12 168.61C206.244 162.426 210.496 156.043 214.24 148.895C215.776 145.962 217.076 143.073 218.401 140.043C219.339 137.899 220.949 136.208 221.505 133.906C222.916 128.058 223.867 122.237 225.031 116.343C225.223 115.374 226.148 110.91 224.538 113.945C222.938 116.96 221.936 120.141 220.94 123.397C217.3 135.297 214.882 147.178 212.3 159.335C210.674 166.99 209.68 174.845 207.821 182.435C205.954 190.058 202.853 197.362 200.097 204.689C197.366 211.949 197.13 221.43 192.797 227.931C192.155 228.893 191.875 229.395 192.126 230.611C193.425 236.885 196.609 243.062 198.404 249.233C204.001 268.473 204.734 289.035 211.559 307.919C212.931 311.714 213.763 312.164 215.439 314.478C223.044 324.988 230.632 335.668 240.267 344.386C242.373 346.291 245.494 347.27 247.85 349.076C251.388 351.789 253.437 354.658 256.138 358.034C257.12 359.261 255.753 354.587 255.785 354.543C260.977 347.438 267.913 340.173 274.583 334.475C279.474 330.298 282.962 325.782 285.34 319.839C287.971 313.262 291.885 307.616 295.144 301.359C299.695 292.622 305.48 284.722 309.78 275.86C313.424 268.352 318.307 262.401 322.759 255.475C325.739 250.839 328.275 244.602 328.508 239.005C328.708 234.194 336.983 229.118 340.358 226.52C345.238 222.764 349.503 220.132 352.913 214.917C354.81 212.015 355.768 208.499 357.71 205.641C360.898 200.947 366.205 197.186 369.912 192.839C371.531 190.941 373.378 188.84 371.464 186.491C367.443 181.556 361.575 178.203 355.946 175.523C352.523 173.893 349.551 171.448 346.389 169.386C339.978 165.205 333.43 161.269 327.238 156.76C321.956 152.913 316.749 149.041 311.085 145.756C307.307 143.565 302.856 142.203 299.376 139.549C297.216 137.901 295.009 135.969 292.605 134.682C289.133 132.824 285.705 137.095 283.506 139.267C276.729 145.963 270.038 151.979 262.416 157.748C256.704 162.07 250.616 165.983 245.064 170.515C236.275 177.688 228.42 186.171 220.411 194.179C216.214 198.376 212.694 203.076 208.985 207.687C207.879 209.062 206.827 210.071 206.304 211.743C204.817 216.501 202.296 224.291 209.514 224.616C213.532 224.796 217.55 220.625 220.482 218.444C224.695 215.31 228.292 211.945 233.566 210.861C240.176 209.503 249.103 211.393 253.81 205.712C261.999 195.829 270.297 186.024 278.427 176.087C281.527 172.298 284.717 167.854 288.796 165.083C290.76 163.749 298.912 158.727 293.381 156.76C291.181 155.978 287.905 158.681 286.292 159.723C280.792 163.277 276.484 167.961 271.797 172.49C265.991 178.099 259.891 183.148 253.457 188.008C251.974 189.128 250.227 191.033 248.52 191.887C247.609 192.343 243.806 190.838 242.489 190.723C240.132 190.518 241.277 189.233 242.807 188.607C246.762 186.989 251.325 186.027 255.397 184.692C268.659 180.346 281.092 176.096 292.887 168.469C296.334 166.241 298.571 165.365 302.586 165.365C309.094 165.365 313.763 166.902 319.55 170.091C327.279 174.352 336.585 176.083 343.885 181.024C355.288 188.744 346.515 206.955 340.181 214.846C326.964 231.314 310.166 245.616 299.588 263.904C294.843 272.108 288.304 278.945 283.541 287.111C276.392 299.366 270.171 312.895 265.449 326.258C264.488 328.975 263.821 332.959 260.546 332.959C252.899 332.959 248.806 329.741 243.653 323.895C235.97 315.18 231.422 306.359 226.654 295.998C224.53 291.383 222.137 287.204 221.223 282.173C221.077 281.371 220.201 280.075 220.235 279.352C220.34 277.152 224.789 273.245 225.948 271.734C235.114 259.789 240.331 247.045 245.628 233.08C248.693 224.999 253.343 217.745 257.795 210.367C262.501 202.57 268.498 196.394 276.875 192.804C285.266 189.208 293.762 186.182 302.586 183.775C308.09 182.274 317.036 179.372 319.268 186.385C320.927 191.599 318.406 197.915 318.351 203.243C318.318 206.352 318.689 209.685 318.209 212.766C317.526 217.161 312.51 221.781 309.886 225.039C301.225 235.794 291.958 246.131 284.035 257.45C281.09 261.657 278.023 265.786 275.359 270.182C275.026 270.732 273.758 273.238 275.676 272.086C276.912 271.345 277.616 270.43 278.568 269.265C282.803 264.082 286.603 258.524 290.63 253.183C300.026 240.72 309.994 228.689 319.197 216.081C322.617 211.395 326.526 206.682 329.672 201.833C331.247 199.404 331.892 196.41 333.093 193.791C333.594 192.697 337.013 187.801 334.856 191.252C330.074 198.903 322.284 205.362 316.446 212.201C303.614 227.236 291.566 242.931 278.498 257.768C267.629 270.107 256.036 281.623 243.688 292.471C240.465 295.302 236.296 298.116 233.637 301.535C231.561 304.204 237.091 305.062 238.222 305.027C244.048 304.846 251.18 299.563 256.103 304.709C257.155 305.81 259.312 310.698 259.312 306.261C259.312 288.105 258.489 269.743 259.947 251.631C260.265 247.677 260.844 243.403 263.191 240.063C265.358 236.98 269.006 235.681 271.021 232.375C275.28 225.385 277.457 216.823 280.825 209.38C283.134 204.277 290.901 189.481 287.597 194.003C283.22 199.993 280.357 207.53 277.016 214.106C271.943 224.094 266.073 233.513 259.524 242.602C254.04 250.213 248.52 257.835 242.63 265.139C240.407 267.895 238.25 271.473 235.577 273.85C234.61 274.709 235.189 277.804 235.189 278.964C235.189 281.42 247.306 281.575 243.441 278.999" stroke="#FB0153" stroke-width="37" stroke-linecap="round"/>
<path d="M181.863 269.477C181.863 235.162 196.558 206.34 211.841 176.792C218.28 164.343 228.936 155.227 236.74 143.782C243.215 134.286 252.181 127.2 258.465 117.648C268.627 102.202 282.018 89.547 294.65 76.2081C297.246 73.4671 301.75 70.388 302.973 66.6152C303.548 64.8447 303.761 62.9933 304.173 61.184C305.687 54.5218 306.637 47.5183 308.546 40.9754C309.367 38.1584 310.272 35.4864 311.05 32.6874C311.51 31.0297 311.52 27.7382 312.778 26.4803C313.261 25.9972 313.272 30.1413 313.272 30.4656C313.272 32.4758 313.272 34.4861 313.272 36.4964" stroke="#FB0153" stroke-width="37" stroke-linecap="round"/>
<path fill-rule="evenodd" clip-rule="evenodd" d="M130.092 8.84954C143.587 3.66104 158.554 1.84595 172.417 7.37369C173.158 7.66904 174.088 8.0132 175.107 8.39055C176.862 9.04037 178.884 9.78861 180.664 10.5555C183.595 11.8185 186.814 13.4913 189.143 15.8799C189.571 16.3187 190.28 16.8608 191.33 17.5749C191.673 17.8082 192.084 18.0802 192.522 18.3699C193.238 18.8433 194.025 19.3641 194.704 19.8406C195.866 20.6568 197.129 21.6219 198.179 22.7355C199.216 23.8345 200.279 25.3199 200.647 27.2101C200.936 28.691 200.245 30.1398 199.033 30.8502C198.15 32.5836 196.824 33.9966 195.722 35.0851C195.259 35.542 194.845 35.9351 194.466 36.2956C193.778 36.949 193.203 37.4951 192.656 38.1185C191.788 39.1081 191.102 40.4352 190.269 42.1977C190.2 42.3434 190.13 42.494 190.057 42.6484C189.344 44.169 188.45 46.0744 187.243 47.6208C183.134 52.8869 180.828 57.3965 177.653 63.9078C176.541 66.1873 175.641 68.625 174.673 71.2566L174.643 71.3377C173.705 73.8882 172.697 76.6264 171.422 79.2401C170.902 80.3068 170.099 81.4247 169.544 82.1976C169.39 82.4124 169.254 82.6005 169.15 82.7535C168.503 83.6993 168.326 84.1671 168.293 84.4769C168.23 85.0556 168.11 85.6833 167.874 86.2995C168.18 86.4918 168.486 86.7182 168.767 86.9847C171.785 89.8501 174.913 92.051 178.571 94.6245L178.772 94.7664C181.561 96.7283 184.198 99.3668 186.585 101.754C187.443 102.613 188.269 103.439 189.058 104.19C192.261 107.237 195.194 109.446 198.585 110.219C199.965 110.533 201.277 111.085 202.339 112.024C203.455 113.01 204.119 114.273 204.363 115.637C204.801 118.094 203.816 120.503 202.963 122.151C202.033 123.948 200.793 125.693 199.787 127.053C199.469 127.483 199.246 127.779 199.041 128.051C198.845 128.312 198.665 128.551 198.433 128.865C198.03 129.413 197.843 129.693 197.781 129.805C195.639 133.648 192.296 138.049 188.588 141.953C184.903 145.834 180.637 149.458 176.577 151.54C174.989 152.354 173.319 152.805 171.947 153.136C172.58 153.733 173.25 154.364 173.928 155C175.475 156.45 177.054 157.918 178.307 159.069C178.935 159.645 179.474 160.134 179.883 160.5C180.222 160.803 180.405 160.959 180.472 161.016C180.497 161.038 180.506 161.045 180.5 161.041C184.051 163.67 187.545 166.783 190.781 169.687C191.352 170.199 192.038 170.797 192.784 171.447C194.109 172.602 195.621 173.92 196.999 175.203C199.151 177.207 201.428 179.524 202.897 181.824C202.938 181.855 203.037 181.924 203.23 182.02C203.654 182.232 204.225 182.432 205.047 182.688C205.159 182.723 205.277 182.759 205.4 182.797C206.081 183.007 206.92 183.266 207.679 183.571C208.566 183.927 209.726 184.487 210.673 185.458C211.456 186.261 211.611 187.185 211.649 187.571C211.693 188.006 211.648 188.358 211.62 188.538C211.561 188.91 211.457 189.222 211.4 189.385C211.271 189.749 211.097 190.136 210.94 190.465C210.613 191.152 210.161 192.007 209.714 192.834C209.305 193.59 208.909 194.306 208.566 194.927C208.096 195.778 207.726 196.448 207.56 196.788C205.639 200.727 202.62 203.999 200.1 206.729C199.668 207.197 199.25 207.65 198.855 208.087C198.395 208.597 197.946 209.311 197.402 210.321C197.261 210.582 197.103 210.885 196.933 211.211C196.533 211.979 196.066 212.875 195.604 213.645C194.763 215.047 193.612 216.614 191.929 217.714C192.32 217.969 192.741 218.236 193.191 218.512C195.325 219.826 197.719 221.144 199.611 222.151C200.552 222.652 201.36 223.071 201.938 223.369C202.123 223.464 202.277 223.544 202.41 223.611C202.489 223.652 202.561 223.689 202.626 223.723C202.708 223.765 202.782 223.803 202.839 223.833C202.865 223.847 202.903 223.866 202.94 223.887C202.957 223.896 202.993 223.916 203.035 223.941C203.055 223.952 203.095 223.976 203.144 224.007C203.161 224.018 203.308 224.109 203.476 224.247C205.151 225.621 207.404 226.242 210.526 227.001C210.648 227.03 210.772 227.06 210.898 227.091C213.65 227.756 217.217 228.619 220.021 230.919C220.702 231.477 221.134 231.672 221.327 231.746C221.433 231.787 221.52 231.812 221.65 231.846L221.67 231.851C221.728 231.867 221.862 231.902 221.976 231.936L221.978 231.937C222.089 231.97 222.441 232.076 222.822 232.298C223.244 232.542 223.963 233.08 224.353 234.093C224.731 235.073 224.582 235.934 224.469 236.36C224.304 236.983 223.967 237.531 223.885 237.664C223.879 237.673 223.875 237.68 223.872 237.685C223.816 237.777 223.758 237.873 223.695 237.976C223.442 238.391 223.118 238.919 222.666 239.77C221.111 242.693 219.433 244.638 217.71 246.3C217.029 246.956 216.325 247.584 215.662 248.175C215.521 248.3 215.383 248.423 215.247 248.545C214.446 249.261 213.674 249.967 212.889 250.772C211.517 252.179 209.518 254.357 207.618 256.693C205.68 259.077 204.005 261.432 203.129 263.228C202.037 265.467 200.534 266.77 199.141 267.712C198.673 268.029 198.156 268.343 197.726 268.603C197.585 268.689 197.453 268.769 197.336 268.842C197.267 268.884 197.2 268.926 197.134 268.967C197.791 269.197 198.407 269.483 198.959 269.771C200.051 270.34 201.133 271.046 202.112 271.721C202.82 272.21 203.451 272.661 204.02 273.067C205.198 273.909 206.111 274.562 206.899 274.966C207.267 275.155 207.632 275.342 207.996 275.528C211.111 277.122 214.09 278.646 217.17 280.45C217.164 280.447 217.161 280.445 217.161 280.445C217.161 280.445 217.222 280.478 217.38 280.552C217.551 280.633 217.776 280.735 218.059 280.86C218.498 281.054 219.027 281.283 219.636 281.546C219.816 281.624 220.002 281.705 220.196 281.788C221.868 282.512 223.97 283.43 225.953 284.392C227.882 285.327 229.915 286.404 231.338 287.47C231.977 287.948 232.911 288.723 233.478 289.786C233.792 290.374 234.128 291.306 233.964 292.436C233.791 293.63 233.141 294.493 232.483 295.034C232.504 295.016 232.488 295.033 232.431 295.094C232.328 295.203 232.092 295.455 231.706 295.896C231.198 296.479 230.577 297.219 229.972 297.971C229.362 298.727 228.795 299.461 228.381 300.038C228.212 300.273 228.087 300.457 228.003 300.589C227.316 303.011 225.578 304.461 224.63 305.253C224.595 305.282 224.561 305.311 224.528 305.338C223.249 306.41 223.131 306.619 223.083 306.79C222.731 308.053 221.993 309.09 221.34 309.855C220.654 310.656 219.834 311.418 219.02 312.114C218.066 312.928 216.875 313.85 215.758 314.715C215.087 315.234 214.443 315.733 213.893 316.175C212.332 317.43 211.293 318.407 210.762 319.142C216.437 325.031 222.021 332.212 225.958 340.062C227.34 342.818 228.787 345.532 230.241 348.26C232.482 352.466 234.741 356.703 236.805 361.173C237.625 362.946 237.989 364.748 238.251 366.048C238.297 366.277 238.34 366.49 238.382 366.684C238.685 368.097 238.972 368.949 239.58 369.728C240.3 370.651 240.748 371.784 241.009 372.715C241.274 373.662 241.462 374.817 241.379 375.92C241.338 376.457 241.216 377.239 240.804 378.012C240.347 378.871 239.458 379.814 238.057 380.078C236.808 380.314 235.764 379.886 235.135 379.53C234.475 379.155 233.887 378.644 233.371 378.115C229.358 374.001 224.361 370.528 218.958 367.034C217.908 366.355 216.84 365.674 215.763 364.987C211.396 362.201 206.873 359.316 202.82 356.119C192.462 347.95 182.188 339.375 172.018 330.887C170.19 329.361 168.365 327.838 166.544 326.321C158.872 319.929 152.133 312.82 145.635 305.695C144.305 304.235 142.986 302.778 141.672 301.325C136.53 295.639 131.456 290.03 125.987 284.689C120.41 279.244 115.736 272.719 111.355 266.285C110.539 265.086 109.734 263.893 108.935 262.708C105.387 257.447 101.961 252.367 98.1877 247.794C94.5748 243.417 90.815 239.363 86.965 235.211C85.1957 233.304 83.4074 231.376 81.6056 229.386C72.8922 219.765 67.385 207.941 62.1712 196.747C60.9432 194.111 59.7315 191.509 58.4979 188.98C47.9165 167.281 47 143.195 47 120.159C47 106.024 47.6235 92.4262 51.8567 78.4032C53.8181 71.9059 57.6945 66.0805 62.0311 60.9572C66.3539 55.8502 71.3076 51.245 75.5954 47.2589L75.648 47.21C91.7767 32.2161 108.657 17.0915 130.092 8.84954ZM191.815 271.26C191.807 271.263 191.807 271.263 191.815 271.26ZM163.615 84.6259C163.615 84.6257 163.621 84.6287 163.633 84.635C163.62 84.6292 163.615 84.626 163.615 84.6259ZM193.281 27.3822C192.708 26.7989 191.92 26.1758 190.935 25.4838C190.288 25.0293 189.694 24.6376 189.071 24.2268C188.621 23.9297 188.155 23.6226 187.644 23.2748C186.571 22.5456 185.368 21.6813 184.427 20.7161C183.051 19.3054 180.834 18.0476 178.079 16.8609C176.368 16.1235 174.782 15.5403 173.211 14.9626C172.145 14.5707 171.086 14.1813 170 13.7481C158.17 9.03115 144.989 10.4265 132.435 15.2535C112.343 22.9789 96.3194 37.2252 80.1284 52.2769C75.7828 56.3168 71.1053 60.6714 67.0688 65.4402C63.0283 70.2136 59.8047 75.2051 58.2288 80.4255C54.3025 93.4321 53.6704 106.185 53.6704 120.159C53.6704 143.212 54.6573 165.811 64.4641 185.921C65.8175 188.696 67.1094 191.464 68.3879 194.202C73.5747 205.313 78.5412 215.951 86.4936 224.732C88.179 226.593 89.9037 228.453 91.6409 230.326C95.5583 234.551 99.5397 238.845 103.28 243.377C107.284 248.229 110.937 253.647 114.493 258.922C115.274 260.081 116.05 261.232 116.824 262.37C121.186 268.775 125.535 274.803 130.587 279.736C136.222 285.239 141.473 291.046 146.631 296.748C147.928 298.182 149.218 299.609 150.508 301.024C156.968 308.108 163.45 314.931 170.75 321.013C172.58 322.537 174.411 324.065 176.242 325.593C186.415 334.084 196.608 342.591 206.887 350.698C210.651 353.667 214.812 356.323 219.149 359.091C220.261 359.8 221.385 360.517 222.516 361.249C225.632 363.264 228.785 365.377 231.771 367.697C231.74 367.548 231.71 367.405 231.681 367.265C231.416 365.981 231.229 365.078 230.777 364.1C228.754 359.722 226.7 355.875 224.559 351.868C223.094 349.124 221.589 346.306 220.026 343.19C216.39 335.94 211.097 329.155 205.611 323.53C204.544 322.436 203.857 321.017 203.852 319.374C203.847 317.855 204.43 316.57 205.031 315.62C206.187 313.791 208.119 312.127 209.776 310.794C210.564 310.16 211.296 309.596 211.99 309.061C212.968 308.306 213.872 307.61 214.749 306.86C215.447 306.263 215.968 305.762 216.323 305.347C216.587 305.038 216.672 304.876 216.686 304.854C217.374 302.46 219.171 300.98 220.106 300.209C220.179 300.149 220.246 300.093 220.308 300.042C221.47 299.068 221.566 298.829 221.605 298.649C221.765 297.908 222.155 297.273 222.281 297.068L222.294 297.046C222.501 296.708 222.752 296.342 223.007 295.986C223.524 295.265 224.179 294.422 224.829 293.614C225.24 293.104 225.66 292.595 226.059 292.124C225.247 291.652 224.241 291.127 223.102 290.575C221.259 289.681 219.272 288.812 217.602 288.09C217.421 288.011 217.242 287.934 217.068 287.858C216.451 287.592 215.884 287.347 215.415 287.14C214.883 286.904 214.264 286.626 213.86 286.389C210.953 284.685 208.146 283.248 205.008 281.643C204.649 281.459 204.285 281.273 203.916 281.083C202.668 280.444 201.1 279.323 199.723 278.339C199.249 278 198.798 277.678 198.39 277.397C197.485 276.773 196.665 276.248 195.935 275.867C195.171 275.468 194.717 275.342 194.516 275.319C194.028 275.263 193.573 275.115 193.318 275.027C192.999 274.917 192.659 274.779 192.32 274.63C191.647 274.333 190.866 273.935 190.132 273.482C189.457 273.066 188.576 272.454 187.907 271.678C187.58 271.299 187.085 270.634 186.853 269.712C186.578 268.614 186.737 267.337 187.545 266.272C188.359 265.198 189.497 264.833 189.893 264.711C190.387 264.559 190.921 264.46 191.254 264.399L191.308 264.389C191.682 264.32 191.903 264.277 192.069 264.233C192.717 263.725 193.351 263.318 193.897 262.981C194.105 262.853 194.29 262.74 194.461 262.637C194.839 262.407 195.145 262.222 195.469 262.002C196.265 261.464 196.768 260.98 197.163 260.169C198.398 257.637 200.484 254.786 202.495 252.314C204.544 249.794 206.682 247.463 208.172 245.936C209.122 244.962 210.032 244.133 210.862 243.391C211.019 243.25 211.172 243.114 211.321 242.981C211.979 242.395 212.564 241.874 213.139 241.318C214.404 240.099 215.535 238.795 216.618 236.847C216.371 236.67 216.117 236.475 215.854 236.26C214.316 234.998 212.167 234.429 208.987 233.656L208.807 233.612C206.065 232.946 202.518 232.085 199.594 229.815C199.44 229.736 199.207 229.616 198.942 229.48C198.349 229.174 197.513 228.74 196.538 228.221C194.596 227.188 192.063 225.795 189.757 224.376C187.587 223.04 185.187 221.426 183.865 219.931C183.515 219.535 183.075 218.968 182.776 218.256C182.47 217.532 182.164 216.278 182.752 214.923C183.325 213.601 184.405 212.984 185.108 212.709C185.822 212.429 186.569 212.327 187.212 212.288C188.209 212.228 188.907 211.755 189.922 210.063C190.28 209.466 190.575 208.898 190.917 208.24C191.111 207.867 191.32 207.465 191.563 207.014C192.163 205.901 192.928 204.584 193.961 203.441C194.443 202.907 194.918 202.389 195.382 201.883C197.918 199.12 200.152 196.685 201.594 193.729C201.828 193.249 202.368 192.269 202.938 191.236C203.259 190.653 203.59 190.053 203.881 189.516C203.888 189.503 203.895 189.491 203.901 189.478C203.788 189.443 203.669 189.406 203.546 189.368C203.406 189.325 203.259 189.279 203.105 189.231C202.294 188.978 201.258 188.644 200.305 188.167C199.358 187.694 198.172 186.927 197.346 185.617C196.384 184.093 194.644 182.249 192.515 180.266C191.186 179.03 189.883 177.895 188.637 176.81C187.863 176.136 187.111 175.482 186.389 174.834C183.126 171.906 179.855 169 176.594 166.585C176.154 166.259 175.034 165.243 173.859 164.165C172.582 162.993 170.985 161.508 169.427 160.047C167.869 158.587 166.342 157.143 165.209 156.055C164.644 155.514 164.165 155.049 163.825 154.711C163.66 154.547 163.503 154.388 163.38 154.256C163.327 154.201 163.23 154.096 163.132 153.975L163.13 153.973C163.095 153.93 162.964 153.769 162.832 153.548C162.786 153.472 162.587 153.143 162.458 152.673C162.395 152.442 162.274 151.917 162.37 151.25C162.482 150.468 162.901 149.529 163.82 148.901C165.707 147.611 167.845 147.091 169.428 146.713C169.519 146.691 169.609 146.67 169.697 146.649C171.319 146.262 172.507 145.979 173.594 145.422C176.712 143.824 180.375 140.798 183.809 137.182C187.221 133.588 190.189 129.643 191.989 126.412C192.294 125.864 192.734 125.254 193.113 124.74C193.268 124.53 193.518 124.196 193.776 123.852C194.029 123.514 194.289 123.167 194.473 122.919C195.451 121.597 196.41 120.221 197.071 118.944C197.398 118.312 197.606 117.791 197.715 117.385C197.747 117.267 197.767 117.171 197.779 117.095C197.647 117.037 197.442 116.965 197.138 116.895C191.923 115.707 187.893 112.411 184.521 109.203C183.446 108.18 182.453 107.187 181.503 106.236C179.277 104.009 177.281 102.012 174.998 100.406C174.881 100.324 174.765 100.242 174.648 100.16C171.137 97.6897 167.692 95.2661 164.346 92.1081C164.294 92.0827 164.157 92.0163 163.894 91.9195C163.564 91.7979 163.28 91.7094 162.939 91.6032C162.71 91.5317 162.454 91.4521 162.142 91.349C161.818 91.2421 161.435 91.1086 161.064 90.9476C160.728 90.8017 160.2 90.5488 159.703 90.1377C159.228 89.7446 158.317 88.8114 158.241 87.2792C158.164 85.7543 158.968 84.7151 159.435 84.2365C160.235 83.4162 161.118 83.0473 161.803 82.8638C162.176 81.1487 163.035 79.7821 163.688 78.8265C164.002 78.3681 164.263 78.0039 164.487 77.6931C164.922 77.0873 165.211 76.6843 165.456 76.1814C166.565 73.9086 167.463 71.4746 168.432 68.8423L168.458 68.7704C169.398 66.2166 170.408 63.4721 171.687 60.8491C174.889 54.2816 177.456 49.2167 182.035 43.3482C182.745 42.4382 183.315 41.2304 184.13 39.5037C184.175 39.409 184.22 39.3127 184.267 39.2148C185.07 37.5146 186.115 35.3467 187.698 33.5431C188.446 32.6906 189.4 31.7821 190.211 31.0097C190.536 30.7002 190.838 30.4126 191.094 30.1593C192.155 29.1112 192.809 28.323 193.148 27.6291C193.189 27.5442 193.233 27.4619 193.281 27.3822ZM161.638 83.8838C161.638 83.8836 161.639 83.8785 161.642 83.869C161.64 83.8793 161.638 83.8841 161.638 83.8838ZM192.207 264.19C192.209 264.19 192.202 264.193 192.183 264.199C192.196 264.194 192.204 264.191 192.207 264.19Z" fill="black"/>
<path fill-rule="evenodd" clip-rule="evenodd" d="M366.664 48.3544C368.374 47.6516 370.315 48.5062 370.999 50.2631C374.562 59.4133 377.474 68.8005 380.348 78.0634L380.377 78.159C383.273 87.4923 386.132 96.7008 389.622 105.664C390.069 106.811 390.621 108.047 391.239 109.405C391.332 109.609 391.426 109.816 391.522 110.026C392.049 111.182 392.612 112.415 393.139 113.657C394.371 116.557 395.575 119.87 395.87 123.197C397.18 138.01 397.052 153.209 396.926 168.043C396.889 172.39 396.853 176.705 396.853 180.971C396.853 181.87 396.874 182.941 396.898 184.165C396.903 184.42 396.908 184.681 396.913 184.948C396.943 186.48 396.97 188.185 396.959 189.924C396.936 193.332 396.767 197.138 396.072 200.175C393.115 213.083 386.757 224.039 379.795 234.237C377.368 237.792 374.901 241.213 372.466 244.59C367.786 251.081 363.223 257.411 359.277 264.224C354.862 271.847 349.542 278.981 344.142 285.867C342.567 287.875 340.992 289.855 339.428 291.819C335.58 296.654 331.803 301.399 328.279 306.264C327.812 306.91 327.343 307.556 326.875 308.203C318.787 319.362 310.575 330.693 303.345 342.204C297.585 351.376 292.14 359.514 284.417 367.447C281.856 370.078 281.027 372.608 280.122 376.791C279.811 378.229 279.29 379.699 278.311 380.826C277.176 382.132 275.614 382.753 273.962 382.563C272.553 382.401 271.379 381.684 270.545 381.042C269.664 380.364 268.838 379.514 268.098 378.649C265.199 375.26 262.389 370.157 261.282 368.111C260.992 367.575 260.679 366.984 260.346 366.354C259.558 364.866 258.657 363.165 257.685 361.48C256.254 358.998 254.966 357.097 254.062 356.252C251.015 353.407 248.807 349.808 246.882 346.671C246.691 346.359 246.503 346.052 246.316 345.75C244.147 342.24 242.209 339.359 239.529 337.357C237.224 335.635 235.996 333.301 235.996 330.638C235.996 328.245 236.994 326.038 238.062 324.276C239.689 321.592 242.222 318.836 244.106 316.785C244.641 316.202 245.124 315.677 245.519 315.226C248.103 312.276 250.578 308.827 253.219 305.147L253.401 304.893C256.068 301.175 258.898 297.248 262.007 293.735C263.246 292.335 265.355 292.232 266.718 293.505C268.081 294.778 268.181 296.945 266.942 298.345C264.1 301.557 261.466 305.202 258.77 308.959L258.499 309.336C255.93 312.918 253.284 316.606 250.477 319.81C249.868 320.505 249.23 321.202 248.589 321.9C246.783 323.87 244.961 325.858 243.724 327.899C242.909 329.242 242.667 330.134 242.667 330.639C242.667 330.874 242.679 331.237 243.452 331.815C247.279 334.674 249.807 338.612 251.948 342.079C252.119 342.355 252.287 342.628 252.453 342.898C254.478 346.186 256.209 348.996 258.549 351.182C260.291 352.809 262.031 355.572 263.424 357.987C264.462 359.786 265.469 361.689 266.275 363.21C266.588 363.802 266.871 364.336 267.113 364.783C268.26 366.903 270.752 371.37 273.109 374.125C273.326 374.379 273.53 374.604 273.721 374.802C274.687 370.444 275.915 366.491 279.7 362.602C286.901 355.205 292.035 347.574 297.74 338.489C305.095 326.778 313.433 315.274 321.488 304.16C321.969 303.496 322.449 302.834 322.928 302.173C326.549 297.175 330.477 292.24 334.363 287.357C335.905 285.419 337.44 283.49 338.947 281.568C344.302 274.741 349.379 267.913 353.544 260.72C357.653 253.627 362.576 246.792 367.383 240.12C369.767 236.811 372.121 233.543 374.334 230.302C381.138 220.335 386.915 210.235 389.579 198.606C390.09 196.374 390.267 193.232 390.289 189.878C390.299 188.235 390.274 186.606 390.244 185.084C390.239 184.83 390.234 184.578 390.229 184.329C390.205 183.105 390.182 181.947 390.182 180.971C390.182 176.569 390.219 172.164 390.256 167.762C390.38 152.991 390.504 138.257 389.227 123.817C389.034 121.636 388.198 119.158 387.026 116.397C386.537 115.247 386.019 114.11 385.49 112.952C385.392 112.738 385.294 112.523 385.196 112.308C384.579 110.952 383.953 109.557 383.429 108.209C379.837 98.9853 376.909 89.548 374.028 80.2596L374.022 80.2396C371.126 70.9054 368.277 61.7221 364.806 52.808C364.122 51.0511 364.954 49.0571 366.664 48.3544Z" fill="black"/>
<path fill-rule="evenodd" clip-rule="evenodd" d="M276.244 10.4195C283.36 6.10076 291.601 4 299.731 4C316.711 4 334.773 7.79532 348.192 20.4644C349.361 21.568 350.616 22.7072 351.91 23.882C355.558 27.1947 359.518 30.7903 362.746 34.6674C367.224 40.0465 370.764 46.4696 370.764 54.5033C370.764 56.3849 369.268 57.9102 367.423 57.9102C365.577 57.9102 364.081 56.3849 364.081 54.5033C364.081 48.695 361.573 43.7872 357.651 39.0766C354.75 35.5912 351.326 32.482 347.792 29.2728C346.42 28.0276 345.032 26.7672 343.652 25.464C331.989 14.453 315.906 10.8137 299.731 10.8137C292.702 10.8137 285.659 12.6347 279.662 16.2744C277.584 17.5357 275.157 18.696 272.888 19.7807C271.904 20.2512 270.949 20.7075 270.066 21.1517C266.937 22.7249 264.337 24.2972 262.488 26.2935C261.511 27.3485 260.274 28.9929 259.144 30.7807C258 32.5907 257.109 34.3204 256.697 35.5346C256.462 36.2278 256.375 36.9573 256.289 38.053C256.282 38.1402 256.275 38.2311 256.268 38.3253C256.194 39.3035 256.092 40.646 255.712 42.0033C255.198 43.8366 253.905 45.0088 253.534 45.3456C253.493 45.3827 253.463 45.4096 253.447 45.4262C253.436 45.4372 253.426 45.4472 253.418 45.4564C253.415 45.4907 253.413 45.5358 253.413 45.5932C253.413 47.4747 251.917 49 250.072 49C248.226 49 246.73 47.4747 246.73 45.5932C246.73 44.4906 246.925 43.4764 247.351 42.5497C247.771 41.6356 248.327 41.0099 248.724 40.6059C249.077 40.2461 249.247 40.0741 249.32 40.0059C249.481 39.373 249.534 38.7039 249.617 37.6376C249.621 37.5954 249.624 37.5526 249.628 37.5091C249.715 36.3983 249.842 34.8965 250.382 33.3057C251.046 31.3489 252.259 29.0949 253.527 27.0893C254.809 25.0615 256.293 23.0583 257.63 21.615C260.341 18.6885 263.851 16.6793 267.11 15.0406C268.271 14.4567 269.377 13.9291 270.435 13.4241C272.537 12.4212 274.451 11.5075 276.244 10.4195ZM253.429 45.367C253.429 45.3671 253.429 45.3695 253.427 45.3741C253.428 45.3692 253.429 45.3669 253.429 45.367Z" fill="black"/>
<path d="M184.256 42.3208C184.256 55.7874 176.977 66.0258 171.388 77.8257C170.205 80.3243 169.503 82.911 168.241 85.4339C167.095 87.7263 164.536 91.1179 164.015 93.4648C163.438 96.0591 162.308 100.502 164.625 102.529C166.829 104.457 164.813 96.6747 164.813 93.7466C164.813 91.7626 164.56 89.5932 164.86 87.6412C165.124 85.9239 165.71 75.6896 164.156 81.0193C163.753 82.398 166.625 77.879 166.88 76.9334C167.582 74.323 167.489 71.6415 168.195 68.9964C168.71 67.0631 170.731 65.8679 170.731 63.8774C170.731 62.8317 170.935 58.9511 169.416 61.5761C165.667 68.0508 165.82 77.7188 167.161 84.8703C167.866 88.6276 168.64 92.3008 169.087 96.0948C169.241 97.408 169.313 101.675 170.355 102.717C171.852 104.213 172.264 102.214 173.267 101.684C175.522 100.49 179.153 105.404 180.687 106.568C183 108.322 183.61 112.104 186.37 113.331C188.237 114.161 190.3 117.683 191.771 119.154C192.263 119.647 195.17 122.893 194.401 120.093C192.441 112.969 188.1 105.862 184.632 99.3823C183.018 96.3665 181.149 93.1461 178.527 90.8817C175.839 88.5604 172.685 86.7664 169.885 84.5885C165.317 81.0358 169.137 87.3518 170.402 88.8623C180.023 100.354 190.141 111.396 198.439 123.945C198.929 124.685 205.291 134.558 205.39 132.774C205.755 126.203 201.204 119.739 198.815 113.894C197.919 111.701 195.559 104.188 193.555 103.186" stroke="#FB0153" stroke-width="19" stroke-linecap="round"/>
<path d="M181.721 132.774C181.721 125.009 181.721 148.303 181.721 156.068C181.721 160.759 181.144 164.606 184.633 168.279C187.083 170.857 191.289 174.81 191.819 178.517C192.533 183.516 194.279 187.163 197.783 191.056C199.681 193.165 201.207 195.892 203.325 197.678C205.652 199.642 204.679 197.378 204.499 194.766C203.699 183.169 202.169 171.491 201.117 159.919C200.903 157.557 198.798 145.018 197.595 153.438C195.101 170.895 193.039 190.077 196.092 207.635C196.498 209.968 197.071 227.244 199.474 219.47C201.712 212.228 201.038 204.487 201.587 197.021C202.251 187.991 202.089 178.989 201.352 169.969C201.078 166.61 201.164 163.241 201.164 159.872C201.164 155.204 201.218 160.691 201.117 162.408C199.756 185.556 200.319 208.842 200.319 232.056C200.319 236.502 199.581 244.541 202.01 248.399C206.779 255.974 211.159 264.531 215.113 272.586C217.704 277.864 220.949 282.976 223.801 288.131C225.124 290.522 226.087 292.526 227.746 294.659C229.825 297.333 231.364 298.735 234.556 300.154C236.4 300.974 240.471 300.679 241.741 302.267C242.522 303.243 245.355 302.754 246.626 303.535C248.282 304.555 250.122 305.424 251.886 306.259C254.013 307.267 259.338 307.587 255.079 305.884C250.044 303.869 247.142 302.005 241.366 301.845C235.808 301.69 230.312 300.804 224.646 300.999C222.077 301.088 216.354 303.84 215.582 306.541C215.149 308.057 213.737 303.535 215.958 303.535C218.146 303.535 222.808 306.675 224.365 308.232C228.65 312.517 232.32 320.111 237.515 323.166C239.309 324.222 241.586 326.746 243.244 328.239C245.118 329.925 247.5 329.998 249.725 330.634C250.447 330.84 250.406 332.864 249.162 331.62C248.303 330.761 248.705 329.741 247.236 329.741C245.815 329.741 239.987 327.66 242.587 326.36" stroke="#FB0153" stroke-width="61" stroke-linecap="round"/>
<path d="M215.418 336.954C217.367 338.707 218.983 340.518 220.793 342.328C223.062 344.598 225.366 346.64 227.389 349.169C228.293 350.299 229.378 351.27 230.334 352.344C230.828 352.9 231.627 354.029 232.275 354.353C233.887 355.159 230.076 351.215 230.076 349.413" stroke="#FB0153" stroke-linecap="round"/>
<path d="M258.415 349.168C258.415 352.702 258.415 356.235 258.415 359.768C258.415 360.958 258.415 362.148 258.415 363.338C258.415 364.074 258.182 364.345 258.537 363.704C259.253 362.416 259.486 360.659 259.65 359.185C259.666 359.046 260.094 357.308 260.315 357.529C260.556 357.77 260.37 358.88 260.37 359.198C260.37 361.553 260.431 363.916 260.37 366.269C260.329 367.82 259.881 369.374 259.881 370.911C259.881 372.151 259.881 373.39 259.881 374.63C259.881 375.696 259.513 377.566 260.125 378.484" stroke="#FB0153" stroke-width="25" stroke-linecap="round"/>
<path d="M208.137 326.898C208.189 327.836 208.965 328.294 209.537 328.971C210.148 329.696 210.603 330.537 211.206 331.26C213.62 334.157 215.971 337.122 218.434 339.983C220.661 342.568 222.697 345.508 225.286 347.736C226.258 348.572 227.78 350.103 228.436 351.236C228.725 351.736 229.072 352.527 229.594 352.824C230.416 353.294 231.354 354.794 232.245 354.992C232.98 355.155 232.609 353.796 232.609 353.067" stroke="#FB0153" stroke-width="25" stroke-linecap="round"/>
<path d="M236.484 359.609C237.119 359.679 237.617 360.485 238.18 360.767C238.92 361.136 239.389 361.434 240.119 362.032C241.027 362.775 241.798 363.64 242.65 364.441C243.168 364.929 243.179 365.666 243.996 365.666" stroke="#FB0153" stroke-width="25" stroke-linecap="round"/>
<path d="M264.349 362.274C264.349 363.764 264.349 365.254 264.349 366.743C264.349 367.438 264.76 369.877 264.295 370.458C263.724 371.172 263.661 372.411 263.016 373.056C262.752 373.321 262.435 373.759 262.41 374.147C262.402 374.282 262.68 373.464 262.895 373.178" stroke="#FB0153" stroke-width="25" stroke-linecap="round"/>
<path d="M177.527 35.4797C178.804 35.6564 180.24 35.7911 181.448 36.2639C182.311 36.6014 183.151 37.0414 184.014 37.3579C186.087 38.1182 187.653 39.462 189.377 40.7948C189.882 41.1846 190.356 41.629 190.868 42.0049C192.186 42.9715 190.276 41.0742 190.016 40.8238C188.019 38.8998 185.633 37.2907 183.462 35.5668C183.2 35.3588 181.729 34.51 181.729 34.1824C181.729 33.8007 183.373 34.5156 183.414 34.5309C185.388 35.266 187.539 36.0895 189.31 37.232C190.603 38.0662 192.13 39.2198 193.657 39.4975C194.097 39.5776 195.135 40.622 194.218 40.0106C193.031 39.219 191.751 38.5994 190.5 37.9097C188.543 36.8298 187.209 34.9932 185.272 33.9113C184.428 33.4394 185.381 33.8397 185.718 34.0081C187.669 34.9834 189.659 36.6327 191.198 38.1711C192.168 39.1421 192.969 40.2374 193.908 41.2304C194.552 41.9109 194.875 43.0049 195.825 43.3216" stroke="#FB0153" stroke-width="25" stroke-linecap="round"/>
<path d="M250.123 44.9695C249.946 46.5594 248.388 48.5632 247.683 49.9249C245.2 54.7243 243.366 59.7552 241.356 64.7529C240.692 66.4025 239.71 67.9052 239.031 69.5559C238.373 71.152 238.233 72.9127 237.849 74.5875C237.643 75.4841 237.274 78.8391 236.4 79.2761" stroke="black" stroke-width="8" stroke-linecap="round"/>
<path d="M195.232 26.7869C196.449 26.922 198.622 30.1612 199.273 31.2467C200.221 32.8275 201.365 34.4056 202.418 35.8972C203.15 36.9343 204.16 38.9938 204.495 40.1664C204.896 41.5682 206.078 42.8344 206.744 44.1308C207.553 45.7037 208.244 47.3326 209.069 48.8956C214.104 58.4312 218.295 68.3667 222.906 78.0752C224.345 81.1036 225.06 84.3767 226.49 87.4142C226.998 88.4941 227.213 90.9904 228.167 91.6263" stroke="black" stroke-width="8" stroke-linecap="round"/>
<path d="M228.088 93.1546C228.088 94.1751 228.59 95.0808 228.977 96.0079C229.243 96.6478 229.813 97.4877 229.829 98.1843C229.838 98.5781 229.846 98.8945 229.932 99.2785C230.01 99.6296 230.035 98.5663 230.071 98.2084C230.282 96.1162 231.038 93.8943 231.739 91.9274C232.662 89.3397 233.497 86.7162 234.496 84.1592C235.329 82.0259 235.942 79.8505 237.228 77.9204" stroke="black" stroke-width="8" stroke-linecap="round"/>
<path d="M230.93 372.053C231.657 372.134 232.597 373.116 233.179 373.509C235.147 374.838 236.602 376.205 238.255 377.858C240.596 380.198 243.138 382.436 245.531 384.72C246.422 385.571 247.894 386.599 248.474 387.663C248.91 388.462 250.35 388.998 250.971 389.78C251.601 390.573 252.382 391.264 252.939 392.145C253.182 392.53 254.146 393.533 254.146 393.484" stroke="black" stroke-width="8" stroke-linecap="round"/>
<path d="M277.281 378.632C276.359 378.632 276.039 379.39 275.353 379.818C273.414 381.031 271.937 383.048 270.327 384.622C268.343 386.562 266.62 388.767 264.815 390.868C262.618 393.423 260.823 396.295 258.594 398.803" stroke="black" stroke-width="8" stroke-linecap="round"/>
<path d="M258.891 398.358C258.8 397.628 257.357 396.722 256.848 396.281C256.158 395.684 255.485 395.212 254.739 394.683C253.97 394.138 252.811 393.615 252.811 392.573" stroke="black" stroke-width="8" stroke-linecap="round"/>
</svg>
