<svg width="443" height="402" viewBox="0 0 443 402" fill="none" xmlns="http://www.w3.org/2000/svg">
<path fill-rule="evenodd" clip-rule="evenodd" d="M130.092 16.8495C143.587 11.661 158.554 9.84595 172.417 15.3737C173.158 15.669 174.088 16.0132 175.107 16.3905C176.862 17.0404 178.884 17.7886 180.664 18.5555C183.595 19.8185 186.814 21.4913 189.143 23.8799C189.571 24.3187 190.28 24.8608 191.33 25.5749C191.673 25.8082 192.084 26.0802 192.522 26.3699C193.238 26.8433 194.025 27.3641 194.704 27.8406C195.866 28.6568 197.129 29.6219 198.179 30.7355C199.216 31.8345 200.279 33.3199 200.647 35.2101C200.936 36.691 200.245 38.1398 199.033 38.8502C198.15 40.5836 196.824 41.9966 195.722 43.0851C195.259 43.542 194.845 43.9351 194.466 44.2956C193.778 44.949 193.203 45.4951 192.656 46.1185C191.788 47.1081 191.102 48.4352 190.269 50.1977C190.2 50.3434 190.13 50.494 190.057 50.6484C189.344 52.169 188.45 54.0744 187.243 55.6208C183.134 60.8869 180.828 65.3965 177.653 71.9078C176.541 74.1873 175.641 76.625 174.673 79.2566L174.643 79.3377C173.705 81.8882 172.697 84.6264 171.422 87.2401C170.902 88.3068 170.099 89.4247 169.544 90.1976C169.39 90.4124 169.254 90.6005 169.15 90.7535C168.503 91.6993 168.326 92.1671 168.293 92.4769C168.23 93.0556 168.11 93.6833 167.874 94.2995C168.18 94.4918 168.486 94.7182 168.767 94.9847C171.785 97.8501 174.913 100.051 178.571 102.624L178.772 102.766C181.561 104.728 184.198 107.367 186.585 109.754C187.443 110.613 188.269 111.439 189.058 112.19C192.261 115.237 195.194 117.446 198.585 118.219C199.965 118.533 201.277 119.085 202.339 120.024C203.455 121.01 204.119 122.273 204.363 123.637C204.801 126.094 203.816 128.503 202.963 130.151C202.033 131.948 200.793 133.693 199.787 135.053C199.469 135.483 199.246 135.779 199.041 136.051C198.845 136.312 198.665 136.551 198.433 136.865C198.03 137.413 197.843 137.693 197.781 137.805C195.639 141.648 192.296 146.049 188.588 149.953C184.903 153.834 180.637 157.458 176.577 159.54C174.989 160.354 173.319 160.805 171.947 161.136C172.58 161.733 173.25 162.364 173.928 163C175.475 164.45 177.054 165.918 178.307 167.069C178.935 167.645 179.474 168.134 179.883 168.5C180.222 168.803 180.405 168.959 180.472 169.016C180.497 169.038 180.506 169.045 180.5 169.041C184.051 171.67 187.545 174.783 190.781 177.687C191.352 178.199 192.038 178.797 192.784 179.447C194.109 180.602 195.621 181.92 196.999 183.203C199.151 185.207 201.428 187.524 202.897 189.824C202.938 189.855 203.037 189.924 203.229 190.02C203.654 190.232 204.225 190.432 205.047 190.688C205.159 190.723 205.277 190.759 205.4 190.797C206.081 191.007 206.92 191.266 207.679 191.571C208.566 191.927 209.726 192.487 210.673 193.458C211.456 194.261 211.611 195.185 211.649 195.571C211.693 196.006 211.648 196.358 211.62 196.538C211.561 196.91 211.457 197.222 211.4 197.385C211.271 197.749 211.097 198.136 210.94 198.465C210.613 199.152 210.161 200.007 209.714 200.834C209.305 201.59 208.909 202.306 208.566 202.927C208.096 203.778 207.726 204.448 207.56 204.788C205.639 208.727 202.62 211.999 200.1 214.729C199.668 215.197 199.25 215.65 198.855 216.088C198.395 216.597 197.946 217.311 197.402 218.321C197.261 218.582 197.103 218.885 196.933 219.211C196.533 219.979 196.066 220.875 195.604 221.645C194.763 223.047 193.612 224.614 191.929 225.714C192.32 225.969 192.741 226.236 193.191 226.512C195.325 227.826 197.719 229.144 199.611 230.151C200.552 230.652 201.36 231.071 201.938 231.369C202.123 231.464 202.277 231.544 202.41 231.611C202.489 231.652 202.561 231.689 202.626 231.723C202.708 231.765 202.782 231.803 202.839 231.833C202.865 231.847 202.902 231.866 202.94 231.887C202.957 231.896 202.993 231.916 203.035 231.941C203.055 231.952 203.095 231.976 203.144 232.007C203.161 232.018 203.308 232.109 203.476 232.247C205.151 233.621 207.404 234.242 210.526 235.001C210.648 235.03 210.772 235.06 210.897 235.091C213.65 235.756 217.217 236.619 220.021 238.919C220.702 239.477 221.134 239.672 221.327 239.746C221.433 239.787 221.52 239.812 221.65 239.846L221.67 239.851C221.728 239.867 221.862 239.902 221.976 239.936L221.978 239.937C222.089 239.97 222.441 240.076 222.822 240.298C223.244 240.542 223.963 241.08 224.353 242.093C224.731 243.073 224.582 243.934 224.469 244.36C224.304 244.983 223.966 245.531 223.885 245.664C223.879 245.673 223.875 245.68 223.872 245.685C223.816 245.777 223.758 245.873 223.695 245.976C223.442 246.391 223.118 246.919 222.666 247.77C221.111 250.693 219.433 252.638 217.71 254.3C217.029 254.956 216.325 255.584 215.662 256.175C215.521 256.3 215.383 256.423 215.247 256.545C214.446 257.261 213.674 257.967 212.889 258.772C211.517 260.179 209.518 262.357 207.618 264.693C205.68 267.077 204.005 269.432 203.129 271.228C202.037 273.467 200.534 274.77 199.141 275.712C198.673 276.029 198.156 276.343 197.726 276.603C197.585 276.689 197.453 276.769 197.336 276.842C197.267 276.884 197.2 276.926 197.134 276.967C197.791 277.197 198.407 277.483 198.959 277.771C200.051 278.34 201.133 279.046 202.112 279.721C202.82 280.21 203.451 280.661 204.02 281.067C205.198 281.909 206.111 282.562 206.899 282.966C207.267 283.155 207.632 283.342 207.996 283.528C211.111 285.122 214.09 286.646 217.17 288.45C217.164 288.447 217.161 288.445 217.161 288.445C217.161 288.445 217.222 288.478 217.38 288.552C217.551 288.633 217.776 288.735 218.059 288.86C218.498 289.054 219.027 289.283 219.636 289.546C219.816 289.624 220.002 289.705 220.196 289.788C221.868 290.512 223.97 291.43 225.953 292.392C227.882 293.327 229.915 294.404 231.338 295.47C231.977 295.948 232.911 296.723 233.478 297.786C233.792 298.374 234.128 299.306 233.964 300.436C233.791 301.63 233.141 302.493 232.483 303.034C232.504 303.016 232.488 303.033 232.431 303.094C232.328 303.203 232.092 303.455 231.706 303.896C231.198 304.479 230.577 305.219 229.972 305.97C229.362 306.727 228.795 307.461 228.381 308.038C228.212 308.273 228.087 308.457 228.003 308.589C227.316 311.011 225.578 312.461 224.63 313.253C224.595 313.282 224.561 313.311 224.528 313.338C223.249 314.41 223.131 314.619 223.083 314.79C222.731 316.053 221.993 317.09 221.34 317.855C220.654 318.656 219.834 319.418 219.02 320.114C218.066 320.928 216.875 321.85 215.758 322.715C215.087 323.234 214.443 323.733 213.893 324.175C212.332 325.43 211.293 326.407 210.762 327.142C216.437 333.031 222.021 340.212 225.958 348.062C227.34 350.818 228.787 353.532 230.241 356.26C232.482 360.466 234.741 364.703 236.805 369.173C237.625 370.946 237.989 372.748 238.251 374.048C238.297 374.277 238.34 374.49 238.382 374.684C238.685 376.097 238.972 376.949 239.58 377.728C240.3 378.651 240.748 379.785 241.009 380.715C241.274 381.662 241.462 382.817 241.379 383.92C241.338 384.457 241.216 385.239 240.804 386.012C240.347 386.871 239.458 387.814 238.057 388.078C236.808 388.314 235.764 387.886 235.135 387.53C234.475 387.156 233.887 386.644 233.371 386.115C229.358 382.001 224.361 378.529 218.958 375.034C217.908 374.355 216.84 373.674 215.763 372.987C211.396 370.201 206.873 367.316 202.82 364.119C192.462 355.95 182.188 347.375 172.018 338.887C170.19 337.361 168.365 335.838 166.544 334.321C158.872 327.929 152.133 320.82 145.635 313.695C144.305 312.235 142.986 310.778 141.672 309.325C136.53 303.639 131.456 298.03 125.987 292.689C120.41 287.244 115.736 280.719 111.355 274.285C110.539 273.086 109.734 271.893 108.935 270.708C105.387 265.447 101.961 260.367 98.1877 255.795C94.5748 251.417 90.815 247.363 86.965 243.211C85.1957 241.304 83.4074 239.376 81.6056 237.386C72.8922 227.765 67.385 215.941 62.1712 204.747C60.9432 202.111 59.7315 199.509 58.4979 196.98C47.9165 175.281 47 151.195 47 128.159C47 114.024 47.6235 100.426 51.8567 86.4032C53.8181 79.9059 57.6945 74.0805 62.0311 68.9572C66.3539 63.8502 71.3076 59.245 75.5954 55.2589L75.648 55.21C91.7767 40.2161 108.657 25.0915 130.092 16.8495ZM191.815 279.26C191.807 279.263 191.807 279.263 191.814 279.261ZM188.753 223.272C188.753 223.272 188.756 223.276 188.762 223.284C188.756 223.276 188.753 223.272 188.753 223.272ZM163.615 92.6259C163.615 92.6257 163.621 92.6287 163.633 92.635C163.62 92.6292 163.615 92.626 163.615 92.6259ZM193.281 35.3822C192.708 34.7989 191.92 34.1758 190.935 33.4838C190.288 33.0293 189.694 32.6376 189.071 32.2268C188.621 31.9297 188.155 31.6226 187.644 31.2748C186.571 30.5456 185.368 29.6813 184.427 28.7161C183.051 27.3054 180.834 26.0476 178.079 24.8609C176.368 24.1235 174.782 23.5403 173.211 22.9626C172.145 22.5707 171.086 22.1813 170 21.7481C158.17 17.0312 144.989 18.4265 132.435 23.2535C112.343 30.9789 96.3194 45.2252 80.1284 60.2769C75.7828 64.3168 71.1053 68.6714 67.0688 73.4402C63.0283 78.2136 59.8047 83.2051 58.2288 88.4255C54.3025 101.432 53.6704 114.185 53.6704 128.159C53.6704 151.212 54.6573 173.811 64.4641 193.921C65.8175 196.696 67.1094 199.464 68.3879 202.202C73.5747 213.313 78.5412 223.951 86.4936 232.732C88.179 234.593 89.9037 236.453 91.6409 238.326C95.5583 242.551 99.5397 246.845 103.28 251.377C107.284 256.229 110.937 261.647 114.493 266.922C115.274 268.081 116.05 269.232 116.824 270.37C121.186 276.775 125.535 282.803 130.587 287.736C136.222 293.239 141.473 299.046 146.631 304.748C147.928 306.182 149.218 307.609 150.508 309.024C156.968 316.108 163.45 322.931 170.75 329.013C172.58 330.537 174.411 332.065 176.242 333.593C186.415 342.084 196.608 350.591 206.887 358.698C210.651 361.667 214.812 364.323 219.149 367.091C220.261 367.8 221.385 368.517 222.516 369.249C225.632 371.264 228.785 373.377 231.771 375.697C231.74 375.548 231.71 375.405 231.681 375.265C231.416 373.981 231.229 373.078 230.777 372.1C228.754 367.722 226.7 363.875 224.559 359.868C223.094 357.124 221.589 354.306 220.026 351.19C216.39 343.94 211.097 337.155 205.611 331.53C204.544 330.436 203.857 329.017 203.852 327.374C203.847 325.855 204.43 324.57 205.031 323.62C206.187 321.791 208.119 320.127 209.776 318.794C210.564 318.16 211.296 317.596 211.99 317.061C212.968 316.306 213.872 315.61 214.749 314.86C215.447 314.263 215.968 313.762 216.323 313.347C216.587 313.038 216.672 312.876 216.686 312.854C217.374 310.46 219.171 308.98 220.106 308.209C220.179 308.149 220.246 308.093 220.308 308.042C221.47 307.068 221.566 306.829 221.605 306.649C221.765 305.908 222.155 305.273 222.281 305.068L222.294 305.046C222.501 304.708 222.752 304.342 223.007 303.986C223.524 303.265 224.179 302.422 224.829 301.614C225.24 301.104 225.66 300.595 226.059 300.124C225.247 299.652 224.241 299.127 223.102 298.575C221.259 297.681 219.272 296.812 217.602 296.09C217.421 296.011 217.242 295.934 217.068 295.858C216.451 295.592 215.884 295.347 215.415 295.14C214.883 294.904 214.264 294.626 213.86 294.389C210.953 292.685 208.146 291.248 205.008 289.643C204.649 289.459 204.285 289.273 203.916 289.083C202.668 288.444 201.1 287.323 199.723 286.339C199.249 286 198.798 285.678 198.39 285.397C197.485 284.773 196.665 284.248 195.935 283.867C195.171 283.468 194.717 283.342 194.516 283.319C194.028 283.263 193.573 283.115 193.318 283.027C192.999 282.917 192.659 282.779 192.32 282.63C191.647 282.333 190.866 281.935 190.132 281.482C189.457 281.066 188.576 280.454 187.907 279.678C187.58 279.299 187.085 278.634 186.853 277.712C186.578 276.614 186.737 275.337 187.545 274.272C188.359 273.198 189.497 272.833 189.893 272.711C190.387 272.559 190.921 272.46 191.254 272.399L191.308 272.389C191.682 272.32 191.903 272.277 192.069 272.233C192.717 271.725 193.351 271.318 193.897 270.981C194.105 270.853 194.29 270.74 194.461 270.637C194.839 270.407 195.145 270.222 195.469 270.002C196.265 269.464 196.768 268.98 197.163 268.169C198.398 265.637 200.484 262.786 202.495 260.314C204.544 257.794 206.682 255.463 208.172 253.936C209.122 252.962 210.032 252.133 210.862 251.391C211.019 251.25 211.172 251.114 211.321 250.981C211.979 250.395 212.564 249.874 213.139 249.318C214.404 248.099 215.535 246.795 216.618 244.847C216.371 244.67 216.117 244.475 215.854 244.26C214.316 242.998 212.167 242.429 208.987 241.656L208.807 241.612C206.065 240.946 202.518 240.085 199.594 237.815C199.44 237.736 199.207 237.616 198.942 237.48C198.349 237.174 197.513 236.74 196.538 236.221C194.596 235.188 192.063 233.795 189.757 232.376C187.587 231.04 185.187 229.426 183.865 227.931C183.515 227.535 183.075 226.968 182.776 226.256C182.47 225.532 182.164 224.278 182.752 222.923C183.325 221.601 184.405 220.984 185.108 220.709C185.822 220.429 186.569 220.327 187.212 220.288C188.209 220.228 188.907 219.755 189.922 218.063C190.28 217.466 190.575 216.898 190.917 216.24C191.111 215.867 191.32 215.465 191.563 215.014C192.163 213.901 192.928 212.584 193.961 211.441C194.443 210.907 194.918 210.389 195.382 209.883C197.918 207.12 200.152 204.685 201.594 201.729C201.828 201.249 202.368 200.269 202.938 199.236C203.259 198.653 203.59 198.053 203.881 197.516C203.888 197.503 203.895 197.491 203.901 197.478C203.788 197.443 203.669 197.406 203.546 197.368C203.406 197.325 203.259 197.279 203.105 197.231C202.294 196.978 201.258 196.644 200.305 196.167C199.358 195.694 198.172 194.927 197.346 193.617C196.384 192.093 194.644 190.249 192.515 188.266C191.186 187.03 189.883 185.895 188.637 184.81C187.863 184.136 187.111 183.482 186.389 182.834C183.126 179.906 179.855 177 176.594 174.585C176.154 174.259 175.034 173.243 173.859 172.165C172.582 170.993 170.985 169.508 169.427 168.047C167.869 166.587 166.342 165.143 165.209 164.055C164.644 163.514 164.165 163.049 163.825 162.711C163.66 162.547 163.503 162.388 163.38 162.256C163.327 162.201 163.23 162.096 163.132 161.975L163.13 161.973C163.095 161.93 162.964 161.769 162.832 161.548C162.786 161.472 162.587 161.143 162.458 160.673C162.395 160.442 162.274 159.917 162.37 159.25C162.482 158.468 162.901 157.529 163.82 156.901C165.707 155.611 167.845 155.091 169.428 154.713C169.519 154.691 169.609 154.67 169.697 154.649C171.319 154.262 172.507 153.979 173.594 153.422C176.712 151.824 180.375 148.798 183.809 145.182C187.221 141.588 190.189 137.643 191.989 134.412C192.294 133.864 192.734 133.254 193.113 132.74C193.268 132.53 193.518 132.196 193.776 131.852C194.029 131.514 194.289 131.167 194.473 130.919C195.451 129.597 196.41 128.221 197.071 126.944C197.398 126.312 197.606 125.791 197.715 125.385C197.747 125.267 197.767 125.171 197.779 125.095C197.647 125.037 197.442 124.965 197.138 124.895C191.923 123.707 187.893 120.411 184.521 117.203C183.446 116.18 182.453 115.187 181.503 114.236C179.277 112.009 177.281 110.012 174.998 108.406C174.881 108.324 174.765 108.242 174.648 108.16C171.137 105.69 167.692 103.266 164.346 100.108C164.294 100.083 164.157 100.016 163.894 99.9195C163.564 99.7979 163.28 99.7094 162.939 99.6032C162.71 99.5317 162.454 99.4521 162.142 99.349C161.818 99.2421 161.435 99.1086 161.064 98.9476C160.728 98.8017 160.2 98.5488 159.703 98.1377C159.228 97.7446 158.317 96.8114 158.241 95.2792C158.164 93.7543 158.968 92.7151 159.435 92.2365C160.235 91.4162 161.118 91.0473 161.803 90.8638C162.176 89.1487 163.035 87.7821 163.688 86.8265C164.002 86.3681 164.263 86.0039 164.487 85.6931C164.922 85.0873 165.211 84.6843 165.456 84.1814C166.565 81.9086 167.463 79.4746 168.432 76.8423L168.458 76.7704C169.398 74.2166 170.408 71.4721 171.687 68.8491C174.889 62.2816 177.456 57.2167 182.035 51.3482C182.745 50.4382 183.315 49.2304 184.13 47.5037C184.175 47.409 184.22 47.3127 184.267 47.2148C185.07 45.5146 186.115 43.3467 187.698 41.5432C188.446 40.6906 189.4 39.7821 190.211 39.0097C190.536 38.7002 190.838 38.4126 191.094 38.1593C192.155 37.1112 192.809 36.323 193.148 35.6291C193.189 35.5442 193.233 35.4619 193.281 35.3822ZM161.638 91.8838C161.638 91.8836 161.639 91.8785 161.642 91.869C161.64 91.8793 161.638 91.8841 161.638 91.8838ZM192.207 272.19C192.209 272.19 192.202 272.193 192.183 272.199C192.196 272.194 192.204 272.191 192.207 272.19Z" fill="black"/>
<path fill-rule="evenodd" clip-rule="evenodd" d="M259.423 37.7297C261.294 37.7297 262.812 39.2589 262.812 41.1451C262.812 44.6475 261.399 48.1142 259.784 50.9969C258.134 53.9414 256.067 56.6373 254.329 58.6807C251.044 62.5435 248.561 67.123 245.96 72.089C244.916 74.0838 243.808 76.0151 242.741 77.876C242.607 78.1096 242.473 78.3421 242.341 78.5735C241.139 80.6722 239.995 82.6974 238.96 84.783C237.846 87.0283 236.141 88.707 234.872 89.9562C234.811 90.0166 234.751 90.076 234.692 90.1344C233.27 91.5368 232.36 92.495 231.817 93.6503C230.8 95.8146 230.791 96.89 230.881 97.236C230.9 97.3092 230.914 97.3419 231.002 97.4138C231.134 97.5217 231.496 97.7477 232.303 97.9284C234.572 98.4365 236.809 99.7678 238.569 100.925C239.387 101.463 240.192 102.026 240.921 102.537C241.012 102.6 241.103 102.664 241.191 102.726C242.016 103.302 242.717 103.786 243.33 104.166C244.396 104.825 245.482 105.484 246.58 106.151C252.39 109.676 258.537 113.405 263.756 118.523C264.173 118.932 266.046 120.475 267.789 121.801C268.974 122.101 270.067 122.781 270.932 123.871L270.937 123.877C271.038 124.004 271.348 124.395 271.564 124.911L271.568 124.921C271.644 125.101 272.024 126.005 271.736 127.142C271.555 127.856 271.132 128.561 270.445 129.068C269.814 129.533 269.177 129.674 268.777 129.716C268.057 129.792 267.496 129.616 267.344 129.569C267.109 129.495 266.918 129.409 266.801 129.353C266.561 129.239 266.339 129.109 266.174 129.007C266.019 128.912 265.85 128.802 265.669 128.68C265.23 128.879 264.736 129.167 264.154 129.529C264.061 129.587 263.958 129.651 263.849 129.72C263.36 130.028 262.731 130.424 262.205 130.69C260.08 131.76 258.441 133.851 256.33 136.817C256.209 136.986 256.087 137.159 255.962 137.335C254.122 139.933 251.795 143.217 248.48 145.183C246.17 146.552 243.866 149.155 241.324 152.45C240.766 153.174 240.192 153.938 239.605 154.718C237.712 157.239 235.691 159.928 233.683 161.952C233.58 162.055 233.529 162.127 233.506 162.166C233.51 162.196 233.521 162.248 233.547 162.326C233.726 162.869 234.322 163.772 235.582 165.012C236.779 166.189 238.265 167.376 239.797 168.557C240.046 168.749 240.3 168.944 240.556 169.14C241.78 170.078 243.047 171.049 243.971 171.892C245.632 173.407 247.583 174.865 249.728 176.469C250.58 177.107 251.463 177.767 252.371 178.463C255.399 180.785 258.639 183.464 260.897 186.594C261.696 187.7 263.024 188.586 265.061 189.886C265.123 189.926 265.187 189.966 265.251 190.007C266.856 191.03 269.092 192.454 270.571 194.553C270.764 194.692 271.022 194.87 271.363 195.103L271.447 195.162C272.157 195.648 273.14 196.321 273.965 196.996C274.392 197.345 274.879 197.776 275.296 198.256C275.602 198.608 276.375 199.537 276.521 200.859C276.609 201.662 276.458 202.586 275.903 203.422C275.386 204.2 274.7 204.628 274.183 204.86C273.24 205.284 272.211 205.346 271.451 205.346C269.488 205.346 268.402 205.347 267.446 205.559C266.678 205.73 265.939 206.058 264.985 206.966C258.135 213.487 251.576 220.083 245.182 226.868C245.508 227.071 245.921 227.309 246.438 227.583C247.028 227.897 247.654 228.209 248.326 228.543L248.551 228.655C249.287 229.021 250.076 229.417 250.817 229.825C251.551 230.229 252.323 230.691 253.012 231.211C253.667 231.707 254.467 232.415 255.028 233.377C255.581 234.323 256.764 235.509 258.465 236.885C259.274 237.54 260.125 238.179 260.975 238.811C261.114 238.914 261.254 239.018 261.394 239.122C262.089 239.636 262.789 240.156 263.403 240.636C263.401 240.635 263.402 240.636 263.404 240.637C263.411 240.643 263.437 240.663 263.492 240.703C263.556 240.75 263.64 240.811 263.744 240.885C263.952 241.035 264.221 241.226 264.534 241.448C265.159 241.89 265.937 242.436 266.7 242.972C267.46 243.505 268.208 244.03 268.763 244.421C269.039 244.616 269.277 244.784 269.447 244.907C269.529 244.966 269.611 245.025 269.677 245.075C269.705 245.095 269.761 245.137 269.822 245.186C269.841 245.201 269.925 245.268 270.022 245.36L270.025 245.362C270.06 245.394 270.208 245.532 270.366 245.732L270.368 245.733C270.428 245.809 270.662 246.103 270.846 246.542C270.917 246.713 271.726 248.665 270.119 250.285C269.366 251.043 268.404 251.351 268.075 251.456L268.067 251.459C267.561 251.621 266.999 251.749 266.469 251.853C265.432 252.059 264.16 252.244 262.972 252.417L262.88 252.43C261.615 252.615 260.422 252.79 259.43 252.982C258.615 253.14 258.203 253.264 258.059 253.308C257.999 253.326 257.985 253.33 258.009 253.316C257.8 253.437 257.322 253.832 256.522 254.708C255.966 255.316 255.405 255.984 254.788 256.717C254.561 256.988 254.325 257.268 254.08 257.558C253.228 258.562 252.255 259.677 251.272 260.573C250.5 261.277 249.229 262.322 247.637 262.666C247.585 262.703 247.518 262.754 247.435 262.822C247.036 263.147 246.495 263.673 245.844 264.397C244.553 265.835 243.06 267.796 241.719 269.828C240.364 271.882 239.269 273.849 238.686 275.298C238.656 275.372 238.628 275.443 238.602 275.512C242.832 278.314 246.616 282.023 250.102 285.44C250.746 286.07 251.379 286.691 252.003 287.294C256.605 291.743 260.791 295.347 265.559 296.948C267.335 297.545 268.294 299.479 267.702 301.269C267.11 303.058 265.191 304.025 263.416 303.429C257.041 301.287 251.878 296.638 247.312 292.224C246.623 291.559 245.948 290.898 245.282 290.248C241.341 286.395 237.733 282.868 233.648 280.447C231.573 279.216 231.477 276.991 231.55 276.007C231.633 274.881 232.005 273.726 232.405 272.732C233.231 270.677 234.603 268.278 236.076 266.046C237.562 263.793 239.258 261.551 240.82 259.812C241.596 258.949 242.398 258.143 243.171 257.512C243.558 257.197 243.993 256.879 244.46 256.616C244.844 256.4 245.414 256.126 246.108 256.001C246.185 255.951 246.386 255.816 246.727 255.506C247.352 254.936 248.076 254.124 248.928 253.119C249.123 252.889 249.327 252.647 249.536 252.398C250.18 251.631 250.877 250.802 251.537 250.08C252.372 249.166 253.454 248.072 254.647 247.385C255.691 246.784 257.137 246.471 258.149 246.274C258.516 246.203 258.902 246.135 259.295 246.069C259.275 246.054 259.257 246.041 259.242 246.028C258.707 245.61 258.097 245.157 257.403 244.643C257.257 244.535 257.108 244.424 256.954 244.31C256.095 243.671 255.148 242.961 254.222 242.212C252.473 240.797 250.462 238.984 249.233 236.919C249.203 236.888 249.118 236.807 248.948 236.678C248.631 236.439 248.178 236.155 247.567 235.819C246.964 235.487 246.292 235.149 245.549 234.779L245.321 234.666C244.662 234.338 243.953 233.985 243.278 233.627C241.917 232.904 240.072 231.853 238.915 230.418C238.276 229.625 237.619 228.438 237.648 226.924C237.677 225.384 238.401 224.153 239.234 223.264C246.039 216.002 253.022 208.958 260.332 202C261.96 200.45 263.613 199.527 265.414 199.031C265.318 198.914 265.221 198.782 265.131 198.637C264.587 197.76 263.491 196.969 261.436 195.658C261.349 195.602 261.261 195.546 261.17 195.489C259.438 194.387 257.039 192.861 255.416 190.612C253.793 188.363 251.268 186.2 248.268 183.9C247.526 183.331 246.745 182.747 245.95 182.153C243.707 180.475 241.348 178.712 239.424 176.957C238.735 176.329 237.769 175.587 236.552 174.654C236.274 174.44 235.982 174.217 235.678 173.982C234.139 172.795 232.365 171.392 230.849 169.901C229.396 168.472 227.825 166.628 227.116 164.484C226.74 163.346 226.581 162.043 226.885 160.675C227.191 159.299 227.91 158.11 228.891 157.122C230.539 155.46 232.145 153.324 233.959 150.913C234.601 150.059 235.268 149.171 235.973 148.258C238.487 144.998 241.489 141.402 245.044 139.295C247.085 138.084 248.646 135.892 250.822 132.836L250.823 132.834C252.785 130.079 255.319 126.522 259.174 124.58C259.35 124.491 259.554 124.366 259.866 124.172C259.514 123.869 259.224 123.61 259.029 123.419C254.421 118.899 249.053 115.636 243.247 112.105C242.108 111.413 240.953 110.71 239.783 109.986C238.985 109.492 238.136 108.903 237.329 108.339C237.238 108.275 237.147 108.211 237.057 108.148C236.318 107.631 235.596 107.126 234.865 106.646C233.146 105.515 231.8 104.813 230.833 104.597C227.764 103.909 225.155 102.169 224.324 98.9623C223.609 96.204 224.502 93.2592 225.692 90.7261C226.808 88.3526 228.566 86.6185 229.87 85.3328C229.897 85.306 229.924 85.2795 229.95 85.2532C231.399 83.8235 232.328 82.8774 232.898 81.7282C234.033 79.4419 235.267 77.2605 236.471 75.1588C236.605 74.9242 236.739 74.6909 236.872 74.4584C237.947 72.5842 238.987 70.7713 239.966 68.9007C242.539 63.9877 245.338 58.7565 249.183 54.2353C250.762 52.3789 252.528 50.0563 253.882 47.6383C255.272 45.1586 256.034 42.9187 256.034 41.1451C256.034 39.2589 257.551 37.7297 259.423 37.7297ZM270.196 202.754C270.25 202.817 270.233 202.81 270.182 202.739C270.187 202.745 270.192 202.75 270.196 202.754ZM266.124 244.908C266.126 244.909 266.102 244.92 266.044 244.939C266.093 244.917 266.122 244.907 266.124 244.908ZM247.766 262.579C247.78 262.571 247.778 262.574 247.76 262.583C247.762 262.581 247.764 262.58 247.766 262.579ZM233.503 162.131C233.503 162.131 233.503 162.134 233.503 162.14C233.503 162.134 233.503 162.131 233.503 162.131ZM233.493 162.189C233.491 162.196 233.489 162.2 233.488 162.2C233.488 162.2 233.489 162.196 233.493 162.189Z" fill="black"/>
<path fill-rule="evenodd" clip-rule="evenodd" d="M366.662 56.3544C368.372 55.6516 370.313 56.5062 370.997 58.2631C374.56 67.4133 377.472 76.8005 380.346 86.0634L380.375 86.159C383.271 95.4923 386.13 104.701 389.62 113.664C390.067 114.811 390.619 116.047 391.237 117.405C391.33 117.609 391.424 117.816 391.52 118.026C392.047 119.182 392.61 120.415 393.138 121.657C394.369 124.557 395.573 127.87 395.868 131.197C397.179 146.01 397.05 161.209 396.924 176.043C396.887 180.39 396.851 184.705 396.851 188.971C396.851 189.87 396.872 190.941 396.896 192.165C396.901 192.42 396.906 192.681 396.911 192.948C396.941 194.48 396.968 196.185 396.957 197.924C396.935 201.332 396.765 205.138 396.07 208.175C393.113 221.083 386.755 232.039 379.793 242.237C377.366 245.792 374.899 249.213 372.464 252.59C367.784 259.081 363.221 265.411 359.275 272.224C354.86 279.847 349.54 286.981 344.14 293.867C342.565 295.875 340.99 297.855 339.426 299.819C335.579 304.654 331.802 309.399 328.277 314.264C327.81 314.91 327.341 315.556 326.873 316.203C318.785 327.362 310.573 338.693 303.343 350.204C297.583 359.376 292.138 367.514 284.415 375.447C281.854 378.078 281.025 380.608 280.12 384.791C279.809 386.229 279.288 387.699 278.309 388.826C277.174 390.132 275.612 390.753 273.96 390.563C272.551 390.401 271.377 389.684 270.543 389.042C269.662 388.364 268.836 387.514 268.096 386.649C265.197 383.26 262.387 378.157 261.28 376.111C260.99 375.575 260.677 374.984 260.344 374.354C259.556 372.866 258.655 371.165 257.683 369.48C256.252 366.998 254.964 365.097 254.06 364.252C251.013 361.407 248.805 357.808 246.88 354.671C246.689 354.359 246.501 354.052 246.314 353.75C244.145 350.24 242.207 347.359 239.527 345.357C237.222 343.635 235.994 341.301 235.994 338.638C235.994 336.245 236.992 334.038 238.06 332.276C239.687 329.592 242.22 326.836 244.104 324.785C244.639 324.202 245.122 323.676 245.517 323.226C248.101 320.276 250.576 316.827 253.217 313.147L253.399 312.893C256.066 309.175 258.896 305.248 262.005 301.735C263.244 300.335 265.353 300.232 266.716 301.505C268.079 302.778 268.18 304.945 266.94 306.345C264.098 309.557 261.464 313.202 258.768 316.959L258.497 317.336C255.928 320.918 253.282 324.606 250.475 327.81C249.866 328.505 249.228 329.202 248.587 329.9C246.781 331.87 244.959 333.858 243.722 335.899C242.907 337.242 242.665 338.134 242.665 338.639C242.665 338.874 242.677 339.237 243.45 339.815C247.277 342.674 249.805 346.612 251.946 350.079C252.117 350.355 252.285 350.628 252.452 350.898C254.476 354.186 256.207 356.996 258.547 359.182C260.29 360.809 262.029 363.572 263.422 365.987C264.46 367.786 265.468 369.689 266.273 371.21C266.586 371.802 266.869 372.336 267.111 372.783C268.258 374.903 270.75 379.37 273.107 382.125C273.324 382.379 273.528 382.604 273.719 382.802C274.685 378.444 275.913 374.491 279.698 370.602C286.899 363.205 292.033 355.574 297.738 346.489C305.093 334.778 313.431 323.274 321.486 312.16C321.967 311.496 322.447 310.834 322.926 310.173C326.547 305.175 330.475 300.24 334.361 295.356C335.903 293.419 337.438 291.49 338.945 289.568C344.3 282.741 349.377 275.913 353.542 268.72C357.651 261.627 362.574 254.792 367.381 248.12C369.765 244.811 372.119 241.542 374.332 238.302C381.136 228.335 386.913 218.235 389.577 206.606C390.088 204.374 390.265 201.232 390.287 197.878C390.297 196.235 390.272 194.606 390.242 193.084C390.237 192.83 390.232 192.578 390.228 192.329C390.203 191.105 390.18 189.947 390.18 188.971C390.18 184.569 390.217 180.164 390.254 175.762C390.379 160.991 390.502 146.257 389.225 131.817C389.032 129.636 388.196 127.158 387.024 124.397C386.535 123.247 386.017 122.11 385.488 120.952C385.39 120.738 385.292 120.523 385.194 120.308C384.577 118.952 383.951 117.557 383.427 116.209C379.835 106.985 376.907 97.548 374.026 88.2596L374.02 88.2396C371.124 78.9054 368.275 69.7221 364.804 60.808C364.12 59.0511 364.952 57.0571 366.662 56.3544Z" fill="black"/>
<path fill-rule="evenodd" clip-rule="evenodd" d="M276.242 18.4195C283.358 14.1008 291.599 12 299.729 12C316.709 12 334.771 15.7953 348.19 28.4644C349.359 29.568 350.614 30.7072 351.908 31.882C355.556 35.1947 359.516 38.7903 362.744 42.6674C367.222 48.0465 370.762 54.4696 370.762 62.5033C370.762 64.3849 369.266 65.9102 367.421 65.9102C365.575 65.9102 364.079 64.3849 364.079 62.5033C364.079 56.695 361.571 51.7872 357.649 47.0766C354.748 43.5912 351.324 40.482 347.79 37.2728C346.418 36.0276 345.03 34.7672 343.65 33.464C331.987 22.453 315.904 18.8137 299.729 18.8137C292.7 18.8137 285.657 20.6347 279.66 24.2744C277.582 25.5357 275.155 26.696 272.886 27.7807C271.902 28.2512 270.947 28.7075 270.064 29.1517C266.935 30.7249 264.336 32.2972 262.486 34.2935C261.509 35.3485 260.272 36.9929 259.142 38.7807C257.998 40.5907 257.107 42.3204 256.695 43.5346C256.46 44.2278 256.373 44.9573 256.287 46.053C256.28 46.1402 256.273 46.2311 256.266 46.3253C256.192 47.3035 256.09 48.646 255.71 50.0033C255.196 51.8366 253.903 53.0088 253.532 53.3456C253.491 53.3827 253.461 53.4096 253.445 53.4262C253.434 53.4372 253.424 53.4472 253.416 53.4564C253.413 53.4907 253.411 53.5358 253.411 53.5932C253.411 55.4747 251.915 57 250.07 57C248.224 57 246.729 55.4747 246.729 53.5932C246.729 52.4906 246.923 51.4764 247.349 50.5497C247.769 49.6356 248.325 49.0099 248.722 48.6059C249.075 48.2461 249.245 48.0741 249.318 48.0059C249.48 47.373 249.532 46.7039 249.616 45.6376C249.619 45.5954 249.622 45.5526 249.626 45.5091C249.713 44.3983 249.84 42.8965 250.38 41.3057C251.044 39.3489 252.257 37.0949 253.525 35.0893C254.807 33.0615 256.291 31.0583 257.628 29.615C260.339 26.6885 263.849 24.6793 267.108 23.0406C268.269 22.4567 269.375 21.9291 270.433 21.4241C272.535 20.4212 274.449 19.5075 276.242 18.4195ZM253.427 53.367C253.427 53.3671 253.427 53.3695 253.425 53.3741C253.426 53.3692 253.427 53.3669 253.427 53.367Z" fill="black"/>
</svg>
