<svg width="400" height="390" viewBox="0 0 400 390" fill="none" xmlns="http://www.w3.org/2000/svg">
<g clip-path="url(#clip0_587_6811)">
<path fill-rule="evenodd" clip-rule="evenodd" d="M138.222 133.377C134.237 130.378 131.424 125.83 130.757 120.489C129.774 112.623 133.725 105.277 140.192 101.562C140.417 101.338 140.69 101.068 140.977 100.793C141.381 100.405 141.95 99.8737 142.62 99.3111C143.257 98.7751 144.261 97.9773 145.544 97.1875C147.417 96.0344 148.413 95.4678 149.064 95.0973C149.764 94.699 150.065 94.5275 150.63 94.0977C156.26 89.8121 163.177 86.5858 167.507 84.5672C168.423 84.1394 169.225 83.7659 169.872 83.448C182.539 77.231 196.46 74.0087 211.66 75.6525C224.609 77.0531 236.59 84.3244 243.088 88.3588C250.829 93.1653 257.811 99.4338 263.226 104.296C264.426 105.374 265.55 106.383 266.589 107.291C277.339 116.702 286.415 127.141 294.493 138.221C304.122 151.429 312.927 165.66 319.827 181.335C326.262 195.953 331.547 210.969 334.659 227.55C336.052 234.977 337.797 246.776 335.87 257.638C331.883 280.124 315.876 294.469 302.15 303.454C291.164 310.644 277.338 312.109 269.916 312.895C269.362 312.954 268.844 313.008 268.364 313.061C263.79 313.57 259.115 313.898 254.189 313.898C254.056 313.898 253.787 313.906 252.995 313.947C252.933 313.951 252.866 313.954 252.794 313.957C252.139 313.992 251.119 314.045 250.084 314.064C247.986 314.104 243.8 314.094 239.292 312.592C223.035 307.17 207.967 300.017 193.655 292.618C187.534 292.245 182.372 290.588 178.353 288.991C176.128 288.106 174.021 287.138 172.37 286.381L172.361 286.378L172.346 286.37C170.565 285.554 169.241 284.946 167.924 284.409C164.201 282.888 160.324 281.558 155.813 280.012L155.485 279.899C153.452 279.202 151.287 278.458 149.053 277.654C145.496 277.101 141.997 276.517 138.572 275.934C130.577 274.572 122.973 271.132 117.026 264.839C111.196 258.673 108.313 251.2 107.056 244.074C105.986 238.006 105.127 231.443 104.343 225.45C103.971 222.604 103.615 219.886 103.262 217.412C102.279 210.529 102.468 203.051 104.717 195.734C95.9806 193.987 89.3984 186.272 89.3984 177.018C89.3984 166.566 97.7964 158.077 108.21 157.934C108.321 157.916 108.711 157.855 109.506 157.676C109.988 157.567 110.396 157.469 110.92 157.343C111.209 157.273 111.534 157.195 111.926 157.102C112.863 156.879 114.111 156.59 115.444 156.346C117.041 156.053 118.542 155.788 119.976 155.535C121.482 152.66 123.221 149.875 125.134 147.227C126.031 145.84 127.066 144.489 128.259 143.204C131.327 139.527 134.71 136.2 138.222 133.377ZM278.584 232.857C278.605 232.833 278.625 232.807 278.648 232.782V232.78C278.713 232.705 280.017 231.181 278.571 225.595C278.649 228.015 278.656 230.438 278.584 232.857ZM225.019 226.827C225.666 227.285 226.327 227.736 227.003 228.181C227.932 226.585 228.743 224.93 229.448 223.184C228.076 224.532 226.59 225.75 225.019 226.827Z" fill="#FCFF56"/>
<path fill-rule="evenodd" clip-rule="evenodd" d="M164.601 106.268C164.628 108.585 164.647 110.964 164.647 113.411C164.647 123.953 156.106 132.498 145.569 132.498C135.032 132.498 126.49 123.953 126.49 113.411C126.49 110.181 126.418 106.684 126.341 102.984C125.993 86.1513 125.558 65.1276 131.455 45.9568C132.311 43.1737 132.839 40.0754 133.443 35.7243C133.514 35.2075 133.588 34.6627 133.665 34.0937C134.137 30.6158 134.731 26.2353 135.702 21.8257L135.704 21.7996L135.705 21.7849C135.769 21.0919 135.914 19.5194 136.229 17.8428C136.233 17.8201 136.237 17.7956 136.242 17.7691C136.445 16.6848 137.216 12.5509 139.983 8.61575C141.619 6.28937 145.009 2.53653 150.788 0.865211C156.92 -0.907994 162.284 0.639421 165.682 2.4392C167.702 3.50978 169.138 4.71773 169.94 5.45205C170.808 6.24636 171.479 6.9916 171.935 7.52975C172.827 8.58173 173.511 9.57089 173.9 10.1505C174.305 10.7553 174.66 11.3256 174.843 11.6173L174.858 11.6421C174.904 11.716 174.94 11.774 174.968 11.8182C176.244 13.6652 177.462 15.5717 178.453 17.1249C178.66 17.4504 178.858 17.7603 179.044 18.051C180.271 19.9636 181.216 21.3842 182.156 22.623C187.694 29.9212 192.811 38.2318 197.267 45.4654C198.783 47.9268 200.222 50.2635 201.575 52.3931C203.509 55.438 204.853 58.4634 205.656 60.2756L205.694 60.3595C206.665 62.5444 206.998 63.2706 207.347 63.8603C208.247 65.38 208.885 66.7761 209.317 67.7996C209.661 68.6152 209.986 69.4713 210.156 69.9203C210.184 69.9901 210.206 70.0501 210.225 70.0985C210.238 70.1314 210.249 70.1625 210.26 70.1916C213.602 75.3009 215.347 80.5146 216.442 84.3474C216.477 84.4703 216.523 84.6221 216.623 84.9349C216.631 84.9578 216.641 84.9873 216.652 85.0223C216.735 85.2828 216.918 85.8522 217.073 86.3833C217.074 86.3866 217.078 86.3954 217.082 86.4094C217.218 86.8252 218.867 91.8521 217.449 97.6201C216.499 101.482 214.38 105.125 211.141 107.925C211.027 108.025 210.91 108.123 210.794 108.219C212.174 109.681 213.611 110.887 215.195 111.886C220.682 115.342 228.896 117.523 237.305 117.866C237.635 117.88 238.152 117.898 238.786 117.911C239.063 117.582 239.345 117.271 239.629 116.979C242.352 114.158 245.266 112.817 246.467 112.302C247.929 111.675 249.234 111.298 250.003 111.091C250.831 110.87 251.589 110.703 252.067 110.601C252.337 110.543 252.497 110.509 252.614 110.485C253.774 110.024 254.829 109.704 255.718 109.473C256.325 109.315 256.904 109.188 257.387 109.091C258.239 108.629 259.742 107.855 261.728 107.2C262.695 106.662 263.941 106.061 265.425 105.559C267.686 104.791 269.854 104.46 271.814 104.367C272.357 104.009 272.854 103.705 273.282 103.453C275.446 102.174 277.662 101.157 279.583 100.378C283.299 98.8676 287.447 97.6268 290.778 97.0211C291.372 96.9131 291.772 96.7807 293.054 96.3567C293.674 96.1515 294.501 95.8781 295.656 95.506C298.431 94.6119 303.232 93.1468 308.974 93.1468H328.926C329.901 93.1468 330.773 93.201 331.36 93.2443C331.777 93.2751 332.188 93.3115 332.547 93.3446C333.447 92.8427 335.004 92.0786 336.996 91.5551C338.85 91.0683 349.215 88.8132 356.66 97.9825C359.791 101.838 360.625 105.875 360.848 108.222C361.071 110.588 360.802 112.481 360.614 113.502C360.239 115.519 359.619 117.008 359.406 117.511C358.952 118.58 358.485 119.402 358.306 119.707C356.901 122.927 355.106 125.104 354.335 126.028C354.01 126.418 353.712 126.758 353.513 126.983C353.348 127.17 353.274 127.253 353.21 127.325C352.51 128.338 351.784 129.4 351.031 130.498C347.57 135.555 343.584 141.378 339.251 146.741C338.923 147.148 338.445 147.785 337.844 148.584C335.478 151.734 331.221 157.4 326.823 161.388C325.517 162.571 324.209 163.814 322.835 165.142C322.623 167.425 322.051 169.214 321.651 170.273C320.278 173.916 318.088 176.345 317.532 176.961L317.497 177.001C316.59 178.008 315.517 179.008 314.48 179.9C315.078 180.717 315.689 181.56 316.309 182.426C320.56 183.808 324.325 186.674 326.765 190.743C330.52 193.555 333.042 196.841 334.357 198.627C335.398 200.039 336.311 201.417 336.98 202.439C337.184 202.751 337.36 203.019 337.513 203.253C337.948 203.918 338.209 204.318 338.472 204.698C339.03 205.5 339.56 206.231 340.062 206.896C340.292 206.958 340.525 207.02 340.765 207.084C341.446 207.263 342.254 207.467 343.148 207.692C345.952 208.4 349.608 209.323 352.821 210.362C356.096 211.422 358.969 212.742 360.94 213.657C361.164 213.761 361.376 213.86 361.578 213.954C363.42 214.81 364.448 215.287 365.519 215.688C367.203 216.321 368.7 217.012 369.841 217.563C370.427 217.845 371.355 218.308 372.016 218.638C372.324 218.791 372.576 218.915 372.708 218.981C373.699 219.467 374.152 219.65 374.26 219.696C377.063 220.347 379.328 221.332 380.437 221.826C380.571 221.849 380.717 221.876 380.872 221.908L380.899 221.912C381.208 221.973 382.622 222.252 384.3 222.931C385.376 223.405 388.254 225.104 389.943 226.466C390.265 226.831 390.593 227.285 390.92 227.811C391.187 227.995 391.482 228.208 391.79 228.446C391.793 228.447 391.799 228.452 391.809 228.46C392.048 228.64 394.19 230.249 395.999 232.97C396.732 234.072 399.892 238.91 399.054 245.834C397.941 255.027 391.227 259.649 387.199 261.262C384.166 262.475 381.514 262.644 380.576 262.692C379.305 262.757 378.211 262.706 377.482 262.655C376.013 262.55 374.641 262.34 373.699 262.179C371.74 261.842 369.911 261.415 369.25 261.257C368.993 261.195 368.41 261.103 366.258 260.938C366.118 260.927 365.967 260.916 365.803 260.903C364.035 260.773 360.996 260.548 357.924 259.932C358.016 259.952 357.833 259.897 356.58 259.864C356.27 259.856 355.96 259.85 355.549 259.842C355.164 259.834 354.701 259.824 354.215 259.808C353.24 259.779 352.019 259.725 350.666 259.596C348.805 259.419 347.224 259.067 346.058 258.757C344.934 258.461 343.94 258.131 343.422 257.96L343.417 257.959C343.27 257.909 343.16 257.873 343.066 257.842C342.823 257.834 342.456 257.83 341.924 257.838C341.42 257.846 340.926 257.861 340.278 257.881C340.133 257.885 339.981 257.89 339.82 257.895C339.015 257.919 337.986 257.948 336.907 257.948C335.87 257.948 334.478 257.983 332.862 258.024C328.3 258.139 321.944 258.298 316.708 257.844C316.706 257.842 316.697 257.842 316.681 257.841C316.421 257.822 314.426 257.678 312.609 257.374C311.572 257.201 310.002 256.892 308.257 256.301C306.904 255.842 304.217 254.818 301.489 252.631C301.2 252.425 300.483 251.908 299.798 251.346C299.379 251 298.494 250.255 297.54 249.211C297.527 249.197 297.513 249.181 297.497 249.163C296.939 248.556 294.158 245.535 292.963 240.699C292.215 237.677 291.908 233.149 294.032 228.331C294.453 227.374 294.931 226.498 295.447 225.694C292.808 223.629 290.244 221.423 287.785 219.062C282.458 213.949 278.856 211.236 276.332 210.164C275.881 210.102 275.317 210.021 274.81 209.936C273.836 209.775 271.817 209.412 269.602 208.586C268.451 208.157 266.77 207.432 264.969 206.219C263.175 205.008 260.708 202.939 258.776 199.655C257.801 197.997 256.163 194.718 255.973 190.273C255.748 185.066 257.605 179.822 261.427 175.859C264.701 172.463 268.336 171.122 270.246 170.574C270.823 170.408 271.376 170.276 271.898 170.172C272.168 169.421 272.491 168.661 272.874 167.896C274.971 163.7 278.075 160.442 280.247 158.426C280.934 156.138 281.916 154.438 282.199 153.948L282.207 153.934C282.854 152.813 283.659 151.651 284.056 151.08C284.083 151.041 284.107 151.006 284.129 150.973C287.168 146.582 290.752 143.106 293.038 140.889C293.286 140.647 293.521 140.421 293.736 140.21C295.701 138.287 297.892 136.145 300.19 134.025C299.379 134.224 298.512 134.413 297.603 134.579C297.605 134.578 297.605 134.578 297.603 134.579C297.588 134.582 297.463 134.607 297.229 134.665C296.974 134.728 296.649 134.816 296.273 134.929C295.501 135.16 294.678 135.446 293.937 135.747C293.712 135.838 293.513 135.924 293.337 136.002C290.555 138.655 287.584 140.06 285.554 140.808C282.977 141.758 280.625 142.124 279.084 142.295C278.313 142.381 277.506 142.435 276.744 142.47C276.29 142.66 275.817 142.841 275.325 143.01C275.023 143.114 274.722 143.211 274.421 143.301C274.279 143.379 274.123 143.464 273.959 143.552C273.592 143.748 273.146 143.977 272.639 144.217C271.796 144.615 270.988 144.938 270.239 145.201C268.719 147.401 266.955 149.079 265.433 150.226C262.096 152.738 258.644 153.854 256.783 154.373C254.623 154.975 252.521 155.322 250.803 155.539C244.327 156.358 237.041 156.061 235.76 156.008L235.75 156.008C222.866 155.482 207.594 152.207 194.866 144.189C179.799 134.7 171.525 119.208 166.163 109.166C165.768 108.426 165.388 107.715 165.022 107.039C164.889 106.794 164.749 106.536 164.601 106.268ZM196.034 74.881C196.038 74.8832 195.959 74.8882 195.782 74.8888C195.94 74.8791 196.029 74.8788 196.034 74.881ZM273.004 207.505C272.979 207.499 272.953 207.491 272.926 207.484L272.942 207.488C272.963 207.494 272.984 207.499 273.004 207.505ZM312.217 255.003H311.886C311.898 255.003 311.917 255.003 311.938 255.003C312 255.003 312.094 255.005 312.217 255.003ZM324.391 189.182C324.387 189.179 324.384 189.176 324.381 189.174C324.521 189.27 324.529 189.286 324.391 189.182ZM277.484 210.322C277.479 210.322 277.407 210.311 277.283 210.29C277.428 210.309 277.49 210.321 277.484 210.322ZM301.847 252.889C301.844 252.887 301.791 252.849 301.702 252.782C301.807 252.859 301.852 252.892 301.847 252.889ZM253.522 110.281C253.529 110.281 253.439 110.306 253.232 110.353C253.411 110.303 253.514 110.28 253.522 110.281ZM239.992 144.818C240.023 144.85 240.05 144.875 240.069 144.895L240.077 144.904C240.05 144.876 240.021 144.847 239.992 144.818Z" fill="#FCFF56"/>
<path fill-rule="evenodd" clip-rule="evenodd" d="M260.13 293.633C260.13 283.092 268.672 274.547 279.209 274.547C285.247 274.547 290.256 277.211 293.591 280.669C296.453 283.634 297.744 286.781 298.32 288.438C299.451 291.695 299.66 294.789 299.733 295.953C299.789 296.808 299.821 297.79 299.838 298.502C301.212 302.762 303.341 307.154 306.222 312.34C308.344 316.16 311.075 319.95 314.511 324.446C315.61 325.884 316.444 327.199 316.952 328.007C317.096 328.237 317.212 328.423 317.308 328.576C317.617 329.069 317.714 329.225 317.856 329.429C318.297 330.067 318.955 331.057 319.579 332.238C319.583 332.246 319.591 332.261 319.601 332.28C319.862 332.752 321.936 336.514 321.948 341.552C321.956 344.891 321.002 351.097 315.485 355.985C310.323 360.561 304.587 360.886 302.1 360.804C297.849 360.663 294.64 359.076 294.184 358.851C294.165 358.842 294.149 358.834 294.141 358.831C292.591 358.089 291.179 357.158 290.873 356.957C290.853 356.945 290.838 356.935 290.828 356.927C290.598 356.777 290.457 356.686 290.382 356.637C287.724 355.14 284.63 353.763 280.734 352.152C279.95 351.829 279.108 351.486 278.224 351.126C274.976 349.801 271.166 348.248 267.61 346.582C264.53 345.136 261.327 343.983 257.174 342.486C256.254 342.155 255.289 341.807 254.269 341.436C249.136 339.569 242.715 337.131 236.567 333.514C235.716 333.013 234.516 332.473 232.347 331.703C231.92 331.551 231.282 331.334 230.524 331.076C228.646 330.437 226.028 329.547 224.022 328.766C224.002 328.76 223.893 328.723 223.642 328.664C223.29 328.581 222.809 328.489 221.953 328.348C221.787 328.321 221.587 328.289 221.357 328.254C219.784 328.006 216.817 327.54 213.916 326.711C203.784 323.814 197.918 313.251 200.814 303.114C203.708 292.98 214.267 287.11 224.399 290.006C224.917 290.155 225.354 290.225 227.014 290.496C227.338 290.548 227.709 290.611 228.138 290.681C230.294 291.035 233.912 291.655 237.848 293.187C239.201 293.713 240.181 294.043 241.454 294.47C242.414 294.792 243.54 295.17 245.118 295.731C248.106 296.793 251.963 298.285 255.913 300.61C257.626 301.619 259.571 302.537 261.905 303.495C261.867 303.153 261.845 302.882 261.83 302.698C261.791 302.212 261.765 301.745 261.747 301.338C260.707 298.982 260.13 296.376 260.13 293.633ZM311.913 325.106C311.916 325.109 311.878 325.085 311.792 325.031C311.869 325.077 311.912 325.104 311.913 325.106ZM261.655 298.413C261.623 298.153 261.636 298.12 261.655 298.4C261.655 298.405 261.655 298.408 261.655 298.413Z" fill="#FCFF56"/>
<path fill-rule="evenodd" clip-rule="evenodd" d="M122.626 255.955C128.471 247.183 140.317 244.813 149.084 250.66C161.741 259.102 166.81 272.503 169.244 282.378C171.108 289.943 172.044 298.483 172.694 304.421C172.876 306.088 173.037 307.552 173.188 308.73C173.687 312.602 173.971 315.587 174.21 318.11C174.246 318.487 174.281 318.853 174.315 319.212C177.794 316.118 181.585 314.601 183.126 314.01C185.556 313.076 187.934 312.449 189.714 312.081C203.824 309.16 217.835 309.226 229.794 309.281C231.389 309.289 232.947 309.296 234.465 309.296C245.002 309.296 253.543 317.841 253.543 328.382C253.543 338.924 245.002 347.469 234.465 347.469C232.798 347.469 231.18 347.466 229.602 347.461C218.218 347.432 209 347.408 199.864 349.001C199.045 350.206 198.01 351.533 196.735 352.808C192.858 356.687 188.783 360.228 184.812 363.429C184.774 363.464 184.732 363.504 184.688 363.547L184.665 363.568C184.277 363.942 183.558 364.633 182.767 365.333C182.073 365.948 180.7 367.134 179 368.221C178.173 368.751 176.618 369.683 174.552 370.421C172.882 371.019 168.186 372.494 162.434 370.85C159.596 370.039 157.454 368.746 156.029 367.695C154.604 366.646 153.561 365.596 152.891 364.857C152.176 364.07 151.581 363.293 151.161 362.713C146.696 358.405 144.216 353.132 143.064 350.539C141.285 346.536 140.045 342.546 139.34 340.052C137.228 332.574 136.423 324.299 135.847 318.366C135.668 316.526 135.511 314.911 135.344 313.615C135.017 311.081 134.757 308.727 134.511 306.49C133.916 301.098 133.397 296.389 132.196 291.518C130.542 284.81 128.632 282.9 127.918 282.423C119.15 276.575 116.781 264.725 122.626 255.955ZM157.455 336.767C157.409 336.808 157.387 336.825 157.388 336.824C157.388 336.824 157.411 336.803 157.455 336.767Z" fill="#FCFF56"/>
<path fill-rule="evenodd" clip-rule="evenodd" d="M92.8972 215.027C92.7669 214.48 92.6115 213.933 92.43 213.388C89.0979 203.389 78.2931 197.984 68.2967 201.318C61.3015 203.65 57.2945 208.814 55.3735 213.177C55.2273 213.511 55.0915 213.841 54.9653 214.168C54.9014 214.211 54.8379 214.252 54.7751 214.293C53.5449 215.11 52.5356 215.779 51.9203 216.164C44.0351 221.093 37.4712 227.481 32.3672 233.138C25.2977 240.972 17.27 249.885 10.347 259.802C10.3344 259.818 10.1438 260.074 9.45627 260.911C9.36591 261.021 9.26408 261.146 9.15297 261.28C8.58689 261.967 7.78056 262.946 7.02904 263.912C6.11525 265.087 4.91659 266.703 3.80781 268.565C2.77106 270.306 1.26365 273.16 0.462889 276.765C-1.0043 283.37 1.1236 289.844 5.32864 294.257C8.56448 297.653 12.137 298.928 13.4457 299.354C16.2242 300.259 18.6765 300.353 19.2963 300.376C19.3128 300.377 19.3281 300.377 19.342 300.377C19.756 300.395 20.1474 300.398 20.4811 300.398C25.8492 300.985 31.6861 301.53 38.025 301.53C45.2378 301.53 52.2904 301.052 58.6207 300.621L58.8857 300.604C65.4943 300.154 71.3495 299.763 77.143 299.763H119.074C129.611 299.763 138.153 291.218 138.153 280.677C138.153 270.136 129.611 261.59 119.074 261.59H117.211C116.218 256.093 113.257 252.313 111.566 250.482C109.34 248.071 106.945 246.45 105.478 245.533C105.17 245.342 104.833 245.141 104.479 244.937C102.869 242.721 101.917 241.361 101.132 239.733C100.159 237.713 99.1034 235.838 98.3337 234.475L98.1868 234.215C97.4065 232.833 96.8924 231.921 96.4375 231.025C96.1511 230.461 95.9737 230.059 95.8669 229.796C95.9265 228.838 96.0419 226.741 95.8357 224.471C95.7248 223.252 95.4695 221.316 94.7468 219.129C94.3995 218.077 93.8322 216.623 92.8972 215.027ZM64.3404 262C63.6803 261.037 63.0577 260.017 62.4854 258.939C62.345 258.676 62.1812 258.375 61.9987 258.04C61.917 257.89 61.8314 257.734 61.7425 257.57C61.3928 257.946 61.0422 258.329 60.6907 258.718C59.552 259.98 58.4335 261.221 57.3363 262.447C59.5924 262.293 61.9355 262.137 64.3404 262Z" fill="#FCFF56"/>
<path fill-rule="evenodd" clip-rule="evenodd" d="M142.749 133.998C144.321 131.224 145.218 128.018 145.218 124.601C145.218 114.06 136.676 105.515 126.139 105.515C121.83 105.515 115.992 106.575 110.881 110.929C105.859 115.208 104.067 120.53 103.39 123.855C103.077 125.392 102.93 126.861 102.867 128.113C102.588 128.051 102.305 127.987 102.017 127.921C95.8779 126.511 89.7468 124.683 82.902 122.642L82.7947 122.61C76.2999 120.673 69.1423 118.541 61.7442 116.854C60.1284 116.065 57.4537 114.761 54.7104 113.688C51.7592 112.533 46.7487 110.815 41.0674 110.815H38.335L38.3339 148.921C38.2886 148.916 38.2433 148.911 38.1981 148.905C37.8233 148.861 37.4481 148.799 37.0771 148.72C36.2701 148.549 35.6852 148.338 35.4341 148.241C35.3535 148.21 35.305 148.189 35.3047 148.189C35.3045 148.189 35.313 148.192 35.3313 148.2C35.4119 148.235 35.4999 148.275 35.7492 148.386L35.7879 148.404C36.2177 148.596 37.0503 148.969 38.0282 149.346C41.3017 150.609 44.902 151.887 48.7719 152.958C50.3821 153.711 51.8188 154.363 53.1233 154.955C54.966 155.791 56.545 156.507 57.9769 157.219C57.5541 158.396 57.1587 159.622 56.8236 160.867C55.2642 166.66 55.2954 172.368 55.4241 176.129C55.5106 178.66 55.6099 180.188 55.6899 181.417C55.7766 182.749 55.8405 183.733 55.8405 185.265V210.59C55.8405 221.131 64.3825 229.677 74.9195 229.677C85.4564 229.677 93.9984 221.131 93.9984 210.59V185.265C93.9984 183.172 93.8916 181.101 93.7979 179.432C93.7761 179.044 93.755 178.678 93.735 178.327C93.6599 177.021 93.5978 175.937 93.5597 174.824C93.5133 173.468 93.5211 172.473 93.57 171.712C93.6121 171.059 93.6733 170.781 93.6746 170.772C93.9603 169.716 94.3036 168.993 95.308 166.874C95.4795 166.512 95.6701 166.11 95.883 165.659C99.68 166.466 104.531 167.304 109.651 167.43C115.868 167.585 124.159 166.746 131.979 162.03C131.99 162.026 132.074 161.978 132.312 161.844L132.354 161.82C132.636 161.662 133.155 161.372 133.7 161.047C134.276 160.702 135.101 160.191 136 159.539C136.861 158.916 138.137 157.918 139.444 156.529C141.635 154.2 146.115 148.18 144.608 139.555C144.235 137.415 143.553 135.565 142.749 133.998ZM140.984 129.805C140.984 129.806 140.985 129.841 140.982 129.904C140.982 129.835 140.983 129.804 140.984 129.805ZM136.324 126.488C136.317 126.482 136.319 126.484 136.327 126.492L136.324 126.488ZM67.7576 162.997C67.8153 163.033 67.7962 163.025 67.7163 162.971C67.7319 162.981 67.7455 162.989 67.7576 162.997Z" fill="#FCFF56"/>
<path fill-rule="evenodd" clip-rule="evenodd" d="M137.964 98.2856C145.013 106.121 144.378 118.189 136.546 125.241C134.913 126.711 132.732 128.754 130.367 130.969C126.822 134.288 122.864 137.995 119.715 140.745C115.901 144.076 114.085 145.682 112.791 147.371C112.798 147.362 112.782 147.383 112.733 147.451C112.681 147.525 112.611 147.626 112.492 147.801C112.47 147.833 112.441 147.875 112.407 147.926C112.191 148.245 111.749 148.897 111.309 149.503C110.097 151.171 108.177 153.542 105.205 155.771C96.7756 162.096 84.8168 160.386 78.4946 151.954C72.5462 144.02 73.7069 132.96 80.8862 126.412L80.9574 126.307C81.287 125.823 81.832 125.028 82.5088 124.145C86.2704 119.236 90.9002 115.219 93.8412 112.666C94.1164 112.427 94.3768 112.201 94.6203 111.989L107.168 126.367" fill="#FCFF56"/>
<path fill-rule="evenodd" clip-rule="evenodd" d="M61.5033 111.273C62.3809 112.027 64.071 113.142 67.0718 114.626C69.2367 115.696 70.8633 116.409 72.7347 117.229C74.1774 117.861 75.7655 118.556 77.8576 119.529C81.9035 121.41 85.6531 122.543 90.722 123.546C92.4276 123.883 93.8525 124.328 94.8007 124.646C95.2775 124.806 95.7096 124.961 96.0066 125.067C96.0262 125.075 96.045 125.081 96.0633 125.088C105.514 126.226 112.839 134.276 112.839 144.037C112.839 154.578 104.297 163.124 93.7599 163.124C89.3668 163.124 85.8149 161.944 84.2825 161.412C86.1676 165.313 88.0474 169.2 89.9236 173.064C91.6029 176.524 93.3566 180.116 95.1213 183.73C97.2039 187.994 99.3021 192.291 101.313 196.441C103.425 200.801 104.253 202.268 105.175 203.322C112.113 211.255 111.31 223.314 103.38 230.255C95.4499 237.197 83.3964 236.393 76.4578 228.46C71.849 223.189 69.0087 217.303 67.2613 213.683C67.1625 213.477 67.0672 213.281 66.9754 213.091C64.9153 208.838 62.9159 204.745 60.9019 200.621C59.1618 197.058 57.4106 193.472 55.6001 189.742C53.0335 184.457 50.4952 179.2 47.9669 173.965C42.546 162.741 37.1715 151.613 31.6656 140.489C31.6041 140.39 31.5382 140.285 31.4625 140.165C31.3578 139.998 31.2345 139.802 31.0786 139.553C30.4487 138.546 29.536 137.074 28.6458 135.518C27.849 134.125 26.6515 131.947 25.7427 129.653C25.3366 128.628 24.5336 126.477 24.1868 123.807C24.1857 123.797 24.1843 123.787 24.1829 123.776C24.006 122.418 22.8122 113.255 30.5845 106.344C37.0343 100.608 44.3314 101.352 46.852 101.818C49.6676 102.338 51.711 103.372 52.4979 103.788C54.2664 104.721 55.5838 105.761 56.0697 106.148C57.2879 107.119 58.4087 108.185 59.0739 108.83C59.8399 109.573 60.5588 110.305 61.0519 110.811C61.2657 111.03 61.4109 111.179 61.5033 111.273ZM31.9719 140.986C31.9693 140.983 31.9413 140.937 31.8949 140.858C31.9511 140.95 31.9743 140.989 31.9719 140.986ZM96.8318 125.36C96.8318 125.36 96.8288 125.359 96.8224 125.357C96.8286 125.359 96.8318 125.36 96.8318 125.36Z" fill="#FCFF56"/>
<path fill-rule="evenodd" clip-rule="evenodd" d="M172.216 29.044C175.206 31.7431 177.126 33.3979 177.677 33.7662C180.471 35.6289 183.234 38.5796 185.569 41.3705C187.94 44.2035 190.154 47.2234 191.822 49.5008L191.873 49.5688C193.671 52.021 196.14 55.3897 198.146 59.0029C200.101 62.5237 201.956 66.8553 201.956 71.2114C201.956 73.6918 199.947 75.7025 197.467 75.7025C194.989 75.7025 192.978 73.6918 192.978 71.2114C192.978 69.1913 192.042 66.5058 190.297 63.3654C188.605 60.3174 186.466 57.3809 184.634 54.8805C182.935 52.5638 180.865 49.7417 178.685 47.136C176.446 44.4597 174.363 42.3503 172.697 41.2396C171.453 40.4092 168.916 38.1622 166.202 35.713C164.374 34.0631 162.28 32.1495 160.128 30.1821C158.913 29.0709 157.679 27.9425 156.463 26.8348C153.815 24.4214 151.248 22.1015 149.079 20.2008C149.086 20.7103 149.099 21.2383 149.116 21.781C149.155 23.0945 149.202 24.1667 149.249 25.2359C149.291 26.1842 149.332 27.1302 149.368 28.2402C149.43 30.1195 149.466 32.2303 149.227 33.737C148.493 38.3483 147.25 43.0352 146.074 47.4694C145.739 48.7322 145.409 49.9746 145.099 51.1888C143.652 56.8395 142.543 62.1005 142.543 67.2215C142.543 72.079 141.509 76.6841 140.602 80.7196L140.577 80.8287C139.628 85.0544 138.83 88.659 138.83 92.2621C138.83 94.7424 136.82 96.7531 134.341 96.7531C131.861 96.7531 129.852 94.7424 129.852 92.2621C129.852 87.6032 130.86 83.1175 131.752 79.1504C131.774 79.053 131.796 78.9559 131.818 78.859C132.762 74.6565 133.565 70.9686 133.565 67.2215C133.565 60.9034 134.927 54.7201 136.401 48.961C136.757 47.5695 137.117 46.2115 137.47 44.8784C138.623 40.5273 139.705 36.4415 140.36 32.3258C140.44 31.8194 140.462 30.5963 140.395 28.5334C140.372 27.8298 140.331 26.8586 140.287 25.8237C140.233 24.5338 140.174 23.1452 140.141 22.0532C140.073 19.8035 140.051 17.4137 140.226 15.3757C140.313 14.3599 140.46 13.2851 140.73 12.2893C140.969 11.4057 141.452 10.0035 142.582 8.87393C144.379 7.07586 146.593 7.57925 146.91 7.65131L146.91 7.65139C147.546 7.79597 148.045 8.04389 148.285 8.16928C148.825 8.45163 149.361 8.82127 149.797 9.13934C150.72 9.81324 151.891 10.7731 153.17 11.8648C155.756 14.0718 159.118 17.1047 162.509 20.1944C163.752 21.3279 165 22.4683 166.221 23.584C168.355 25.5352 170.406 27.4112 172.216 29.044ZM149.442 14.4938C149.443 14.4949 149.437 14.513 149.423 14.5449C149.435 14.5087 149.442 14.4928 149.442 14.4938Z" fill="black"/>
<path fill-rule="evenodd" clip-rule="evenodd" d="M18.5736 103.825C20.9032 103.988 23.5935 104.718 24.7081 105.196C27.4664 106.378 30.6165 106.956 34.3094 107.491C34.8127 107.564 35.3295 107.636 35.8573 107.71C39.0074 108.151 42.543 108.646 45.8676 109.624C59.2909 113.574 74.0762 117.491 87.3043 117.491C89.7835 117.491 91.7934 119.501 91.7934 121.982C91.7934 124.462 89.7835 126.472 87.3043 126.472C72.6217 126.472 56.6847 122.169 43.3342 118.241C40.6966 117.465 37.9035 117.071 34.7213 116.622C34.1676 116.544 33.602 116.464 33.0233 116.38C31.4711 116.155 29.8364 115.902 28.1717 115.561C29.8442 117.067 31.5841 118.56 33.3762 120.099L33.591 120.283C36.8101 123.047 40.1894 125.957 43.3307 129.15C46.9357 132.815 50.6338 136.379 54.3854 139.98C54.6882 140.27 54.9913 140.561 55.2947 140.852C58.7381 144.156 62.2235 147.5 65.6542 150.932C66.9266 152.205 68.2225 153.793 69.3122 155.129C69.7723 155.693 70.1958 156.212 70.5652 156.643C72.0225 158.345 73.2068 159.44 74.4585 160.066C76.6761 161.174 77.5749 163.873 76.4662 166.091C75.3574 168.31 72.6608 169.209 70.4432 168.1C67.5392 166.648 65.4039 164.422 63.7478 162.488C63.0582 161.683 62.4801 160.972 61.9486 160.317C61.0393 159.197 60.2664 158.245 59.3056 157.283C55.9444 153.921 52.5253 150.64 49.0694 147.324C48.7698 147.037 48.4699 146.749 48.1696 146.461C44.4208 142.863 40.6374 139.218 36.9315 135.451C34.095 132.567 30.9969 129.892 27.7441 127.099C27.6383 127.009 27.5323 126.918 27.4262 126.827C24.3164 124.157 21.0649 121.366 18.0463 118.347C17.8117 118.112 17.3417 117.739 16.6283 117.172C16.2689 116.887 15.848 116.553 15.3643 116.163C14.7552 115.671 14.0764 115.11 13.4964 114.568C13.2063 114.297 12.8843 113.978 12.5862 113.633C12.3354 113.343 11.8785 112.785 11.5483 112.042C11.1429 111.129 10.7335 109.727 11.1196 108.133C11.5449 106.377 12.7158 105.255 13.8123 104.65C14.8014 104.103 15.8013 103.921 16.4887 103.847C17.224 103.768 17.9457 103.781 18.5736 103.825ZM17.4442 112.778C17.4464 112.778 17.4488 112.778 17.4517 112.777C17.4243 112.782 17.4203 112.781 17.4442 112.778Z" fill="black"/>
<path fill-rule="evenodd" clip-rule="evenodd" d="M58.8342 227.696C61.3136 227.696 63.3235 229.707 63.3235 232.187C63.3235 233.211 63.2811 234.658 62.5185 236.119C62.1655 236.795 61.7482 237.303 61.446 237.646C61.2557 237.863 61.0019 238.131 60.7953 238.349C60.7227 238.426 60.6557 238.497 60.5996 238.556C59.4063 239.833 58.3778 241.562 57.0221 243.84C56.9217 244.009 56.8194 244.181 56.7152 244.356C55.3709 246.611 53.605 249.535 51.1658 251.626C49.315 253.212 47.5548 255.108 45.6758 257.233C45.2535 257.711 44.821 258.207 44.3795 258.711C42.9238 260.377 41.3717 262.151 39.7741 263.797C38.3485 265.265 37.0573 266.703 35.6937 268.222C34.6753 269.356 33.6167 270.536 32.4313 271.806C29.8404 274.584 26.956 277.433 23.6654 279.749C23.498 279.867 23.3088 279.999 23.1034 280.141C22.5089 280.552 21.7783 281.059 21.0433 281.613C23.2109 281.829 25.6379 281.831 28.354 281.772C28.8337 281.763 29.3246 281.75 29.8243 281.737C33.7019 281.64 38.1222 281.53 42.1569 282.25C55.3526 284.607 70.0626 285.409 83.7501 285.898C87.7595 286.042 91.598 286.623 95.1467 287.164C95.4296 287.207 95.7107 287.248 95.9897 287.291C99.8567 287.875 103.424 288.371 107.108 288.371C109.587 288.371 111.597 290.383 111.597 292.862C111.597 295.342 109.587 297.353 107.108 297.353C102.675 297.353 98.5029 296.755 94.649 296.173C94.3974 296.135 94.1472 296.097 93.8983 296.058C90.2524 295.507 86.901 294.998 83.4296 294.874C69.7117 294.384 54.4505 293.57 40.5786 291.092C37.5015 290.542 34.0536 290.623 30.0262 290.719C29.5415 290.73 29.0484 290.741 28.5466 290.753C24.1687 290.847 19.0828 290.871 14.4668 289.45C13.3209 289.098 11.9766 288.481 10.9252 287.311C9.74304 285.994 9.27738 284.36 9.41637 282.78C9.53936 281.383 10.1092 280.242 10.5946 279.467C11.1033 278.657 11.7188 277.938 12.2987 277.337C14.2334 275.33 17.0101 273.426 18.1415 272.651C18.2913 272.548 18.4122 272.465 18.4984 272.404C21.0258 270.625 23.4105 268.31 25.8678 265.676C26.7802 264.699 27.7686 263.601 28.7829 262.475C30.298 260.792 31.8707 259.046 33.3341 257.538C34.7528 256.077 36.0892 254.548 37.5104 252.924C37.9788 252.388 38.4564 251.843 38.949 251.285C40.8733 249.107 42.9741 246.819 45.3228 244.806C46.4737 243.819 47.5533 242.19 49.0036 239.755C49.1284 239.546 49.2565 239.33 49.3885 239.106C50.6124 237.039 52.1432 234.453 54.043 232.422C54.1279 232.331 54.2073 232.246 54.279 232.17L54.3459 232.1C54.3925 229.659 56.3842 227.696 58.8342 227.696ZM54.7445 231.668C54.7446 231.668 54.7432 231.669 54.74 231.672C54.7429 231.669 54.7445 231.668 54.7445 231.668ZM16.9915 280.823C16.9918 280.823 17.0001 280.827 17.0151 280.835C16.9987 280.828 16.9912 280.823 16.9915 280.823ZM18.1889 284.259C18.181 284.275 18.1762 284.283 18.1757 284.283C18.1752 284.283 18.1792 284.275 18.1889 284.259Z" fill="black"/>
<path fill-rule="evenodd" clip-rule="evenodd" d="M143.003 315.614C145.482 315.614 147.492 317.624 147.492 320.105C147.492 340.846 150.65 358.187 156.523 377.543C156.524 377.541 156.524 377.541 156.525 377.54C157.066 376.802 157.532 376.118 158.037 375.378C158.413 374.825 158.811 374.241 159.277 373.581C164.746 365.83 171.586 359.445 178 353.457C178.206 353.265 178.41 353.076 178.614 352.884C185.326 346.616 191.524 340.736 196.206 333.71C197.581 331.647 200.368 331.089 202.43 332.465C204.494 333.841 205.05 336.629 203.675 338.692C198.325 346.721 191.355 353.273 184.741 359.45C184.625 359.56 184.509 359.668 184.392 359.776C177.785 365.946 171.54 371.778 166.612 378.761C166.33 379.161 165.989 379.658 165.624 380.191C165.019 381.077 164.344 382.063 163.763 382.855C162.807 384.157 161.516 385.79 159.978 386.896C159.176 387.474 158.038 388.106 156.617 388.301C155.064 388.513 153.529 388.146 152.216 387.266C149.978 385.763 148.819 383.064 148.061 380.577C141.903 360.384 138.514 342.051 138.514 320.105C138.514 317.624 140.524 315.614 143.003 315.614ZM154.71 379.62C154.71 379.62 154.715 379.617 154.725 379.611C154.715 379.619 154.71 379.622 154.71 379.62ZM157.519 380.062C157.523 380.067 157.525 380.068 157.525 380.068C157.525 380.068 157.523 380.067 157.519 380.062Z" fill="black"/>
<path fill-rule="evenodd" clip-rule="evenodd" d="M289.047 296.554C291.111 295.178 293.898 295.736 295.273 297.799C299.71 304.458 303.031 311.786 306.04 318.955C306.787 320.737 307.514 322.502 308.231 324.246C310.448 329.638 312.588 334.845 315.082 339.833C318.312 346.297 320.783 351.521 320.783 359.728C320.783 359.849 320.784 359.996 320.784 360.16C320.789 360.682 320.794 361.382 320.77 362.005C320.743 362.775 320.665 364.025 320.258 365.198C320.05 365.804 319.64 366.724 318.81 367.535C317.865 368.458 316.574 369.034 315.125 369.032C313.841 369.031 312.799 368.576 312.105 368.178C311.388 367.765 310.748 367.239 310.185 366.708C306.928 363.629 302.958 361.515 298.319 359.258C297.806 359.009 297.283 358.757 296.752 358.502C292.65 356.525 288.069 354.317 283.909 351.226C283.069 350.601 281.991 349.755 280.961 348.945C280.166 348.32 279.399 347.719 278.797 347.261C277.114 345.986 275.579 344.935 274.126 344.208C271.353 342.819 268.55 340.93 266.04 339.237C265.066 338.582 264.137 337.954 263.27 337.399C259.901 335.236 256.904 333.7 253.721 333.209C251.272 332.833 249.591 330.54 249.967 328.089C250.344 325.637 252.636 323.955 255.087 324.332C260.183 325.117 264.478 327.503 268.118 329.839C269.38 330.649 270.529 331.424 271.616 332.159C273.898 333.699 275.911 335.059 278.142 336.175C280.346 337.276 282.405 338.727 284.22 340.103C285.221 340.863 286.008 341.485 286.748 342.07C287.568 342.719 288.33 343.322 289.264 344.015C292.69 346.563 296.465 348.387 300.649 350.408C301.175 350.662 301.707 350.92 302.246 351.181C305.293 352.664 308.524 354.297 311.613 356.398C311.101 352.208 309.57 348.887 307.052 343.851C304.397 338.537 302.08 332.903 299.836 327.443C299.14 325.75 298.451 324.076 297.761 322.43C294.792 315.355 291.739 308.69 287.802 302.783C286.427 300.718 286.985 297.93 289.047 296.554Z" fill="black"/>
<path fill-rule="evenodd" clip-rule="evenodd" d="M324.655 199.221C325.764 197.002 328.461 196.103 330.679 197.213C339.964 201.857 348.577 208.004 356.896 213.941C357.535 214.397 358.171 214.852 358.805 215.303C367.839 221.737 376.619 227.815 386.195 232.073C386.579 232.243 387.173 232.463 388.054 232.79C388.276 232.872 388.515 232.959 388.773 233.056C389.952 233.495 391.388 234.042 392.77 234.668C394.109 235.276 395.645 236.066 396.912 237.064C397.987 237.911 400 239.784 400 242.711C400 244.133 399.654 245.552 398.846 246.821C398.051 248.071 396.977 248.91 395.924 249.461C393.96 250.487 391.712 250.702 390.034 250.74C388.25 250.781 386.418 250.625 384.998 250.496L384.909 250.488C383.321 250.345 382.523 250.273 382.12 250.292C379.09 250.443 376.062 250.923 372.74 251.451C372.389 251.507 372.034 251.563 371.675 251.618C368.032 252.192 364.059 252.774 359.959 252.774H326.196C323.717 252.774 321.707 250.764 321.707 248.283C321.707 245.804 323.717 243.792 326.196 243.792H359.959C363.283 243.792 366.633 243.32 370.281 242.746C370.639 242.689 371.001 242.632 371.368 242.574C374.615 242.058 378.131 241.5 381.672 241.323C382.756 241.268 384.212 241.404 385.374 241.511C385.524 241.525 385.669 241.54 385.807 241.552C385.827 241.554 385.846 241.555 385.863 241.557C385.79 241.53 385.718 241.503 385.645 241.476C385.463 241.407 385.275 241.339 385.086 241.268C384.185 240.935 383.224 240.581 382.548 240.28C372.042 235.609 362.587 229.023 353.599 222.62C352.999 222.195 352.403 221.769 351.809 221.345C343.358 215.315 335.293 209.562 326.663 205.246C324.446 204.137 323.548 201.439 324.655 199.221ZM391.564 244.306C391.56 244.306 391.533 244.282 391.493 244.234C391.546 244.282 391.567 244.306 391.564 244.306Z" fill="black"/>
<path fill-rule="evenodd" clip-rule="evenodd" d="M277.146 102.168C277.146 99.6879 279.156 97.6772 281.636 97.6772H367.661C368.503 97.6772 369.467 97.752 370.41 98.0468C371.365 98.3449 372.656 98.9877 373.539 100.364C374.452 101.785 374.468 103.262 374.284 104.277C374.112 105.232 373.731 106.018 373.441 106.537C372.866 107.567 372.053 108.559 371.497 109.228C371.327 109.434 371.17 109.62 371.029 109.789C370.606 110.293 370.305 110.653 370.063 110.989C367.131 115.049 363.72 119.069 360.456 122.919C358.549 125.168 356.691 127.358 355.006 129.464C353.492 131.357 352.154 133.319 350.708 135.438C350.184 136.206 349.647 136.995 349.08 137.809C347.033 140.755 344.716 143.879 341.794 146.64C341.269 147.135 340.74 147.622 340.211 148.108C338.745 149.456 337.28 150.802 335.943 152.315C334.093 154.411 333.258 156.016 333.132 157.148C332.858 159.613 330.64 161.389 328.174 161.115C325.711 160.843 323.935 158.621 324.209 156.156C324.652 152.159 327.073 148.794 329.217 146.367C330.895 144.468 332.872 142.651 334.404 141.245C334.858 140.827 335.272 140.446 335.628 140.11C337.854 138.007 339.743 135.509 341.709 132.681C342.173 132.015 342.648 131.319 343.134 130.605C344.633 128.407 346.249 126.037 347.996 123.853C350.048 121.285 352.056 118.924 354.015 116.623C356.821 113.324 359.523 110.147 362.104 106.659H281.636C279.156 106.659 277.146 104.648 277.146 102.168Z" fill="black"/>
<path fill-rule="evenodd" clip-rule="evenodd" d="M194.191 86.3184C194.191 75.7772 202.733 67.2319 213.27 67.2319C223.573 67.2319 232.185 68.314 242.25 71.0328C242.744 71.1663 243.251 71.3019 243.767 71.4408C248.505 72.7113 254.194 74.2374 259.962 76.4952C267.552 79.4666 272.921 83.7947 277.074 87.4744C277.764 88.0858 278.575 88.7805 279.474 89.5508C283.802 93.2618 290.178 98.7277 294.997 105.082C301.412 113.541 308.62 123.337 313.879 135.312C314.338 136.356 314.895 137.574 315.509 138.917C317.437 143.129 319.928 148.569 321.692 153.728C322.975 157.482 323.97 161.149 324.801 164.296C324.943 164.832 325.079 165.348 325.211 165.85C325.901 168.473 326.481 170.681 327.155 172.889C329.53 180.679 330.342 189.417 330.908 195.501C331.036 196.881 331.152 198.125 331.27 199.19C331.97 205.481 332.827 216.264 328.825 226.609C325.7 234.686 323.353 243.8 321.466 253.238C318.158 269.785 307.82 284.465 294.515 293.516C294.464 293.551 294.413 293.584 294.362 293.619C292.655 297.537 290.371 300.94 288.054 303.687C284.169 308.293 278.746 312.767 272.221 315.277C271.133 315.695 270.137 316.001 269.337 316.223C268.534 316.446 267.794 316.621 267.217 316.754C266.838 316.84 266.432 316.929 266.103 316.999C265.589 317.364 265.122 317.669 264.727 317.914C263.544 318.653 262.441 319.225 261.678 319.606C261.069 319.909 260.411 320.218 260.024 320.4C259.947 320.437 259.88 320.467 259.828 320.492C259.589 320.606 259.469 320.664 259.429 320.684C255.672 322.747 250.483 325.286 244.652 326.745C240.789 327.711 237.268 327.654 235.493 327.598C234.538 327.568 233.96 327.542 233.587 327.52C232.158 328.327 230.83 328.9 229.751 329.313C227.848 330.04 226.073 330.501 224.77 330.802C223.562 331.081 222.381 331.305 221.63 331.446L221.472 331.477C221.048 331.556 220.766 331.611 220.529 331.659C220.327 331.7 220.247 331.719 220.247 331.719L220.252 331.718C215.173 332.988 209.468 332.81 207.799 332.757C207.601 332.751 207.46 332.746 207.383 332.746C202.379 332.746 197.997 331.378 196.258 330.834C196.134 330.796 196.022 330.761 195.927 330.731C195.367 330.56 194.985 330.45 194.744 330.383C187.944 330.287 181.501 329.066 175.78 327.431C170.784 326.002 167.115 323.735 164.736 322.138C163.455 321.277 162.738 320.771 162.244 320.422C161.809 320.114 161.546 319.93 161.222 319.732C161.047 319.666 160.69 319.534 160.357 319.407C159.22 318.973 156.593 317.964 153.778 315.987C149.619 315.523 145.651 314.573 143.555 314.048C131.47 311.027 125.41 304.586 120.841 299.732C120.541 299.413 120.248 299.1 119.959 298.796C118.84 297.618 117.98 296.502 117.379 295.671C116.891 294.997 116.444 294.329 116.189 293.945C115.896 293.686 115.538 293.368 115.182 293.034C114.537 292.432 113.458 291.383 112.37 290.021C112.196 289.803 111.988 289.537 111.757 289.221C111.667 289.157 111.573 289.089 111.48 289.02C109.867 287.842 108.672 286.619 107.85 285.674C107.018 284.715 106.38 283.823 105.93 283.15C105.545 282.573 105.223 282.042 104.977 281.623C103.681 280.255 102.721 278.882 102.027 277.717C100.697 275.486 99.9925 273.426 99.6484 272.336C99.459 271.735 99.312 271.204 99.2174 270.855C99.2143 270.844 99.2113 270.833 99.2081 270.82C98.4446 269.219 97.7039 267.88 96.9382 266.721C94.2543 262.654 91.3834 257.946 88.9651 253.294C88.3767 252.162 87.6341 251.005 86.2417 248.837L86.0435 248.527C84.8744 246.705 83.1688 244.041 81.6633 241.002C81.5594 240.851 81.4285 240.66 81.2958 240.462C80.8947 239.862 80.1249 238.688 79.3924 237.198C78.83 236.055 78.1288 234.413 77.6392 232.366C76.6582 230.636 75.8367 228.88 75.2543 227.528C74.5688 225.937 72.9272 222.02 72.4733 217.933C71.6048 210.112 71.1465 202.396 71.1465 194.394C71.1465 194.158 71.1366 193.82 71.1055 193.065C71.1033 193.01 71.1007 192.951 71.0983 192.891C71.0717 192.253 71.032 191.301 71.0201 190.327C70.9951 188.309 71.0392 184.699 72.1369 180.746C72.6599 178.861 73.276 176.962 73.7399 175.532C73.8206 175.285 73.8964 175.051 73.9664 174.834C74.5084 173.152 74.8397 172.054 75.0617 171.115C75.1401 170.785 75.2344 170.343 75.348 169.812C75.9018 167.225 76.9114 162.506 78.7487 158.013C81.601 151.038 85.592 144.533 90.1363 138.938C92.3495 136.213 94.6371 133.616 96.6422 131.34L96.8833 131.066C99.0338 128.624 100.876 126.523 102.58 124.407C105.939 120.235 110.151 117.563 112.252 116.27C114.243 115.046 115.039 114.608 115.584 114.307C116.051 114.05 116.334 113.894 117.027 113.432C119.036 112.092 121.143 110.549 123.648 108.695C123.868 108.532 124.091 108.367 124.317 108.199C126.553 106.543 129.104 104.653 131.721 102.844C137.42 98.9055 144.78 94.3725 153.493 91.8419C157.604 90.6481 161.323 90.0677 164.852 89.8056C165.273 89.5881 165.648 89.4054 165.898 89.2956C166.409 89.092 167.313 88.7727 167.702 88.6505C168.523 88.4029 169.186 88.2636 169.517 88.1984C169.896 88.1235 170.209 88.0736 170.413 88.0431C171.076 87.9446 171.609 87.9028 171.731 87.8934L171.74 87.8926C171.942 87.8767 172.107 87.867 172.197 87.8619C172.513 87.8442 172.805 87.8352 172.919 87.8317C173.509 87.8139 174.456 87.797 175.302 87.7864C176.089 87.7767 177.181 87.767 177.939 87.7804H177.946C178.097 87.7831 178.574 87.7914 179.12 87.8277C179.283 87.8387 179.554 87.8587 179.885 87.8936C180.129 87.9192 180.833 87.9956 181.718 88.1758C182.135 88.2609 183.036 88.4564 184.137 88.8367C184.699 89.0308 185.582 89.3636 186.61 89.8905C187.055 90.1255 188.014 90.6859 188.526 91.0164C189.135 91.4408 190.432 92.4726 191.109 93.0901C192.916 94.8198 195.807 98.2971 196.725 103.658C196.959 105.661 196.8 109.637 196.416 111.568C195.904 113.257 194.556 116.228 193.77 117.507C193.055 118.504 191.601 120.186 190.889 120.883C190.287 121.418 189.138 122.323 188.597 122.702C187.366 123.534 186.282 124.055 185.63 124.343C184.346 124.911 183.281 125.209 182.833 125.328C182.283 125.475 181.831 125.57 181.552 125.624C181.182 125.696 180.862 125.747 180.628 125.781C179.949 126.042 178.752 126.485 177.374 126.859C175.649 127.328 173.331 127.786 170.588 127.786C167.442 127.786 165.882 127.993 164.132 128.501C161.334 129.314 157.988 131.087 153.411 134.251C151.336 135.685 149.284 137.204 146.961 138.925C146.758 139.075 146.553 139.227 146.345 139.381C143.881 141.205 141.079 143.269 138.193 145.194C136.882 146.068 135.549 146.848 134.638 147.377C134.428 147.5 134.233 147.612 134.052 147.718C133.308 148.149 132.778 148.457 132.237 148.789C131.976 148.95 131.777 149.077 131.629 149.176C129.529 151.742 127.397 154.163 125.514 156.302L125.48 156.339C123.322 158.79 121.476 160.886 119.751 163.009C117.366 165.946 115.382 169.248 114.066 172.467C113.604 173.597 113.477 174.176 113.108 175.87C112.907 176.795 112.633 178.053 112.193 179.913C111.593 182.447 110.85 184.79 110.283 186.549C110.175 186.882 110.075 187.193 109.98 187.486C109.656 188.489 109.4 189.28 109.178 190.015C109.185 190.372 109.202 190.786 109.231 191.489L109.232 191.516C109.26 192.207 109.305 193.277 109.305 194.394C109.305 200.427 109.623 206.289 110.246 212.301C110.262 212.339 110.279 212.379 110.297 212.419C110.463 212.805 110.632 213.157 110.758 213.401C110.76 213.404 110.762 213.409 110.764 213.412C112.622 216.197 113.652 218.853 114.262 221.112C114.376 221.294 114.495 221.49 114.618 221.699C114.948 222.257 115.353 222.986 115.757 223.853C116.153 224.703 116.797 225.79 118.155 227.906C118.269 228.084 118.392 228.274 118.521 228.475C119.673 230.262 121.374 232.902 122.819 235.682C124.462 238.844 126.598 242.38 128.78 245.685C131.107 249.21 132.911 252.725 134.382 255.961C134.73 256.728 134.997 257.428 135.195 257.997C135.506 258.407 135.764 258.775 135.971 259.08C136.219 259.448 136.455 259.818 136.667 260.167C136.733 260.218 136.796 260.267 136.858 260.317C137.566 260.88 138.711 261.823 139.87 263.03C140.459 263.643 141.293 264.569 142.135 265.771C142.22 265.892 142.312 266.026 142.41 266.173C142.428 266.189 142.446 266.206 142.465 266.222C142.738 266.468 143.157 266.85 143.619 267.312C144.838 268.531 145.768 269.699 146.42 270.581C147.028 271.4 147.547 272.181 147.819 272.589L147.847 272.631C147.953 272.792 148.027 272.902 148.088 272.994C148.185 273.096 148.277 273.194 148.368 273.289C149.301 274.275 149.935 274.943 150.563 275.568C151.27 276.269 151.608 276.546 151.751 276.655C151.785 276.68 151.806 276.696 151.817 276.703M131.27 149.426C131.273 149.423 131.276 149.421 131.279 149.419C131.257 149.436 131.253 149.439 131.27 149.426ZM77.2395 230.249C77.2397 230.249 77.2429 230.267 77.2486 230.303C77.2424 230.268 77.2395 230.251 77.2395 230.249ZM99.0279 270.146C99.0285 270.149 99.0293 270.152 99.03 270.153C98.981 269.994 98.9804 269.972 99.0279 270.146ZM113.132 290.214C113.172 290.246 113.166 290.241 113.121 290.205C113.125 290.208 113.129 290.211 113.132 290.214ZM264.633 317.339C264.629 317.339 264.637 317.336 264.655 317.331C264.642 317.336 264.634 317.337 264.633 317.339ZM194.191 86.3184C194.191 96.8597 202.733 105.405 213.27 105.405L194.191 86.3184ZM213.27 105.405C220.355 105.405 225.616 106.08 232.304 107.886L213.27 105.405ZM232.304 107.886C232.758 108.009 233.201 108.129 233.633 108.245L232.304 107.886ZM233.633 108.245C238.704 109.611 242.362 110.597 246.057 112.044L233.633 108.245ZM246.057 112.044C247.433 112.582 248.819 113.432 251.774 116.05L246.057 112.044ZM251.774 116.05C253.389 117.482 254.811 118.713 256.08 119.812L251.774 116.05ZM256.08 119.812C260.014 123.219 262.464 125.341 264.596 128.153L256.08 119.812ZM264.596 128.153C270.938 136.515 275.662 143.194 278.945 150.668L264.596 128.153ZM278.945 150.668C279.925 152.9 280.797 154.804 281.584 156.521L278.945 150.668ZM281.584 156.521C283.217 160.087 284.483 162.852 285.589 166.085L281.584 156.521ZM285.589 166.085C286.4 168.455 287.101 170.994 287.911 174.055L285.589 166.085ZM287.911 174.055C288.025 174.488 288.143 174.938 288.264 175.4L287.911 174.055ZM288.264 175.4C288.951 178.01 289.748 181.045 290.658 184.028L288.264 175.4ZM290.658 184.028C291.794 187.754 292.143 191.365 292.669 196.798L290.658 184.028ZM292.669 196.798C292.857 198.738 293.069 200.911 293.345 203.405L292.669 196.798ZM293.345 203.405C293.976 209.085 293.651 211.767 293.24 212.829L293.345 203.405ZM293.24 212.829C289.026 223.717 286.164 235.167 284.049 245.752L293.24 212.829ZM284.049 245.752C282.838 251.808 278.742 257.956 273.369 261.736L284.049 245.752ZM273.369 261.736C273.308 261.768 273.232 261.809 273.139 261.859C273.098 261.881 273.048 261.908 272.989 261.938C272.5 262.198 271.431 262.767 270.411 263.386C269.308 264.055 267.249 265.375 265.237 267.402C263.316 269.334 260.325 273.033 259.27 278.558C259.257 278.581 259.241 278.605 259.224 278.63C259.138 278.759 259.026 278.909 258.894 279.067C258.76 279.225 258.62 279.373 258.481 279.505C258.438 279.545 258.398 279.584 258.36 279.617C257.734 279.754 256.51 280.024 255.809 280.194C254.513 280.511 252.491 281.053 250.309 281.986C248.588 282.723 246.35 283.875 244.107 285.704L243.512 285.985C243.236 286.115 242.88 286.284 242.502 286.472C242.126 286.657 241.651 286.9 241.133 287.185C239.107 288.299 237.512 289.018 236.33 289.43C236.124 289.42 235.896 289.407 235.592 289.391C235.436 289.383 235.26 289.374 235.056 289.363C234.36 289.326 233.273 289.272 232.11 289.272C232.044 289.272 231.974 289.272 231.901 289.272C230.322 289.27 226.926 289.264 223.343 290.195C220.102 291.037 217.495 292.387 215.407 293.771C215.133 293.825 214.801 293.889 214.374 293.969C213.97 294.047 213.444 294.146 212.911 294.254C212.472 294.345 211.944 294.456 211.375 294.592C211.311 294.595 211.225 294.598 211.117 294.601C210.79 294.608 210.385 294.606 209.734 294.598C209.629 294.597 209.509 294.595 209.38 294.592C209.063 294.587 208.68 294.582 208.279 294.578C208.033 294.509 207.652 294.401 207.103 294.232C207.007 294.203 206.897 294.168 206.778 294.131C205.01 293.581 200.634 292.216 195.608 292.216C192.986 292.216 189.96 291.757 186.586 290.818C186.47 290.748 186.279 290.629 185.997 290.439C185.721 290.254 185.42 290.045 184.997 289.75L184.844 289.645C184.48 289.39 184.017 289.068 183.549 288.747C182.441 287.993 180.989 287.037 179.264 286.079C177.799 285.264 176.481 284.712 175.629 284.376C175.299 284.245 174.991 284.127 174.747 284.036C173.165 282.939 171.488 281.981 170.102 281.275C169.042 280.735 167.665 280.091 166.126 279.536C165.036 279.142 162.044 278.099 158.318 278.082" fill="#FCFF56"/>
<path fill-rule="evenodd" clip-rule="evenodd" d="M245.783 280.672C248.221 280.672 250.199 278.874 250.199 276.656C250.199 266.225 247.671 255.741 241.82 246.341C237.797 239.882 232.062 233.017 225.015 227.719C217.974 222.428 209.337 218.496 199.641 218.496C193.584 218.496 188.43 221.107 184.516 224.478C180.607 227.845 177.649 232.192 175.851 236.355C171.168 247.194 170.518 258.259 170.518 269.076C170.518 271.295 172.495 273.092 174.934 273.092C177.372 273.092 179.349 271.295 179.349 269.076C179.349 258.453 180.025 248.66 184.071 239.292C185.469 236.057 187.756 232.75 190.589 230.31C193.418 227.874 196.508 226.528 199.641 226.528C206.631 226.528 213.341 229.366 219.388 233.911C225.428 238.45 230.516 244.489 234.134 250.3C239.125 258.314 241.367 267.394 241.367 276.656C241.367 278.874 243.345 280.672 245.783 280.672Z" fill="black"/>
<path fill-rule="evenodd" clip-rule="evenodd" d="M220.651 156.682C223.131 156.682 225.141 158.692 225.141 161.173C225.141 165.697 224.986 170.228 224.836 174.663L224.835 174.673C224.683 179.137 224.535 183.5 224.535 187.814C224.535 190.293 222.526 192.304 220.046 192.304C217.566 192.304 215.557 190.293 215.557 187.814C215.557 183.344 215.71 178.848 215.859 174.432L215.863 174.368C216.014 169.906 216.162 165.523 216.162 161.173C216.162 158.692 218.172 156.682 220.651 156.682Z" fill="black"/>
<path fill-rule="evenodd" clip-rule="evenodd" d="M189.784 161.525C192.264 161.525 194.273 163.537 194.273 166.016V184.787C194.273 187.266 192.264 189.278 189.784 189.278C187.306 189.278 185.295 187.266 185.295 184.787V166.016C185.295 163.537 187.306 161.525 189.784 161.525Z" fill="black"/>
<path fill-rule="evenodd" clip-rule="evenodd" d="M152.546 78.4617C163.411 73.9214 175.086 70.5137 185.193 70.5137C199.625 70.5137 213.335 72.0314 227.336 73.6988C238.772 75.0608 252.069 80.0163 263.895 87.0307C264.95 87.6565 265.997 88.3009 267.035 88.9634C267.067 88.9284 267.102 88.8936 267.135 88.8593C268.888 87.1055 271.731 87.1055 273.484 88.8593C277.06 92.437 281.142 95.8433 285.483 99.3776C286.128 99.9029 286.78 100.431 287.437 100.964C291.142 103.968 294.989 107.089 298.627 110.378C307.212 118.135 315.196 127.304 318.616 139.726C320.166 145.362 322.13 150.68 324.154 156.164C324.775 157.848 325.403 159.548 326.026 161.278C328.635 168.521 331.094 176.108 332.213 184.39C334.933 204.527 332.112 227.303 327.143 246.437C322.198 265.486 310.24 284.521 297.938 299.134C285.193 314.276 268.053 331.632 247.338 337.911C225.368 344.572 198.635 341.065 177.749 335.593C172.718 334.275 168.093 332.213 163.77 330.05C161.789 329.058 159.988 328.11 158.233 327.187C155.928 325.972 153.702 324.8 151.257 323.632C149.135 322.616 146.971 321.608 144.785 320.593C133.803 315.485 122.24 310.107 112.343 301.908C78.3395 273.737 59.6617 235.775 60.1196 191.805C60.5654 148.989 90.8709 116.032 123.101 94.3029C131.061 88.9362 141.6 83.0358 152.546 78.4617ZM293.054 117.446C292.737 118.505 292.033 119.451 291.001 120.048C288.855 121.291 286.109 120.558 284.868 118.411C279.821 109.692 270.37 101.313 259.317 94.757C248.292 88.2184 236.186 83.7983 226.275 82.6178C212.27 80.95 199.035 79.4956 185.193 79.4956C176.834 79.4956 166.45 82.3853 156.007 86.7496C145.644 91.0798 135.624 96.6908 128.118 101.751C96.7506 122.899 69.4969 153.539 69.0974 191.899C68.6695 232.999 86.0233 268.441 118.07 294.991C126.993 302.383 137.313 307.193 148.273 312.303C150.534 313.356 152.822 314.423 155.131 315.528C157.59 316.704 160.209 318.079 162.732 319.404C164.491 320.327 166.205 321.226 167.786 322.017C171.894 324.073 175.876 325.817 180.025 326.905C200.396 332.242 225.162 335.249 244.734 329.315C262.723 323.863 278.405 308.397 291.072 293.349C302.893 279.306 313.969 261.457 318.453 244.18C323.237 225.753 325.83 204.21 323.315 185.594C322.329 178.284 320.138 171.424 317.58 164.323C317.009 162.74 316.417 161.135 315.816 159.507C313.765 153.956 311.621 148.152 309.959 142.111C307.263 132.314 300.954 124.656 293.054 117.446Z" fill="black"/>
</g>
<defs>
<clipPath id="clip0_587_6811">
<rect width="400" height="389" fill="white" transform="translate(0 0.0820312)"/>
</clipPath>
</defs>
</svg>
