<svg width="400" height="389" viewBox="0 0 400 389" fill="none" xmlns="http://www.w3.org/2000/svg">
<g clip-path="url(#clip0_587_6832)">
<path fill-rule="evenodd" clip-rule="evenodd" d="M138.479 132.802C134.518 129.783 131.723 125.203 131.06 119.825C130.083 111.904 134.009 104.508 140.436 100.767C140.66 100.541 140.931 100.269 141.216 99.9928C141.618 99.6024 142.183 99.067 142.848 98.5004C143.482 97.9608 144.48 97.1573 145.754 96.3622C147.616 95.201 148.606 94.6304 149.252 94.2574C149.948 93.8565 150.247 93.6838 150.809 93.2509C156.404 88.9357 163.278 85.6871 167.58 83.6543C168.491 83.2237 169.287 82.8474 169.93 82.5274C182.52 76.2674 196.353 73.0227 211.458 74.678C224.327 76.0884 236.234 83.4098 242.69 87.4723C250.383 92.3121 257.321 98.6241 262.703 103.52C263.896 104.606 265.013 105.621 266.044 106.536C276.727 116.012 285.747 126.523 293.776 137.68C303.345 150.98 312.094 165.309 318.952 181.092C325.345 195.811 330.597 210.932 333.689 227.628C335.075 235.108 336.809 246.988 334.894 257.925C330.931 280.564 315.026 295.009 301.384 304.058C290.467 311.297 276.727 312.772 269.352 313.563C268.801 313.623 268.285 313.678 267.81 313.731C263.263 314.244 258.618 314.574 253.721 314.574C253.59 314.574 253.323 314.582 252.536 314.624C252.475 314.627 252.407 314.63 252.336 314.633C251.686 314.667 250.672 314.722 249.643 314.742C247.559 314.782 243.397 314.772 238.918 313.258C222.762 307.799 207.789 300.597 193.565 293.146C187.482 292.77 182.353 291.103 178.359 289.494C176.149 288.603 174.054 287.629 172.414 286.866L172.404 286.863L172.39 286.856C170.619 286.033 169.304 285.421 167.996 284.881C164.296 283.35 160.443 282.011 155.959 280.453L155.634 280.34C153.614 279.638 151.462 278.889 149.242 278.079C145.707 277.52 142.23 276.934 138.826 276.347C130.88 274.976 123.325 271.512 117.414 265.175C111.62 258.966 108.756 251.443 107.507 244.266C106.443 238.157 105.59 231.547 104.81 225.514C104.44 222.647 104.087 219.911 103.736 217.419C102.759 210.489 102.947 202.958 105.181 195.591C96.5002 193.832 89.959 186.063 89.959 176.747C89.959 166.221 98.3047 157.673 108.654 157.529C108.763 157.511 109.152 157.45 109.941 157.27C110.42 157.16 110.826 157.061 111.346 156.934C111.634 156.864 111.957 156.785 112.346 156.691C113.277 156.467 114.518 156.176 115.842 155.93C117.429 155.636 118.921 155.368 120.346 155.113C121.843 152.219 123.571 149.415 125.472 146.748C126.363 145.352 127.392 143.991 128.577 142.698C131.626 138.995 134.988 135.645 138.479 132.802ZM277.965 232.971C277.986 232.947 278.007 232.921 278.028 232.897L278.03 232.895C278.094 232.819 279.389 231.284 277.953 225.659C278.031 228.096 278.036 230.537 277.965 232.971ZM224.735 226.9C225.377 227.362 226.034 227.815 226.706 228.264C227.63 226.656 228.434 224.989 229.135 223.231C227.771 224.589 226.295 225.815 224.735 226.9Z" fill="#FCFF56"/>
<path fill-rule="evenodd" clip-rule="evenodd" d="M163.746 106.371C163.775 108.692 163.794 111.075 163.794 113.527C163.794 124.087 155.25 132.647 144.71 132.647C134.171 132.647 125.627 124.087 125.627 113.527C125.627 110.291 125.554 106.788 125.478 103.082C125.13 86.2193 124.695 65.1591 130.593 45.9548C131.449 43.1669 131.977 40.0631 132.581 35.7044C132.653 35.1867 132.727 34.641 132.804 34.0711C133.276 30.587 133.87 26.1989 134.841 21.7816L134.843 21.7554L134.844 21.7407C134.908 21.0465 135.053 19.4713 135.368 17.7917C135.372 17.7689 135.376 17.7444 135.381 17.7179C135.584 16.6318 136.355 12.4906 139.123 8.5486C140.759 6.21817 144.151 2.45877 149.931 0.784546C156.063 -0.991752 161.428 0.55836 164.827 2.36128C166.849 3.43372 168.284 4.64379 169.087 5.37938C169.955 6.17509 170.626 6.92162 171.082 7.46071C171.974 8.51451 172.658 9.50542 173.047 10.0861C173.453 10.6919 173.808 11.2632 173.99 11.5554L174.006 11.5803C174.053 11.6543 174.088 11.7124 174.117 11.7567C175.392 13.6069 176.61 15.5166 177.601 17.0726C177.808 17.3986 178.008 17.709 178.194 18.0002C179.421 19.9163 180.366 21.3393 181.306 22.5804C186.845 29.8912 191.964 38.2163 196.421 45.4626C197.937 47.9282 199.376 50.269 200.729 52.4023C202.663 55.4525 204.008 58.4833 204.812 60.2987L204.849 60.3826C205.82 62.5714 206.154 63.2988 206.502 63.8896C207.404 65.4119 208.04 66.8105 208.472 67.8356C208.816 68.6527 209.142 69.5104 209.312 69.9601C209.339 70.03 209.362 70.09 209.381 70.1386C209.394 70.1716 209.405 70.2025 209.416 70.2319C212.758 75.3501 214.504 80.5729 215.6 84.4125C215.635 84.5355 215.682 84.6876 215.781 85.0009C215.789 85.0239 215.797 85.0533 215.808 85.0883C215.894 85.3495 216.077 85.9198 216.231 86.4518C216.233 86.4552 216.234 86.4639 216.239 86.4779C216.376 86.8945 218.025 91.9302 216.607 97.7082C215.657 101.577 213.535 105.226 210.298 108.031C210.183 108.131 210.067 108.229 209.951 108.325C211.33 109.79 212.767 110.998 214.353 111.999C219.842 115.461 228.057 117.646 236.469 117.99C236.798 118.003 237.314 118.021 237.948 118.034C238.226 117.705 238.509 117.394 238.792 117.101C241.516 114.275 244.429 112.932 245.63 112.416C247.094 111.787 248.398 111.41 249.169 111.203C249.996 110.981 250.755 110.814 251.233 110.712C251.502 110.654 251.664 110.62 251.78 110.595C252.939 110.134 253.996 109.813 254.885 109.582C255.492 109.424 256.07 109.296 256.554 109.199C257.407 108.736 258.909 107.961 260.896 107.305C261.863 106.766 263.11 106.164 264.592 105.661C266.856 104.892 269.023 104.561 270.984 104.467C271.527 104.108 272.025 103.804 272.451 103.551C274.616 102.27 276.835 101.251 278.755 100.47C282.472 98.958 286.621 97.715 289.953 97.1083C290.547 97 290.947 96.8674 292.229 96.4426C292.849 96.2371 293.677 95.9631 294.832 95.5904C297.608 94.6949 302.409 93.2272 308.154 93.2272H328.109C329.084 93.2272 329.958 93.2814 330.544 93.3248C330.96 93.3556 331.373 93.392 331.731 93.4252C332.633 92.9226 334.189 92.157 336.181 91.6326C338.035 91.1449 348.403 88.886 355.85 98.0712C358.981 101.933 359.816 105.977 360.038 108.329C360.261 110.699 359.993 112.595 359.804 113.618C359.431 115.638 358.811 117.13 358.597 117.634C358.143 118.705 357.674 119.528 357.497 119.833C356.091 123.059 354.295 125.24 353.524 126.165C353.198 126.556 352.901 126.897 352.702 127.122C352.538 127.309 352.462 127.393 352.398 127.465C351.698 128.48 350.972 129.543 350.22 130.643C346.758 135.709 342.771 141.542 338.438 146.915C338.109 147.322 337.63 147.96 337.029 148.761C334.663 151.916 330.404 157.593 326.006 161.587C324.7 162.773 323.391 164.018 322.017 165.348C321.805 167.636 321.232 169.428 320.832 170.489C319.458 174.136 317.269 176.57 316.713 177.187L316.678 177.227C315.772 178.236 314.697 179.239 313.659 180.133C314.257 180.951 314.87 181.795 315.49 182.662C319.741 184.047 323.508 186.917 325.948 190.994C329.704 193.811 332.226 197.102 333.542 198.89C334.583 200.306 335.495 201.686 336.165 202.709C336.369 203.022 336.544 203.29 336.698 203.526C337.132 204.193 337.394 204.593 337.657 204.972C338.215 205.776 338.747 206.509 339.249 207.176C339.478 207.237 339.712 207.3 339.951 207.363C340.631 207.542 341.439 207.747 342.334 207.973C345.14 208.682 348.796 209.605 352.009 210.646C355.286 211.708 358.159 213.032 360.131 213.948C360.355 214.052 360.567 214.15 360.769 214.244C362.612 215.102 363.64 215.58 364.711 215.984C366.396 216.616 367.892 217.309 369.033 217.859C369.621 218.143 370.547 218.607 371.209 218.936C371.518 219.091 371.768 219.215 371.9 219.28C372.893 219.769 373.346 219.951 373.455 219.996C376.258 220.649 378.523 221.636 379.633 222.13C379.767 222.154 379.913 222.18 380.067 222.213L380.094 222.217C380.404 222.279 381.818 222.558 383.497 223.238C384.572 223.712 387.45 225.415 389.14 226.779C389.461 227.145 389.789 227.599 390.119 228.127C390.385 228.311 390.681 228.524 390.988 228.761C390.991 228.764 390.997 228.769 391.007 228.776C391.246 228.956 393.388 230.567 395.198 233.293C395.931 234.397 399.09 239.245 398.253 246.18C397.14 255.389 390.425 260.02 386.395 261.636C383.362 262.851 380.71 263.02 379.772 263.069C378.501 263.135 377.405 263.083 376.678 263.032C375.206 262.927 373.836 262.715 372.893 262.554C370.935 262.217 369.105 261.789 368.443 261.631C368.186 261.569 367.603 261.476 365.452 261.311C365.31 261.3 365.158 261.289 364.996 261.277C363.227 261.145 360.186 260.921 357.114 260.304C357.206 260.323 357.023 260.268 355.77 260.236C355.458 260.228 355.151 260.222 354.739 260.214C354.353 260.205 353.89 260.194 353.404 260.18C352.429 260.151 351.208 260.096 349.855 259.967C347.993 259.789 346.412 259.437 345.246 259.127C344.122 258.829 343.127 258.499 342.608 258.328L342.604 258.327C342.457 258.277 342.347 258.241 342.253 258.21C342.009 258.202 341.641 258.198 341.111 258.206C340.605 258.214 340.112 258.228 339.463 258.249C339.318 258.252 339.168 258.257 339.007 258.262C338.2 258.286 337.171 258.315 336.091 258.315C335.055 258.315 333.664 258.351 332.046 258.391C327.484 258.507 321.126 258.667 315.889 258.21C315.887 258.21 315.878 258.21 315.861 258.209C315.601 258.189 313.606 258.044 311.788 257.741C310.751 257.568 309.18 257.258 307.434 256.666C306.082 256.206 303.394 255.181 300.666 252.989C300.377 252.784 299.661 252.266 298.975 251.702C298.555 251.357 297.67 250.61 296.716 249.564C296.703 249.549 296.689 249.533 296.673 249.515C296.114 248.908 293.333 245.88 292.138 241.036C291.391 238.008 291.082 233.473 293.208 228.646C293.629 227.689 294.106 226.81 294.623 226.006C291.984 223.938 289.418 221.727 286.959 219.362C281.63 214.241 278.027 211.522 275.503 210.447C275.052 210.386 274.488 210.305 273.98 210.221C273.007 210.058 270.986 209.695 268.772 208.869C267.622 208.439 265.94 207.711 264.138 206.496C262.342 205.284 259.876 203.211 257.943 199.92C256.968 198.259 255.33 194.975 255.139 190.523C254.915 185.308 256.772 180.054 260.594 176.083C263.87 172.682 267.505 171.339 269.415 170.789C269.992 170.622 270.546 170.492 271.068 170.387C271.338 169.636 271.661 168.874 272.045 168.106C274.141 163.903 277.248 160.641 279.42 158.62C280.107 156.328 281.089 154.625 281.372 154.135L281.38 154.12C282.027 152.997 282.833 151.833 283.229 151.261C283.256 151.223 283.28 151.187 283.302 151.154C286.343 146.755 289.927 143.273 292.213 141.052C292.462 140.811 292.695 140.584 292.91 140.372C294.877 138.446 297.068 136.301 299.367 134.176C298.554 134.376 297.688 134.566 296.78 134.731C296.782 134.731 296.782 134.731 296.78 134.731C296.764 134.734 296.639 134.759 296.404 134.818C296.149 134.881 295.825 134.969 295.449 135.082C294.678 135.313 293.853 135.6 293.111 135.902C292.888 135.993 292.687 136.078 292.512 136.157C289.73 138.814 286.758 140.222 284.727 140.971C282.149 141.923 279.797 142.29 278.255 142.461C277.484 142.547 276.678 142.602 275.916 142.636C275.461 142.827 274.988 143.008 274.496 143.178C274.194 143.282 273.892 143.379 273.592 143.469C273.45 143.547 273.294 143.632 273.129 143.72C272.763 143.916 272.318 144.146 271.81 144.386C270.967 144.785 270.159 145.109 269.408 145.372C267.889 147.576 266.125 149.257 264.602 150.406C261.264 152.923 257.812 154.04 255.95 154.56C253.789 155.163 251.688 155.51 249.969 155.728C243.49 156.549 236.204 156.251 234.922 156.198L234.912 156.198C222.025 155.671 206.75 152.39 194.017 144.358C178.949 134.853 170.673 119.334 165.309 109.274C164.912 108.533 164.533 107.821 164.168 107.144C164.035 106.898 163.895 106.64 163.746 106.371ZM195.187 74.9295C195.192 74.9317 195.111 74.9366 194.935 74.9372C195.094 74.9275 195.182 74.9272 195.187 74.9295ZM272.175 207.786C272.149 207.778 272.123 207.771 272.098 207.763L272.114 207.768C272.133 207.773 272.154 207.779 272.175 207.786ZM311.396 255.365H311.065C311.079 255.365 311.097 255.366 311.118 255.366C311.179 255.366 311.274 255.366 311.396 255.365ZM323.574 189.43C323.569 189.427 323.566 189.424 323.563 189.422C323.704 189.519 323.712 189.533 323.574 189.43ZM276.655 210.606C276.65 210.607 276.58 210.596 276.456 210.575C276.599 210.594 276.661 210.606 276.655 210.606ZM301.025 253.249C301.021 253.247 300.968 253.208 300.88 253.142C300.984 253.216 301.028 253.25 301.025 253.249ZM252.687 110.391C252.695 110.392 252.605 110.417 252.398 110.463C252.576 110.413 252.681 110.39 252.687 110.391ZM239.155 144.989C239.187 145.02 239.212 145.046 239.232 145.066L239.24 145.074C239.212 145.046 239.184 145.018 239.155 144.989Z" fill="#FCFF56"/>
<path fill-rule="evenodd" clip-rule="evenodd" d="M259.358 293.684C259.358 283.032 267.915 274.398 278.471 274.398C284.519 274.398 289.538 277.091 292.879 280.582C295.745 283.579 297.04 286.759 297.616 288.433C298.749 291.723 298.958 294.851 299.031 296.026C299.088 296.889 299.118 297.88 299.138 298.602C300.513 302.905 302.646 307.344 305.531 312.583C307.656 316.443 310.394 320.271 313.836 324.815C314.937 326.266 315.772 327.596 316.28 328.413C316.424 328.645 316.542 328.833 316.638 328.988C316.946 329.486 317.044 329.643 317.186 329.85C317.627 330.495 318.288 331.494 318.913 332.689C318.916 332.697 318.924 332.71 318.935 332.729C319.195 333.207 321.272 337.008 321.285 342.099C321.293 345.472 320.338 351.742 314.811 356.682C309.64 361.305 303.894 361.633 301.403 361.551C297.144 361.409 293.929 359.806 293.472 359.577C293.452 359.567 293.438 359.56 293.43 359.556C291.876 358.807 290.461 357.867 290.156 357.664C290.137 357.651 290.121 357.641 290.111 357.633C289.88 357.483 289.74 357.391 289.663 357.341C287.001 355.827 283.902 354.436 279.999 352.809C279.213 352.483 278.37 352.135 277.484 351.771C274.231 350.434 270.415 348.865 266.853 347.18C263.766 345.719 260.558 344.554 256.397 343.043C255.476 342.707 254.509 342.357 253.486 341.981C248.344 340.094 241.912 337.631 235.753 333.977C234.901 333.472 233.698 332.926 231.528 332.146C231.099 331.995 230.461 331.775 229.701 331.514C227.82 330.868 225.197 329.969 223.186 329.18C223.168 329.173 223.057 329.136 222.807 329.076C222.453 328.994 221.971 328.9 221.113 328.758C220.948 328.731 220.747 328.699 220.517 328.662C218.942 328.413 215.97 327.94 213.064 327.102C202.914 324.178 197.038 313.503 199.938 303.262C202.837 293.022 213.415 287.092 223.565 290.018C224.084 290.167 224.522 290.239 226.185 290.512C226.509 290.567 226.882 290.628 227.311 290.699C229.47 291.056 233.094 291.684 237.036 293.232C238.394 293.763 239.375 294.095 240.651 294.528C241.611 294.854 242.741 295.235 244.321 295.801C247.314 296.875 251.178 298.384 255.134 300.733C256.85 301.751 258.799 302.679 261.136 303.646C261.099 303.301 261.076 303.026 261.062 302.842C261.022 302.352 260.996 301.877 260.978 301.467C259.938 299.086 259.358 296.454 259.358 293.684ZM311.234 325.482C311.235 325.485 311.199 325.461 311.112 325.406C311.187 325.453 311.231 325.48 311.234 325.482ZM260.887 298.512C260.855 298.248 260.868 298.216 260.885 298.499C260.885 298.504 260.887 298.507 260.887 298.512Z" fill="#FCFF56"/>
<path fill-rule="evenodd" clip-rule="evenodd" d="M122.101 255.47C127.981 246.689 139.899 244.316 148.72 250.169C161.453 258.62 166.554 272.035 169.002 281.922C170.878 289.497 171.82 298.045 172.473 303.988C172.657 305.659 172.817 307.123 172.97 308.303C173.473 312.18 173.759 315.167 173.998 317.694C174.035 318.071 174.07 318.438 174.104 318.796C177.603 315.698 181.42 314.181 182.968 313.589C185.415 312.653 187.807 312.026 189.598 311.657C203.792 308.734 217.889 308.8 229.921 308.855C231.526 308.863 233.093 308.871 234.62 308.871C245.22 308.871 253.815 317.426 253.815 327.977C253.815 338.53 245.22 347.085 234.62 347.085C232.944 347.085 231.315 347.082 229.728 347.077C218.274 347.048 209 347.023 199.808 348.62C198.986 349.826 197.943 351.152 196.661 352.429C192.761 356.313 188.661 359.857 184.665 363.061C184.628 363.097 184.586 363.137 184.541 363.181L184.518 363.202C184.126 363.576 183.404 364.267 182.608 364.967C181.91 365.584 180.528 366.77 178.819 367.86C177.985 368.389 176.42 369.324 174.343 370.063C172.663 370.66 167.938 372.137 162.152 370.491C159.296 369.679 157.141 368.385 155.706 367.334C154.274 366.283 153.224 365.231 152.55 364.493C151.831 363.704 151.232 362.927 150.81 362.345C146.317 358.033 143.822 352.754 142.663 350.16C140.873 346.15 139.626 342.157 138.917 339.66C136.791 332.174 135.982 323.89 135.402 317.949C135.222 316.107 135.064 314.491 134.896 313.193C134.567 310.658 134.306 308.299 134.058 306.061C133.459 300.663 132.937 295.948 131.729 291.072C130.065 284.356 128.143 282.443 127.425 281.967C118.604 276.112 116.22 264.25 122.101 255.47ZM157.142 336.37C157.096 336.411 157.074 336.43 157.074 336.428C157.075 336.427 157.098 336.407 157.142 336.37Z" fill="#FCFF56"/>
<path fill-rule="evenodd" clip-rule="evenodd" d="M92.8972 214.915C92.7669 214.365 92.6114 213.816 92.43 213.269C89.098 203.219 78.2932 197.789 68.2969 201.139C61.3015 203.482 57.2946 208.672 55.3735 213.057C55.2273 213.39 55.0914 213.722 54.9653 214.052C54.9014 214.094 54.8379 214.136 54.7751 214.178C53.5449 214.997 52.5356 215.671 51.9203 216.056C44.035 221.012 37.4713 227.431 32.3672 233.114C25.2977 240.986 17.2699 249.941 10.347 259.907C10.3344 259.923 10.1438 260.181 9.45627 261.022C9.36591 261.134 9.26408 261.258 9.15298 261.393C8.58689 262.083 7.78056 263.066 7.02903 264.037C6.11524 265.217 4.91659 266.841 3.80781 268.713C2.77107 270.463 1.26365 273.331 0.46289 276.953C-1.0043 283.591 1.1236 290.095 5.32863 294.529C8.56448 297.942 12.137 299.223 13.4457 299.651C16.2241 300.561 18.6765 300.655 19.2962 300.678C19.3128 300.679 19.328 300.679 19.342 300.681C19.756 300.697 20.1475 300.702 20.4811 300.7C25.8493 301.289 31.6859 301.838 38.0251 301.838C45.2378 301.838 52.2904 301.357 58.6207 300.925L58.8856 300.907C65.4945 300.455 71.3496 300.063 77.143 300.063H119.074C129.611 300.063 138.153 291.476 138.153 280.884C138.153 270.29 129.611 261.705 119.074 261.705H117.211C116.218 256.18 113.257 252.383 111.566 250.542C109.34 248.119 106.945 246.49 105.478 245.569C105.17 245.377 104.833 245.175 104.479 244.97C102.869 242.744 101.917 241.377 101.132 239.74C100.159 237.713 99.1035 235.828 98.3337 234.457L98.1868 234.196C97.4066 232.808 96.8924 231.892 96.4374 230.99C96.151 230.424 95.9738 230.02 95.8668 229.757C95.9266 228.793 96.0418 226.687 95.8357 224.404C95.7248 223.179 95.4696 221.234 94.7467 219.036C94.3995 217.98 93.8323 216.518 92.8972 214.915ZM64.3404 262.117C63.6803 261.148 63.0578 260.125 62.4853 259.042C62.3451 258.775 62.1812 258.473 61.9987 258.138C61.917 257.986 61.8313 257.829 61.7425 257.665C61.3929 258.043 61.0423 258.427 60.6906 258.817C59.552 260.086 58.4334 261.334 57.3362 262.565C59.5925 262.412 61.9354 262.254 64.3404 262.117Z" fill="#FCFF56"/>
<path fill-rule="evenodd" clip-rule="evenodd" d="M142.125 133.429C143.687 130.652 144.579 127.442 144.579 124.023C144.579 113.471 136.089 104.917 125.617 104.917C121.335 104.917 115.532 105.979 110.454 110.337C105.462 114.62 103.681 119.948 103.008 123.275C102.697 124.815 102.551 126.284 102.488 127.538C102.211 127.476 101.93 127.412 101.643 127.346C95.5423 125.935 89.4489 124.105 82.6462 122.062L82.5396 122.029C76.0848 120.091 68.9712 117.956 61.6186 116.268C60.0128 115.478 57.3545 114.172 54.6281 113.098C51.6951 111.943 46.7153 110.223 41.069 110.223H38.3535L38.3524 148.366C38.3074 148.362 38.2623 148.356 38.2173 148.351C37.8448 148.307 37.4721 148.245 37.1032 148.166C36.3013 147.994 35.7201 147.783 35.4705 147.686C35.3903 147.655 35.3421 147.634 35.3418 147.634C35.3416 147.634 35.3502 147.637 35.3683 147.645C35.4483 147.68 35.5359 147.72 35.7836 147.831L35.8221 147.849C36.2493 148.041 37.0767 148.414 38.0486 148.792C41.3018 150.056 44.8801 151.336 48.7262 152.408C50.3264 153.162 51.7543 153.814 53.0507 154.407C54.8822 155.243 56.4515 155.961 57.8745 156.673C57.4542 157.851 57.0613 159.078 56.7283 160.324C55.1786 166.124 55.2094 171.838 55.3373 175.602C55.4232 178.135 55.522 179.665 55.6016 180.895C55.6877 182.23 55.7511 183.213 55.7511 184.748V210.097C55.7511 220.65 64.2406 229.203 74.7127 229.203C85.185 229.203 93.6743 220.65 93.6743 210.097V184.748C93.6743 182.651 93.5681 180.578 93.475 178.908C93.4534 178.52 93.4326 178.154 93.4125 177.802C93.3379 176.495 93.2761 175.41 93.2383 174.296C93.1922 172.939 93.2 171.943 93.2485 171.181C93.2904 170.527 93.3513 170.248 93.3526 170.24C93.6364 169.183 93.9776 168.46 94.976 166.339C95.1463 165.975 95.3357 165.574 95.5474 165.122C99.3209 165.929 104.142 166.768 109.231 166.896C115.409 167.049 123.65 166.21 131.421 161.49C131.432 161.483 131.515 161.437 131.753 161.302L131.794 161.279C132.074 161.121 132.59 160.83 133.131 160.504C133.705 160.159 134.523 159.647 135.417 158.996C136.273 158.372 137.541 157.373 138.84 155.983C141.018 153.651 145.47 147.625 143.973 138.991C143.602 136.849 142.924 134.998 142.125 133.429ZM140.371 129.232C140.371 129.233 140.371 129.268 140.369 129.331C140.369 129.262 140.37 129.23 140.371 129.232ZM135.739 125.911C135.733 125.905 135.735 125.907 135.743 125.915L135.739 125.911ZM67.595 162.457C67.6523 162.494 67.6334 162.486 67.554 162.431C67.5694 162.441 67.5829 162.449 67.595 162.457Z" fill="#FCFF56"/>
<path fill-rule="evenodd" clip-rule="evenodd" d="M138.011 98.4604C145.152 106.3 144.509 118.374 136.574 125.43C134.919 126.901 132.71 128.944 130.314 131.161C126.723 134.482 122.713 138.191 119.523 140.942C115.659 144.275 113.819 145.882 112.508 147.571C112.515 147.562 112.499 147.583 112.45 147.652C112.397 147.725 112.326 147.826 112.205 148.002C112.183 148.034 112.154 148.076 112.119 148.126C111.9 148.446 111.452 149.098 111.007 149.704C109.779 151.374 107.834 153.745 104.823 155.976C96.2833 162.305 84.1682 160.594 77.7633 152.157C71.7371 144.218 72.913 133.153 80.1861 126.601L80.2582 126.496C80.5922 126.012 81.1441 125.217 81.8299 124.333C85.6407 119.422 90.331 115.402 93.3106 112.849C93.5893 112.61 93.8532 112.383 94.1 112.171L106.811 126.556" fill="#FCFF56"/>
<path fill-rule="evenodd" clip-rule="evenodd" d="M61.3863 111.375C62.2592 112.122 63.9402 113.228 66.9251 114.699C69.0785 115.761 70.6965 116.468 72.558 117.281C73.993 117.907 75.5726 118.597 77.6538 119.561C81.678 121.426 85.4078 122.551 90.4497 123.545C92.1463 123.879 93.5635 124.32 94.5068 124.636C94.9811 124.795 95.4109 124.948 95.7063 125.054C95.7257 125.061 95.7445 125.068 95.7627 125.074C105.163 126.202 112.449 134.185 112.449 143.865C112.449 154.318 103.953 162.793 93.4714 162.793C89.1016 162.793 85.5686 161.622 84.0443 161.094C85.9195 164.964 87.7893 168.818 89.6555 172.65C91.326 176.08 93.0703 179.641 94.8256 183.226C96.8971 187.455 98.9842 191.716 100.984 195.832C103.086 200.156 103.909 201.61 104.825 202.655C111.727 210.522 110.928 222.479 103.04 229.363C95.1524 236.246 83.1631 235.448 76.2613 227.581C71.6769 222.356 68.8518 216.52 67.1135 212.928C67.0154 212.725 66.9206 212.53 66.8292 212.341C64.78 208.125 62.7913 204.065 60.7881 199.975C59.0571 196.442 57.3153 192.886 55.5143 189.188C52.9614 183.947 50.4366 178.735 47.9217 173.543C42.5296 162.413 37.1837 151.377 31.7069 140.346C31.6457 140.249 31.5802 140.145 31.505 140.025C31.4007 139.86 31.2782 139.665 31.1231 139.418C30.4965 138.42 29.5885 136.96 28.7032 135.417C27.9106 134.036 26.7195 131.875 25.8155 129.601C25.4117 128.585 24.6128 126.451 24.268 123.804C24.2668 123.794 24.2653 123.784 24.264 123.773C24.088 122.426 22.9007 113.34 30.6316 106.486C37.0472 100.799 44.3055 101.537 46.8126 101.998C49.6134 102.514 51.6459 103.539 52.4287 103.951C54.1877 104.878 55.4981 105.908 55.9815 106.292C57.1932 107.255 58.3081 108.312 58.9696 108.952C59.7315 109.689 60.4467 110.415 60.9371 110.916C61.1498 111.133 61.2942 111.281 61.3863 111.375ZM32.0115 140.839C32.0091 140.836 31.9811 140.791 31.935 140.712C31.9909 140.803 32.0141 140.842 32.0115 140.839ZM96.527 125.344C96.5272 125.344 96.524 125.343 96.5177 125.341C96.5238 125.343 96.527 125.344 96.527 125.344Z" fill="#FCFF56"/>
<path fill-rule="evenodd" clip-rule="evenodd" d="M172.593 28.2502C175.591 30.9847 177.515 32.6613 178.07 33.0343C180.87 34.9215 183.639 37.9107 185.981 40.7383C188.357 43.6085 190.577 46.6678 192.251 48.9751L192.301 49.044C194.103 51.5282 196.577 54.9411 198.59 58.6018C200.55 62.1684 202.41 66.557 202.41 70.9703C202.41 73.483 200.396 75.52 197.909 75.52C195.424 75.52 193.409 73.483 193.409 70.9703C193.409 68.9236 192.47 66.2029 190.722 63.0213C189.024 59.9334 186.879 56.9584 185.042 54.4252C183.34 52.0783 181.265 49.2191 179.079 46.5792C176.834 43.868 174.746 41.7309 173.077 40.6057C171.827 39.7643 169.284 37.4879 166.563 35.0066C164.73 33.3352 162.632 31.3964 160.475 29.4032C159.257 28.2775 158.02 27.1344 156.801 26.0121C154.145 23.5671 151.572 21.2166 149.397 19.2911C149.405 19.8073 149.418 20.3422 149.434 20.892C149.474 22.2227 149.521 23.309 149.568 24.3922C149.61 25.3529 149.651 26.3114 149.688 27.4359C149.749 29.3398 149.786 31.4781 149.546 33.0047C148.81 37.6765 147.564 42.4248 146.385 46.9171C146.049 48.1964 145.719 49.4549 145.407 50.685C143.957 56.41 142.845 61.7399 142.845 66.928C142.845 71.8492 141.808 76.5145 140.899 80.603L140.874 80.7134C139.922 84.9947 139.122 88.6464 139.122 92.2967C139.122 94.8096 137.107 96.8466 134.622 96.8466C132.136 96.8466 130.121 94.8096 130.121 92.2967C130.121 87.5768 131.132 83.0322 132.026 79.0133C132.048 78.9145 132.07 78.816 132.092 78.7179C133.039 74.4604 133.844 70.7242 133.844 66.928C133.844 60.5271 135.209 54.2627 136.687 48.428C137.044 47.0184 137.405 45.6427 137.759 44.292C138.915 39.8841 140 35.7447 140.656 31.575C140.737 31.062 140.759 29.8229 140.691 27.7329C140.668 27.0201 140.627 26.0362 140.583 24.9878C140.529 23.681 140.47 22.2742 140.437 21.1677C140.369 18.8886 140.347 16.4674 140.522 14.4028C140.609 13.3737 140.756 12.2848 141.027 11.276C141.267 10.3808 141.751 8.96022 142.884 7.81583C144.685 5.9942 146.905 6.50418 147.223 6.57718L147.223 6.57726C147.861 6.72374 148.361 6.97491 148.602 7.10194C149.143 7.388 149.68 7.76249 150.117 8.08473C151.043 8.76745 152.217 9.73985 153.499 10.8459C156.092 13.0818 159.462 16.1544 162.862 19.2847C164.11 20.4329 165.36 21.5883 166.582 22.7187C168.722 24.6953 170.78 26.5959 172.593 28.2502ZM149.762 13.5094C149.762 13.5105 149.757 13.5288 149.742 13.5611C149.754 13.5245 149.761 13.5083 149.762 13.5094Z" fill="black"/>
<path fill-rule="evenodd" clip-rule="evenodd" d="M18.8051 103.338C21.12 103.5 23.7935 104.227 24.9012 104.704C27.6422 105.882 30.7725 106.458 34.4422 106.991C34.9423 107.064 35.4559 107.136 35.9804 107.209C39.1106 107.649 42.6241 108.142 45.9278 109.117C59.267 113.053 73.9593 116.957 87.1044 116.957C89.5682 116.957 91.5654 118.96 91.5654 121.432C91.5654 123.904 89.5682 125.908 87.1044 125.908C72.514 125.908 56.6771 121.619 43.4102 117.705C40.7894 116.931 38.0138 116.538 34.8515 116.091C34.3012 116.013 33.7391 115.934 33.1641 115.85C31.6217 115.626 29.9972 115.374 28.3431 115.034C30.0051 116.534 31.7341 118.023 33.5148 119.556L33.7283 119.74C36.9272 122.494 40.2853 125.394 43.4069 128.577C46.9892 132.229 50.6642 135.781 54.3923 139.369C54.693 139.659 54.9942 139.949 55.2957 140.239C58.7176 143.531 62.1812 146.864 65.5903 150.285C66.8547 151.553 68.1425 153.136 69.2253 154.467C69.6827 155.029 70.1033 155.547 70.4703 155.976C71.9187 157.672 73.0954 158.763 74.3392 159.387C76.5429 160.493 77.4361 163.181 76.3343 165.393C75.2326 167.602 72.5529 168.5 70.3494 167.394C67.4634 165.946 65.3415 163.728 63.6959 161.801C63.0106 160.999 62.4361 160.289 61.9079 159.637C61.0043 158.521 60.2363 157.572 59.2814 156.614C55.9415 153.263 52.5437 149.994 49.1095 146.689C48.8119 146.402 48.5137 146.116 48.2154 145.829C44.4901 142.243 40.7304 138.61 37.0478 134.855C34.2292 131.982 31.1503 129.316 27.918 126.533C27.813 126.442 27.7076 126.352 27.6022 126.261C24.5119 123.601 21.2808 120.819 18.2811 117.81C18.0482 117.576 17.581 117.204 16.8719 116.639C16.515 116.355 16.0967 116.022 15.616 115.633C15.0107 115.144 14.3362 114.584 13.7598 114.044C13.4716 113.774 13.1516 113.456 12.8553 113.112C12.6061 112.824 12.1521 112.267 11.824 111.526C11.4211 110.617 11.0143 109.22 11.3979 107.631C11.8205 105.881 12.9841 104.762 14.0737 104.159C15.0566 103.615 16.0502 103.433 16.7333 103.36C17.4639 103.281 18.1812 103.294 18.8051 103.338ZM17.6829 112.26C17.6851 112.26 17.6875 112.26 17.6902 112.259C17.6631 112.264 17.6591 112.263 17.6829 112.26Z" fill="black"/>
<path fill-rule="evenodd" clip-rule="evenodd" d="M58.5969 227.589C61.0518 227.589 63.0422 229.592 63.0422 232.064C63.0422 233.084 63.0001 234.527 62.2451 235.981C61.8955 236.654 61.4824 237.163 61.1831 237.503C60.9948 237.719 60.7432 237.987 60.5387 238.204C60.4668 238.281 60.4006 238.352 60.345 238.412C59.1633 239.682 58.1449 241.406 56.8025 243.676C56.7029 243.843 56.6017 244.015 56.4984 244.189C55.1675 246.436 53.4187 249.349 51.0035 251.433C49.1707 253.015 47.4277 254.902 45.5672 257.021C45.1489 257.497 44.7206 257.989 44.2835 258.493C42.8419 260.152 41.3052 261.92 39.7232 263.56C38.3113 265.024 37.0329 266.455 35.6825 267.969C34.6743 269.099 33.626 270.274 32.4522 271.54C29.8865 274.308 27.0303 277.147 23.772 279.455C23.6062 279.573 23.4189 279.704 23.2154 279.846C22.6268 280.256 21.9032 280.76 21.1755 281.313C23.322 281.528 25.7251 281.53 28.4147 281.472C28.8898 281.462 29.3757 281.449 29.8706 281.436C33.7103 281.339 38.0873 281.229 42.0827 281.948C55.1493 284.296 69.7155 285.094 83.269 285.581C87.2393 285.725 91.0403 286.306 94.5543 286.843C94.8343 286.885 95.1127 286.929 95.3892 286.971C99.2181 287.552 102.751 288.046 106.398 288.046C108.853 288.046 110.843 290.05 110.843 292.522C110.843 294.993 108.853 296.996 106.398 296.996C102.009 296.996 97.8777 296.399 94.0615 295.819C93.8123 295.782 93.5645 295.743 93.3182 295.706C89.7077 295.156 86.3892 294.649 82.9518 294.525C69.368 294.037 54.2559 293.227 40.5198 290.757C37.4727 290.21 34.0586 290.291 30.0706 290.385C29.5906 290.398 29.1023 290.409 28.6053 290.419C24.2703 290.512 19.2342 290.536 14.6633 289.121C13.5285 288.769 12.1974 288.156 11.1563 286.989C9.98571 285.678 9.5246 284.049 9.66224 282.475C9.784 281.083 10.3483 279.945 10.829 279.175C11.3327 278.368 11.9422 277.649 12.5163 277.05C14.4321 275.052 17.1818 273.156 18.302 272.382C18.4502 272.279 18.5701 272.197 18.6555 272.137C21.158 270.363 23.5195 268.058 25.9529 265.434C26.8563 264.459 27.835 263.366 28.8393 262.243C30.3396 260.566 31.897 258.826 33.3461 257.324C34.751 255.869 36.0743 254.346 37.4816 252.726C37.9453 252.193 38.4183 251.649 38.9061 251.094C40.8115 248.925 42.8918 246.644 45.2176 244.638C46.3572 243.655 47.4263 242.031 48.8623 239.606C48.9858 239.397 49.1129 239.182 49.2435 238.959C50.4555 236.9 51.9714 234.322 53.8525 232.298C53.9365 232.207 54.0152 232.123 54.0862 232.048L54.1524 231.977C54.1985 229.546 56.1707 227.589 58.5969 227.589ZM54.5471 231.546C54.5473 231.546 54.5458 231.549 54.5426 231.552C54.5455 231.549 54.5471 231.546 54.5471 231.546ZM17.1633 280.526C17.1637 280.526 17.1718 280.529 17.1866 280.535C17.1704 280.53 17.163 280.526 17.1633 280.526ZM18.349 283.949C18.3412 283.965 18.3363 283.973 18.3359 283.973C18.3355 283.973 18.3394 283.965 18.349 283.949Z" fill="black"/>
<path fill-rule="evenodd" clip-rule="evenodd" d="M142.638 316.365C145.115 316.365 147.123 318.373 147.123 320.849C147.123 341.56 150.279 358.874 156.147 378.2C156.148 378.2 156.148 378.198 156.149 378.198C156.69 377.461 157.156 376.778 157.66 376.039C158.036 375.487 158.433 374.904 158.899 374.244C164.364 366.506 171.198 360.13 177.608 354.152C177.812 353.961 178.016 353.771 178.22 353.58C184.927 347.321 191.119 341.45 195.797 334.435C197.172 332.374 199.956 331.817 202.017 333.191C204.078 334.564 204.636 337.349 203.262 339.41C197.916 347.425 190.951 353.969 184.342 360.135C184.226 360.245 184.109 360.353 183.993 360.461C177.391 366.62 171.152 372.444 166.228 379.416C165.947 379.816 165.606 380.313 165.241 380.846C164.636 381.73 163.963 382.713 163.381 383.504C162.425 384.805 161.135 386.435 159.599 387.539C158.798 388.116 157.661 388.748 156.241 388.942C154.689 389.153 153.156 388.789 151.844 387.909C149.607 386.409 148.45 383.712 147.692 381.23C141.539 361.068 138.152 342.762 138.152 320.849C138.152 318.373 140.161 316.365 142.638 316.365ZM154.336 380.276C154.336 380.276 154.341 380.271 154.351 380.266C154.341 380.273 154.336 380.276 154.336 380.276ZM157.143 380.715C157.147 380.72 157.149 380.723 157.148 380.723C157.148 380.723 157.147 380.72 157.143 380.715Z" fill="black"/>
<path fill-rule="evenodd" clip-rule="evenodd" d="M288.024 296.147C290.082 294.752 292.861 295.317 294.233 297.409C298.657 304.161 301.971 311.591 304.97 318.857C305.717 320.665 306.44 322.455 307.156 324.224C309.367 329.69 311.502 334.968 313.989 340.026C317.209 346.58 319.674 351.876 319.674 360.196C319.674 360.319 319.674 360.469 319.675 360.635C319.678 361.163 319.683 361.873 319.661 362.506C319.634 363.286 319.556 364.554 319.152 365.742C318.941 366.356 318.535 367.29 317.706 368.112C316.763 369.048 315.474 369.632 314.032 369.631C312.752 369.629 311.711 369.168 311.02 368.764C310.305 368.344 309.666 367.813 309.105 367.274C305.855 364.153 301.897 362.009 297.27 359.722C296.758 359.468 296.238 359.213 295.707 358.954C291.617 356.949 287.047 354.71 282.899 351.577C282.062 350.944 280.986 350.084 279.958 349.264C279.166 348.631 278.401 348.021 277.801 347.558C276.123 346.265 274.593 345.198 273.144 344.462C270.376 343.055 267.581 341.139 265.078 339.423C264.107 338.758 263.181 338.122 262.316 337.559C258.956 335.365 255.966 333.807 252.793 333.312C250.348 332.929 248.673 330.603 249.049 328.119C249.425 325.633 251.711 323.929 254.154 324.31C259.237 325.106 263.521 327.525 267.15 329.893C268.409 330.715 269.555 331.501 270.639 332.245C272.914 333.807 274.922 335.184 277.147 336.316C279.346 337.434 281.399 338.905 283.209 340.301C284.207 341.071 284.993 341.7 285.73 342.294C286.548 342.951 287.307 343.563 288.239 344.267C291.658 346.849 295.421 348.699 299.593 350.747C300.119 351.006 300.649 351.266 301.185 351.532C304.225 353.035 307.447 354.689 310.528 356.82C310.019 352.573 308.49 349.206 305.979 344.099C303.332 338.713 301.021 333 298.782 327.464C298.088 325.748 297.402 324.05 296.715 322.383C293.754 315.21 290.708 308.451 286.782 302.461C285.41 300.369 285.966 297.542 288.024 296.147Z" fill="black"/>
<path fill-rule="evenodd" clip-rule="evenodd" d="M324.251 199.354C325.365 197.181 328.076 196.3 330.305 197.386C339.64 201.935 348.3 207.955 356.665 213.771C357.306 214.216 357.945 214.66 358.583 215.104C367.666 221.404 376.492 227.357 386.12 231.526C386.508 231.694 387.104 231.909 387.99 232.228C388.212 232.309 388.453 232.396 388.712 232.49C389.897 232.919 391.341 233.453 392.731 234.068C394.076 234.662 395.621 235.439 396.896 236.415C397.976 237.243 400 239.078 400 241.945C400 243.336 399.651 244.728 398.84 245.971C398.04 247.194 396.961 248.016 395.9 248.555C393.928 249.56 391.666 249.77 389.979 249.807C388.186 249.849 386.344 249.696 384.916 249.57L384.827 249.562C383.232 249.422 382.429 249.351 382.024 249.37C378.978 249.519 375.934 249.988 372.593 250.503C372.239 250.558 371.883 250.613 371.523 250.669C367.86 251.229 363.865 251.801 359.745 251.801H325.799C323.306 251.801 321.285 249.832 321.285 247.402C321.285 244.973 323.306 243.004 325.799 243.004H359.745C363.084 243.004 366.453 242.541 370.12 241.979C370.48 241.924 370.845 241.868 371.213 241.811C374.479 241.304 378.013 240.759 381.573 240.584C382.662 240.531 384.127 240.663 385.295 240.77C385.446 240.785 385.592 240.797 385.732 240.809C385.749 240.81 385.769 240.812 385.788 240.814C385.714 240.788 385.64 240.76 385.568 240.735C385.385 240.668 385.197 240.601 385.006 240.531C384.1 240.207 383.134 239.858 382.453 239.564C371.891 234.99 362.386 228.538 353.348 222.269C352.747 221.851 352.148 221.436 351.55 221.02C343.052 215.115 334.945 209.481 326.268 205.255C324.04 204.169 323.136 201.526 324.251 199.354ZM391.518 243.508C391.515 243.508 391.488 243.483 391.447 243.437C391.5 243.483 391.521 243.508 391.518 243.508Z" fill="black"/>
<path fill-rule="evenodd" clip-rule="evenodd" d="M276.305 101.415C276.305 98.8921 278.33 96.8467 280.828 96.8467H367.529C368.377 96.8467 369.349 96.9227 370.3 97.2226C371.262 97.5261 372.562 98.1798 373.453 99.5797C374.372 101.025 374.388 102.528 374.203 103.561C374.03 104.532 373.646 105.332 373.355 105.859C372.774 106.907 371.956 107.917 371.395 108.597C371.222 108.807 371.066 108.996 370.923 109.168C370.497 109.681 370.192 110.047 369.948 110.389C366.994 114.519 363.558 118.609 360.266 122.525C358.345 124.813 356.472 127.041 354.775 129.183C353.249 131.11 351.9 133.105 350.443 135.261C349.916 136.042 349.373 136.845 348.803 137.673C346.738 140.67 344.403 143.847 341.458 146.657C340.93 147.16 340.396 147.655 339.863 148.15C338.385 149.522 336.91 150.891 335.563 152.43C333.697 154.562 332.856 156.195 332.729 157.347C332.454 159.854 330.216 161.661 327.733 161.383C325.249 161.104 323.46 158.845 323.736 156.337C324.184 152.271 326.623 148.847 328.782 146.379C330.473 144.447 332.467 142.598 334.011 141.168C334.469 140.743 334.886 140.356 335.244 140.014C337.487 137.875 339.392 135.333 341.373 132.456C341.84 131.779 342.319 131.071 342.809 130.344C344.321 128.108 345.948 125.697 347.709 123.475C349.778 120.863 351.802 118.462 353.775 116.121C356.603 112.764 359.326 109.533 361.929 105.984H280.828C278.33 105.984 276.305 103.939 276.305 101.415Z" fill="black"/>
<path fill-rule="evenodd" clip-rule="evenodd" d="M193.572 85.3198C193.572 74.7482 202.094 66.1782 212.606 66.1782C222.884 66.1782 231.477 67.2635 241.519 69.9901C242.012 70.1239 242.516 70.26 243.034 70.3991C247.76 71.6735 253.435 73.204 259.19 75.4682C266.762 78.4482 272.12 82.7887 276.263 86.479C276.95 87.0921 277.76 87.7887 278.656 88.5612C282.974 92.2829 289.336 97.7645 294.142 104.137C300.542 112.62 307.734 122.445 312.981 134.454C313.439 135.502 313.994 136.723 314.608 138.069C316.533 142.294 319.016 147.749 320.777 152.923C322.057 156.688 323.048 160.365 323.879 163.522C324.018 164.059 324.155 164.577 324.287 165.081C324.974 167.71 325.554 169.925 326.226 172.14C328.595 179.95 329.406 188.715 329.97 194.816C330.099 196.199 330.214 197.447 330.332 198.516C331.029 204.825 331.885 215.64 327.892 226.014C324.775 234.113 322.433 243.254 320.55 252.719C317.249 269.314 306.936 284.036 293.662 293.112C293.612 293.148 293.561 293.182 293.509 293.217C291.806 297.146 289.529 300.558 287.217 303.313C283.341 307.933 277.93 312.42 271.421 314.936C270.335 315.356 269.341 315.663 268.542 315.886C267.742 316.11 267.003 316.286 266.428 316.418C266.051 316.504 265.644 316.593 265.316 316.665C264.804 317.03 264.338 317.335 263.945 317.582C262.764 318.323 261.663 318.896 260.9 319.277C260.293 319.582 259.638 319.892 259.252 320.074C259.175 320.111 259.109 320.142 259.056 320.168C258.817 320.281 258.698 320.339 258.658 320.36C254.908 322.428 249.733 324.975 243.916 326.437C240.06 327.407 236.549 327.349 234.778 327.292C233.826 327.262 233.249 327.236 232.876 327.215C231.45 328.024 230.126 328.6 229.05 329.013C227.151 329.743 225.381 330.206 224.08 330.508C222.873 330.787 221.696 331.01 220.947 331.153L220.79 331.182C220.365 331.263 220.086 331.318 219.848 331.366C219.647 331.407 219.567 331.426 219.567 331.426L219.574 331.425C214.504 332.7 208.814 332.519 207.148 332.467C206.95 332.461 206.809 332.456 206.733 332.456C201.741 332.456 197.369 331.084 195.635 330.538C195.511 330.5 195.4 330.464 195.304 330.435C194.745 330.264 194.364 330.154 194.125 330.087C187.339 329.99 180.912 328.766 175.204 327.125C170.219 325.693 166.56 323.419 164.186 321.817C162.907 320.954 162.192 320.447 161.7 320.097C161.265 319.788 161.003 319.603 160.679 319.404C160.504 319.338 160.149 319.206 159.816 319.078C158.682 318.642 156.062 317.632 153.253 315.648C149.103 315.183 145.145 314.231 143.054 313.705C130.997 310.674 124.951 304.216 120.393 299.346C120.094 299.026 119.801 298.713 119.513 298.41C118.396 297.226 117.539 296.106 116.939 295.275C116.452 294.599 116.007 293.929 115.751 293.543C115.46 293.285 115.103 292.964 114.747 292.629C114.104 292.026 113.027 290.975 111.942 289.608C111.768 289.39 111.56 289.122 111.33 288.806C111.24 288.741 111.146 288.673 111.053 288.604C109.445 287.422 108.252 286.196 107.432 285.248C106.602 284.288 105.966 283.392 105.517 282.717C105.132 282.138 104.811 281.607 104.565 281.185C103.273 279.813 102.315 278.438 101.622 277.268C100.296 275.031 99.5928 272.966 99.2496 271.872C99.0606 271.268 98.9141 270.737 98.8196 270.387C98.8165 270.376 98.8135 270.364 98.8104 270.353C98.0487 268.747 97.3096 267.404 96.5457 266.24C93.8681 262.163 91.0038 257.442 88.5912 252.776C88.0042 251.641 87.2633 250.48 85.8742 248.304L85.6765 247.995C84.51 246.167 82.8083 243.496 81.3065 240.449C81.2027 240.297 81.0723 240.105 80.9398 239.906C80.5396 239.306 79.7717 238.126 79.0406 236.633C78.4797 235.488 77.7801 233.84 77.2916 231.787C76.3128 230.054 75.4933 228.291 74.9123 226.935C74.2284 225.339 72.5907 221.412 72.1378 217.314C71.2713 209.469 70.8141 201.731 70.8141 193.706C70.8141 193.47 70.8042 193.129 70.7732 192.374C70.7709 192.318 70.7685 192.259 70.7659 192.198C70.7394 191.559 70.6999 190.603 70.688 189.628C70.6631 187.603 70.707 183.982 71.8022 180.018C72.324 178.13 72.9386 176.225 73.4016 174.79C73.4819 174.541 73.5576 174.307 73.6275 174.089C74.1682 172.403 74.4986 171.3 74.7202 170.361C74.7984 170.028 74.8925 169.586 75.0058 169.053C75.5584 166.458 76.5656 161.727 78.3985 157.221C81.2442 150.226 85.226 143.702 89.7597 138.091C91.9677 135.358 94.2501 132.753 96.2504 130.47L96.4909 130.196C98.6365 127.747 100.475 125.64 102.174 123.518C105.526 119.334 109.728 116.654 111.824 115.358C113.81 114.13 114.604 113.69 115.148 113.389C115.614 113.131 115.896 112.975 116.587 112.511C118.592 111.167 120.694 109.62 123.194 107.76C123.413 107.597 123.635 107.431 123.861 107.263C126.092 105.602 128.636 103.707 131.247 101.893C136.933 97.9429 144.276 93.3969 152.969 90.8589C157.07 89.6617 160.78 89.0797 164.301 88.8169C164.722 88.5988 165.095 88.4155 165.345 88.3054C165.855 88.1012 166.756 87.781 167.145 87.6584C167.962 87.4102 168.626 87.2706 168.955 87.2049C169.334 87.1298 169.646 87.08 169.85 87.0494C170.512 86.9505 171.043 86.9085 171.164 86.8992L171.173 86.8984C171.376 86.8824 171.54 86.8727 171.63 86.8675C171.945 86.8498 172.235 86.8407 172.349 86.8374C172.939 86.8193 173.882 86.8025 174.727 86.7918C175.512 86.7822 176.602 86.7725 177.358 86.7857L177.365 86.7859C177.516 86.7886 177.991 86.7968 178.536 86.8333C178.7 86.8443 178.969 86.8643 179.3 86.8993C179.543 86.925 180.245 87.0017 181.127 87.1823C181.545 87.2678 182.443 87.4638 183.541 87.8452C184.104 88.0399 184.982 88.3737 186.009 88.9021C186.452 89.1376 187.41 89.6997 187.92 90.0312C188.528 90.4568 189.821 91.4916 190.497 92.1108C192.3 93.8455 195.183 97.3328 196.1 102.709C196.335 104.717 196.174 108.705 195.792 110.642C195.281 112.336 193.937 115.316 193.153 116.598C192.439 117.598 190.989 119.285 190.277 119.984C189.676 120.52 188.529 121.428 187.991 121.807C186.762 122.642 185.683 123.164 185.032 123.453C183.75 124.023 182.687 124.322 182.24 124.442C181.692 124.589 181.241 124.684 180.963 124.738C180.594 124.81 180.275 124.862 180.041 124.896C179.363 125.157 178.169 125.601 176.793 125.977C175.074 126.447 172.761 126.906 170.023 126.906C166.886 126.906 165.329 127.114 163.583 127.624C160.791 128.439 157.453 130.217 152.887 133.39C150.817 134.828 148.77 136.352 146.452 138.077C146.249 138.228 146.044 138.381 145.838 138.535C143.379 140.364 140.584 142.434 137.704 144.365C136.397 145.241 135.066 146.023 134.157 146.554C133.948 146.677 133.754 146.79 133.573 146.895C132.831 147.328 132.302 147.637 131.763 147.97C131.502 148.131 131.304 148.259 131.156 148.358C129.061 150.931 126.934 153.359 125.055 155.504L125.022 155.542C122.868 158 121.026 160.102 119.306 162.232C116.926 165.176 114.947 168.487 113.633 171.715C113.172 172.848 113.046 173.429 112.678 175.129C112.477 176.057 112.204 177.318 111.764 179.184C111.166 181.724 110.425 184.076 109.859 185.839C109.752 186.173 109.652 186.484 109.557 186.78C109.234 187.784 108.978 188.576 108.757 189.315C108.764 189.672 108.781 190.087 108.81 190.792L108.811 190.82C108.839 191.512 108.883 192.585 108.883 193.706C108.883 199.757 109.201 205.636 109.822 211.664C109.839 211.703 109.855 211.742 109.873 211.784C110.039 212.171 110.208 212.523 110.333 212.767C110.336 212.772 110.338 212.775 110.34 212.78C112.193 215.572 113.221 218.235 113.829 220.501C113.943 220.684 114.062 220.881 114.185 221.089C114.514 221.649 114.917 222.38 115.32 223.249C115.716 224.103 116.358 225.192 117.713 227.315C117.827 227.492 117.949 227.683 118.078 227.884C119.227 229.678 120.924 232.325 122.367 235.114C124.005 238.282 126.137 241.83 128.313 245.144C130.635 248.679 132.435 252.204 133.902 255.45C134.249 256.218 134.516 256.921 134.714 257.492C135.023 257.902 135.281 258.272 135.487 258.578C135.735 258.946 135.97 259.319 136.182 259.668C136.247 259.719 136.311 259.769 136.372 259.818C137.079 260.383 138.221 261.33 139.378 262.539C139.965 263.153 140.797 264.084 141.637 265.288C141.722 265.411 141.814 265.545 141.911 265.692C141.929 265.708 141.948 265.724 141.966 265.74C142.239 265.987 142.657 266.37 143.118 266.833C144.334 268.056 145.261 269.228 145.913 270.111C146.519 270.933 147.037 271.717 147.308 272.127L147.336 272.169C147.442 272.329 147.515 272.44 147.577 272.532C147.673 272.634 147.765 272.732 147.855 272.828C148.786 273.815 149.419 274.485 150.046 275.113C150.751 275.817 151.088 276.095 151.231 276.204C151.264 276.23 151.285 276.245 151.296 276.251M130.798 148.608C130.8 148.606 130.804 148.604 130.807 148.601C130.785 148.619 130.781 148.621 130.798 148.608ZM76.893 229.665C76.8932 229.663 76.8962 229.681 76.902 229.72C76.8957 229.684 76.8928 229.665 76.893 229.665ZM98.6305 269.677C98.6312 269.678 98.632 269.682 98.6326 269.683C98.5839 269.524 98.5831 269.501 98.6305 269.677ZM112.702 289.802C112.742 289.834 112.735 289.829 112.691 289.792C112.695 289.795 112.699 289.798 112.702 289.802ZM263.848 317.004C263.847 317.004 263.855 317.003 263.872 316.998C263.858 317.001 263.851 317.003 263.848 317.004ZM193.572 85.3198C193.572 95.8914 202.094 104.461 212.606 104.461L193.572 85.3198ZM212.606 104.461C219.675 104.461 224.923 105.138 231.596 106.95L212.606 104.461ZM231.596 106.95C232.049 107.073 232.491 107.193 232.923 107.309L231.596 106.95ZM232.923 107.309C237.982 108.68 241.63 109.668 245.318 111.119L232.923 107.309ZM245.318 111.119C246.69 111.659 248.073 112.511 251.021 115.137L245.318 111.119ZM251.021 115.137C252.632 116.573 254.051 117.808 255.316 118.909L251.021 115.137ZM255.316 118.909C259.243 122.327 261.686 124.454 263.813 127.275L255.316 118.909ZM263.813 127.275C270.141 135.661 274.854 142.358 278.128 149.854L263.813 127.275ZM278.128 149.854C279.106 152.093 279.977 154.002 280.761 155.724L278.128 149.854ZM280.761 155.724C282.391 159.301 283.654 162.072 284.756 165.315L280.761 155.724ZM284.756 165.315C285.565 167.693 286.266 170.238 287.074 173.308L284.756 165.315ZM287.074 173.308C287.188 173.742 287.305 174.193 287.427 174.658L287.074 173.308ZM287.427 174.658C288.112 177.276 288.905 180.318 289.814 183.311L287.427 174.658ZM289.814 183.311C290.947 187.046 291.296 190.67 291.821 196.117L289.814 183.311ZM291.821 196.117C292.009 198.064 292.219 200.243 292.496 202.743L291.821 196.117ZM292.496 202.743C293.125 208.439 292.799 211.13 292.39 212.194L292.496 202.743ZM292.39 212.194C288.187 223.113 285.331 234.596 283.22 245.212L292.39 212.194ZM283.22 245.212C282.012 251.286 277.925 257.45 272.565 261.242L283.22 245.212ZM272.565 261.242C272.505 261.274 272.428 261.314 272.337 261.364C272.296 261.387 272.245 261.413 272.187 261.445C271.699 261.705 270.632 262.276 269.615 262.896C268.515 263.569 266.46 264.891 264.452 266.923C262.537 268.862 259.553 272.571 258.5 278.112C258.486 278.135 258.471 278.159 258.454 278.183C258.367 278.314 258.256 278.464 258.123 278.622C257.991 278.78 257.851 278.929 257.712 279.063C257.67 279.103 257.63 279.14 257.591 279.174C256.968 279.311 255.745 279.583 255.045 279.754C253.753 280.072 251.736 280.614 249.559 281.55C247.842 282.288 245.61 283.445 243.371 285.279L242.778 285.56C242.504 285.69 242.147 285.862 241.771 286.049C241.395 286.236 240.921 286.478 240.404 286.764C238.383 287.881 236.793 288.604 235.612 289.014C235.406 289.006 235.18 288.993 234.876 288.977C234.72 288.969 234.545 288.959 234.343 288.948C233.647 288.912 232.563 288.857 231.402 288.857C231.337 288.857 231.268 288.857 231.194 288.857C229.62 288.854 226.231 288.849 222.656 289.782C219.422 290.626 216.822 291.982 214.74 293.369C214.465 293.424 214.134 293.487 213.708 293.567C213.305 293.645 212.78 293.745 212.248 293.853C211.81 293.943 211.284 294.056 210.716 294.192C210.651 294.195 210.568 294.198 210.459 294.202C210.133 294.208 209.729 294.206 209.077 294.198C208.973 294.197 208.855 294.195 208.727 294.192C208.409 294.187 208.028 294.182 207.626 294.177C207.382 294.11 207.002 294 206.452 293.83C206.357 293.801 206.25 293.767 206.129 293.73C204.367 293.178 200.001 291.81 194.986 291.81C192.37 291.81 189.35 291.35 185.985 290.407C185.869 290.337 185.678 290.216 185.397 290.026C185.122 289.842 184.82 289.632 184.399 289.337L184.248 289.23C183.884 288.975 183.422 288.652 182.953 288.331C181.85 287.574 180.401 286.615 178.68 285.655C177.218 284.838 175.904 284.285 175.053 283.946C174.724 283.815 174.417 283.697 174.174 283.607C172.595 282.506 170.921 281.545 169.54 280.837C168.481 280.294 167.109 279.649 165.572 279.092C164.484 278.698 161.5 277.652 157.783 277.634" fill="#FCFF56"/>
<path fill-rule="evenodd" clip-rule="evenodd" d="M242.938 208.22C245.396 208.22 247.39 210.226 247.39 212.702C247.39 224.346 244.842 236.05 238.943 246.542C234.888 253.754 229.107 261.417 222.003 267.33C214.906 273.238 206.199 277.626 196.426 277.626C190.32 277.626 185.125 274.711 181.179 270.949C177.239 267.191 174.257 262.336 172.445 257.691C167.724 245.591 167.068 233.242 167.068 221.165C167.068 218.689 169.062 216.681 171.52 216.681C173.978 216.681 175.971 218.689 175.971 221.165C175.971 233.022 176.652 243.956 180.731 254.412C182.14 258.025 184.445 261.714 187.301 264.439C190.153 267.159 193.268 268.66 196.426 268.66C203.472 268.66 210.236 265.493 216.331 260.42C222.419 255.352 227.549 248.611 231.195 242.124C236.227 233.177 238.487 223.042 238.487 212.702C238.487 210.226 240.48 208.22 242.938 208.22Z" fill="black"/>
<path fill-rule="evenodd" clip-rule="evenodd" d="M220.385 156.568C222.879 156.568 224.9 158.573 224.9 161.045C224.9 165.556 224.746 170.074 224.593 174.493V174.503C224.441 178.953 224.291 183.303 224.291 187.601C224.291 190.074 222.271 192.079 219.777 192.079C217.283 192.079 215.262 190.074 215.262 187.601C215.262 183.146 215.416 178.665 215.567 174.264L215.569 174.199C215.721 169.751 215.871 165.381 215.871 161.045C215.871 158.573 217.891 156.568 220.385 156.568Z" fill="black"/>
<path fill-rule="evenodd" clip-rule="evenodd" d="M189.558 161.411C192.219 161.411 194.377 163.399 194.377 165.851V184.41C194.377 186.862 192.219 188.85 189.558 188.85C186.896 188.85 184.738 186.862 184.738 184.41V165.851C184.738 163.399 186.896 161.411 189.558 161.411Z" fill="black"/>
<path fill-rule="evenodd" clip-rule="evenodd" d="M151.849 77.4054C162.711 72.8361 174.382 69.4062 184.487 69.4062C198.915 69.4062 212.623 70.9338 226.62 72.612C238.054 73.9827 251.348 78.9702 263.171 86.0298C264.226 86.6596 265.272 87.3082 266.31 87.9749C266.342 87.9396 266.376 87.9047 266.411 87.8702C268.164 86.105 271.005 86.105 272.758 87.8702C276.332 91.4709 280.413 94.8991 284.753 98.4563C285.399 98.9849 286.051 99.5169 286.707 100.053C290.409 103.077 294.257 106.217 297.894 109.527C306.477 117.334 314.459 126.562 317.878 139.065C319.428 144.737 321.391 150.09 323.415 155.608C324.037 157.304 324.663 159.014 325.287 160.755C327.895 168.044 330.353 175.681 331.471 184.018C334.191 204.284 331.37 227.206 326.405 246.464C321.46 265.635 309.505 284.793 297.206 299.501C284.464 314.739 267.328 332.207 246.617 338.528C224.654 345.23 197.927 341.701 177.047 336.194C172.016 334.867 167.393 332.791 163.071 330.616C161.091 329.618 159.289 328.663 157.535 327.733C155.23 326.511 153.005 325.333 150.561 324.154C148.439 323.133 146.276 322.121 144.09 321.097C133.111 315.956 121.55 310.544 111.656 302.291C77.6611 273.94 58.988 235.732 59.4457 191.48C59.8915 148.388 90.1895 115.218 122.411 93.3488C130.37 87.9475 140.906 82.0092 151.849 77.4054ZM292.323 116.641C292.006 117.707 291.301 118.658 290.27 119.26C288.125 120.511 285.38 119.773 284.138 117.613C279.092 108.837 269.645 100.404 258.594 93.8058C247.572 87.2252 235.468 82.7765 225.56 81.5884C211.558 79.9099 198.326 78.4461 184.487 78.4461C176.131 78.4461 165.751 81.3545 155.309 85.7468C144.949 90.1051 134.932 95.7522 127.428 100.845C96.0677 122.129 68.8207 152.966 68.4215 191.573C67.9935 232.938 85.3431 268.61 117.381 295.33C126.302 302.769 136.62 307.611 147.577 312.754C149.838 313.814 152.125 314.888 154.434 316C156.892 317.183 159.51 318.566 162.034 319.9C163.793 320.829 165.505 321.733 167.086 322.531C171.193 324.598 175.174 326.354 179.32 327.449C199.687 332.821 224.448 335.847 244.014 329.876C261.998 324.387 277.677 308.822 290.34 293.677C302.159 279.544 313.232 261.58 317.717 244.192C322.499 225.647 325.091 203.963 322.576 185.228C321.59 177.871 319.399 170.968 316.842 163.82C316.271 162.227 315.678 160.611 315.078 158.973C313.028 153.386 310.887 147.545 309.224 141.465C306.528 131.605 300.221 123.897 292.323 116.641Z" fill="black"/>
</g>
<defs>
<clipPath id="clip0_587_6832">
<rect width="400" height="389" fill="white"/>
</clipPath>
</defs>
</svg>
